<svg xmlns="http://www.w3.org/2000/svg" viewBox="0 0 22.2 22.3">
  <g id="a966f0bb-bdac-4f61-a926-6d420895a72f" data-name="Layer 2">
    <g id="ace7fa77-00b0-4775-8d7b-6defa46178a4" data-name="Layer 1">
      <g id="a5434053-8f7c-4b91-aba5-32db2909e471" data-name="ae7dbcbb-61ab-44b4-b049-885e476fac9a">
        <g id="e446f7b3-7116-4ab9-9e14-239cf6f06188" data-name="b3e171b5-24cf-4037-9996-902d8bc56b4f">
          <g>
            <g>
              <path d="M11.1,20.7a9.5,9.5,0,0,1-9.6-9.5,9.8,9.8,0,0,1,9.6-9.7h0a9.6,9.6,0,0,1,0,19.2h0Z" fill="#7da7d9"/>
              <path d="M11.1,3.1a8.1,8.1,0,0,1,0,16.1h0a8.1,8.1,0,0,1,0-16.1h0m0-3.1h0a11.2,11.2,0,0,0,0,22.3h0A11.2,11.2,0,0,0,11.1,0Z" fill="#4b5faa"/>
            </g>
            <circle cx="11.1" cy="11.1" r="8" fill="#ffcb05"/>
          </g>
        </g>
      </g>
    </g>
  </g>
</svg>
