<svg xmlns="http://www.w3.org/2000/svg" viewBox="0 0 631.7 389.3">
  <g id="faab5e72-7464-4a60-954c-7feae5512c11" data-name="Layer 2">
    <g id="afb42cab-54d7-48bd-ac6c-3dd6166f17f2" data-name="Layer 1">
      <g>
        <path d="M339,192.5a18.1,18.1,0,0,0-4.4-12,13.6,13.6,0,0,0-21,0,25.4,25.4,0,0,1-19.4,8.9c-7.4,0-14.4-3.4-19.7-9.4a13.7,13.7,0,0,0-21.1,0,18.5,18.5,0,0,0,0,23.8c10.9,12.4,25.3,19.2,40.6,19.4s29.8-6.6,40.6-18.8A18.1,18.1,0,0,0,339,192.5Z" fill="#4b5eaa"/>
        <path d="M144.6,358.5a18,18,0,0,0-4.3-11.9,13.7,13.7,0,0,0-21.1,0,25.2,25.2,0,0,1-19.3,8.9,26.5,26.5,0,0,1-19.8-9.4,13.6,13.6,0,0,0-21,0,18.3,18.3,0,0,0-.1,23.8c10.9,12.4,25.4,19.2,40.7,19.4s29.8-6.6,40.6-18.8A18,18,0,0,0,144.6,358.5Z" fill="#4b5eaa"/>
        <path d="M214.7,235.1a18,18,0,0,0-4.3-11.9c-5.9-6.6-15.3-6.6-21.1,0a25.2,25.2,0,0,1-19.3,8.9,26.7,26.7,0,0,1-19.8-9.4c-5.8-6.6-15.2-6.6-21.1-.1a18.6,18.6,0,0,0,0,23.9c10.9,12.3,25.3,19.2,40.6,19.3s29.8-6.5,40.7-18.8A18,18,0,0,0,214.7,235.1Z" fill="#4b5eaa"/>
        <path d="M444,17.4a18.1,18.1,0,0,0-4.4-11.9,13.6,13.6,0,0,0-21,0,25.7,25.7,0,0,1-19.4,8.9A26.7,26.7,0,0,1,379.5,5c-5.8-6.6-15.3-6.7-21.1-.1a18.6,18.6,0,0,0,0,23.9C369.3,41.1,383.7,48,399,48.1s29.8-6.5,40.6-18.8A18.1,18.1,0,0,0,444,17.4Z" fill="#4b5eaa"/>
        <path d="M440.5,325.5a23,23,0,0,0-5.7-15.4c-7.5-8.5-19.7-8.5-27.2,0a32.6,32.6,0,0,1-25,11.5c-9.6-.1-18.7-4.4-25.5-12.2s-19.7-8.5-27.2,0a23.8,23.8,0,0,0-.1,30.8c14.1,15.9,32.7,24.8,52.5,25s38.6-8.5,52.5-24.3A23.1,23.1,0,0,0,440.5,325.5Z" fill="#4b5eaa"/>
        <path d="M535.8,152.1a18.8,18.8,0,0,0-4.6-12.6,14.4,14.4,0,0,0-22.1,0,26.5,26.5,0,0,1-20.3,9.4A28.2,28.2,0,0,1,468,139a14.3,14.3,0,0,0-22.1-.1,19.5,19.5,0,0,0,0,25.1c11.4,13,26.6,20.2,42.6,20.3s31.4-6.8,42.7-19.7A18.8,18.8,0,0,0,535.8,152.1Z" fill="#4b5eaa"/>
        <path d="M277.6,297.6a9.5,9.5,0,0,0-2.2-6.3,7.3,7.3,0,0,0-11.1,0,13.2,13.2,0,0,1-10.1,4.7,13.8,13.8,0,0,1-10.3-5,7.3,7.3,0,0,0-11.1,0,9.8,9.8,0,0,0,0,12.5,28.3,28.3,0,0,0,21.3,10.1,28,28,0,0,0,21.3-9.8A9.4,9.4,0,0,0,277.6,297.6Z" fill="#4b5eaa"/>
        <path d="M244.7,364.6a9.3,9.3,0,0,0-2.3-6.2,7.1,7.1,0,0,0-11,0,13.1,13.1,0,0,1-10.1,4.6,14.1,14.1,0,0,1-10.4-4.9,7.1,7.1,0,0,0-11,0,9.6,9.6,0,0,0,0,12.5,28.8,28.8,0,0,0,21.2,10.1,27.4,27.4,0,0,0,21.3-9.9A9.3,9.3,0,0,0,244.7,364.6Z" fill="#4b5eaa"/>
        <path d="M598.1,299.5a9.3,9.3,0,0,0-2.3-6.2,7.1,7.1,0,0,0-11,0,13.1,13.1,0,0,1-10.1,4.6,14.1,14.1,0,0,1-10.4-4.9,7.1,7.1,0,0,0-11,0,9.6,9.6,0,0,0,0,12.5,28.8,28.8,0,0,0,21.2,10.1c8.1.1,15.6-3.4,21.3-9.9A9.3,9.3,0,0,0,598.1,299.5Z" fill="#4b5eaa"/>
        <path d="M47.1,299.5a8.9,8.9,0,0,0-2.3-6.2,7.1,7.1,0,0,0-11,0,13.1,13.1,0,0,1-10.1,4.6A14.1,14.1,0,0,1,13.3,293a7.1,7.1,0,0,0-11,0,9.6,9.6,0,0,0,0,12.5,28.8,28.8,0,0,0,21.3,10.1,27.4,27.4,0,0,0,21.2-9.9A8.9,8.9,0,0,0,47.1,299.5Z" fill="#4b5eaa"/>
        <path d="M525.7,244.1a11.5,11.5,0,0,0-2.8-7.8,9,9,0,0,0-13.8,0,16.8,16.8,0,0,1-12.7,5.8,17.2,17.2,0,0,1-12.9-6.2,9,9,0,0,0-13.8,0,12.1,12.1,0,0,0,0,15.6c7.1,8.1,16.6,12.6,26.6,12.7s19.5-4.3,26.6-12.3A11.9,11.9,0,0,0,525.7,244.1Z" fill="#4b5eaa"/>
        <path d="M631.7,70.2a11.9,11.9,0,0,0-2.8-7.8,9,9,0,0,0-13.8,0,16.9,16.9,0,0,1-12.7,5.9,17.7,17.7,0,0,1-12.9-6.2,9,9,0,0,0-13.8,0,12.1,12.1,0,0,0,0,15.6,35.5,35.5,0,0,0,26.6,12.6c10,.1,19.5-4.3,26.6-12.3A11.7,11.7,0,0,0,631.7,70.2Z" fill="#4b5eaa"/>
        <path d="M389.5,117.7a11.6,11.6,0,0,0-2.9-7.8,8.9,8.9,0,0,0-13.8,0,16.5,16.5,0,0,1-12.6,5.8,17.2,17.2,0,0,1-12.9-6.2,9,9,0,0,0-13.8,0,12.1,12.1,0,0,0,0,15.6c7.1,8.1,16.5,12.6,26.5,12.7a34.7,34.7,0,0,0,26.6-12.3A12,12,0,0,0,389.5,117.7Z" fill="#4b5eaa"/>
      </g>
    </g>
  </g>
</svg>
