<svg xmlns="http://www.w3.org/2000/svg" viewBox="0 0 21.7 12.3">
  <g id="beee970a-332b-4aaf-b568-98b1c301aed8" data-name="Layer 2">
    <g id="a4f35d43-b2ab-4614-b8ea-468440ba5795" data-name="bar&amp;buttons">
      <g>
        <g>
          <path d="M13.3,10.7H.9a.8.8,0,0,0-.8.8.7.7,0,0,0,.8.8H13.3a.8.8,0,0,0,.9-.8A.9.9,0,0,0,13.3,10.7Z" fill="#4b5da8"/>
          <path d="M13.3,5.3H.9a.7.7,0,0,0-.8.8.8.8,0,0,0,.8.8H13.3a.9.9,0,0,0,.9-.8A.8.8,0,0,0,13.3,5.3Z" fill="#4b5da8"/>
          <path d="M20.6,0H.9A.9.9,0,0,0,0,.8a.8.8,0,0,0,.9.8H20.6a.8.8,0,0,0,.9-.8A.9.9,0,0,0,20.6,0Z" fill="#4b5da8"/>
        </g>
        <g>
          <path d="M21.7,7.7h0A2.1,2.1,0,0,0,21,6.2L18,3.6h0a1.6,1.6,0,0,0-1.6-.2,1.4,1.4,0,0,0-.8,1.3v3h0v3A1.5,1.5,0,0,0,18,11.9h0l3-2.6a2.1,2.1,0,0,0,.7-1.5h0Zm-1.5.7-3,2.6h-.3V4.7c0-.2.1-.2.1-.2h.3l3,2.6h0a.9.9,0,0,1,.3.6.9.9,0,0,1-.3.7Z" fill="#4b5da8"/>
          <path d="M20.2,8.4l-3,2.6h-.3V4.7c0-.2.1-.2.1-.2h.3l3,2.6h0a.9.9,0,0,1,.3.6.9.9,0,0,1-.3.7Z" fill="#ffc905"/>
        </g>
      </g>
    </g>
  </g>
</svg>
