<svg xmlns="http://www.w3.org/2000/svg" viewBox="0 0 19.5 18.3">
  <g id="a6a2b2b6-94ab-4d25-920d-cb6dafe28df5" data-name="Layer 2">
    <g id="a2710470-b291-4cdd-8f20-55e58612ec08" data-name="bar&amp;buttons">
      <path d="M17.3,11.4a5.1,5.1,0,0,0,0-4.4.5.5,0,0,0-.5-.3h-.3a.5.5,0,0,0-.2.8,3.4,3.4,0,0,1,.3,1.7,3.4,3.4,0,0,1-.3,1.5.7.7,0,0,0,.2.9h.3A.5.5,0,0,0,17.3,11.4Z" fill="#7da5d6"/>
      <g>
        <path d="M14.8,3.7a.6.6,0,0,0-.8.2L10.7,8.2h-.5l-.4.2L6.9,6.1a.5.5,0,0,0-.8.1.6.6,0,0,0,.1.8L9.1,9.2v.4a1.3,1.3,0,0,0,1.5,1.1,1.2,1.2,0,0,0,1.1-1.4c0-.2,0-.3-.1-.4l3.3-4.3a.6.6,0,0,0-.1-.9Z" fill="#4b5da7" fill-rule="evenodd"/>
        <g>
          <circle cx="10.4" cy="9.4" r="2.5" fill="#4b5da7"/>
          <circle cx="10.4" cy="9.4" r="1.6" fill="#ffc805"/>
        </g>
      </g>
      <g>
        <path d="M10.3,0A9.2,9.2,0,0,0,1.5,6.7L1.2,8.1v.3H.3c-.2,0-.4.2-.3.4l1.1,2.1a.5.5,0,0,0,.7.1L3.3,9.2c.2-.2.1-.5-.1-.5H2.3V8.3h0a9.4,9.4,0,0,1,.4-1.6h0a7.9,7.9,0,0,1,7.5-5.5,7.9,7.9,0,0,1,8,7.9,8,8,0,0,1-8,8,7.8,7.8,0,0,1-6.9-4.2l-1.1.6a9.3,9.3,0,0,0,8,4.8A9.2,9.2,0,1,0,10.3,0Z" fill="#4b5da7"/>
        <circle cx="2.8" cy="13.2" r="0.6" fill="#4b5da7"/>
      </g>
    </g>
  </g>
</svg>
