<svg xmlns="http://www.w3.org/2000/svg" xmlns:xlink="http://www.w3.org/1999/xlink" viewBox="0 0 81.9 81.9">
  <defs>
    <linearGradient id="bd52d1bb-ac0e-4a4e-8d12-52a7b50f6462" x1="6.54" y1="40.96" x2="75.38" y2="40.96" gradientUnits="userSpaceOnUse">
      <stop offset="0" stop-color="#eba520"/>
      <stop offset="0.28" stop-color="#f4b414"/>
      <stop offset="0.67" stop-color="#fcc309"/>
      <stop offset="1" stop-color="#ffc805"/>
    </linearGradient>
  </defs>
  <g id="f44f0d2c-a822-4ae6-8752-10ad53421160" data-name="Layer 2">
    <g id="f03cd539-2a9f-4ba3-8235-cc9e48281e31" data-name="bar&amp;buttons">
      <g>
        <g>
          <circle cx="41" cy="41" r="41" fill="#4b5da7"/>
          <circle cx="41" cy="41" r="34.4" fill="#7da4d5"/>
        </g>
        <g>
          <circle cx="41" cy="41" r="34.4" fill="url(#bd52d1bb-ac0e-4a4e-8d12-52a7b50f6462)"/>
          <g>
            <path d="M33.8,19.3H25a5.6,5.6,0,0,0-5.7,5.6V40.2H17.6a9.1,9.1,0,1,0,0,18.2,9.1,9.1,0,0,0,9.1-9.1,7.8,7.8,0,0,0-.7-3.5h7.8A5.7,5.7,0,0,0,39.4,40V24.9A5.6,5.6,0,0,0,33.8,19.3Z" fill="#333"/>
            <path d="M48.1,19.3H57a5.6,5.6,0,0,1,5.6,5.6V40.2h1.7a9.1,9.1,0,1,1,0,18.2,9.1,9.1,0,0,1-9.1-9.1,7.8,7.8,0,0,1,.7-3.5H48.1A5.7,5.7,0,0,1,42.5,40V24.9A5.6,5.6,0,0,1,48.1,19.3Z"/>
            <circle cx="40.6" cy="42.1" r="20.7" fill="#e8c9c4"/>
            <path d="M16.2,41.3a2.3,2.3,0,0,0,0,4.6h5V41.3Z" fill="#e8c9c4"/>
            <circle cx="20.4" cy="43.6" r="0.8" fill="#7da4d5"/>
            <path d="M65.7,41.3a2.3,2.3,0,0,1,0,4.6H60.6V41.3Z" fill="#e8c9c4"/>
            <circle cx="61.4" cy="43.6" r="0.8" fill="#4b5da7"/>
            <g>
              <path d="M47.4,41.5h0a2.1,2.1,0,0,0,2.1,2.1,2.1,2.1,0,0,0,2.1-2.1h0V36.1h0a2.1,2.1,0,0,0-4.2,0h0Z"/>
              <ellipse cx="49.5" cy="41.2" rx="1.6" ry="1.6" fill="#fff"/>
              <path d="M30.3,41.5h0a2.1,2.1,0,0,0,2.1,2.1,2.1,2.1,0,0,0,2.1-2.1h0V36.1h-.1a2,2,0,0,0-2-1.9,2.1,2.1,0,0,0-2.1,1.9h0Z"/>
              <ellipse cx="32.4" cy="41.2" rx="1.6" ry="1.6" fill="#fff"/>
            </g>
            <g>
              <circle cx="27.6" cy="49.4" r="3.1" fill="#deaba4"/>
              <circle cx="53" cy="49.4" r="3.1" fill="#deaba4"/>
              <path d="M37.6,46.7V49h3V43.4A3.2,3.2,0,0,0,37.6,46.7Z" fill="#4b5da7"/>
              <path d="M43.7,46.7a3.2,3.2,0,0,0-3-3.3h-.1V49h3.1Z" fill="#7da4d5"/>
              <path d="M58.6,32.4A1.6,1.6,0,0,0,57,30.8H53.5a7.8,7.8,0,0,0-4.3-1.3A8.5,8.5,0,1,0,57.7,38a8,8,0,0,0-1.1-4H57A1.6,1.6,0,0,0,58.6,32.4ZM49.2,44.2A6.2,6.2,0,0,1,43,38a6.2,6.2,0,0,1,12.3,0A6.2,6.2,0,0,1,49.2,44.2Z" fill="#7670b0"/>
              <path d="M24.3,34h.4a8,8,0,0,0-1.1,4,8.5,8.5,0,1,0,8.5-8.5,8.4,8.4,0,0,0-4.4,1.3H24.3a1.6,1.6,0,0,0,0,3.2ZM26,38a6.1,6.1,0,0,1,6.1-6.1A6.1,6.1,0,0,1,38.3,38a6.2,6.2,0,0,1-6.2,6.2A6.1,6.1,0,0,1,26,38Z" fill="#7670b0"/>
              <g>
                <path d="M29.2,49a3.2,3.2,0,1,0,0,6.3H40.6V49Z" fill="#edeced"/>
                <path d="M52.1,49H40.6v6.3H52.1a3.2,3.2,0,1,0,0-6.3Z" fill="#fff"/>
                <rect x="29.1" y="51.8" width="23.2" height="0.66" fill="#7da4d5"/>
                <path d="M52,49.4a.1.1,0,0,0-.1.1,2.7,2.7,0,0,0,0,5.3H52a2.7,2.7,0,0,0,0-5.4Z" fill="#edeced"/>
              </g>
            </g>
            <line x1="51.3" y1="36.5" x2="52.7" y2="36.5" fill="none" stroke="#000" stroke-linecap="round" stroke-linejoin="round" stroke-width="1.09"/>
            <line x1="51.3" y1="37.7" x2="52.7" y2="37.7" fill="none" stroke="#000" stroke-linecap="round" stroke-linejoin="round" stroke-width="1.09"/>
            <line x1="29" y1="36.5" x2="30.5" y2="36.5" fill="none" stroke="#000" stroke-linecap="round" stroke-linejoin="round" stroke-width="1.09"/>
            <line x1="29" y1="37.7" x2="30.5" y2="37.7" fill="none" stroke="#000" stroke-linecap="round" stroke-linejoin="round" stroke-width="1.09"/>
          </g>
          <path d="M31.4,19.3h0c-4.2.3-7.5,3.2-7.5,6.6s3.8,6.7,8.4,6.7,8.2-2.9,8.3-6.5h0V19.3Z" fill="#333"/>
          <path d="M49.8,19.3h0c4.2.3,7.5,3.2,7.5,6.6s-3.7,6.7-8.4,6.7-8.1-2.9-8.3-6.5h0V19.3Z"/>
          <path d="M50.4,28.9H48.6a.7.7,0,0,0-.7.7.7.7,0,0,0,.7.8h1.8a.7.7,0,0,0,.7-.8A.7.7,0,0,0,50.4,28.9Z" fill="#333"/>
          <path d="M33.2,28.9H31.5a.8.8,0,0,0-.8.7.8.8,0,0,0,.8.8h1.7a.7.7,0,0,0,.8-.8A.7.7,0,0,0,33.2,28.9Z"/>
        </g>
      </g>
    </g>
  </g>
</svg>
