<svg xmlns="http://www.w3.org/2000/svg" viewBox="0 0 194.94 75.51"><defs><style>.cls-1{fill:#4b5da6;}.cls-2{fill:#7da3d4;}.cls-3{fill:#ffc705;}</style></defs><g id="Layer_2" data-name="Layer 2"><g id="bar_buttons" data-name="bar&amp;buttons"><path class="cls-1" d="M81.29,31.2a11.76,11.76,0,0,0-3.06-2.07,8.59,8.59,0,0,0-3.7-.83,6.55,6.55,0,0,0-2.77.58,2.12,2.12,0,0,0,.13,3.93,31.15,31.15,0,0,0,4.52,1.29,25.12,25.12,0,0,1,3.68,1.09,13.32,13.32,0,0,1,3.35,1.87,9,9,0,0,1,2.41,2.84,8.24,8.24,0,0,1,.91,4A9.83,9.83,0,0,1,85.52,49a10,10,0,0,1-3.22,3.39,14,14,0,0,1-4.46,1.87,21.92,21.92,0,0,1-4.94.58,24.61,24.61,0,0,1-7.78-1.26,16.26,16.26,0,0,1-6.34-3.71l6-6.25a12.11,12.11,0,0,0,3.52,2.58,9.8,9.8,0,0,0,4.42,1,5.8,5.8,0,0,0,2.57-.61,2.19,2.19,0,0,0,1.27-2.16A2.31,2.31,0,0,0,75,42.29,27.87,27.87,0,0,0,70.1,40.8a25.17,25.17,0,0,1-3.38-1,10.79,10.79,0,0,1-3-1.74,8.55,8.55,0,0,1-2.18-2.71,8.13,8.13,0,0,1-.85-3.87,9.28,9.28,0,0,1,1.24-4.93,10.43,10.43,0,0,1,3.19-3.32,14.2,14.2,0,0,1,4.33-1.9,18.68,18.68,0,0,1,4.71-.61,22.77,22.77,0,0,1,7.13,1.13,15.49,15.49,0,0,1,5.89,3.38Z"/><path class="cls-1" d="M43,20.69A16.86,16.86,0,0,0,26.41,37.77,16.86,16.86,0,0,0,43,54.86,16.86,16.86,0,0,0,59.65,37.77,16.86,16.86,0,0,0,43,20.69ZM43,50a12.23,12.23,0,1,1,11.9-12.23A12.07,12.07,0,0,1,43,50Z"/><path class="cls-1" d="M16.62,50a12.23,12.23,0,0,1,0-24.46,11.65,11.65,0,0,1,7.64,2.86l3.19-3.58a16.25,16.25,0,0,0-10.83-4.13A16.86,16.86,0,0,0,0,37.77,16.86,16.86,0,0,0,16.62,54.86a16.27,16.27,0,0,0,10.84-4.15l-3-3.77A11.69,11.69,0,0,1,16.62,50Z"/><path class="cls-1" d="M184.06,54.79V0h10.88V54.79Z"/><path class="cls-1" d="M165.78,20.69H142a16.86,16.86,0,0,0-16.63,17.08A16.87,16.87,0,0,0,142,54.86h23.77A16.86,16.86,0,0,0,182.4,37.77,16.86,16.86,0,0,0,165.78,20.69Z"/><path class="cls-2" d="M165.8,25.54H142A12.23,12.23,0,0,1,142,50H165.8a12.23,12.23,0,0,0,0-24.46Z"/><path class="cls-2" d="M141.74,50h0Z"/><path class="cls-2" d="M141.74,25.55h0Z"/><path class="cls-1" d="M112.9,20.72v2.43a16.23,16.23,0,0,0-8.6-2.46A16.86,16.86,0,0,0,87.68,37.77,16.86,16.86,0,0,0,104.3,54.86a16.14,16.14,0,0,0,8.6-2.47V75.51h10.88V20.72Zm-7.5,24.77a7.72,7.72,0,1,1,7.5-7.72A7.62,7.62,0,0,1,105.4,45.49Z"/><ellipse class="cls-3" cx="142.01" cy="37.77" rx="11.9" ry="12.23"/></g></g></svg>