<svg xmlns="http://www.w3.org/2000/svg" viewBox="0 0 117.6 44.3">
  <g id="abd2b4ff-5811-4473-84b6-03f1ad043bf5" data-name="Layer 2">
    <g id="ac2bfab1-8931-4b8d-a6bc-a0ec4b36b077" data-name="bar&amp;buttons">
      <g>
        <path d="M49,18.3a5.7,5.7,0,0,0-1.8-1.2,5.4,5.4,0,0,0-2.2-.5,3.3,3.3,0,0,0-1.7.4,1.2,1.2,0,0,0-.8,1.1c0,.6.3.9.9,1.2l2.7.7,2.2.7a4.9,4.9,0,0,1,2,1.1,5.7,5.7,0,0,1,1.5,1.6,4.7,4.7,0,0,1,.5,2.4,5.6,5.6,0,0,1-.7,3,6.1,6.1,0,0,1-1.9,2A10.9,10.9,0,0,1,47,31.9a15.3,15.3,0,0,1-3,.3,14.9,14.9,0,0,1-4.7-.7,10.9,10.9,0,0,1-3.8-2.2l3.6-3.7a8,8,0,0,0,2.1,1.5,6,6,0,0,0,2.7.6,4,4,0,0,0,1.5-.3,1.4,1.4,0,0,0,.8-1.3,1.3,1.3,0,0,0-1-1.3,15.8,15.8,0,0,0-2.9-.8l-2-.7a5,5,0,0,1-1.9-1,5.3,5.3,0,0,1-1.3-1.6,5.1,5.1,0,0,1-.5-2.2,6.2,6.2,0,0,1,.7-2.9,6.4,6.4,0,0,1,2-2,7.6,7.6,0,0,1,2.6-1.1,13.5,13.5,0,0,1,2.8-.4,15.5,15.5,0,0,1,4.3.7,9.1,9.1,0,0,1,3.6,2Z" fill="#fff"/>
        <path d="M26,12.1A10.1,10.1,0,1,0,36,22.2,10.1,10.1,0,0,0,26,12.1Zm0,17.3A7.2,7.2,0,1,1,26,15a7.2,7.2,0,0,1,0,14.4Z" fill="#fff"/>
        <path d="M10,29.4A7.2,7.2,0,0,1,10,15a6.7,6.7,0,0,1,4.6,1.7l2-2.1A10.4,10.4,0,0,0,10,12.1a10.1,10.1,0,0,0,0,20.1,10.3,10.3,0,0,0,6.6-2.4l-1.8-2.2A7.5,7.5,0,0,1,10,29.4Z" fill="#fff"/>
        <path d="M111.1,32.2V0h6.5V32.2Z" fill="#fff"/>
        <path d="M68.1,12.2v1.4a10.2,10.2,0,0,0-5.2-1.5,10.1,10.1,0,1,0,5.2,18.7V44.3h6.6V12.2ZM63.6,26.7a4.5,4.5,0,0,1-4.5-4.5,4.5,4.5,0,1,1,9,0A4.5,4.5,0,0,1,63.6,26.7Z" fill="#fff"/>
        <g>
          <path d="M100,12.1H85.7a10.1,10.1,0,0,0,0,20.1H100a10.1,10.1,0,1,0,0-20.1Zm0,17.3H85.7a7.2,7.2,0,0,1,0-14.4H100a7.2,7.2,0,1,1,0,14.4Z" fill="#fff"/>
          <path d="M85.7,28.5A6.3,6.3,0,1,1,92,22.2,6.3,6.3,0,0,1,85.7,28.5Z" fill="#fff"/>
        </g>
      </g>
    </g>
  </g>
</svg>
