<svg xmlns="http://www.w3.org/2000/svg" viewBox="0 0 19.3 17">
  <g id="a5d6fcc9-a266-48d7-8d83-74e0eb3add27" data-name="Layer 2">
    <g id="fa12f0b2-835a-4ca6-8af4-c1d87e77f680" data-name="bar&amp;buttons">
      <g>
        <g>
          <g>
            <g>
              <path d="M14.5,15.2c0,.1,0,.1.1.1a1.8,1.8,0,0,0,1.3-.6,2.1,2.1,0,0,0,.7-1.4,2,2,0,0,0-.6-1.4L13.6,9.3a3,3,0,0,0-2.3-1.1H8.1A3.2,3.2,0,0,0,5.7,9.3L3.3,11.9a1.9,1.9,0,0,0-.5,1.4,1.7,1.7,0,0,0,.6,1.4,2,2,0,0,0,1.4.6.1.1,0,0,0,.1-.1h.7v1.3H6.8v-4L5.4,13.8a.6.6,0,0,1-.6.3h0l-.6-.2a.9.9,0,0,1-.3-.6,1.4,1.4,0,0,1,.2-.7L6.6,10a1.9,1.9,0,0,1,1.5-.6h3.2a2.2,2.2,0,0,1,1.5.6l2.4,2.6a.8.8,0,0,1,.2.7.9.9,0,0,1-.3.6l-.5.2h-.1l-.6-.3-1.3-1.4v4h1.1V15.1Z" fill="#4b5da8"/>
              <path d="M9.7,9.4H8.1a1.9,1.9,0,0,0-1.5.6L4.1,12.6a1.4,1.4,0,0,0-.2.7.9.9,0,0,0,.3.6.7.7,0,0,0,.6.2.6.6,0,0,0,.6-.3l1.4-1.4v4H9.7Z" fill="#ffc805"/>
            </g>
            <path d="M10.6,13.4a.6.6,0,0,1-.6-.6V10.7a.6.6,0,0,1,.6-.6.6.6,0,0,1,.5.6v2.1C11.1,13.2,10.9,13.4,10.6,13.4Z" fill="#7da5d6"/>
          </g>
          <path d="M11.7,2.7a2.8,2.8,0,0,0-2-.8,3.2,3.2,0,0,0-2.1.8,2.9,2.9,0,0,0,0,4.2,3.2,3.2,0,0,0,2.1.8,2.8,2.8,0,0,0,2-.8,2.9,2.9,0,0,0,0-4.2Zm-.8,3.4a1.7,1.7,0,0,1-1.2.5,2.1,2.1,0,0,1-1.3-.5,2.1,2.1,0,0,1-.5-1.3,2.1,2.1,0,0,1,.5-1.3A2.1,2.1,0,0,1,9.7,3a1.7,1.7,0,0,1,1.2.5,1.7,1.7,0,0,1,0,2.6Z" fill="#4b5da8"/>
        </g>
        <path d="M17,0H2.3A2.4,2.4,0,0,0,0,2.3V14.6A2.4,2.4,0,0,0,2.3,17H17a2.3,2.3,0,0,0,2.3-2.4V2.3A2.3,2.3,0,0,0,17,0Zm1.2,14.6A1.2,1.2,0,0,1,17,15.8H2.3a1.2,1.2,0,0,1-1.2-1.2V2.3A1.3,1.3,0,0,1,2.3,1.1H17a1.2,1.2,0,0,1,1.2,1.2Z" fill="#4b5da8"/>
      </g>
    </g>
  </g>
</svg>
