<svg xmlns="http://www.w3.org/2000/svg" viewBox="0 0 30.9 29.6">
  <g id="f0dec4ce-7fbb-41cd-a296-a3bc2c40daef" data-name="Layer 2">
    <g id="ab3c0380-09d7-4928-b3e1-91eea0d6faed" data-name="bar&amp;buttons">
      <g>
        <path d="M15.5,27.3a5.7,5.7,0,0,1-4.6-2.6h9.2A5.7,5.7,0,0,1,15.5,27.3Z" fill="#ffc805"/>
        <path d="M21.6,10.9V5.3a3,3,0,0,0-3-3H12.3a3.1,3.1,0,0,0-3,3v5.6L2.7,18.5a2.2,2.2,0,0,0-.4,1.3,2.6,2.6,0,0,0,2.6,2.6H26a2.6,2.6,0,0,0,2.6-2.6,3.1,3.1,0,0,0-.3-1.3Z" fill="#fff"/>
        <path d="M30.3,17.4,30,17l-6.1-7V5.3A5.3,5.3,0,0,0,18.6,0H12.3A5.3,5.3,0,0,0,7,5.3V10L.9,17a.5.5,0,0,0-.2.4A4.2,4.2,0,0,0,0,19.8a4.9,4.9,0,0,0,4.9,4.9H8.2a8.3,8.3,0,0,0,7.3,4.9,8.3,8.3,0,0,0,7.3-4.9H26a4.9,4.9,0,0,0,4.9-4.9h0A5,5,0,0,0,30.3,17.4Zm-4.3,5H4.9a2.6,2.6,0,0,1-2.6-2.6,2.2,2.2,0,0,1,.4-1.3l6.6-7.6V5.3a3.1,3.1,0,0,1,3-3h6.3a3,3,0,0,1,3,3v5.6l6.7,7.6a3.1,3.1,0,0,1,.3,1.3A2.6,2.6,0,0,1,26,22.4ZM15.5,27.3a5.7,5.7,0,0,1-4.6-2.6h9.2A5.7,5.7,0,0,1,15.5,27.3Z" fill="#4b5da8"/>
        <path d="M17.1,10.1v-4a1.2,1.2,0,0,1,1.2-1.2,1.1,1.1,0,0,1,1.1,1.2v4a1.2,1.2,0,0,1-1.1,1.2A1.2,1.2,0,0,1,17.1,10.1Z" fill="#7da5d6"/>
        <path d="M19.8,15.5a1.3,1.3,0,0,1,.4-.9,1.2,1.2,0,0,1,1.7.1l2.6,3.1a1.1,1.1,0,0,1-.1,1.6,1.2,1.2,0,0,1-1.7-.1l-2.6-3.1A1.1,1.1,0,0,1,19.8,15.5Z" fill="#7da5d6"/>
      </g>
    </g>
  </g>
</svg>
