<svg xmlns="http://www.w3.org/2000/svg" viewBox="0 0 19.5 19.7">
  <g id="f2ab1d79-61d4-4e9d-a9d4-74421f871c96" data-name="Layer 2">
    <g id="be2d47b2-5275-4d3d-a735-1b851db7a14c" data-name="bar&amp;buttons">
      <g>
        <path d="M16.9,1.1a1.6,1.6,0,0,1,1.5,1.6V14.5A1.5,1.5,0,0,1,16.9,16H2.7a1.6,1.6,0,0,1-1.6-1.5V2.7A1.6,1.6,0,0,1,2.7,1.1H16.9m0-1.1H2.7A2.7,2.7,0,0,0,0,2.7V14.5a2.7,2.7,0,0,0,2.7,2.6H16.9a2.6,2.6,0,0,0,2.6-2.6V2.7A2.7,2.7,0,0,0,16.9,0Z" fill="#4b5da7"/>
        <path d="M19,18.1H4a1.2,1.2,0,0,0-1-.5,1.2,1.2,0,0,0-.9.5H.5a.5.5,0,0,0-.5.5.6.6,0,0,0,.5.6H2.1a1.2,1.2,0,0,0,.9.5,1.2,1.2,0,0,0,1-.5H19a.6.6,0,0,0,.5-.6A.5.5,0,0,0,19,18.1Z" fill="#4b5da7"/>
        <circle cx="3" cy="18.6" r="0.5" fill="#7da4d5"/>
        <path d="M7.5,13.3a1.1,1.1,0,0,1-.8-.2,1.5,1.5,0,0,1-.9-1.4V5.5A1.6,1.6,0,0,1,6.7,4,1.5,1.5,0,0,1,8.3,4l5.4,3.1a1.8,1.8,0,0,1,.8,1.5,1.6,1.6,0,0,1-.8,1.4L8.3,13.1Z" fill="#4b5da7"/>
        <path d="M7.5,4.9H7.2c-.1,0-.3.2-.3.5v6.2a.6.6,0,0,0,.3.5,1.1,1.1,0,0,0,.6,0l5.3-3.1a.5.5,0,0,0,.3-.5.5.5,0,0,0-.3-.5h0L7.8,5Z" fill="#ffc805"/>
      </g>
    </g>
  </g>
</svg>
