<svg xmlns="http://www.w3.org/2000/svg" viewBox="0 0 21.5 22.4">
  <g id="acae6ac4-4851-47d3-ac62-43463152ad54" data-name="Layer 2">
    <g id="acfc284e-328e-4ead-b406-44f70035ecd7" data-name="bar&amp;buttons">
      <g>
        <g>
          <rect x="1.2" y="14.3" width="2.3" height="5" fill="#ffc905"/>
          <g>
            <path d="M21.5,21.9a.5.5,0,0,1-.5.5H.5a.5.5,0,0,1-.5-.5v-.2a.5.5,0,0,1,.5-.5H21a.5.5,0,0,1,.5.5Z" fill="#4b5da8"/>
            <rect x="15.9" y="9.3" width="2.3" height="9.85" fill="#ffc905"/>
            <rect x="8.6" y="11.9" width="2.3" height="7.42" fill="#ffc905"/>
            <path d="M20.2,8.2H16a1.2,1.2,0,0,0-1.2,1.2v9.7A1.2,1.2,0,0,0,16,20.4h4.2a1.3,1.3,0,0,0,1.3-1.3V9.4A1.2,1.2,0,0,0,20.2,8.2Zm.1,10.9H16V9.4h4.3Z" fill="#4b5da8"/>
            <path d="M12.8,10.8H8.6A1.2,1.2,0,0,0,7.4,12v7.1a1.2,1.2,0,0,0,1.2,1.3h4.2a1.3,1.3,0,0,0,1.3-1.3V12A1.3,1.3,0,0,0,12.8,10.8Zm.1,8.3H8.6V12h4.3Z" fill="#4b5da8"/>
            <path d="M5.4,13.4H1.2A1.3,1.3,0,0,0,0,14.7v4.4a1.3,1.3,0,0,0,1.2,1.3H5.4a1.3,1.3,0,0,0,1.3-1.3V14.7A1.3,1.3,0,0,0,5.4,13.4Zm.1,5.7H1.2V14.7H5.5Z" fill="#4b5da8"/>
          </g>
        </g>
        <g>
          <g>
            <path d="M8.8,2l.6,1L6.8,4.8a.7.7,0,0,0-.2,1L7.9,7.7a.8.8,0,0,0,1,.2l2.6-1.8.8,1.1A.9.9,0,0,0,13.9,7l1-4a1.4,1.4,0,0,0-1.2-1.9L9.6.6A.9.9,0,0,0,8.8,2Z" fill="#fff"/>
            <path d="M7.4,8,6.1,6.1a1.3,1.3,0,0,1,.3-1.8L8.6,2.8l-.3-.5A1.2,1.2,0,0,1,8.2.8,1.6,1.6,0,0,1,9.6,0h0l4.1.5a2.1,2.1,0,0,1,1.5.9h0a1.9,1.9,0,0,1,.3,1.8L14.4,7.1h0a1.5,1.5,0,0,1-1.2,1,1.3,1.3,0,0,1-1.4-.7l-.4-.6L9.2,8.4A1.3,1.3,0,0,1,7.4,8Z" fill="#4b5da8"/>
          </g>
          <path d="M9.5,1.2l-.2.2q-.2,0,0,.3l.6,1a.6.6,0,0,1-.1.8L7.1,5.3a.1.1,0,0,0,0,.2L8.4,7.4h.1l2.7-1.8a.5.5,0,0,1,.8.2l.8,1.1H13c.1,0,.2,0,.3-.2l1-4h0a.9.9,0,0,0,0-.7h0a1,1,0,0,0-.7-.4h0Z" fill="#7da5d6"/>
        </g>
      </g>
    </g>
  </g>
</svg>
