<svg xmlns="http://www.w3.org/2000/svg" viewBox="0 0 19.3 19">
  <g id="bc47cea6-6885-4ac7-8f3e-30d8f468b58f" data-name="Layer 2">
    <g id="bc15efb1-99db-4a6f-bcba-6fb38706dbae" data-name="bar&amp;buttons">
      <g>
        <path d="M2.5,3.1A1.5,1.5,0,0,0,1,4.6V16.3a1.6,1.6,0,0,0,1.5,1.6H9.7V3.1Z" fill="#ffc805"/>
        <g>
          <path d="M16.7,3.1a1.6,1.6,0,0,1,1.6,1.5V16.3a1.6,1.6,0,0,1-1.6,1.6H2.6a1.6,1.6,0,0,1-1.5-1.6V4.6A1.5,1.5,0,0,1,2.6,3.1H16.7m0-1.1H2.6A2.6,2.6,0,0,0,0,4.6V16.3A2.7,2.7,0,0,0,2.6,19H16.7a2.6,2.6,0,0,0,2.6-2.7V4.6A2.6,2.6,0,0,0,16.7,2Z" fill="#4b5da8"/>
          <g>
            <path d="M3.5.6V3.3a.7.7,0,0,0,.6.7c.4,0,.6-.3.6-.7V.6A.6.6,0,0,0,4.1,0,.6.6,0,0,0,3.5.6Z" fill="#4b5da8"/>
            <path d="M14.6.6V3.3a.7.7,0,0,0,.6.7.7.7,0,0,0,.7-.7V.6a.7.7,0,0,0-.7-.6A.6.6,0,0,0,14.6.6Z" fill="#4b5da8"/>
          </g>
          <g>
            <path d="M7,10.2V8.6A.6.6,0,0,0,6.7,8a.6.6,0,0,0-.6-.3H4.5a.9.9,0,0,0-.6.3c-.2.1-.2.3-.2.6v1.6a.7.7,0,0,0,.8.8H6.1c.3,0,.5,0,.6-.2A.9.9,0,0,0,7,10.2Z" fill="#4b5da8"/>
            <path d="M11.3,10.2V8.6a.8.8,0,0,0-.2-.6.9.9,0,0,0-.6-.3H8.8a.5.5,0,0,0-.5.3.6.6,0,0,0-.3.6v1.6a.9.9,0,0,0,.3.6c.1.2.3.2.5.2h1.7a.7.7,0,0,0,.6-.2A1.4,1.4,0,0,0,11.3,10.2Z" fill="#4b5da8"/>
            <path d="M15.7,10.2V8.6a.6.6,0,0,0-.3-.6.5.5,0,0,0-.5-.3H13.2l-.6.3c-.2.1-.2.3-.2.6v1.6a.7.7,0,0,0,.8.8h1.7c.2,0,.4,0,.5-.2A.9.9,0,0,0,15.7,10.2Z" fill="#4b5da8"/>
            <path d="M15.7,14.5V12.9a.9.9,0,0,0-.3-.6c-.1-.2-.3-.2-.5-.2H13.2a.7.7,0,0,0-.8.8v1.6c0,.3,0,.5.2.6l.6.3h1.7a.5.5,0,0,0,.5-.3A.6.6,0,0,0,15.7,14.5Z" fill="#4b5da8"/>
            <path d="M11.3,14.5V12.9a1.4,1.4,0,0,0-.2-.6.7.7,0,0,0-.6-.2H8.8c-.2,0-.4,0-.5.2a.9.9,0,0,0-.3.6v1.6a.6.6,0,0,0,.3.6.5.5,0,0,0,.5.3h1.7a.9.9,0,0,0,.6-.3A.8.8,0,0,0,11.3,14.5Z" fill="#4b5da8"/>
            <path d="M7,14.5V12.9a.9.9,0,0,0-.3-.6c-.1-.2-.3-.2-.6-.2H4.5a.7.7,0,0,0-.8.8v1.6c0,.3,0,.5.2.6a.9.9,0,0,0,.6.3H6.1a.6.6,0,0,0,.6-.3A.6.6,0,0,0,7,14.5Z" fill="#4b5da8"/>
          </g>
          <path d="M5.5,4.9a.6.6,0,0,1,.6-.5h7.2a.5.5,0,0,1,.5.5.6.6,0,0,1-.5.6H6.1A.6.6,0,0,1,5.5,4.9Z" fill="#7da5d6"/>
        </g>
      </g>
    </g>
  </g>
</svg>
