<svg xmlns="http://www.w3.org/2000/svg" viewBox="0 0 23.7 19.6">
  <g id="f5057f5b-9fe6-48ea-8458-0a53d9df1e0f" data-name="Layer 2">
    <g id="eda81335-3d66-4384-b5fe-b58818310f30" data-name="bar&amp;buttons">
      <g>
        <g>
          <path d="M9.3,11.6V10.1l.3-.3.4-.4.3-.3.3-.4.3-.4a4.3,4.3,0,0,0,.1-.5V7.4L10.7,7a.5.5,0,0,0-.4-.2H9.9A1.2,1.2,0,0,0,9,7a1.3,1.3,0,0,0-.4.9H7.4a2.1,2.1,0,0,1,.9-1.5,2.3,2.3,0,0,1,1.6-.6l.9.2.7.4a1.5,1.5,0,0,1,.5.6,2.8,2.8,0,0,1,.1.9,1.5,1.5,0,0,1-.1.7l-.3.6-.7.7h-.1l-.3.3-.2.3v.2a.8.8,0,0,0-.1.4v.5ZM9,13.2a.5.5,0,0,1,.3-.5.6.6,0,0,1,1,0,.8.8,0,0,1,.2.5c0,.2-.1.3-.2.5l-.5.2-.5-.2C9.1,13.5,9,13.4,9,13.2Z" fill="#4b5da7"/>
          <path d="M9.8,14l-.6-.2a.9.9,0,0,1-.3-.6.6.6,0,0,1,.3-.6l.6-.3.6.3c.2.1.2.3.2.6a.7.7,0,0,1-.2.6Zm0-1.5-.5.2a.9.9,0,0,0-.1.5.6.6,0,0,0,.1.4l.5.2a.5.5,0,0,0,.4-.2.8.8,0,0,0,.2-.4c0-.2-.1-.3-.2-.5Zm.6-.8H9.1v-.8c0-.2.1-.3.1-.5V10l.3-.3.4-.4.3-.3.3-.4.3-.3c0-.2.1-.3.1-.5V7.4l-.3-.3-.3-.2H9.9a1,1,0,0,0-.8.3,1.2,1.2,0,0,0-.4.8H7.3a2.4,2.4,0,0,1,.9-1.6,2.4,2.4,0,0,1,1.7-.6l.9.2a2,2,0,0,1,.8.4,1.8,1.8,0,0,1,.5.7,2,2,0,0,1,.2.9,1.9,1.9,0,0,1-.2.8l-.3.6L11,10l-.3.3-.2.2v1.2Zm-1-.2h.8v-.8a.4.4,0,0,0,.1-.3l.2-.3.3-.3h.1l.7-.6.3-.6a1.5,1.5,0,0,0,.1-.7,1.9,1.9,0,0,0-.1-.8,1,1,0,0,0-.5-.6L10.7,6l-.8-.2a2.5,2.5,0,0,0-1.6.6,1.9,1.9,0,0,0-.7,1.3h.9a2.5,2.5,0,0,1,.4-.9,1.8,1.8,0,0,1,1-.4h.5l.4.3.3.4a4.3,4.3,0,0,0,.1.5c0,.2-.1.4-.1.6l-.3.4-.3.3c-.1.2-.3.3-.4.4l-.3.3-.3.3c0,.1-.1.2-.1.4v1Z" fill="#4b5da7"/>
        </g>
        <path d="M3.7,10.7a2.1,2.1,0,0,1,0-2.9.3.3,0,0,0,0-.5.4.4,0,0,0-.6,0,2.8,2.8,0,0,0,0,4h.6A.4.4,0,0,0,3.7,10.7Z" fill="#7da4d5"/>
        <path d="M22.6,6.8,16.9,1.1A3.7,3.7,0,0,0,11.8.9a3.6,3.6,0,0,0-5,.2L1.1,6.8a3.7,3.7,0,0,0,0,5.3l.7.7v3.1a1.9,1.9,0,0,0,.5,1.3,1.8,1.8,0,0,0,1.3.6H6.8l.7.7a3.7,3.7,0,0,0,4.3.7h.1a3.8,3.8,0,0,0,4.3-.7l.7-.7H20a2,2,0,0,0,1.3-.6,1.6,1.6,0,0,0,.6-1.3V12.8l.7-.7A3.9,3.9,0,0,0,22.6,6.8ZM8.2,17.8h0l-1-1.1H3.6a.7.7,0,0,1-.7-.8V12.4L1.8,11.3a2.6,2.6,0,0,1,.1-3.7L7.5,1.9a2.8,2.8,0,0,1,3.6-.3h0l.3.2.4.4h0l5.9,5.9a2.7,2.7,0,0,1,0,3.9L13,16.8l-.8.8v.2h-.3l-.3.3h0A2.9,2.9,0,0,1,8.2,17.8Zm13.7-6.5-1.1,1.1v3.5a.7.7,0,0,1-.8.8H16.5l-1.1,1h0a2.6,2.6,0,0,1-2.5.6l1-1,4.6-4.6a3.9,3.9,0,0,0,0-5.3L12.6,1.7h0a2.6,2.6,0,0,1,3.5.3l5.7,5.6A2.7,2.7,0,0,1,21.9,11.3Z" fill="#4b5da7"/>
      </g>
    </g>
  </g>
</svg>
