<svg xmlns="http://www.w3.org/2000/svg" viewBox="0 0 17.9 14.1">
  <g id="a15ae1f0-6183-41d5-b399-9c57291a0ad4" data-name="Layer 2">
    <g id="e1b52d39-afdc-45c0-bb24-7cad0db5fa80" data-name="bar&amp;buttons">
      <g>
        <g>
          <path d="M15,0H2.9A2.9,2.9,0,0,0,0,2.9v8.4a2.9,2.9,0,0,0,2.9,2.8H15a2.9,2.9,0,0,0,2.9-2.8V2.9A2.9,2.9,0,0,0,15,0ZM11.4,7.1l5.2-5.2a1.7,1.7,0,0,1,.3,1v8.4a1.4,1.4,0,0,1-.3.9Z" fill="#4b5da8"/>
          <path d="M15,1.1h.8L9.9,7.1a1.2,1.2,0,0,1-1,.4,1.3,1.3,0,0,1-1-.4L2.1,1.3a1.1,1.1,0,0,1,.8-.2Z" fill="#fff"/>
          <path d="M1.4,12.3a1.9,1.9,0,0,1-.3-1V2.9A1.5,1.5,0,0,1,1.3,2L6.5,7.2Z" fill="#fff"/>
          <path d="M2.9,13.1l-.7-.2L7.3,8a2.3,2.3,0,0,0,1.6.6h0a2.9,2.9,0,0,0,1.8-.7l5.1,5-.8.2Z" fill="#fff"/>
        </g>
        <path d="M12.2,3.1H8.6a.5.5,0,0,1-.5-.5A.6.6,0,0,1,8.6,2h3.6a.6.6,0,0,1,.5.6A.5.5,0,0,1,12.2,3.1Z" fill="#7da5d6"/>
      </g>
    </g>
  </g>
</svg>
