<svg xmlns="http://www.w3.org/2000/svg" viewBox="0 0 14.4 17.4">
  <g id="ad9f88c6-ed0a-4471-9b4c-9b29227a3044" data-name="Layer 2">
    <g id="baf092a4-7bb3-4686-852d-255c09682dd7" data-name="bar&amp;buttons">
      <g>
        <g>
          <path d="M14.1,3.7l-.5-.5h0L11.1.7h0L10.7.3A1.1,1.1,0,0,0,10,0H2.3A2.3,2.3,0,0,0,0,2.3V15.2a2.2,2.2,0,0,0,2.3,2.2h9.8a2.2,2.2,0,0,0,2.3-2.2V4.5A1.1,1.1,0,0,0,14.1,3.7Zm-2,12.7H2.3a1.2,1.2,0,0,1-1.2-1.2V2.3A1.2,1.2,0,0,1,2.3,1.1H9.4c-.1.1-.1.2-.1.4V2.8A2.2,2.2,0,0,0,11.5,5h1.8V15.2A1.2,1.2,0,0,1,12.1,16.4Z" fill="#4b5da7"/>
          <g>
            <line x1="3.4" y1="7.4" x2="11.1" y2="7.4" fill="#ffc805"/>
            <path d="M11.1,7.9H3.4a.6.6,0,0,1-.6-.5.6.6,0,0,1,.6-.6h7.7a.6.6,0,0,1,.5.6A.5.5,0,0,1,11.1,7.9Z" fill="#4b5da7"/>
          </g>
          <g>
            <line x1="3.4" y1="9.4" x2="11.1" y2="9.4" fill="#ffc805"/>
            <path d="M11.1,9.9H3.4a.6.6,0,0,1-.6-.5.6.6,0,0,1,.6-.6h7.7a.6.6,0,0,1,.5.6A.5.5,0,0,1,11.1,9.9Z" fill="#4b5da7"/>
          </g>
          <g>
            <line x1="3.4" y1="11.4" x2="11.1" y2="11.4" fill="#ffc805"/>
            <path d="M11.1,11.9H3.4a.6.6,0,0,1-.6-.5.6.6,0,0,1,.6-.5h7.7a.5.5,0,0,1,0,1Z" fill="#4b5da7"/>
          </g>
          <g>
            <line x1="3.4" y1="13.4" x2="11.1" y2="13.4" fill="#ffc805"/>
            <path d="M11.1,13.9H3.4a.5.5,0,1,1,0-1h7.7a.5.5,0,0,1,0,1Z" fill="#4b5da7"/>
          </g>
        </g>
        <path d="M5.5,3H3.4a.6.6,0,0,1-.6-.5.6.6,0,0,1,.6-.6H5.5a.6.6,0,0,1,.6.6A.6.6,0,0,1,5.5,3Z" fill="#7da4d5"/>
      </g>
    </g>
  </g>
</svg>
