<?xml version="1.0" encoding="utf-8"?>
<!-- Generator: Adobe Illustrator 26.0.2, SVG Export Plug-In . SVG Version: 6.00 Build 0)  -->
<svg version="1.1" id="Layer_1" xmlns="http://www.w3.org/2000/svg" xmlns:xlink="http://www.w3.org/1999/xlink" x="0px" y="0px"
	 viewBox="0 0 711.4 809.5" style="enable-background:new 0 0 711.4 809.5;" xml:space="preserve">
<style type="text/css">
	.st0{clip-path:url(#SVGID_00000048462323818642606800000003229521677886335920_);}
	.st1{fill:#FFFFFF;}
	.st2{font-family:'Avenir-Book';}
	.st3{font-size:74.42px;}
	.st4{letter-spacing:-1;}
	.st5{fill:#7299CD;}
	.st6{fill:#43559A;}
	.st7{fill:#FFC336;}
	.st8{fill:#43539B;}
	.st9{fill:#040404;}
	.st10{fill:#EDECED;}
	.st11{fill:#729BCD;}
	.st12{fill:#FFC536;}
</style>
<g id="Layer_2_00000140006866366158650250000005947782956404212654_">
	<g id="Layer_1-2">
		<g id="Layer_2-2">
			<g id="Layer_2-2-2">
				<g>
					<defs>
						<path id="SVGID_1_" d="M355.7-134.5L355.7-134.5c196.4,0,355.7,159.2,355.7,355.7v232.6c0,196.4-159.2,355.7-355.7,355.7l0,0
							C159.2,809.5,0,650.2,0,453.8V221.2C0,24.8,159.2-134.5,355.7-134.5z"/>
					</defs>
					<clipPath id="SVGID_00000082336625224811970250000016967998109081525643_">
						<use xlink:href="#SVGID_1_"  style="overflow:visible;"/>
					</clipPath>
					<g style="clip-path:url(#SVGID_00000082336625224811970250000016967998109081525643_);">
						<g>
							<g>
								<path class="st1" d="M111.9,183.2c-0.9-1.4-2.1-2.5-3.5-3.3c-1.6-0.9-3.4-1.4-5.2-1.3c-1.9-0.1-3.7,0.3-5.5,1
									c-1.6,0.7-3,1.7-4.1,2.9c-1.2,1.3-2,2.8-2.6,4.4c-1.2,3.6-1.2,7.5,0,11.1c0.6,1.6,1.4,3.1,2.6,4.4c1.2,1.3,2.6,2.2,4.1,2.9
									c1.7,0.7,3.6,1.1,5.5,1c1.8,0,3.6-0.4,5.2-1.3c1.4-0.8,2.6-1.9,3.5-3.3l4,3c-1.6,1.9-3.6,3.5-5.9,4.5
									c-2.2,1-4.5,1.5-6.8,1.5c-2.6,0.1-5.2-0.4-7.7-1.3c-2.2-0.9-4.2-2.2-5.8-3.8c-1.6-1.7-2.9-3.7-3.6-5.9
									c-1.7-4.7-1.7-9.9,0-14.7c0.8-2.2,2.1-4.2,3.7-5.9c1.7-1.6,3.6-2.9,5.8-3.8c2.4-0.9,5-1.4,7.7-1.3c2.4,0,4.7,0.6,6.8,1.5
									c2.3,1,4.3,2.6,5.9,4.5L111.9,183.2z"/>
							</g>
							<g>
								<path class="st1" d="M126.9,209.9H122v-56.3h4.9V209.9z"/>
							</g>
							<g>
								<path class="st1" d="M144.5,161.7c0,1-0.4,1.9-1.1,2.6c-1.4,1.3-3.6,1.3-4.9,0c-1.4-1.3-1.5-3.5-0.2-4.9
									c0.1-0.1,0.1-0.1,0.2-0.2c1.4-1.3,3.6-1.3,4.9,0C144.1,159.7,144.5,160.7,144.5,161.7z M143.4,209.9h-4.9V175h4.9V209.9z"/>
								<path class="st1" d="M179.1,183.2c-0.9-1.3-2.1-2.5-3.5-3.3c-1.6-0.9-3.4-1.4-5.2-1.3c-1.9-0.1-3.7,0.3-5.5,1
									c-1.6,0.7-3,1.7-4.1,2.9c-1.2,1.3-2.1,2.8-2.6,4.4c-1.2,3.6-1.2,7.5,0,11.1c0.6,1.6,1.4,3.1,2.6,4.4
									c1.2,1.3,2.6,2.2,4.1,2.9c1.7,0.7,3.6,1.1,5.5,1c1.8,0,3.6-0.4,5.2-1.3c1.4-0.8,2.6-1.9,3.5-3.3l4,3
									c-1.6,1.9-3.6,3.5-5.9,4.5c-2.2,1-4.5,1.5-6.9,1.5c-2.6,0.1-5.2-0.4-7.7-1.3c-2.2-0.9-4.2-2.2-5.8-3.8
									c-1.6-1.7-2.9-3.7-3.7-5.8c-1.7-4.7-1.7-9.9,0-14.7c0.8-2.2,2.1-4.2,3.7-5.9c1.7-1.7,3.7-3,5.8-3.8c2.4-0.9,5.1-1.4,7.7-1.3
									c2.4,0,4.7,0.6,6.9,1.5c2.3,1,4.3,2.6,5.9,4.5L179.1,183.2z"/>
							</g>
							<g>
								<path class="st1" d="M193,190.8l16.4-15.7h7.4L199.5,191l19.2,18.9h-7.6L193,191.6v18.3h-4.9v-56.3h4.9V190.8z"/>
								<path class="st1" d="M248.8,161.7c0,1-0.4,1.9-1.1,2.6c-1.4,1.3-3.6,1.3-4.9,0c-1.4-1.3-1.5-3.6-0.2-5
									c0-0.1,0.1-0.1,0.2-0.2c1.4-1.3,3.6-1.3,4.9,0C248.4,159.7,248.8,160.7,248.8,161.7z M247.7,209.9h-4.9V175h4.9V209.9z"/>
							</g>
							<text transform="matrix(1 0 0 1 252.9 209.89)" class="st1 st2 st3 st4">t.</text>
							<g>
								<path class="st1" d="M320.8,153.6H332v24h0.1c1.3-1.7,3-3,5-3.7c2.1-0.7,4.3-1.1,6.5-1.1c2.4,0,4.8,0.5,6.9,1.6
									c2,1,3.8,2.5,5.2,4.3c1.4,1.8,2.6,3.9,3.3,6.1c0.8,2.3,1.2,4.8,1.1,7.3c0,2.6-0.4,5.1-1.3,7.5c-0.8,2.2-2,4.2-3.6,5.9
									c-1.6,1.7-3.5,3-5.6,3.9c-2.3,0.9-4.8,1.4-7.3,1.4c-1.2,0-2.5-0.2-3.6-0.5c-1.1-0.3-2.2-0.8-3.2-1.3
									c-0.9-0.5-1.8-1.1-2.5-1.8c-0.7-0.6-1.2-1.3-1.8-2h-0.1v4.8h-10.3V153.6z M331.1,191.8c-0.1,2.4,0.7,4.8,2.3,6.6
									c3.7,3.4,9.4,3.4,13.2,0c3.1-3.9,3.1-9.4,0-13.2c-3.7-3.4-9.4-3.4-13.2,0C331.8,187,331,189.4,331.1,191.8z"/>
								<path class="st1" d="M399.4,203.6c-1.8,2.3-4.1,4.1-6.8,5.3c-2.7,1.2-5.6,1.8-8.5,1.9c-2.7,0-5.3-0.4-7.9-1.3
									c-2.4-0.8-4.5-2.1-6.4-3.8c-1.8-1.7-3.3-3.7-4.3-6c-2.1-5-2.1-10.6,0-15.6c1-2.3,2.5-4.3,4.3-6c1.9-1.7,4-3,6.4-3.8
									c2.5-0.9,5.2-1.4,7.9-1.3c2.4,0,4.8,0.4,7,1.3c2.1,0.9,3.9,2.2,5.4,3.8c1.5,1.8,2.7,3.8,3.4,6c0.8,2.5,1.2,5.2,1.2,7.8v3.5
									h-25.9c0.4,2,1.4,3.8,2.9,5.1c1.5,1.3,3.5,2,5.5,1.9c1.6,0.1,3.3-0.4,4.6-1.2c1.3-0.8,2.4-1.9,3.3-3.2L399.4,203.6z
									 M390,187.7c0.1-1.8-0.6-3.6-1.9-4.8c-1.3-1.3-3.1-2.1-5-2c-1.1,0-2.2,0.2-3.3,0.6c-0.9,0.4-1.7,0.9-2.4,1.5
									c-0.7,0.6-1.2,1.3-1.6,2.2c-0.4,0.8-0.6,1.7-0.6,2.6L390,187.7z"/>
								<path class="st1" d="M449.7,205.3h-0.1c-1.2,1.9-2.9,3.3-5,4.2c-2.1,0.8-4.3,1.3-6.5,1.3c-1.7,0-3.3-0.2-4.9-0.7
									c-1.5-0.4-2.9-1.2-4.1-2.1c-1.2-0.9-2.2-2.1-2.8-3.5c-0.7-1.5-1.1-3.2-1-4.8c-0.1-1.8,0.3-3.6,1.2-5.3
									c0.7-1.4,1.8-2.6,3.1-3.6c1.4-1,2.9-1.7,4.5-2.2c1.7-0.5,3.5-0.9,5.2-1.1c1.8-0.2,3.6-0.4,5.4-0.5c1.8,0,3.5-0.1,5-0.1
									c0.1-1.8-0.7-3.6-2.1-4.7c-1.4-1.2-3.2-1.8-5-1.8c-1.7,0-3.4,0.4-5,1.1c-1.5,0.8-2.9,1.9-4.1,3.2l-6-6.1
									c2.1-1.9,4.6-3.4,7.3-4.4c2.8-1,5.7-1.5,8.6-1.5c2.7-0.1,5.5,0.3,8.1,1.2c2,0.7,3.7,2,5.1,3.6c1.3,1.7,2.2,3.7,2.6,5.8
									c0.5,2.6,0.8,5.3,0.7,8v18.4h-10.3V205.3z M446.9,194c-0.9,0-1.9,0-3.2,0.1c-1.2,0.1-2.5,0.3-3.6,0.6
									c-1.1,0.3-2.1,0.8-3,1.6c-0.8,0.7-1.3,1.8-1.2,2.9c-0.1,1.2,0.6,2.4,1.7,3c1.1,0.6,2.3,1,3.6,1c1.1,0,2.1-0.1,3.2-0.4
									c1-0.3,1.9-0.7,2.7-1.3c1.7-1.1,2.7-3,2.6-5.1v-2.4L446.9,194z"/>
								<path class="st1" d="M476.6,153.6v25h0.1c0.3-0.8,0.7-1.5,1.2-2.1c0.6-0.7,1.4-1.3,2.2-1.9c0.9-0.6,1.9-1,3-1.3
									c1.2-0.4,2.5-0.5,3.7-0.5c2.4-0.1,4.7,0.3,6.9,1.3c1.6,0.8,3,2.1,4,3.6c1,1.7,1.7,3.5,2,5.4c0.4,2.2,0.5,4.5,0.5,6.8v19.9
									h-11.1v-17.7c0-1,0-2.1-0.1-3.2c-0.1-1.1-0.3-2.1-0.7-3.1c-0.7-2.1-2.8-3.4-5-3.2c-1.2-0.1-2.4,0.2-3.5,0.8
									c-0.9,0.5-1.6,1.2-2,2.1c-0.5,0.9-0.8,1.9-0.9,2.9c-0.2,1.1-0.2,2.3-0.2,3.4v18h-11.2v-56.3H476.6z"/>
								<path class="st1" d="M540.9,203.6c-1.8,2.3-4.1,4.1-6.8,5.3c-2.7,1.2-5.6,1.8-8.5,1.9c-2.7,0-5.3-0.4-7.8-1.3
									c-2.4-0.8-4.5-2.1-6.4-3.8c-1.8-1.7-3.3-3.7-4.3-6c-2.1-5-2.1-10.6,0-15.6c1-2.3,2.5-4.3,4.3-6c1.9-1.7,4-3,6.4-3.8
									c2.5-0.9,5.2-1.4,7.8-1.3c2.4,0,4.8,0.4,7,1.3c2.1,0.9,3.9,2.2,5.4,3.8c1.5,1.8,2.7,3.8,3.4,6c0.8,2.5,1.2,5.2,1.2,7.8v3.5
									h-25.9c0.4,2,1.4,3.8,2.9,5.1c1.5,1.3,3.5,2,5.5,1.9c1.6,0.1,3.3-0.4,4.7-1.2c1.3-0.8,2.4-1.9,3.3-3.2L540.9,203.6z
									 M531.5,187.7c0.1-1.8-0.6-3.6-1.9-4.8c-1.3-1.3-3.1-2.1-5-2c-1.1,0-2.2,0.2-3.3,0.6c-0.9,0.4-1.7,0.9-2.4,1.5
									c-0.7,0.6-1.2,1.3-1.6,2.2c-0.4,0.8-0.6,1.7-0.6,2.6L531.5,187.7z"/>
								<path class="st1" d="M570.6,205.3h-0.1c-1.2,1.9-2.9,3.3-5,4.2c-2.1,0.8-4.3,1.3-6.5,1.3c-1.6,0-3.3-0.2-4.9-0.7
									c-1.5-0.4-2.9-1.2-4.1-2.1c-1.2-0.9-2.2-2.1-2.8-3.5c-0.7-1.5-1-3.2-1-4.8c-0.1-1.8,0.3-3.6,1.2-5.3
									c0.7-1.4,1.8-2.6,3.1-3.6c1.4-1,2.9-1.7,4.5-2.2c1.7-0.5,3.5-0.9,5.2-1.1c1.8-0.2,3.6-0.4,5.4-0.5c1.8,0,3.5-0.1,5-0.1
									c0.1-1.8-0.7-3.6-2.1-4.7c-1.4-1.2-3.2-1.8-5-1.8c-1.7,0-3.4,0.4-5,1.1c-1.5,0.8-2.9,1.9-4.1,3.2l-6-6.1
									c2.1-1.9,4.6-3.4,7.3-4.4c2.8-1,5.7-1.5,8.6-1.5c2.7-0.1,5.5,0.3,8.1,1.2c2,0.7,3.7,2,5.1,3.6c1.3,1.7,2.2,3.7,2.6,5.8
									c0.5,2.6,0.8,5.3,0.8,8v18.4h-10.2V205.3z M567.8,194c-0.8,0-1.9,0-3.2,0.1c-1.2,0.1-2.5,0.3-3.7,0.6
									c-1.1,0.3-2.1,0.8-3,1.6c-0.8,0.7-1.3,1.8-1.2,2.9c-0.1,1.2,0.6,2.4,1.7,3c1.1,0.6,2.3,1,3.6,1c1.1,0,2.1-0.1,3.2-0.4
									c1-0.3,1.9-0.7,2.7-1.3c0.8-0.5,1.4-1.2,1.9-2.1c0.5-0.9,0.7-2,0.7-3V194L567.8,194z"/>
							</g>
							<g>
								<path class="st1" d="M624.9,209.9h-10.3v-4.8h-0.2c-0.5,0.7-1.1,1.4-1.8,2c-0.8,0.7-1.6,1.3-2.5,1.8c-1,0.6-2.1,1-3.2,1.3
									c-1.2,0.3-2.4,0.5-3.6,0.5c-2.5,0-5-0.4-7.3-1.4c-2.1-0.9-4-2.2-5.6-3.9c-1.6-1.7-2.8-3.7-3.6-5.9c-0.9-2.4-1.3-5-1.3-7.5
									c0-2.5,0.4-4.9,1.2-7.3c0.7-2.2,1.8-4.3,3.2-6.2c1.4-1.8,3.2-3.2,5.2-4.3c2.1-1.1,4.5-1.6,6.9-1.6c2.2,0,4.4,0.3,6.5,1.1
									c2,0.7,3.7,2,5,3.7h0.2v-24h11.1V209.9z M614.6,191.8c0.1-2.4-0.7-4.8-2.3-6.6c-3.7-3.4-9.4-3.4-13.2,0
									c-3.1,3.9-3.1,9.4,0,13.2c3.7,3.4,9.4,3.4,13.2,0C613.9,196.6,614.7,194.2,614.6,191.8z"/>
							</g>
						</g>
						<path class="st5" d="M497.8,668.8V567c0-39.3-31.8-71.1-71.1-71.1s-71.1,31.8-71.1,71.1v101.8c0,39.3,31.8,71.1,71.1,71.1
							S497.8,708.1,497.8,668.8L497.8,668.8"/>
						<path class="st6" d="M640,668.8V567c-0.5-39.3-32.7-70.8-72-70.3c-38.6,0.5-69.8,31.7-70.3,70.3v101.8
							c0.5,39.3,32.7,70.8,72,70.3C608.3,738.6,639.5,707.4,640,668.8"/>
						<path class="st5" d="M-71.3,668.8V567c0-39.3-31.8-71.1-71.1-71.1c0,0,0,0,0,0l0,0c-39.3,0-71.1,31.8-71.1,71.1l0,0v101.8
							c0,39.3,31.8,71.1,71.1,71.1c0,0,0,0,0,0C-103.2,739.9-71.3,708-71.3,668.8C-71.3,668.8-71.3,668.8-71.3,668.8"/>
						<path class="st5" d="M213.2,668.8V567c-0.5-39.3-32.7-70.8-72-70.3c-38.6,0.5-69.8,31.7-70.3,70.3v101.8
							c0.5,39.3,32.7,70.8,72,70.3C181.6,738.6,212.8,707.4,213.2,668.8"/>
						<path class="st6" d="M355.4,668.8V567c0-39.3-31.8-71.1-71.1-71.1s-71.1,31.8-71.1,71.1l0,0v101.8c0,39.3,31.8,71.1,71.1,71.1
							S355.4,708.1,355.4,668.8"/>
						<path class="st6" d="M-142.5,758V656.2c0-39.3-31.8-71.1-71.1-71.1h0l0,0c-39.3,0-71.1,31.8-71.1,71.1l0,0l0,0V758
							c0,39.3,31.8,71.1,71.1,71.1c0,0,0,0,0,0l0,0C-174.3,829.1-142.5,797.3-142.5,758L-142.5,758L-142.5,758"/>
						<path class="st7" d="M426.6,796.7V347.1c0-39.3-31.8-71.1-71.1-71.1s-71.1,31.8-71.1,71.1v449.6c0,39.3,31.8,71.1,71.1,71.1
							S426.6,835.9,426.6,796.7"/>
						<path class="st1" d="M-0.2,758V656.2c0-39.3-31.8-71.1-71.1-71.1h0l0,0c-39.3,0-71.1,31.8-71.1,71.1c0,0,0,0,0,0l0,0V758
							c0,39.3,31.8,71.1,71.1,71.1c0,0,0,0,0,0l0,0C-32,829.1-0.2,797.3-0.2,758C-0.2,758-0.2,758-0.2,758L-0.2,758"/>
						<path class="st6" d="M142,758V656.2c0-39.3-31.9-71.1-71.1-71.1c-39.3,0-71.1,31.8-71.1,71.1V758c0,39.3,31.9,71.1,71.1,71.1
							C110.2,829.1,142,797.3,142,758"/>
						<path class="st1" d="M284.3,758V656.2c0-39.3-31.9-71.1-71.1-71.1c-39.3,0-71.1,31.8-71.1,71.1V758
							c0,39.3,31.9,71.1,71.1,71.1C252.4,829.1,284.3,797.3,284.3,758"/>
						<path class="st1" d="M569.3,758V656.2c-0.5-39.3-32.7-70.8-72-70.3c-38.6,0.5-69.8,31.7-70.3,70.3V758
							c0.5,39.3,32.7,70.8,72,70.3C537.7,827.8,568.9,796.6,569.3,758"/>
						<path class="st5" d="M-71.3,860.4V758.6c0-39.3-31.8-71.1-71.1-71.1c0,0,0,0,0,0l0,0c-39.3,0-71.1,31.8-71.1,71.1l0,0v101.8
							c0,39.3,31.8,71.1,71,71.1c0,0,0,0,0.1,0C-103.2,931.5-71.3,899.7-71.3,860.4L-71.3,860.4"/>
						<path class="st6" d="M70.9,860.4V758.6c0-39.3-31.8-71.1-71.1-71.1c0,0,0,0,0,0c-39.3,0-71.1,31.8-71.1,71.1v101.8
							c0,39.3,31.8,71.1,71,71.1c0,0,0,0,0,0C39.1,931.5,70.9,899.7,70.9,860.4C70.9,860.4,70.9,860.4,70.9,860.4"/>
						<path class="st6" d="M925,668.8V567c0-39.3-31.8-71.1-71.1-71.1s-71.1,31.8-71.1,71.1v101.8c0,39.3,31.8,71.1,71.1,71.1
							S925,708.1,925,668.8L925,668.8"/>
						<path class="st6" d="M711.6,758V656.2c0-39.3-31.9-71.1-71.2-71.1c-39.3,0-71.1,31.8-71.1,71.1V758
							c0,39.3,31.9,71.1,71.2,71.1C679.7,829.1,711.6,797.3,711.6,758"/>
						<path class="st1" d="M853.8,758V656.2c-0.5-39.3-32.7-70.8-72-70.3c-38.6,0.5-69.8,31.7-70.3,70.3V758
							c0.5,39.3,32.7,70.8,72,70.3C822.2,827.8,853.4,796.6,853.8,758"/>
						<path class="st6" d="M996.1,758V656.2c0-39.3-31.8-71.1-71.1-71.1s-71.1,31.8-71.1,71.1V758c0,39.3,31.8,71.1,71.1,71.1
							S996.1,797.3,996.1,758"/>
						<path class="st5" d="M782.7,860.4V758.6c-0.5-39.3-32.7-70.8-72-70.3c-38.6,0.5-69.8,31.7-70.3,70.3v101.8
							c-0.5,39.3,31,71.5,70.3,72c39.3,0.5,71.5-31,72-70.3C782.7,861.5,782.7,860.9,782.7,860.4"/>
						<path class="st6" d="M925,860.4V758.6c0-39.3-31.8-71.1-71.1-71.1s-71.1,31.8-71.1,71.1v101.8c0,39.3,31.8,71.1,71.1,71.1
							S925,899.7,925,860.4"/>
						<path class="st5" d="M213.2,860.4V758.6c-0.5-39.3-32.7-70.8-72-70.3c-38.6,0.5-69.8,31.7-70.3,70.3v101.8
							c-0.5,39.3,31,71.5,70.3,72s71.5-31,72-70.3C213.2,861.5,213.2,860.9,213.2,860.4"/>
						<path class="st6" d="M355.4,860.4V758.6c0-39.3-31.8-71.1-71.1-71.1s-71.1,31.8-71.1,71.1v101.8c0,39.3,31.8,71.1,71.1,71.1
							S355.4,899.7,355.4,860.4"/>
						<path class="st5" d="M497.8,860.4V758.6c0-39.3-31.8-71.1-71.1-71.1s-71.1,31.8-71.1,71.1v101.8c0,39.3,31.8,71.1,71.1,71.1
							S497.8,899.7,497.8,860.4"/>
						<path class="st6" d="M640,860.4V758.6c-0.5-39.3-32.7-70.8-72-70.3c-38.6,0.5-69.8,31.7-70.3,70.3v101.8
							c-0.5,39.3,31,71.5,70.3,72c39.3,0.5,71.5-31,72-70.3C640,861.5,640,860.9,640,860.4"/>
						<path class="st5" d="M782.7,860.4V758.6c-0.5-39.3-32.7-70.8-72-70.3c-38.6,0.5-69.8,31.7-70.3,70.3v101.8
							c-0.5,39.3,31,71.5,70.3,72c39.3,0.5,71.5-31,72-70.3C782.7,861.5,782.7,860.9,782.7,860.4"/>
						<path class="st7" d="M354.8,99.2c-25.7,0-46.5-20.8-46.5-46.5c0-25.7,20.8-46.5,46.5-46.5c25.7,0,46.5,20.8,46.5,46.5l0,0
							C401.3,78.3,380.5,99.1,354.8,99.2L354.8,99.2L354.8,99.2"/>
						<path class="st7" d="M354.4,90.3c-20.8,0-37.7-16.9-37.7-37.7S333.6,15,354.4,15c20.8,0,37.7,16.9,37.7,37.7c0,0,0,0,0,0
							C392.1,73.5,375.3,90.3,354.4,90.3C354.4,90.3,354.4,90.3,354.4,90.3L354.4,90.3"/>
						<path class="st6" d="M301.6,52.7c0,29.1,23.6,52.7,52.7,52.7c29.1,0,52.7-23.6,52.7-52.7S383.4,0,354.3,0c0,0,0,0,0,0l0,0
							C325.3,0,301.7,23.6,301.6,52.7C301.7,52.6,301.7,52.7,301.6,52.7 M392.1,52.7c0,20.8-16.9,37.7-37.7,37.7
							c-20.8,0-37.7-16.9-37.7-37.7S333.5,15,354.3,15l0,0l0,0C375.1,15,392,31.8,392.1,52.7"/>
						<path class="st8" d="M354.9,359.2L354.9,359.2c-8,0-14.4,7.1-14.4,15.8v52.5h28.8V375C369.2,366.3,362.8,359.2,354.9,359.2z"
							/>
						<path class="st9" d="M309.2,384L309.2,384v0.4c-0.2,4.7-4.1,8.4-8.8,8.3c-4.5-0.2-8.1-3.8-8.3-8.3V384l0,0v-21.8l0,0
							c0.5-4.7,4.7-8.1,9.4-7.6c4,0.4,7.1,3.6,7.6,7.6l0,0L309.2,384z"/>
						<circle class="st1" cx="300.6" cy="365.1" r="6.5"/>
						<path class="st9" d="M293.9,336.5c0,0.7,0.2,1.3,0.7,1.8c0.7,0.9,2,1,2.9,0.3c0.1-0.1,0.2-0.2,0.3-0.3c0.8-0.9,1.9-1.4,3-1.4
							c1.2,0,2.2,0.6,3,1.4c0.8,0.9,2.1,1,3,0.2c0.1-0.1,0.2-0.2,0.2-0.2c0.9-1,0.9-2.6,0-3.6c-1.5-1.8-3.8-2.9-6.2-3
							c-2.4,0-4.6,1-6.2,2.9C294.1,335.2,293.9,335.8,293.9,336.5z"/>
						<path class="st9" d="M417.6,363.5L417.6,363.5v-0.4c-0.2-4.7-4.1-8.4-8.8-8.3c-4.5,0.2-8.1,3.8-8.3,8.3v0.4l0,0v21.8l0,0
							c0.5,4.7,4.7,8.1,9.4,7.6c4-0.4,7.1-3.6,7.6-7.6l0,0L417.6,363.5z"/>
						<circle class="st1" cx="409" cy="365.1" r="6.5"/>
						<path class="st9" d="M402.2,336.5c0,0.7,0.2,1.3,0.7,1.8c0.7,0.9,2,1,2.9,0.3c0,0,0,0,0,0c0.1-0.1,0.2-0.2,0.3-0.3
							c0.7-0.8,1.8-1.3,2.9-1.3c1.2,0,2.2,0.6,3,1.4c0.7,0.9,2,1,2.9,0.3c0,0,0,0,0,0c0.1-0.1,0.2-0.2,0.3-0.3c0.9-1,0.9-2.6,0-3.6
							c-1.5-1.8-3.8-2.9-6.2-3c-2.4,0-4.6,1-6.2,2.9C402.4,335.2,402.2,335.9,402.2,336.5z"/>
						<path class="st1" d="M354.8,423.4c-16.7,0-31.6-10.7-39-20.6l0,0c-3.9-5.9-11.8-7.6-17.7-3.7c-5.9,3.9-7.6,11.8-3.7,17.7
							c0.1,0.1,0.1,0.2,0.2,0.3l0,0c10.1,18.9,33.3,32.1,60.3,32.1l0,0v-25.8H354.8z"/>
						<path class="st10" d="M404,397.7c-4.4,0-8.5,2.3-10.9,6.1l0,0c-8.7,12.5-23,19.9-38.3,19.7v25.7c27.5,0,50.6-13,60.4-32.5
							l0.3-0.5c3.1-6.3,0.5-14-5.9-17.1C407.9,398.2,406,397.7,404,397.7L404,397.7z"/>
						<path class="st11" d="M354.9,437.8c-23.7,0-45-13-54.4-33l2.8-1.3c8.9,19,29.2,31.2,51.7,31.2c22.9,0,43.2-12.4,51.8-31.6
							l2.8,1.2C400.5,424.7,379.1,437.8,354.9,437.8z"/>
						<circle class="st12" cx="306" cy="411.2" r="11.3"/>
					</g>
				</g>
			</g>
		</g>
	</g>
</g>
</svg>
