<?xml version="1.0" encoding="utf-8"?>
<!-- Generator: Adobe Illustrator 26.0.2, SVG Export Plug-In . SVG Version: 6.00 Build 0)  -->
<svg version="1.1" id="Layer_1" xmlns="http://www.w3.org/2000/svg" xmlns:xlink="http://www.w3.org/1999/xlink" x="0px" y="0px"
	 viewBox="0 0 420.4 478.3" style="enable-background:new 0 0 420.4 478.3;" xml:space="preserve">
<style type="text/css">
	.st0{clip-path:url(#SVGID_00000162333095866713500270000010318319862867413396_);}
	.st1{fill:#FFFFFF;}
	.st2{font-family:'Avenir-Book';}
	.st3{font-size:43.98px;}
	.st4{font-family:'Avenir-Black';}
	.st5{fill:#7299CD;}
	.st6{fill:#43559A;}
	.st7{fill:#FFC336;}
	.st8{fill:#43539B;}
	.st9{fill:#040404;}
	.st10{fill:#EDECED;}
	.st11{fill:#729BCD;}
	.st12{fill:#FFC536;}
</style>
<g id="a9bf47dd-2c91-4476-87c6-2e7ce54cb2eb">
	<g id="e293c562-88df-410b-9324-9f91793d1998">
		<g id="b2483a80-edc8-48fc-ad43-d506fbf72fc7">
			<g id="ebead847-71e7-4615-b924-967bcc060859">
				<g>
					<defs>
						<path id="SVGID_1_" d="M210.2-79.5L210.2-79.5c116.1,0,210.2,94.1,210.2,210.2v137.5c0,116-94.1,210.1-210.2,210.1l0,0
							C94.1,478.3,0,384.2,0,268.2V130.7C0,14.6,94.1-79.5,210.2-79.5z"/>
					</defs>
					<clipPath id="SVGID_00000119085455094680347800000003823432821704491926_">
						<use xlink:href="#SVGID_1_"  style="overflow:visible;"/>
					</clipPath>
					<g style="clip-path:url(#SVGID_00000119085455094680347800000003823432821704491926_);">
						<g>
							<g>
								<text transform="matrix(1 0 0 1 47.9 124)" class="st1 st2 st3">c</text>
								<text transform="matrix(1 0 0 1 68.3 124)" class="st1 st2 st3">l</text>
								<text transform="matrix(1 0 0 1 78 124)" class="st1 st2 st3">ic</text>
								<text transform="matrix(1 0 0 1 108 124)" class="st1 st2 st3">k i</text>
								<text transform="matrix(1 0 0 1 149.4 124)" class="st1 st2 st3">t.</text>
								<text transform="matrix(1 0 0 1 174.5 124)" class="st1 st4 st3"> be ahea</text>
								<text transform="matrix(1 0 0 1 344.5 124)" class="st1 st4 st3">d</text>
							</g>
							<path class="st5" d="M294.1,395.2v-60.1c0-23.2-18.8-42-42-42s-42,18.8-42,42v60.1c0,23.2,18.8,42,42,42
								S294.1,418.4,294.1,395.2"/>
							<path class="st6" d="M378.2,395.2v-60.1c1.1-23.2-16.8-43-40-44.1s-43,16.8-44.1,40c-0.1,1.4-0.1,2.7,0,4.1v60.1
								c1.1,23.2,20.9,41.1,44.1,40C359.8,434.1,377.1,416.8,378.2,395.2"/>
							<path class="st5" d="M-42.2,395.2v-60.1c0-23.2-18.8-42-42-42l0,0c-23.2,0-42,18.8-42,42v60.1c0,23.2,18.8,42,42,42
								S-42.2,418.4-42.2,395.2"/>
							<path class="st5" d="M126,395.2v-60.1c1.1-23.2-16.8-43-40-44.1c-23.2-1.1-43,16.8-44.1,40c-0.1,1.4-0.1,2.7,0,4.1v60.1
								c1.1,23.2,20.9,41.1,44.1,40C107.6,434.1,124.9,416.8,126,395.2"/>
							<path class="st6" d="M210,395.2v-60.1c1.1-23.2-16.8-43-40-44.1c-23.2-1.1-43,16.8-44.1,40c-0.1,1.4-0.1,2.7,0,4.1l0,0v60.1
								c1.1,23.2,20.9,41.1,44.1,40C191.6,434.1,208.9,416.8,210,395.2"/>
							<path class="st6" d="M-84.2,447.9v-60.1c0-23.2-18.8-42-42-42l0,0c-23.2,0-42,18.8-42,42l0,0v60.1c0,23.2,18.8,42,42,42l0,0
								l0,0C-103,489.9-84.2,471.1-84.2,447.9L-84.2,447.9L-84.2,447.9"/>
							<path class="st7" d="M252.1,470.8V205.1c1.1-23.2-16.8-43-40-44.1s-43,16.8-44.1,40c-0.1,1.4-0.1,2.7,0,4.1v265.7
								c1.1,23.2,20.9,41.1,44.1,40C233.7,509.7,251,492.4,252.1,470.8"/>
							<path class="st1" d="M-0.1,447.9v-60.1c0-23.2-18.8-42-42-42l0,0c-23.2,0-42,18.8-42,42l0,0v60.1c0,23.2,18.8,42,42,42l0,0
								l0,0C-18.9,489.9-0.1,471.1-0.1,447.9L-0.1,447.9L-0.1,447.9"/>
							<path class="st6" d="M83.9,447.9v-60.1c0-23.2-18.8-42-42-42s-42,18.8-42,42v60.1c0,23.2,18.8,42,42,42
								S83.9,471.1,83.9,447.9L83.9,447.9"/>
							<path class="st1" d="M168,447.9v-60.1c-1.1-23.2-20.9-41.1-44.1-40c-21.6,1.1-38.9,18.4-40,40v60.1
								c-1.1,23.2,16.8,43,40,44.1c23.2,1.1,43-16.8,44.1-40C168.1,450.6,168.1,449.3,168,447.9"/>
							<path class="st1" d="M336.4,447.9v-60.1c0-23.2-18.8-42-42-42s-42,18.8-42,42v60.1c0,23.2,18.8,42,42,42
								S336.4,471.1,336.4,447.9L336.4,447.9"/>
							<path class="st5" d="M-42.2,508.4v-60.1c0-23.2-18.8-42-42-42l0,0c-23.2,0-42,18.8-42,42v60.1c0,23.2,18.8,42,42,42l0,0
								C-61,550.4-42.2,531.6-42.2,508.4L-42.2,508.4"/>
							<path class="st6" d="M41.9,508.4v-60.1c0-23.2-18.8-42-42-42s-42,18.8-42,42v60.1c0,23.2,18.8,42,42,42l0,0
								C23.1,550.4,41.9,531.6,41.9,508.4L41.9,508.4"/>
							<path class="st6" d="M546.6,395.2v-60.1c1.1-23.2-16.8-43-40-44.1c-23.2-1.1-43,16.8-44.1,40c-0.1,1.4-0.1,2.7,0,4.1v60.1
								c1.1,23.2,20.9,41.1,44.1,40C528.2,434.1,545.5,416.8,546.6,395.2"/>
							<path class="st6" d="M420.5,447.9v-60.1c-1.1-23.2-20.9-41.1-44.1-40c-21.6,1.1-38.9,18.4-40,40v60.1
								c1.1,23.2,20.9,41.1,44.1,40C402.1,486.8,419.4,469.5,420.5,447.9"/>
							<path class="st1" d="M504.6,447.9v-60.1c-1.1-23.2-20.9-41.1-44.1-40c-21.6,1.1-38.9,18.4-40,40v60.1
								c-1.1,23.2,16.8,43,40,44.1s43-16.8,44.1-40C504.7,450.6,504.7,449.3,504.6,447.9"/>
							<path class="st6" d="M588.6,447.9v-60.1c0-23.2-18.8-42-42-42s-42,18.8-42,42v60.1c0,23.2,18.8,42,42,42
								C569.8,489.9,588.6,471.1,588.6,447.9L588.6,447.9"/>
							<path class="st5" d="M462.5,508.4v-60.1c0-23.2-18.8-42-42-42s-42,18.8-42,42v60.1c0,23.2,18.8,42,42,42
								S462.5,531.6,462.5,508.4"/>
							<path class="st6" d="M546.6,508.4v-60.1c-1.1-23.2-20.9-41.1-44.1-40c-21.6,1.1-38.9,18.4-40,40v60.1
								c-1.1,23.2,16.8,43,40,44.1s43-16.8,44.1-40C546.7,511.1,546.7,509.8,546.6,508.4"/>
							<path class="st5" d="M126,508.4v-60.1c-1.1-23.2-20.9-41.1-44.1-40c-21.6,1.1-38.9,18.4-40,40v60.1
								c-1.1,23.2,16.8,43,40,44.1c23.2,1.1,43-16.8,44.1-40C126.1,511.1,126.1,509.8,126,508.4"/>
							<path class="st6" d="M210,508.4v-60.1c-1.1-23.2-20.9-41.1-44.1-40c-21.6,1.1-38.9,18.4-40,40v60.1
								c1.1,23.2,20.9,41.1,44.1,40C191.6,547.3,208.9,530,210,508.4"/>
							<path class="st5" d="M294.1,508.4v-60.1c0-23.2-18.8-42-42-42s-42,18.8-42,42v60.1c0,23.2,18.8,42,42,42
								S294.1,531.6,294.1,508.4"/>
							<path class="st6" d="M378.2,508.4v-60.1c-1.1-23.2-20.9-41.1-44.1-40c-21.6,1.1-38.9,18.4-40,40v60.1
								c-1.1,23.2,16.8,43,40,44.1s43-16.8,44.1-40C378.3,511.1,378.3,509.8,378.2,508.4"/>
							<path class="st5" d="M462.5,508.4v-60.1c0-23.2-18.8-42-42-42s-42,18.8-42,42v60.1c0,23.2,18.8,42,42,42
								S462.5,531.6,462.5,508.4"/>
							<path class="st7" d="M209.7,58.6c-15.2,0.1-27.5-12.2-27.6-27.4s12.2-27.5,27.4-27.6C224.7,3.5,237,15.8,237.1,31
								c0,0,0,0.1,0,0.1l0,0C237.1,46.2,224.8,58.5,209.7,58.6L209.7,58.6"/>
							<path class="st7" d="M209.4,53.4c-12.3,0-22.3-10-22.2-22.3s10-22.3,22.3-22.2c12.3,0,22.3,10,22.2,22.3
								c0,12.3-10,22.2-22.2,22.2H209.4"/>
							<path class="st6" d="M178.2,31.1c-0.1,17.2,13.9,31.2,31.1,31.3s31.2-13.9,31.3-31.1c0.1-17.2-13.9-31.2-31.1-31.3
								c0,0-0.1,0-0.1,0l0,0C192.2,0,178.3,13.9,178.2,31.1 M231.7,31.1c0,12.3-10,22.3-22.3,22.3c-12.3,0-22.3-10-22.3-22.3
								c0-12.3,10-22.3,22.3-22.3l0,0l0,0C221.7,8.8,231.7,18.8,231.7,31.1L231.7,31.1"/>
							<path class="st8" d="M209.7,212.2L209.7,212.2c-4.7,0-8.5,4.2-8.5,9.4v31h17v-31C218.2,216.4,214.4,212.2,209.7,212.2z"/>
							<path class="st9" d="M182.8,226.9L182.8,226.9v0.3c0,2.8-2.3,5.1-5.1,5.1c-2.8,0-5.1-2.3-5.1-5.1v-0.3l0,0V214l0,0
								c0.4-2.8,3-4.7,5.8-4.3c2.3,0.3,4,2.1,4.3,4.3l0,0L182.8,226.9z"/>
							<circle class="st1" cx="177.6" cy="215.7" r="3.9"/>
							<path class="st9" d="M173.6,198.9c0,0.4,0.2,0.7,0.4,1c0.4,0.5,1.2,0.6,1.8,0.2c0.1-0.1,0.1-0.1,0.1-0.2
								c0.5-0.5,1.1-0.8,1.8-0.8c0.7,0,1.3,0.4,1.7,0.9c0.5,0.5,1.2,0.6,1.8,0.2V200c0.6-0.6,0.6-1.6,0-2.2
								c-0.9-1.1-2.2-1.7-3.6-1.7c-1.4,0-2.8,0.6-3.7,1.7C173.7,198.1,173.6,198.5,173.6,198.9z"/>
							<path class="st9" d="M246.8,214.8L246.8,214.8v-0.3c-0.4-2.8-3-4.7-5.8-4.3c-2.3,0.3-4,2.1-4.3,4.3v0.3l0,0v12.8l0,0
								c0.2,2.8,2.6,4.8,5.4,4.6c0,0,0.1,0,0.1,0c2.4-0.2,4.4-2.2,4.5-4.6l0,0L246.8,214.8z"/>
							<circle class="st1" cx="241.7" cy="215.7" r="3.9"/>
							<path class="st9" d="M237.7,198.9c0,0.4,0.1,0.7,0.4,1c0.4,0.5,1.2,0.6,1.7,0.2c0,0,0,0,0,0l0.2-0.2c0.4-0.5,1-0.8,1.7-0.8
								c0.7,0,1.3,0.4,1.8,0.9c0.4,0.5,1.2,0.5,1.7,0.1c0,0,0,0,0,0h0.2c0.5-0.6,0.5-1.6,0-2.2c-1-1-2.3-1.7-3.7-1.7
								c-1.4,0-2.7,0.6-3.6,1.7C237.8,198.2,237.7,198.5,237.7,198.9z"/>
							<path class="st1" d="M209.7,250.2c-9.9,0-18.7-6.3-23.1-12.2l0,0c-2.7-3.2-7.5-3.6-10.7-0.9c-2.7,2.3-3.5,6.2-1.8,9.4l0,0
								c6,11.2,19.7,19,35.6,19l0,0L209.7,250.2L209.7,250.2z"/>
							<path class="st10" d="M238.8,235c-2.6,0-5.1,1.4-6.5,3.6l0,0c-5.1,7.4-13.6,11.7-22.6,11.6v15.2c16.2,0,29.9-7.7,35.7-19.2
								l0.2-0.3c1.8-3.7,0.3-8.2-3.4-10c0,0-0.1,0-0.1-0.1C241.1,235.3,239.9,235,238.8,235L238.8,235z"/>
							<path class="st11" d="M209.7,258.7c-14,0-26.6-7.7-32.1-19.5l1.6-0.8c5.3,11.2,17.3,18.5,30.5,18.5s25.6-7.4,30.6-18.7
								l1.7,0.7C236.6,250.9,224,258.7,209.7,258.7z"/>
							<circle class="st12" cx="180.8" cy="243" r="6.7"/>
						</g>
					</g>
				</g>
			</g>
		</g>
	</g>
</g>
</svg>
