<svg xmlns="http://www.w3.org/2000/svg" xmlns:xlink="http://www.w3.org/1999/xlink" viewBox="0 0 349.3 349.3">
  <defs>
    <clipPath id="f7c66b66-2ee2-4d39-8475-9ea0ca01ecd4" transform="translate(0 0)">
      <path d="M0,174.6c0,96.5,78.2,174.7,174.6,174.7A174.7,174.7,0,0,0,349.3,174.6C349.3,78.2,271.1,0,174.6,0S0,78.2,0,174.6" fill="none"/>
    </clipPath>
    <linearGradient id="bbd112f0-19db-4770-8e1a-7bc69a379c7b" x1="-1095.86" y1="5279" x2="-1094.86" y2="5279" gradientTransform="matrix(349.27, 0, 0, -349.27, 382747.29, 1843954.93)" gradientUnits="userSpaceOnUse">
      <stop offset="0" stop-color="#eda720"/>
      <stop offset="0.28" stop-color="#f5b614"/>
      <stop offset="0.67" stop-color="#fcc509"/>
      <stop offset="1" stop-color="#ffca05"/>
    </linearGradient>
  </defs>
  <g id="b61254fb-6093-423d-8274-377795fbcd00" data-name="Layer 2">
    <g id="a048cc5a-2606-493c-a7b3-83cd663261e9" data-name="bar&amp;buttons">
      <g clip-path="url(#f7c66b66-2ee2-4d39-8475-9ea0ca01ecd4)">
        <rect width="349.3" height="349.27" fill="url(#bbd112f0-19db-4770-8e1a-7bc69a379c7b)"/>
      </g>
      <g>
        <path d="M138.2,64.7H93.4A28.7,28.7,0,0,0,64.8,93.3v76.6c0,.4.1.7.1,1a51.4,51.4,0,0,0-8.8-.8,46.3,46.3,0,1,0,42.7,28.4h39.4a28.6,28.6,0,0,0,28.6-28.6V93.3a28.6,28.6,0,0,0-28.6-28.6" transform="translate(0 0)" fill="#333"/>
        <path d="M211,64.7h44.8a28.6,28.6,0,0,1,28.6,28.6v77.6a49.6,49.6,0,0,1,8.8-.8,46,46,0,1,1-42.8,28.4H211a28.6,28.6,0,0,1-28.6-28.6V93.3A28.6,28.6,0,0,1,211,64.7" transform="translate(0 0)"/>
        <path d="M68,180.4A105.1,105.1,0,1,0,173,75.3,105,105,0,0,0,68,180.4" transform="translate(0 0)" fill="#eacbc6"/>
        <path d="M49.1,176.3a11.8,11.8,0,0,0,0,23.6H74.6V176.3Z" transform="translate(0 0)" fill="#eacbc6"/>
        <path d="M66.5,188.1a4.1,4.1,0,1,0,4.1-4,4,4,0,0,0-4.1,4" transform="translate(0 0)" fill="#7da6d7"/>
        <path d="M300,176.3a11.8,11.8,0,1,1,0,23.6H274.5V176.3Z" transform="translate(0 0)" fill="#eacbc6"/>
        <path d="M282.5,188.1a4,4,0,1,1-4-4,4,4,0,0,1,4,4" transform="translate(0 0)" fill="#4b5da9"/>
        <path d="M207.3,177.3h0v.6a10.6,10.6,0,1,0,21.2,0v-.6h0V149.9h0a10.6,10.6,0,0,0-21.2,0h0Z" transform="translate(0 0)"/>
        <path d="M226.1,175.7a8.2,8.2,0,0,0-8.2-8.2,8.3,8.3,0,0,0,0,16.5,8.3,8.3,0,0,0,8.2-8.3" transform="translate(0 0)" fill="#fff"/>
        <path d="M120.4,177.3h.1c0,.2-.1.4-.1.6a10.7,10.7,0,1,0,21.3,0,1.3,1.3,0,0,0-.1-.6h.1V149.9h-.1a10.6,10.6,0,0,0-21.1,0h-.1Z" transform="translate(0 0)"/>
        <path d="M139.2,175.7a8.2,8.2,0,1,0-8.1,8.3,8.2,8.2,0,0,0,8.1-8.3" transform="translate(0 0)" fill="#fff"/>
        <path d="M91.2,217.6A15.9,15.9,0,1,0,107,201.7a15.8,15.8,0,0,0-15.8,15.9" transform="translate(0 0)" fill="#e0ada6"/>
        <path d="M219.8,217.6a15.9,15.9,0,1,0,15.9-15.9,15.9,15.9,0,0,0-15.9,15.9" transform="translate(0 0)" fill="#e0ada6"/>
        <path d="M157.6,203.9v11.4H173V186.9c-8.5,0-15.4,7.6-15.4,17" transform="translate(0 0)" fill="#4b5da9"/>
        <path d="M188.6,203.9c0-9.4-6.9-17-15.5-17H173v28.4h15.6Z" transform="translate(0 0)" fill="#7da6d7"/>
        <path d="M264.1,131.1a8.2,8.2,0,0,0-8.2-8.2H238.5a43,43,0,1,0,15.7,16.4h1.7a8.2,8.2,0,0,0,8.2-8.2M216.2,191a31.2,31.2,0,1,1,31.2-31.2A31.2,31.2,0,0,1,216.2,191" transform="translate(0 0)" fill="#7670b2"/>
        <path d="M90.2,139.3h1.7a43.3,43.3,0,1,0,15.7-16.4H90.2a8.2,8.2,0,1,0,0,16.4m8.5,20.5A31.2,31.2,0,1,1,129.9,191a31.2,31.2,0,0,1-31.2-31.2" transform="translate(0 0)" fill="#7670b2"/>
        <path d="M114.8,215.3a16,16,0,0,0,0,32h58.1v-32Z" transform="translate(0 0)" fill="#efeeef"/>
        <path d="M231.2,215.3H172.9v32h58.3a16,16,0,0,0,0-32" transform="translate(0 0)" fill="#fff"/>
        <rect x="114.4" y="229.6" width="117.6" height="3.37" fill="#7da6d7"/>
        <path d="M230.5,217.7h-.2a13.6,13.6,0,0,0,0,27.2h.2a13.6,13.6,0,0,0,0-27.2" transform="translate(0 0)" fill="#efeeef"/>
        <line x1="226.9" y1="152.1" x2="234.1" y2="152.1" fill="none" stroke="#000" stroke-linecap="round" stroke-linejoin="round"/>
        <line x1="226.9" y1="158.2" x2="234.1" y2="158.2" fill="none" stroke="#000" stroke-linecap="round" stroke-linejoin="round"/>
        <line x1="114.2" y1="152.1" x2="121.4" y2="152.1" fill="none" stroke="#000" stroke-linecap="round" stroke-linejoin="round"/>
        <line x1="114.2" y1="158.2" x2="121.4" y2="158.2" fill="none" stroke="#000" stroke-linecap="round" stroke-linejoin="round"/>
        <path d="M126.3,64.9v.2c-21.4,1.7-38,16.2-38,33.7s18.9,33.9,42.3,33.9,41.5-14.5,42.3-32.7h0V64.9Z" transform="translate(0 0)" fill="#333"/>
        <path d="M219.5,64.9v.2c21.3,1.7,38,16.2,38,33.7s-19,33.9-42.4,33.9-41.5-14.5-42.3-32.7h0V64.9Z" transform="translate(0 0)"/>
        <path d="M222.4,113.4h-9a3.8,3.8,0,0,0,0,7.6h9a3.8,3.8,0,0,0,0-7.6" transform="translate(0 0)" fill="#333"/>
        <path d="M135.5,113.4h-8.9a3.8,3.8,0,1,0,0,7.6h8.9a3.8,3.8,0,1,0,0-7.6" transform="translate(0 0)"/>
      </g>
    </g>
  </g>
</svg>
