<?xml version="1.0" encoding="utf-8"?>
<!-- Generator: Adobe Illustrator 26.0.2, SVG Export Plug-In . SVG Version: 6.00 Build 0)  -->
<svg version="1.1" id="Layer_1" xmlns="http://www.w3.org/2000/svg" xmlns:xlink="http://www.w3.org/1999/xlink" x="0px" y="0px"
	 viewBox="0 0 384.2 384.2" style="enable-background:new 0 0 384.2 384.2;" xml:space="preserve">
<style type="text/css">
	.st0{fill:#FFFFFF;}
	.st1{fill:#61BBB8;}
	.st2{clip-path:url(#SVGID_00000170981570832068917770000000736566654683866778_);}
	.st3{fill:#F05B33;}
	.st4{fill:#EF6342;}
	.st5{fill:#0081AC;}
	.st6{fill:#00A0B9;}
	.st7{fill:#DABCAA;}
	.st8{fill:#CEAB97;}
	.st9{fill:#1C0C0C;}
	.st10{fill:#36252B;}
	.st11{fill:#343333;}
	.st12{fill:#010101;}
	.st13{fill:#7CA2D2;}
	.st14{fill:#4D5EA7;}
	.st15{fill:#EDEDEE;}
	.st16{fill:#7DA4D5;}
</style>
<g id="ae70e634-c258-4bd1-ba48-7452d8d431c0">
	<g id="f8d8631a-de57-41e1-829b-1aec803b140e">
		<g>
			<path class="st0" d="M0,192.1c0,106.1,86,192.1,192.1,192.1s192.1-86,192.1-192.1S298.2,0,192.1,0S0,86,0,192.1"/>
			<path class="st1" d="M17.5,192.1c0,96.5,78.2,174.6,174.6,174.6s174.6-78.2,174.6-174.6S288.6,17.5,192.1,17.5
				C95.6,17.5,17.5,95.6,17.5,192.1C17.5,192.1,17.5,192.1,17.5,192.1"/>
		</g>
		<g>
			<defs>
				<path id="SVGID_1_" d="M17,192.1c0,96.7,78.4,175.1,175.1,175s175.1-78.4,175-175.1c0-96.7-78.4-175-175-175
					C95.4,17,17,95.4,17,192.1C17,192.1,17,192.1,17,192.1"/>
			</defs>
			<clipPath id="SVGID_00000087412033464207461690000005347026244917353389_">
				<use xlink:href="#SVGID_1_"  style="overflow:visible;"/>
			</clipPath>
			<g style="clip-path:url(#SVGID_00000087412033464207461690000005347026244917353389_);">
				<path class="st3" d="M264.7,393c-17.5,22.2-43,5.6-70.9,5.7V393H264.7z"/>
				<path class="st4" d="M193.8,393v5.7h-0.7c-28.5,0-54.1,16.6-71.6-5.7L193.8,393z"/>
				<path class="st5" d="M97.2,352.8v-53.5H85.7c-9.2,0-16.8,8.5-16.8,18.9S76.4,337,85.7,337v70.6h11.5V352.8z"/>
				<path class="st6" d="M288.9,352.8v-53.5h11.5c9.2,0,16.7,8.5,16.7,18.9s-7.5,18.8-16.7,18.8v70.6h-11.5V352.8z"/>
				<rect x="97.3" y="299.2" class="st5" width="96.4" height="133.4"/>
				<rect x="193.1" y="299.2" class="st6" width="96.5" height="133.4"/>
			</g>
		</g>
		<path class="st7" d="M292.2,139.5v128.6c0,52.4-44.8,94.8-100,94.9V139.5H292.2z"/>
		<path class="st8" d="M192.2,139.5v223.5h-0.1c-55.3,0-100.1-42.5-100.1-94.9V139.5H192.2z"/>
		<path class="st9" d="M125.4,254.3c-18.4,0-33.4-4.7-33.4,13.7c0,52.4,44.8,94.9,100.1,94.9h0.1c55.2,0,100-42.5,100-94.9
			c0-18.4-15-13.7-33.4-13.7L125.4,254.3z"/>
		<path class="st10" d="M168.2,45.1C123.8,54.6,92,93.8,92,136.4v26.2c45.2-12.5,78.2-52.1,78.2-99c0-6.2-0.6-12.4-1.7-18.4
			L168.2,45.1z"/>
		<path class="st9" d="M292.2,136.4v7.9c-2.4,2.3-4.9,4.6-7.5,6.7c-2.6,2.2-5.3,4.2-8,6c-45.8,31-115.4,26.3-145.6-13.8
			c-25.5-34-18.8-64-13.7-69c31.1-30.7,66.2-35.4,98.3-28.9c3.6,0.7,7.1,1.6,10.6,2.6C265.2,60.9,292.1,97.2,292.2,136.4"/>
		<path class="st11" d="M216,45.1c3.5,0.7,6.9,1.7,10.3,2.8c-3.5-1-7-1.8-10.6-2.6c0,0,0-0.1,0-0.1L216,45.1z"/>
		<path class="st12" d="M140.4,172.3h-7.2c-1.7,0-3,1.3-3,3s1.3,3,3,3h7.2c1.7,0,3-1.3,3-3S142,172.3,140.4,172.3"/>
		<path class="st12" d="M249.1,172.3h-7.2c-1.7,0-3,1.3-3,3s1.3,3,3,3h7.2c1.7,0,3-1.3,3-3S250.8,172.3,249.1,172.3"/>
		<path class="st7" d="M310.7,253.4h-18.5V210h18.5c12,0.3,21.5,10.2,21.2,22.2C331.7,243.8,322.3,253.1,310.7,253.4"/>
		<path class="st13" d="M307.9,231.7c0-4.1-3.3-7.4-7.4-7.4s-7.4,3.3-7.4,7.4c0,4.1,3.3,7.4,7.4,7.4
			C304.6,239.1,307.9,235.8,307.9,231.7C307.9,231.7,307.9,231.7,307.9,231.7"/>
		<path class="st8" d="M73.5,210H92v43.4H73.5c-12-0.3-21.5-10.2-21.2-22.2C52.5,219.6,61.9,210.2,73.5,210"/>
		<path class="st14" d="M76.3,231.7c0,4.1,3.3,7.4,7.4,7.4c4.1,0,7.4-3.3,7.4-7.4c0-4.1-3.3-7.4-7.4-7.4l0,0
			C79.6,224.3,76.3,227.6,76.3,231.7"/>
		<path class="st13" d="M212,210.6v55.8h-19.8v-77.7C203.2,188.9,212,198.6,212,210.6"/>
		<path class="st14" d="M172.2,210.6c0-12.1,8.9-21.9,19.9-21.9h0.1v77.7h-20L172.2,210.6z"/>
		<path class="st0" d="M123.7,256.5c-10.6,0-19.2,8.6-19.2,19.2s8.6,19.2,19.2,19.2h68.9v-38.5H123.7z"/>
		<path class="st15" d="M261.6,256.5c10.6,0,19.2,8.6,19.2,19.2s-8.6,19.2-19.2,19.2h-68.9v-38.5H261.6z"/>
		<rect x="123.2" y="273.7" class="st16" width="139.7" height="4.1"/>
		<path class="st0" d="M262.1,260.1h-0.2c-8.6,0.3-15.3,7.5-15,16.1c0.3,8.2,6.9,14.7,15,15h0.2c8.6-0.2,15.4-7.4,15.2-16
			C277.1,267,270.5,260.3,262.1,260.1"/>
		<path class="st9" d="M202,248c-1.6,0-3.3,0.5-4.6,1.4c-4-2.6-9.2-1.4-11.8,2.5c-2.6,4-1.4,9.2,2.5,11.8c2.8,1.8,6.5,1.8,9.3,0
			c4,2.6,9.2,1.4,11.8-2.5c2.6-4,1.4-9.2-2.5-11.8C205.3,248.5,203.6,248,202,248"/>
		<path class="st9" d="M221.4,248c-1.6,0-3.3,0.5-4.6,1.4c-4-2.6-9.2-1.4-11.8,2.5c-2.6,4-1.4,9.2,2.5,11.8c2.8,1.8,6.5,1.8,9.3,0
			c1.4,0.9,3,1.4,4.6,1.4c4.7,0,8.5-3.8,8.5-8.5C229.9,251.8,226.1,248,221.4,248"/>
		<path class="st9" d="M240.7,248c-1.6,0-3.3,0.5-4.6,1.4c-4-2.6-9.2-1.4-11.8,2.5c-2.6,4-1.4,9.2,2.5,11.8c2.8,1.8,6.5,1.8,9.3,0
			c1.4,0.9,3,1.4,4.6,1.4c4.7,0,8.5-3.8,8.5-8.5C249.2,251.8,245.4,248,240.7,248"/>
		<path class="st9" d="M260.1,248c-1.6,0-3.3,0.5-4.6,1.4c-4-2.6-9.2-1.4-11.8,2.5c-2.6,4-1.4,9.2,2.5,11.8c2.8,1.8,6.5,1.8,9.3,0
			c1.4,0.9,3,1.4,4.6,1.4c4.7,0,8.5-3.8,8.5-8.5C268.6,251.8,264.8,248,260.1,248"/>
		<path class="st9" d="M278.9,248c-1.6,0-3.3,0.5-4.6,1.4c-4-2.6-9.2-1.4-11.8,2.5c-2.6,4-1.4,9.2,2.5,11.8c2.8,1.8,6.5,1.8,9.3,0
			c4,2.6,9.2,1.4,11.8-2.5c2.6-4,1.4-9.2-2.5-11.8C282.1,248.5,280.5,248,278.9,248"/>
		<path class="st10" d="M182.6,248c-1.6,0-3.3,0.5-4.6,1.4c-4-2.6-9.2-1.4-11.8,2.5c-2.6,4-1.4,9.2,2.5,11.8c2.8,1.8,6.5,1.8,9.3,0
			c4,2.6,9.2,1.4,11.8-2.5c2.6-4,1.4-9.2-2.5-11.8C185.9,248.5,184.2,248,182.6,248"/>
		<path class="st10" d="M165.6,248c-1.6,0-3.3,0.5-4.6,1.4c-4-2.6-9.2-1.4-11.8,2.5c-2.6,4-1.4,9.2,2.5,11.8c2.8,1.8,6.5,1.8,9.3,0
			c1.4,0.9,3,1.4,4.6,1.4c4.7,0,8.5-3.8,8.5-8.5C174.1,251.8,170.3,248,165.6,248"/>
		<path class="st10" d="M148.6,248c-1.6,0-3.3,0.5-4.6,1.4c-4-2.6-9.2-1.4-11.8,2.5c-2.6,4-1.4,9.2,2.5,11.8c2.8,1.8,6.5,1.8,9.3,0
			c1.4,0.9,3,1.4,4.6,1.4c4.7,0,8.5-3.8,8.5-8.5C157.2,251.8,153.3,248,148.6,248"/>
		<path class="st10" d="M133.5,248.1c-2.2-0.5-4.6-0.1-6.5,1.2c-3.9-2.6-9.2-1.5-11.8,2.5c-2.6,3.9-1.5,9.2,2.5,11.8
			c1.4,0.9,3.1,1.4,4.7,1.4c1.6,0,3.3-0.5,4.6-1.4c1.4,0.9,3,1.4,4.6,1.4c4.7,0,8.6-3.8,8.6-8.5C140.2,252.5,137.4,249,133.5,248.1"
			/>
		<path class="st10" d="M115,248.1c-2.2-0.5-4.6-0.1-6.5,1.2c-3.9-2.6-9.2-1.5-11.8,2.5c-2.6,3.9-1.5,9.2,2.5,11.8
			c1.4,0.9,3,1.4,4.7,1.4c1.6,0,3.3-0.5,4.6-1.4c1.4,0.9,3,1.4,4.6,1.4c4.7,0,8.5-3.9,8.5-8.6C121.5,252.5,118.8,249.1,115,248.1"/>
		<path class="st12" d="M233.2,225.2L233.2,225.2c0,0.2,0,0.4,0,0.6c0,6.4,5.2,11.6,11.6,11.6s11.6-5.2,11.6-11.6c0-0.2,0-0.4,0-0.6
			l0,0v-29.9h0c-0.6-6.4-6.2-11.1-12.6-10.5c-5.6,0.5-10,4.9-10.5,10.5h-0.1L233.2,225.2z"/>
		<path class="st0" d="M253.7,223.5c-0.1-4.9-4.1-8.8-9-8.8c-4.9,0.1-8.8,4.1-8.8,9c0.1,4.9,4,8.8,8.9,8.8
			C249.8,232.5,253.8,228.4,253.7,223.5"/>
		<path class="st12" d="M125.2,225.2L125.2,225.2c0,0.2,0,0.4,0,0.6c0,6.4,5.2,11.6,11.6,11.6c6.4,0,11.6-5.2,11.6-11.6
			c0-0.2,0-0.4,0-0.6l0,0v-29.9h-0.1c-0.6-6.4-6.2-11.1-12.6-10.5c-5.6,0.5-10,4.9-10.5,10.5l0,0L125.2,225.2z"/>
		<path class="st0" d="M145.6,223.5c-0.1-4.9-4.1-8.8-9-8.8c-4.9,0.1-8.8,4.1-8.8,9c0.1,4.9,4,8.8,8.9,8.8
			C141.7,232.5,145.7,228.4,145.6,223.5"/>
	</g>
</g>
</svg>
