<?xml version="1.0" encoding="utf-8"?>
<!-- Generator: Adobe Illustrator 26.0.2, SVG Export Plug-In . SVG Version: 6.00 Build 0)  -->
<svg version="1.1" id="Layer_1" xmlns="http://www.w3.org/2000/svg" xmlns:xlink="http://www.w3.org/1999/xlink" x="0px" y="0px"
	 viewBox="0 0 385.1 385.1" style="enable-background:new 0 0 385.1 385.1;" xml:space="preserve">
<style type="text/css">
	.st0{fill:#FFFFFF;}
	.st1{fill:#FFCA06;}
	.st2{clip-path:url(#SVGID_00000160887501078065874360000008217926580591928468_);}
	.st3{fill:#F05B33;}
	.st4{fill:#EF6342;}
	.st5{fill:#C0D5EA;}
	.st6{fill:#010101;}
	.st7{fill:#343333;}
	.st8{fill:#FDD2B9;}
	.st9{fill:#FDD8BB;}
	.st10{clip-path:url(#SVGID_00000046327768296621795250000014751479056020762772_);}
	.st11{fill:#DFACA5;}
	.st12{fill:#4C5EA8;}
	.st13{fill:#7DA4D5;}
	.st14{fill:#EDEDEE;}
	.st15{fill:none;stroke:#343333;stroke-width:3.994;stroke-linecap:round;stroke-miterlimit:10;}
	.st16{fill:none;stroke:#010101;stroke-width:3.994;stroke-linecap:round;stroke-miterlimit:10;}
	.st17{fill:none;stroke:#010101;stroke-width:1.059;stroke-linecap:round;stroke-linejoin:round;}
</style>
<g id="bbcba2fc-02b0-40a0-ad33-0b71cebc5dcf">
	<g id="b7d6d7c1-9054-4fd4-b9b0-eca22ee3f7fc">
		<g>
			<path class="st0" d="M385.1,192.6c0,106.4-86.2,192.6-192.6,192.6S0,298.9,0,192.6S86.2,0,192.6,0S385.1,86.2,385.1,192.6"/>
			<path class="st1" d="M367.6,192.6c0,96.7-78.4,175.1-175.1,175.1c-96.7,0-175.1-78.4-175.1-175.1c0-96.7,78.4-175.1,175.1-175.1
				C289.3,17.5,367.6,95.9,367.6,192.6C367.6,192.6,367.6,192.6,367.6,192.6"/>
		</g>
		<g>
			<defs>
				<path id="SVGID_1_" d="M17.7,192.6c0,96.7,78.4,175.1,175.1,175.1s175.1-78.4,175.1-175.1S289.5,17.5,192.8,17.5c0,0,0,0,0,0
					C96.1,17.5,17.7,95.9,17.7,192.6C17.7,192.6,17.7,192.6,17.7,192.6"/>
			</defs>
			<clipPath id="SVGID_00000041996106768573403710000009167993075779858085_">
				<use xlink:href="#SVGID_1_"  style="overflow:visible;"/>
			</clipPath>
			<g style="clip-path:url(#SVGID_00000041996106768573403710000009167993075779858085_);">
				<path class="st3" d="M252.8,406.7c-14.9,22.2-36.5,5.6-60.2,5.7v-5.7H252.8z"/>
				<path class="st4" d="M192.6,406.7v5.7H192c-24.2,0-45.9,16.6-60.8-5.7H192.6z"/>
				<path class="st5" d="M242.1,241.4c-30.8,37.4-36.8,86.3-13.5,109.3s67.2,11.4,98-26s36.8-86.3,13.5-109.3
					S272.9,204.1,242.1,241.4"/>
				<path class="st5" d="M142.4,241.4c30.8,37.4,36.8,86.3,13.5,109.3s-67.2,11.4-98-26s-36.8-86.3-13.5-109.3
					S111.7,204.1,142.4,241.4"/>
				<path class="st6" d="M111.5,367.4v-53.5h-9.7c-7.8,0-14.1,8.5-14.1,18.9s6.3,18.9,14.1,18.9v70.5h9.7V367.4z"/>
				<path class="st7" d="M273.3,367.4v-53.5h9.7c7.8,0,14.1,8.5,14.1,18.9s-6.3,18.9-14.1,18.9v70.6h-9.7L273.3,367.4z"/>
				<rect x="111.6" y="313.8" class="st6" width="81.1" height="133.4"/>
				<rect x="192.2" y="313.8" class="st7" width="81.1" height="133.4"/>
			</g>
		</g>
		<g>
			<path class="st6" d="M192.6,101.9V344h12.5c55.5,0,100.5-48.1,100.5-107.4V223C305.6,156.2,255,102.1,192.6,101.9"/>
			<path class="st7" d="M192.3,101.9L192.3,101.9C129.7,101.9,79,156.1,79,223v13.7C79,295.9,124,344,179.5,344h13.1V101.9
				L192.3,101.9"/>
			<path class="st8" d="M192.8,152.4c-51.1,0-92.9,23.6-92.9,90.9c0,53.6,34.4,85,67.7,95.6c0.3,0.4,0.6,0.8,1,1.1l0.2,0.2
				c0.3,0.3,0.6,0.6,0.9,0.9l0.2,0.2c0.3,0.3,0.7,0.6,1,0.9c0.1,0,0.1,0.1,0.1,0.1c0.8,0.7,1.7,1.3,2.5,1.9l0.3,0.2
				c0.3,0.2,0.7,0.4,1,0.6l0.4,0.2c0.4,0.2,0.8,0.4,1.1,0.6l0.3,0.2c0.5,0.2,1,0.5,1.5,0.7l0,0c0.5,0.2,1,0.4,1.5,0.6l0.4,0.2
				l1.1,0.4l0.5,0.2c0.4,0.1,0.8,0.2,1.2,0.4l0.4,0.1c0.6,0.1,1.1,0.3,1.6,0.4h0.1c0.5,0.1,1.1,0.2,1.6,0.3l0.5,0.1l1.2,0.2l0.6,0.1
				l1.2,0.1h0.6c0.6,0,1.2,0,1.8,0h0.2L192.8,152.4L192.8,152.4"/>
			<path class="st9" d="M192.8,152.4v197.5c0.7,0,1.3,0,1.9-0.1h0.5l1.5-0.1l0.4,0c0.6-0.1,1.2-0.2,1.8-0.3l0.4-0.1
				c0.5-0.1,1-0.2,1.5-0.3l0.5-0.1c0.6-0.1,1.1-0.3,1.6-0.4h0.1c0.6-0.2,1.2-0.4,1.7-0.6l0.4-0.1c0.5-0.2,0.9-0.4,1.4-0.5l0.3-0.1
				c0.6-0.2,1.1-0.5,1.6-0.8l0,0c0.5-0.3,1-0.5,1.5-0.8l0.3-0.2c0.5-0.3,0.9-0.6,1.4-0.9h0.1c0.5-0.3,1-0.7,1.5-1l0.1-0.1
				c0.4-0.3,0.8-0.7,1.2-1l0.2-0.1c0.9-0.8,1.7-1.6,2.4-2.4l0.1-0.1c0.4-0.4,0.7-0.8,1-1.3l0,0c0.4-0.5,0.7-1,1-1.4
				c29.9-12.4,65.3-43.1,65.3-93.2c0-67.3-40.9-90.9-92-90.9"/>
		</g>
		<g>
			<defs>
				<path id="SVGID_00000075135796195273047890000006916659279835255713_" d="M99.8,243.3c0,67.3,54.2,99.7,92.5,99.7
					c28.4,0,92.5-32.3,92.5-99.6s-40.9-90.9-92-90.9S99.8,176,99.8,243.3"/>
			</defs>
			<clipPath id="SVGID_00000131368140648065388020000009139581962614016696_">
				<use xlink:href="#SVGID_00000075135796195273047890000006916659279835255713_"  style="overflow:visible;"/>
			</clipPath>
			<g style="clip-path:url(#SVGID_00000131368140648065388020000009139581962614016696_);">
				<path class="st11" d="M137.4,255.4c0,9.4-7.2,16.9-16.1,16.9s-16.1-7.6-16.1-16.9s7.2-17,16.1-17S137.4,245.9,137.4,255.4"/>
				<path class="st11" d="M279.5,255.4c0,9.4-7.2,16.9-16.1,16.9s-16.1-7.6-16.1-16.9s7.2-17,16.1-17S279.5,245.9,279.5,255.4"/>
				<path class="st12" d="M175.8,273.7v12.8h16.3v-31.7C183.2,254.8,175.8,263.2,175.8,273.7"/>
				<path class="st13" d="M208.7,273.7c0-10.5-7.4-19-16.4-19h-0.1v31.7h16.5V273.7z"/>
				<path class="st0" d="M192.1,284.5c-18.7,0-35.3-12.5-43.6-24.3l0,0c-2.6-3.7-6.8-5.9-11.4-5.9c-7.9,0-14.3,6.7-14.3,15
					c0,2.7,0.7,5.3,2,7.7l0,0c11.3,22.2,37.2,37.7,67.4,37.7l0,0L192.1,284.5L192.1,284.5"/>
				<path class="st14" d="M247.1,254.3c-5,0-9.6,2.7-12.1,7.1l0,0c-9.4,14.5-25.5,23.2-42.8,23.1v30.2c30.7,0,56.5-15.3,67.5-38.2
					l0.3-0.6c1-2.1,1.5-4.3,1.5-6.6C261.4,261,255,254.3,247.1,254.3"/>
				<path class="st13" d="M192.2,301.3c-26.4,0-50.3-15.2-60.8-38.7l3.1-1.5c10,22.3,32.6,36.6,57.7,36.6
					c25.6,0,48.3-14.6,57.8-37.1l3.1,1.5C243.1,285.9,219.2,301.3,192.2,301.3"/>
				<path class="st0" d="M234.6,269.3c0,7.3,5.7,13.3,12.6,13.3s12.6-6,12.6-13.3s-5.7-13.3-12.6-13.3S234.6,262,234.6,269.3"/>
			</g>
		</g>
		<path class="st15" d="M164.4,118.3c6.8-30.4-12.4-60.5-42.8-67.3c-24.3-5.4-48.4,9.9-53.8,34.2c0,0,0,0,0,0
			c-4.3,19.4,7.9,38.7,27.3,43.1c0,0,0,0,0,0c15.6,3.5,31-6.3,34.5-21.9c0,0,0,0,0,0c2.8-12.4-5.1-24.8-17.5-27.6
			c-9.9-2.2-19.8,4.1-22,14c-1.8,8,3.2,15.9,11.2,17.6c0,0,0,0,0,0"/>
		<path class="st16" d="M220.2,118.3C213.5,87.9,232.6,57.8,263,51c24.3-5.4,48.4,9.9,53.8,34.2c0,0,0,0,0,0
			c4.3,19.4-7.9,38.7-27.3,43.1c0,0,0,0,0,0c-15.6,3.5-31-6.3-34.5-21.9c0,0,0,0,0-0.1c-2.8-12.4,5.1-24.8,17.5-27.6
			c10-2.2,19.8,4,22.1,14c1.8,8-3.2,15.9-11.2,17.6"/>
		<path class="st6" d="M228.6,232.6L228.6,232.6c0,0.2,0,0.4,0,0.6c0,6.2,5,11.2,11.2,11.2s11.2-5,11.2-11.2l0,0c0-0.2,0-0.4,0-0.6
			l0,0v-29h-0.1c-0.5-6.2-6-10.8-12.1-10.2c-5.5,0.5-9.8,4.8-10.2,10.2h-0.1V232.6z"/>
		<path class="st0" d="M248.5,218.2c-0.1-4.8-4-8.6-8.7-8.5c-4.8,0.1-8.6,4-8.5,8.7c0.1,4.7,3.9,8.5,8.6,8.5
			C244.6,226.9,248.5,223,248.5,218.2"/>
		<line class="st17" x1="249.4" y1="205.9" x2="257" y2="205.9"/>
		<line class="st17" x1="249.4" y1="212.3" x2="257" y2="212.3"/>
		<path class="st6" d="M154.3,232.6L154.3,232.6c0,0.2,0,0.4,0,0.6c0,6.2-5,11.2-11.2,11.2s-11.2-5-11.2-11.2l0,0c0-0.2,0-0.4,0-0.6
			l0,0v-29h0.1c0.6-6.2,6-10.7,12.2-10.2c5.4,0.5,9.7,4.8,10.2,10.2h0.1V232.6z"/>
		<path class="st0" d="M134.4,218.2c0.1-4.8,4-8.6,8.8-8.5s8.6,4,8.5,8.8c-0.1,4.7-3.9,8.5-8.6,8.5
			C138.2,227,134.4,223.1,134.4,218.2"/>
		<line class="st17" x1="133.5" y1="205.9" x2="125.9" y2="205.9"/>
		<line class="st17" x1="133.5" y1="212.3" x2="125.9" y2="212.3"/>
		<path class="st6" d="M244.6,170.8h-9.5c-2.2,0-4,1.8-4,4s1.8,4,4,4h9.5c2.2,0,4-1.8,4-4S246.8,170.8,244.6,170.8"/>
		<path class="st6" d="M147.8,170.8h-9.5c-2.2,0-4,1.8-4,4s1.8,4,4,4h9.5c2.2,0,4-1.8,4-4S150,170.8,147.8,170.8"/>
	</g>
</g>
</svg>
