<svg xmlns="http://www.w3.org/2000/svg" viewBox="0 0 118.4 76">
  <g id="e4823248-76d8-4c97-8497-b2646da0bc20" data-name="Layer 2">
    <g id="fd573c23-8b7d-4104-9d0c-2eb2719ec956" data-name="Layer 1">
      <g>
        <g>
          <path d="M55.7,73.4a194,194,0,0,1-26-1.5c-9.2-1.2-12.8-3-12.8-6V29.2a2.3,2.3,0,0,1,1.1-2,2.6,2.6,0,0,1,2.4-.3L55.7,40.3,91.1,26.9a2.4,2.4,0,0,1,2.3.3,2.3,2.3,0,0,1,1.1,2V65.9c0,3-3.6,4.8-12.8,6A192.9,192.9,0,0,1,55.7,73.4Z" fill="#4b5da9"/>
          <path d="M55.7,45.6l-.9-.2L1.6,25.2A2.8,2.8,0,0,1,0,22.8a2.7,2.7,0,0,1,1.6-2.4L54.8.2a1.9,1.9,0,0,1,1.8,0l53.2,20.2a2.5,2.5,0,0,1,1.6,2.4,2.6,2.6,0,0,1-1.6,2.4L56.6,45.4Z" fill="#4b5da9"/>
          <path d="M108.9,43.1a2.6,2.6,0,0,1-2.5-2.6V25.3H58.3a2.5,2.5,0,1,1,0-5h50.6a2.5,2.5,0,0,1,2.5,2.5V40.5A2.6,2.6,0,0,1,108.9,43.1Z" fill="#4b5da9"/>
          <path d="M108.9,76a9.5,9.5,0,0,1-7-3.1,9.2,9.2,0,0,1-2.4-7.2l1.8-20.2a7.6,7.6,0,0,1,15.2,0l1.8,20.2a9.2,9.2,0,0,1-2.4,7.2A9.3,9.3,0,0,1,108.9,76Z" fill="#4b5da9"/>
        </g>
        <path d="M108.9,43.1a2.5,2.5,0,0,0-2.5,2.5v.2l-1.9,20.3a4.2,4.2,0,0,0,1.2,3.4,4.3,4.3,0,0,0,3.2,1.4,4.3,4.3,0,0,0,4.4-4.8l-1.8-20.3c-.1-.1-.1-.1-.1-.2A2.5,2.5,0,0,0,108.9,43.1Z" fill="#ffca05"/>
        <path d="M22,65c2.6,1.3,14,3.4,33.7,3.4S86.8,66.3,89.5,65V32.9L56.6,45.4a2.8,2.8,0,0,1-1.8,0L22,32.9Z" fill="#fff"/>
        <polygon points="9.6 22.8 55.7 40.3 101.8 22.8 55.7 5.2 9.6 22.8" fill="#fff"/>
        <path d="M28.4,60.3A3.3,3.3,0,0,1,25,57V44.3a3.4,3.4,0,0,1,6.7,0V57A3.3,3.3,0,0,1,28.4,60.3Z" fill="#7da6d7"/>
      </g>
    </g>
  </g>
</svg>
