<svg xmlns="http://www.w3.org/2000/svg" viewBox="0 0 86.9 71.1">
  <g id="f23b1a33-ce23-48d1-b255-9cf393cfc158" data-name="Layer 2">
    <g id="ec613a48-b9dc-49fd-8d7e-93a56d16a502" data-name="Layer 1">
      <g>
        <g>
          <path d="M64.8,68.8a9.6,9.6,0,0,0,9.5-9.6V29.7a2.1,2.1,0,0,0-.9-1.8L44.5,5.3a2.2,2.2,0,0,0-2.8,0L13.5,27.4a2.4,2.4,0,0,0-.9,1.8v30a9.6,9.6,0,0,0,9.6,9.6Z" fill="#ffca05"/>
          <path d="M43.1,7.1,72,29.7V59.2a7.3,7.3,0,0,1-7.2,7.3H22.2a7.3,7.3,0,0,1-7.3-7.3v-30L43.1,7.1m0-4.6a4.2,4.2,0,0,0-2.8,1L12.1,25.6a4.5,4.5,0,0,0-1.8,3.6v30A11.9,11.9,0,0,0,22.2,71.1H64.8A11.8,11.8,0,0,0,76.6,59.2V29.7A4.9,4.9,0,0,0,74.8,26L45.9,3.5a4.2,4.2,0,0,0-2.8-1Z" fill="#4b5da9"/>
        </g>
        <g>
          <path d="M3.6,33.8,40.3,3.6a4.2,4.2,0,0,1,3.2-1.3,4.5,4.5,0,0,1,3.2,1.3L83.3,33.8a4.5,4.5,0,0,1,0,6.4,4.5,4.5,0,0,1-6.3,0L43.5,13.1,9.9,40.2a4.5,4.5,0,0,1-6.3,0A4.7,4.7,0,0,1,3.6,33.8Z" fill="#ffca05"/>
          <path d="M2,41.8a6.7,6.7,0,0,1,0-9.6h.1L38.7,1.9A7,7,0,0,1,43.4,0a6.9,6.9,0,0,1,4.8,1.9L84.8,32.1h.1a6.8,6.8,0,0,1-9.5,9.7L43.5,16l-32,25.9a7,7,0,0,1-4.7,1.9h0A6.7,6.7,0,0,1,2,41.8ZM44.9,11.3,78.4,38.4c.1,0,.1.1.2.2a2.3,2.3,0,0,0,3.1,0,2.4,2.4,0,0,0,.1-3.1L45.2,5.4,45,5.2a2.1,2.1,0,0,0-1.6-.6,2.2,2.2,0,0,0-1.5.6l-.2.2L5.2,35.5a2.3,2.3,0,0,0,0,3.1,2.3,2.3,0,0,0,1.6.6h0a2,2,0,0,0,1.5-.6c.1-.1.1-.2.2-.2L42,11.3a2.7,2.7,0,0,1,1.5-.5A2.4,2.4,0,0,1,44.9,11.3Z" fill="#4b5da9"/>
        </g>
        <g>
          <path d="M3.6,33.8,40.3,3.6a4.2,4.2,0,0,1,3.2-1.3,4.5,4.5,0,0,1,3.2,1.3L83.3,33.8a4.5,4.5,0,0,1,0,6.4,4.5,4.5,0,0,1-6.3,0L43.5,13.1,9.9,40.2a4.5,4.5,0,0,1-6.3,0A4.7,4.7,0,0,1,3.6,33.8Z" fill="#ffca05"/>
          <path d="M2,41.8a6.7,6.7,0,0,1,0-9.6h.1L38.7,1.9A7,7,0,0,1,43.4,0a6.9,6.9,0,0,1,4.8,1.9L84.8,32.1h.1a6.8,6.8,0,0,1-9.5,9.7L43.5,16l-32,25.9a7,7,0,0,1-4.7,1.9h0A6.7,6.7,0,0,1,2,41.8ZM44.9,11.3,78.4,38.4c.1,0,.1.1.2.2a2.3,2.3,0,0,0,3.1,0,2.4,2.4,0,0,0,.1-3.1L45.2,5.4,45,5.2a2.1,2.1,0,0,0-1.6-.6,2.2,2.2,0,0,0-1.5.6l-.2.2L5.2,35.5a2.3,2.3,0,0,0,0,3.1,2.3,2.3,0,0,0,1.6.6h0a2,2,0,0,0,1.5-.6c.1-.1.1-.2.2-.2L42,11.3a2.7,2.7,0,0,1,1.5-.5A2.4,2.4,0,0,1,44.9,11.3Z" fill="#4b5da9"/>
        </g>
        <g>
          <path d="M12.6,25.3v5.2a2.3,2.3,0,0,0,2.3,2.3h7a2.3,2.3,0,0,0,2.3-2.3V16Z" fill="#fff"/>
          <path d="M24.2,7a4.5,4.5,0,0,0-4.5-4.4H17.1A4.5,4.5,0,0,0,12.6,7V25.3L24.2,16Z" fill="#fff"/>
        </g>
        <path d="M43.2,2.3a4.8,4.8,0,0,0-2.9,1.3L3.6,33.8a4.7,4.7,0,0,0,0,6.4,4.7,4.7,0,0,0,6.4,0L43.2,13.3Z" fill="#ffca05"/>
        <path d="M43.7,7.5,72,29.7V59.2a7.3,7.3,0,0,1-7.2,7.3H43.7Z" fill="#fff"/>
        <path d="M84.9,32.2h-.1L48.2,1.9A6.9,6.9,0,0,0,43.4,0a7,7,0,0,0-4.7,1.9L26.5,12V7A6.8,6.8,0,0,0,19.7.3H17.1A6.8,6.8,0,0,0,10.3,7V25.3L2.1,32.1H2a6.7,6.7,0,0,0,0,9.6,6.7,6.7,0,0,0,4.8,2h0a7,7,0,0,0,4.7-1.9L43.5,16,75.4,41.9a6.8,6.8,0,0,0,9.5-9.7Zm-3.2,6.4a2.3,2.3,0,0,1-3.1,0c-.1-.1-.1-.2-.2-.2L44.9,11.3a2.4,2.4,0,0,0-1.4-.5,2.7,2.7,0,0,0-1.5.5L8.5,38.4c-.1,0-.1.1-.2.2a2,2,0,0,1-1.5.6h0a2.3,2.3,0,0,1-1.6-.6,2.3,2.3,0,0,1,0-3.1L41.7,5.4l.2-.2a2.2,2.2,0,0,1,1.5-.6,2.1,2.1,0,0,1,1.6.6l.2.2L81.8,35.5A2.4,2.4,0,0,1,81.7,38.6Z" fill="#4b5da9"/>
        <g>
          <path d="M50.2,68.8a2.3,2.3,0,0,0,2.3-2.3V48.6A5.6,5.6,0,0,0,47,43H40a5.6,5.6,0,0,0-5.6,5.6V66.5a2.3,2.3,0,0,0,2.3,2.3Z" fill="#ffca05"/>
          <path d="M40,45.3h7a3.2,3.2,0,0,1,3.2,3.3V66.5H36.7V48.6A3.3,3.3,0,0,1,40,45.3m0-4.6a7.9,7.9,0,0,0-7.9,7.9V66.5a4.6,4.6,0,0,0,4.6,4.6H50.2a4.6,4.6,0,0,0,4.6-4.6V48.6A7.9,7.9,0,0,0,47,40.7Z" fill="#4b5da9"/>
        </g>
        <path d="M65.7,62A2.3,2.3,0,0,0,68,59.7V46a2.3,2.3,0,0,0-4.6,0V59.7A2.3,2.3,0,0,0,65.7,62Z" fill="#7da6d7"/>
        <path d="M44.9,11.3,78.4,38.4c.1,0,.1.1.2.2a2.3,2.3,0,0,0,3.1,0,2.4,2.4,0,0,0,.1-3.1L45.2,5.4,45,5.2a2.1,2.1,0,0,0-1.6-.6,2.2,2.2,0,0,0-1.5.6l-.2.2L5.2,35.5a2.3,2.3,0,0,0,0,3.1,2.3,2.3,0,0,0,1.6.6h0a2,2,0,0,0,1.5-.6c.1-.1.1-.2.2-.2L42,11.3a2.7,2.7,0,0,1,1.5-.5A2.4,2.4,0,0,1,44.9,11.3Z" fill="#fff"/>
      </g>
    </g>
  </g>
</svg>
