<svg xmlns="http://www.w3.org/2000/svg" viewBox="0 0 116 72.3">
  <g id="a5cf9a41-6eaf-4d0f-9909-a332cc6f4679" data-name="Layer 2">
    <g id="ecdf6c33-4d55-44cd-a160-f2f037c5f9a4" data-name="Layer 1">
      <g>
        <path d="M4.7,60.4H111.3a7.9,7.9,0,0,1-7.9,7.2H12.7a8,8,0,0,1-8-7.2" fill="#fff"/>
        <path d="M53,65.8H63.1a2.1,2.1,0,0,0,2-2.1,2,2,0,0,0-2-2H53a2,2,0,0,0-2.1,2A2.1,2.1,0,0,0,53,65.8Z" fill="#4b5da9"/>
        <g>
          <path d="M58,47.4v8.3H40l5.1-5.5a8.4,8.4,0,0,1,6.3-2.8Z" fill="#ffca05"/>
          <path d="M58,47.4v8.3H76l-5.1-5.5a8.4,8.4,0,0,0-6.3-2.8Z" fill="#fff"/>
        </g>
        <path d="M114.8,57.2a5.1,5.1,0,0,0-3.5-1.5h-3.7V12.2A12.2,12.2,0,0,0,95.4,0H20.6A12.2,12.2,0,0,0,8.4,12.2V55.7H4.7a5.1,5.1,0,0,0-3.5,1.5A5,5,0,0,0,0,60.9,12.7,12.7,0,0,0,12.7,72.3h90.7A12.7,12.7,0,0,0,116,60.9,5,5,0,0,0,114.8,57.2ZM76,55.7H40l5.1-5.5a8.4,8.4,0,0,1,6.3-2.8H64.6a8.4,8.4,0,0,1,6.3,2.8Zm27.4,11.9H12.7a8,8,0,0,1-8-7.2H111.3A7.9,7.9,0,0,1,103.4,67.6Z" fill="#4b5da9"/>
        <path d="M82.4,55.7l-8-8.7a13.5,13.5,0,0,0-9.8-4.3H51.4A13.6,13.6,0,0,0,41.6,47l-8,8.7H21.4V13a.4.4,0,0,1,.4-.4H94.2c.3,0,.5.1.5.4V55.7Z" fill="#fff"/>
        <path d="M66.6,20A12,12,0,0,0,58,16.4,12.2,12.2,0,0,0,49.4,20a11.9,11.9,0,0,0-3.5,8.6,11.6,11.6,0,0,0,3.6,8.5A11.8,11.8,0,0,0,58,40.7a12,12,0,0,0,8.6-3.6,12.2,12.2,0,0,0,0-17.1ZM63.3,33.8A7.5,7.5,0,0,1,58,36a7.3,7.3,0,0,1-5.2-2.2,6.9,6.9,0,0,1-2.2-5.2,7.1,7.1,0,0,1,2.2-5.3A7.2,7.2,0,0,1,58,21.2a7.2,7.2,0,0,1,7.4,7.4A7.2,7.2,0,0,1,63.3,33.8Z" fill="#4b5da9"/>
        <path d="M13.1,12.2a7.6,7.6,0,0,1,7.5-7.5H95.4a7.6,7.6,0,0,1,7.5,7.5V55.7H99.4V13a5.1,5.1,0,0,0-5.2-5.1H21.8A5.1,5.1,0,0,0,16.7,13V55.7H13.1Z" fill="#fff"/>
        <path d="M88.7,40.2a2.3,2.3,0,0,1-2.3-2.3v-9a2.3,2.3,0,0,1,2.3-2.4,2.4,2.4,0,0,1,2.4,2.4v9A2.3,2.3,0,0,1,88.7,40.2Z" fill="#7da6d7"/>
      </g>
    </g>
  </g>
</svg>
