<svg xmlns="http://www.w3.org/2000/svg" viewBox="0 0 71.1 70.4">
  <g id="ab677452-4c93-4790-939e-a54a96fe9616" data-name="Layer 2">
    <g id="e5ec5b50-4473-4774-af6e-4312dc431764" data-name="Layer 1">
      <g>
        <g>
          <g>
            <path d="M9.7,68.1a7.5,7.5,0,0,1-7.4-7.5V9.7A7.4,7.4,0,0,1,9.7,2.3H33.2a2,2,0,0,1,1.6.7L49.5,17.6a2.3,2.3,0,0,1,.6,1.6V60.6a7.5,7.5,0,0,1-7.4,7.5Z" fill="#fff"/>
            <path d="M33.2,4.6,47.8,19.2V60.6a5.2,5.2,0,0,1-5.1,5.2H9.7a5.2,5.2,0,0,1-5.1-5.2V9.7A5.1,5.1,0,0,1,9.7,4.6H33.2m0-4.6H9.7A9.8,9.8,0,0,0,0,9.7V60.6a9.8,9.8,0,0,0,9.7,9.8h33a9.7,9.7,0,0,0,9.7-9.8V19.2A4.6,4.6,0,0,0,51.1,16L36.5,1.3A5.1,5.1,0,0,0,33.2,0Z" fill="#4b5da9"/>
          </g>
          <path d="M35,1.8a5.7,5.7,0,0,0-1.8.3,4.6,4.6,0,0,0-2.8,4.3V12a9.6,9.6,0,0,0,9.7,9.7h5.6A4.6,4.6,0,0,0,49,13.9L38.2,3.1A4.4,4.4,0,0,0,35,1.8Z" fill="#4b5da9"/>
          <g>
            <line x1="14.5" y1="26.9" x2="38" y2="26.9" fill="#ffca05"/>
            <path d="M38,29.2H14.5a2.3,2.3,0,1,1,0-4.6H38a2.3,2.3,0,1,1,0,4.6Z" fill="#4b5da9"/>
          </g>
          <g>
            <line x1="14.5" y1="35.6" x2="38" y2="35.6" fill="#ffca05"/>
            <path d="M38,37.9H14.5a2.3,2.3,0,0,1,0-4.6H38a2.3,2.3,0,0,1,0,4.6Z" fill="#4b5da9"/>
          </g>
          <g>
            <line x1="14.5" y1="44.3" x2="38" y2="44.3" fill="#ffca05"/>
            <path d="M38,46.6H14.5a2.3,2.3,0,0,1-2.3-2.3A2.3,2.3,0,0,1,14.5,42H38a2.3,2.3,0,0,1,2.3,2.3A2.4,2.4,0,0,1,38,46.6Z" fill="#4b5da9"/>
          </g>
          <g>
            <line x1="14.5" y1="52.9" x2="38" y2="52.9" fill="#ffca05"/>
            <path d="M38,55.2H14.5a2.3,2.3,0,0,1,0-4.6H38a2.3,2.3,0,1,1,0,4.6Z" fill="#4b5da9"/>
          </g>
        </g>
        <path d="M23.8,12.9H14.5a2.3,2.3,0,1,1,0-4.6h9.3a2.3,2.3,0,1,1,0,4.6Z" fill="#7da6d7"/>
      </g>
      <path d="M35,6.4,45.7,17.1H40.1A5.1,5.1,0,0,1,35,12V6.4" fill="#ffca05"/>
      <g>
        <g>
          <path d="M29.5,64.3a4.2,4.2,0,0,1-3.4-1.7,4.1,4.1,0,0,1-.9-3.7L27,49.7a8.8,8.8,0,0,1,2.5-4.5L53.1,21.6a6.3,6.3,0,0,1,9,0l5.6,5.6a6.5,6.5,0,0,1,0,9L44.1,59.8a8.9,8.9,0,0,1-4.6,2.4l-9,2Z" fill="#fff"/>
          <path d="M57.6,21.3A5.1,5.1,0,0,1,61,22.7l5.5,5.6a4.6,4.6,0,0,1,0,6.7L42.9,58.6a6.9,6.9,0,0,1-3.7,2.1l-9,1.9h-.7a2.9,2.9,0,0,1-2.8-3.5L28.6,50a7.5,7.5,0,0,1,2-3.7L54.2,22.7a4.9,4.9,0,0,1,3.4-1.4m0-3.2a8,8,0,0,0-5.7,2.4L28.4,44a10.6,10.6,0,0,0-2.9,5.4l-1.9,9.2a6.3,6.3,0,0,0,1.2,5.1,6.2,6.2,0,0,0,4.7,2.2h1.3l9.1-2a10.3,10.3,0,0,0,5.3-2.9L68.8,37.3a8.1,8.1,0,0,0,0-11.3l-5.6-5.5a8,8,0,0,0-5.6-2.4Z" fill="#4b5da9"/>
        </g>
        <rect x="29.4" y="34.5" width="27.8" height="7.7" transform="translate(-14.4 41.9) rotate(-45)" fill="#ffca05"/>
        <g>
          <line x1="43" y1="59.1" x2="29.8" y2="46" fill="#ffca05"/>
          <rect x="34.8" y="43.3" width="3.2" height="18.59" transform="translate(-26.5 41.1) rotate(-45)" fill="#4b5da9"/>
        </g>
        <g>
          <line x1="64" y1="38.1" x2="50.9" y2="25" fill="#ffca05"/>
          <rect x="55.9" y="22.2" width="3.2" height="18.59" transform="translate(-5.5 49.9) rotate(-45)" fill="#4b5da9"/>
        </g>
        <path d="M30.2,62.6l4-.8-6.6-6.7-.9,4.1A2.9,2.9,0,0,0,30.2,62.6Z" fill="#4b5da9"/>
        <g>
          <line x1="37.2" y1="52" x2="57.2" y2="32.1" fill="#ffca05"/>
          <rect x="33.1" y="40.5" width="28.2" height="3.19" transform="translate(-15.9 45.7) rotate(-45)" fill="#4b5da9"/>
        </g>
        <path d="M48.4,49.8a1.3,1.3,0,0,1-1.1-.5,1.6,1.6,0,0,1,0-2.2l8.2-8.2a1.6,1.6,0,0,1,2.3.1,1.6,1.6,0,0,1,0,2.2l-8.3,8.2A1.5,1.5,0,0,1,48.4,49.8Z" fill="#7da6d7"/>
      </g>
    </g>
  </g>
</svg>
