<svg xmlns="http://www.w3.org/2000/svg" viewBox="0 0 113.2 302.1">
<style>
  .eye-av {
    animation: eye 4000ms linear infinite normal forwards;
    transform-origin: center;
    transform-box: fill-box;
  }
  @keyframes eye {
    0% {
        transform: scale(1, 1)
    }

    20% {
        transform: scale(1, 1)
    }

    25% {
        transform: scale(1, 0)
    }

    30% {
        transform: scale(1, 1)
    }

    65% {
        transform: scale(1, 1)
    }

    70% {
        transform: scale(1, 0)
    }

    75% {
        transform: scale(1, 1)
    }

    100% {
        transform: scale(1, 1)
    }
}
</style>
  <g id="b9c172e8-3ef2-4b5b-af71-c9545036cdb2" data-name="Layer 2">
    <g id="a10e6d3f-5bda-4c2a-9c31-df2e68114ded" data-name="Layer 1">
      <g>
        <path d="M105.3,104.7H98.5V88.8h6.8a7.9,7.9,0,0,1,7.9,7.9A7.9,7.9,0,0,1,105.3,104.7Z" fill="#b1cae6"/>
        <circle cx="101.6" cy="96.7" r="2.7" fill="#7ca6d6"/>
        <path d="M8,88.8h6.8v15.9H8a8,8,0,0,1-8-8A7.9,7.9,0,0,1,8,88.8Z" fill="#7ca6d6"/>
        <circle cx="11.7" cy="96.7" r="2.7" fill="#4c5ea9"/>
        <g>
          <path d="M40.1,233.2v19.2a5,5,0,0,0,0,10v34.8c-2.9-6.4-9-10.9-16-10.9-8.8,0-16,6.7-17.6,15.8H45.9V233.2Z" fill="#7ca6d6"/>
          <path d="M72,233.2v19.2a5,5,0,1,1,0,10v34.8c3-6.4,9-10.9,16.1-10.9,8.7,0,15.9,6.7,17.6,15.8H66.3V233.2Z" fill="#b1cae6"/>
        </g>
        <path d="M98.5,42.8V196.1a41.8,41.8,0,0,1-41.8,41.8V42.8Z" fill="#b1cae6"/>
        <path d="M56.7,42.8V237.9h-.1a41.8,41.8,0,0,1-41.8-41.8V42.8Z" fill="#7ca6d6"/>
        <path d="M63.7,86.6v20h-7V78.8C60.6,78.8,63.7,82.3,63.7,86.6Z" fill="#7ca6d6"/>
        <path d="M49.5,86.6c0-4.3,3.2-7.8,7.1-7.8h.1v27.8H49.5Z" fill="#4c5ea9"/>
        <circle cx="87" cy="107.8" r="7.3" fill="#7ca6d6"/>
        <circle cx="26.2" cy="107.8" r="7.3" fill="#b1cae6"/>
        <path d="M14.8,148.1V273.8h5.6c0,3.1-1,6.5-5.7,6.5s-5.1-2.5-5.1-5.6V141.9a7.5,7.5,0,1,1,0-14.9h5.2v21.1Z" fill="#7ca6d6"/>
        <path d="M9.6,148.3v-6.4a7.5,7.5,0,1,1,0-14.9h5.2v35.4H9.6Z" fill="#707eba"/>
        <path d="M98.5,148.1V273.8H92.9c0,3.1.9,6.5,5.6,6.5s5.1-2.5,5.1-5.6V141.9a7.5,7.5,0,1,0,0-14.9H98.5v21.1Z" fill="#b1cae6"/>
        <path d="M98.5,148.1V127h5.1a7.5,7.5,0,1,1,0,14.9v20.5H98.5Z" fill="#4c5ea9"/>
        <rect x="56.7" y="127" width="41.9" height="69.19" fill="#4c5ea9"/>
        <rect x="14.8" y="127" width="41.9" height="69.19" fill="#707eba"/>
        <path d="M25.5,76.1h0v-.2a4.3,4.3,0,1,1,8.5,0v.2h0V86.9h-.1a4.2,4.2,0,0,1-8.4,0h0Z" fill="#010101"/>
        <g class="eye-av">
         <circle cx="29.7" cy="75.5" r="3.3" fill="#fff"/>
        </g>
        
        <path d="M79.3,86.3h0v.2a4.3,4.3,0,0,0,8.5,0c0-.1-.1-.1-.1-.2h.1V75.5h-.1a4.2,4.2,0,0,0-8.4,0h0Z" fill="#010101"/>
        <g class="eye-av">
          <circle cx="83.5" cy="75.5" r="3.3" fill="#fff"/>
        </g>
        
        <path d="M31.5,52.6H27.9a1.5,1.5,0,0,0-1.5,1.5,1.5,1.5,0,0,0,1.5,1.4h3.6A1.5,1.5,0,0,0,33,54.1,1.5,1.5,0,0,0,31.5,52.6Z" fill="#010101"/>
        <g>
          <g>
            <path d="M56.6,106c-8.4,0-16-5.4-19.7-10.4h0a6.5,6.5,0,0,0-11.7,3.9,6.4,6.4,0,0,0,1,3.3h-.1C31.3,112.4,43,119,56.7,119h0V106Z" fill="#fff"/>
            <path d="M81.5,93A6.5,6.5,0,0,0,76,96.1h0A23.1,23.1,0,0,1,56.7,106v13c13.9,0,25.6-6.6,30.5-16.4l.2-.3a6.4,6.4,0,0,0,.6-2.8A6.5,6.5,0,0,0,81.5,93Z" fill="#f0eeef"/>
          </g>
          <path d="M56.7,113.3c-12,0-22.8-6.6-27.6-16.7l1.5-.7c4.5,9.6,14.7,15.8,26.1,15.8s21.9-6.2,26.2-15.9l1.4.6C79.7,106.6,68.9,113.3,56.7,113.3Z" fill="#7ca6d6"/>
          <circle cx="31.9" cy="99.8" r="5.7" fill="#ffcb05"/>
        </g>
        <path d="M46.6,1.2C28,5.4,14.8,22.7,14.8,41.5V53.1A45.7,45.7,0,0,0,47.5,9.4a42.8,42.8,0,0,0-.8-8.1Z" fill="#707eba"/>
        <path d="M25.4,13.9c35.8-37.3,84.3,12.3,84.3,12.3A48.5,48.5,0,0,1,95.3,47.8C76.4,64.3,44.5,63.1,31.1,44.3,20.4,29.3,23.2,16.1,25.4,13.9Z" fill="#4c5ea9"/>
        <path d="M85.3,52.6H81.7a1.5,1.5,0,0,0-1.5,1.5,1.5,1.5,0,0,0,1.5,1.4h3.6a1.5,1.5,0,0,0,1.5-1.4A1.5,1.5,0,0,0,85.3,52.6Z" fill="#010101"/>
      </g>
    </g>
  </g>
</svg>
