<svg xmlns="http://www.w3.org/2000/svg" viewBox="0 0 113.2 302.3">
  <g id="b4c88dc5-82e4-47b6-b5ad-8ccbac9493fb" data-name="Layer 2">
    <g id="ae51cedd-8553-4e27-826b-3974d369e220" data-name="Layer 1">
      <g>
        <path d="M105.3,105H98.5V89.1h6.8a7.9,7.9,0,0,1,7.9,7.9A7.9,7.9,0,0,1,105.3,105Z" fill="#b1cae6"/>
        <circle cx="101.6" cy="97" r="2.7" fill="#7ca6d6"/>
        <path d="M8,89.1h6.8V105H8a8,8,0,0,1-8-8A7.9,7.9,0,0,1,8,89.1Z" fill="#7ca6d6"/>
        <circle cx="11.7" cy="97" r="2.7" fill="#4c5ea9"/>
        <g>
          <path d="M46.5,233.5v19.2a5,5,0,0,0-5,5,5,5,0,0,0,5,5v34.8c-2.9-6.5-9-10.9-16-10.9-8.7,0-16,6.7-17.6,15.7H52.2V233.5Z" fill="#7ca6d6"/>
          <path d="M66.8,233.5v19.2a5,5,0,0,1,5,5,5,5,0,0,1-5,5v34.8c3-6.5,9-10.9,16.1-10.9,8.7,0,15.9,6.7,17.6,15.7H61.1V233.5Z" fill="#b1cae6"/>
        </g>
        <path d="M98.5,43.1V196.4a41.8,41.8,0,0,1-41.8,41.8V43.1Z" fill="#b1cae6"/>
        <path d="M56.7,43.1V238.2h-.1a41.8,41.8,0,0,1-41.8-41.8V43.1Z" fill="#7ca6d6"/>
        <path d="M63.7,86.9v20h-7V79.1C60.6,79.1,63.7,82.6,63.7,86.9Z" fill="#7ca6d6"/>
        <path d="M49.5,86.9c0-4.3,3.2-7.8,7.1-7.8h.1v27.8H49.5Z" fill="#4c5ea9"/>
        <circle cx="87" cy="108.1" r="7.3" fill="#7ca6d6"/>
        <circle cx="26.2" cy="108.1" r="7.3" fill="#b1cae6"/>
        <path d="M98.5,120.7V285.2a5.8,5.8,0,0,1-5.8,5.7H56.6V124.2Z" fill="#e2e3e4"/>
        <path d="M14.8,120.7l41.9,3.5V290.9H20.5a5.8,5.8,0,0,1-5.7-5.7Z" fill="#f1f2f2"/>
        <path d="M90,141.9v13.9a10.5,10.5,0,0,1-10.5,10.5h0A10.5,10.5,0,0,1,69,155.8V141.9Z" fill="#fff"/>
        <path d="M25.5,76.4h0v-.2a4.3,4.3,0,1,1,8.5,0v.2h0V87.2h-.1a4.2,4.2,0,0,1-8.4,0h0Z" fill="#010101"/>
        <circle cx="29.7" cy="75.8" r="3.3" fill="#fff"/>
        <path d="M79.3,86.6h0v.2a4.3,4.3,0,0,0,8.5,0v-.2h.1V75.8h-.1a4.2,4.2,0,0,0-8.4,0h0Z" fill="#010101"/>
        <circle cx="83.5" cy="75.8" r="3.3" fill="#fff"/>
        <path d="M31.5,52.8H27.9a1.5,1.5,0,0,0-1.5,1.5,1.5,1.5,0,0,0,1.5,1.5h3.6A1.5,1.5,0,0,0,33,54.3,1.5,1.5,0,0,0,31.5,52.8Z" fill="#010101"/>
        <g>
          <g>
            <path d="M56.6,106.3c-8.4,0-16-5.4-19.7-10.5h0a6.7,6.7,0,0,0-5.2-2.5,6.5,6.5,0,0,0-6.5,6.5,6.4,6.4,0,0,0,1,3.3h-.1c5.2,9.5,16.9,16.2,30.6,16.2h0v-13Z" fill="#fff"/>
            <path d="M81.5,93.3A6.5,6.5,0,0,0,76,96.4h0a23.1,23.1,0,0,1-19.3,9.9v13c13.9,0,25.6-6.6,30.5-16.4l.2-.3a6.4,6.4,0,0,0,.6-2.8A6.5,6.5,0,0,0,81.5,93.3Z" fill="#f0eeef"/>
          </g>
          <path d="M56.7,113.6c-12,0-22.8-6.6-27.6-16.7l1.5-.7c4.5,9.6,14.7,15.8,26.1,15.8s21.9-6.3,26.2-16l1.4.7C79.7,106.9,68.9,113.6,56.7,113.6Z" fill="#7ca6d6"/>
          <circle cx="31.9" cy="100.1" r="5.7" fill="#ffcb05"/>
        </g>
        <path d="M46.6,1.5C28,5.7,14.8,22.9,14.8,41.8V53.3A45.5,45.5,0,0,0,47.5,9.7a44.7,44.7,0,0,0-.8-8.2Z" fill="#707eba"/>
        <path d="M25.4,13.9c35.8-37.3,84.3,12.3,84.3,12.3A48.5,48.5,0,0,1,95.3,47.8C76.4,64.3,44.5,63.1,31.1,44.3,20.4,29.3,23.2,16.1,25.4,13.9Z" fill="#4c5ea9"/>
        <path d="M85.3,52.8H81.7a1.5,1.5,0,0,0-1.5,1.5,1.5,1.5,0,0,0,1.5,1.5h3.6a1.5,1.5,0,0,0,1.5-1.5A1.5,1.5,0,0,0,85.3,52.8Z" fill="#010101"/>
        <path d="M14.8,148.4V274.1h5.6c0,3.1-1,6.5-5.7,6.5s-5.1-2.5-5.1-5.6V142.2a7.5,7.5,0,0,1,0-15h5.2v21.2Z" fill="#7ca6d6"/>
        <path d="M98.5,148.4V274.1H92.9c0,3.1.9,6.5,5.6,6.5s5.1-2.5,5.1-5.6V142.2a7.5,7.5,0,1,0,0-15H98.5v21.2Z" fill="#b1cae6"/>
        <path d="M104.5,127.2h-6V269.6h10.1l-3.3-125.8a8.3,8.3,0,0,0-.8-16.6Z" fill="#f1f2f2"/>
        <g>
          <polygon points="56.6 127.2 98.5 127.2 98.5 120.7 56.7 120.7 56.6 127.2 56.6 127.2" fill="#fff"/>
          <polygon points="14.8 127.2 56.6 127.2 56.6 127.2 56.6 120.7 14.8 120.7 14.8 127.2" fill="#fff"/>
        </g>
        <path d="M56.7,162.7h-.1A2.7,2.7,0,0,1,54,160V123.3a2.6,2.6,0,0,1,2.6-2.6h0a2.7,2.7,0,0,1,2.7,2.6V160A2.6,2.6,0,0,1,56.7,162.7Z" fill="#fff"/>
        <circle cx="56.7" cy="135.3" r="1.3" fill="#939598"/>
        <circle cx="56.7" cy="158.7" r="1.3" fill="#939598"/>
        <circle cx="56.7" cy="147" r="1.3" fill="#939598"/>
        <circle cx="56.7" cy="123.6" r="1.3" fill="#939598"/>
        <circle cx="105.8" cy="266.7" r="1.2" fill="#939598"/>
        <path d="M8.8,127.2a8.3,8.3,0,0,0-.9,16.6L4.6,269.6H14.8V127.2Z" fill="#e2e3e4"/>
        <circle cx="7.4" cy="266.7" r="1.2" fill="#939598"/>
      </g>
    </g>
  </g>
</svg>
