<?xml version="1.0" encoding="utf-8"?>
<!-- Generator: Adobe Illustrator 26.0.2, SVG Export Plug-In . SVG Version: 6.00 Build 0)  -->
<svg version="1.1" id="Layer_1" xmlns="http://www.w3.org/2000/svg" xmlns:xlink="http://www.w3.org/1999/xlink" x="0px" y="0px"
	 viewBox="0 0 2082.9 133.5" style="enable-background:new 0 0 2082.9 133.5;" xml:space="preserve">
<style type="text/css">
	.st0{fill:#7DA6D7;}
	.st1{fill:#4B5DA9;}
</style>
<g id="b5eb8c4d-c9d4-40bd-bbb2-815b8f104f9c">
	<g id="afa8832e-c7b2-4610-8769-9b55aef77fb3">
		<g>
			<path class="st0" d="M2017.6,133.3h8.5c5.4,0,9.9-4.7,9.9-10.5c0.1-4.4-2.6-8.4-6.8-10v-1.1c5.5-2.1,8.2-8.3,6.1-13.9
				c-1.1-2.8-3.2-4.9-6-6v-1.3c5.5-2.3,8-8.5,5.7-14c-1.1-2.6-3.1-4.6-5.6-5.7v-1.1h43.9c5.3,0,9.6-4.5,9.6-10.2
				c0.3-5.4-3.9-10-9.3-10.3c-0.1,0-0.2,0-0.3,0l-52.2-0.1h-40.8l29.7-29.5c4.2-4.2,4-11.4-0.5-15.9c-4.2-4.6-11.2-4.9-15.8-0.8
				c0,0-0.1,0-0.1,0.1l-41.8,41.6c-0.4,0.3-0.7,0.7-1,1.1c-4.6,5.2-7.1,11.9-7.2,18.8v5.3H0.2L0,116.5h1943.4
				c0.2,9.3,7.8,16.7,17.1,16.7l54.8,0.2L2017.6,133.3z"/>
			<path class="st1" d="M1995.5,5.7L1995.5,5.7l12,12.1h0.1c3.7-3,4.2-8.4,1.2-12.1s-8.4-4.2-12.1-1.2
				C1996.3,4.8,1995.9,5.2,1995.5,5.7z"/>
			<path class="st1" d="M2072.1,50.9h-0.1V68h0.1c4.7,0.5,9-2.9,9.5-7.6c0.5-4.7-2.9-9-7.6-9.5C2073.3,50.8,2072.7,50.8,2072.1,50.9
				z"/>
		</g>
	</g>
</g>
</svg>
