<?xml version="1.0" encoding="utf-8"?>
<!-- Generator: Adobe Illustrator 26.0.2, SVG Export Plug-In . SVG Version: 6.00 Build 0)  -->
<svg version="1.1" id="Layer_1" xmlns="http://www.w3.org/2000/svg" xmlns:xlink="http://www.w3.org/1999/xlink" x="0px" y="0px"
	 viewBox="0 0 2680.1 133.5" style="enable-background:new 0 0 2680.1 133.5;" xml:space="preserve">
<style type="text/css">
	.st0{fill:#7DA6D7;}
	.st1{fill:#4B5DA9;}
</style>
<g id="bc4ad835-b8b3-4b33-b5e0-7f06740c5d3f">
	<g id="a6abf710-4555-440b-bf2d-a8fc7b1245e7">
		<g>
			<path class="st0" d="M65.3,0.2h-8.5c-5.4,0-9.8,4.7-9.9,10.5c0,4.4,2.7,8.4,6.8,10v1.1c-4.1,1.5-6.9,5.5-6.8,9.9
				c-0.1,4.4,2.6,8.4,6.7,10v1.2c-5.5,2.4-8,8.7-5.6,14.2c1.1,2.5,3.1,4.5,5.6,5.6v1.1H9.7C4.3,64-0.1,68.5,0,73.9
				c0,5.7,4.3,10.3,9.6,10.3l52.2,0.2h40.8L73,114c-4.3,4.2-4.1,11.4,0.4,15.9c4.5,4.5,11.7,4.8,15.9,0.6l41.8-41.6
				c0.4-0.3,0.7-0.7,1-1.1c4.6-5.2,7.2-11.9,7.2-18.8v-5.3h2540.8V17H139.5c-0.2-9.3-7.7-16.7-17-16.8L67.6,0L65.3,0.2z"/>
			<path class="st1" d="M87.5,127.7L87.5,127.7l-12.1-12.1l0,0c-3.7,3-4.2,8.4-1.2,12.1c3,3.7,8.4,4.2,12.1,1.2
				C86.7,128.6,87.1,128.2,87.5,127.7z"/>
			<path class="st1" d="M10.8,82.6h0.1V65.5h-0.1C6.1,66,2.7,70.3,3.2,75C3.6,79,6.8,82.2,10.8,82.6z"/>
		</g>
	</g>
</g>
</svg>
