<svg id="etFh1Tg0z8B1" xmlns="http://www.w3.org/2000/svg" xmlns:xlink="http://www.w3.org/1999/xlink" viewBox="0 0 130.74432 49.2705" shape-rendering="geometricPrecision" text-rendering="geometricPrecision">
<style><![CDATA[
#etFh1Tg0z8B5_ts {animation: etFh1Tg0z8B5_ts__ts 5000ms linear 1 normal forwards}@keyframes etFh1Tg0z8B5_ts__ts { 0% {transform: translate(127.097445px,24.63525px) scale(1,0)} 16% {transform: translate(127.097445px,24.63525px) scale(1,0);animation-timing-function: cubic-bezier(0.42,0,0.58,1)} 22% {transform: translate(127.097445px,24.63525px) scale(1,1);animation-timing-function: cubic-bezier(0.42,0,0.58,1)} 78% {transform: translate(127.097445px,24.63525px) scale(1,1);animation-timing-function: cubic-bezier(0.42,0,0.58,1)} 84% {transform: translate(127.097445px,24.63525px) scale(1,0)} 100% {transform: translate(127.097445px,24.63525px) scale(1,0)}} #etFh1Tg0z8B6_to {animation: etFh1Tg0z8B6_to__to 5000ms linear 1 normal forwards}@keyframes etFh1Tg0z8B6_to__to { 0% {transform: translate(80.914807px,31.384787px)} 14% {transform: translate(80.914807px,31.384787px);animation-timing-function: cubic-bezier(0.42,0,0.58,1)} 20% {transform: translate(70.913038px,31.384787px);animation-timing-function: cubic-bezier(0.42,0,0.58,1)} 80% {transform: translate(70.913038px,31.384787px);animation-timing-function: cubic-bezier(0.42,0,0.58,1)} 86% {transform: translate(80.914807px,31.384787px)} 100% {transform: translate(80.914807px,31.384787px)}} #etFh1Tg0z8B6 {animation: etFh1Tg0z8B6_c_o 5000ms linear 1 normal forwards}@keyframes etFh1Tg0z8B6_c_o { 0% {opacity: 0} 14% {opacity: 0;animation-timing-function: cubic-bezier(0.42,0,0.58,1)} 20% {opacity: 1;animation-timing-function: cubic-bezier(0.42,0,0.58,1)} 80% {opacity: 1;animation-timing-function: cubic-bezier(0.42,0,0.58,1)} 86% {opacity: 0} 100% {opacity: 0}} #etFh1Tg0z8B7_to {animation: etFh1Tg0z8B7_to__to 5000ms linear 1 normal forwards}@keyframes etFh1Tg0z8B7_to__to { 0% {transform: translate(58.935422px,24.647119px)} 12% {transform: translate(58.935422px,24.647119px);animation-timing-function: cubic-bezier(0.42,0,0.58,1)} 18% {transform: translate(48.935422px,24.647119px);animation-timing-function: cubic-bezier(0.42,0,0.58,1)} 82% {transform: translate(48.935422px,24.647119px);animation-timing-function: cubic-bezier(0.42,0,0.58,1)} 88% {transform: translate(58.935422px,24.647119px)} 100% {transform: translate(58.935422px,24.647119px)}} #etFh1Tg0z8B7 {animation: etFh1Tg0z8B7_c_o 5000ms linear 1 normal forwards}@keyframes etFh1Tg0z8B7_c_o { 0% {opacity: 0} 12% {opacity: 0;animation-timing-function: cubic-bezier(0.42,0,0.58,1)} 18% {opacity: 1;animation-timing-function: cubic-bezier(0.42,0,0.58,1)} 82% {opacity: 1;animation-timing-function: cubic-bezier(0.42,0,0.58,1)} 88% {opacity: 0} 100% {opacity: 0}} #etFh1Tg0z8B8_to {animation: etFh1Tg0z8B8_to__to 5000ms linear 1 normal forwards}@keyframes etFh1Tg0z8B8_to__to { 0% {transform: translate(33.858002px,24.64712px)} 10% {transform: translate(33.858002px,24.64712px);animation-timing-function: cubic-bezier(0.42,0,0.58,1)} 16% {transform: translate(28.858001px,24.64712px);animation-timing-function: cubic-bezier(0.42,0,0.58,1)} 84% {transform: translate(28.858001px,24.64712px);animation-timing-function: cubic-bezier(0.42,0,0.58,1)} 90% {transform: translate(33.858002px,24.64712px)} 100% {transform: translate(33.858002px,24.64712px)}} #etFh1Tg0z8B8 {animation: etFh1Tg0z8B8_c_o 5000ms linear 1 normal forwards}@keyframes etFh1Tg0z8B8_c_o { 0% {opacity: 0} 10% {opacity: 0;animation-timing-function: cubic-bezier(0.42,0,0.58,1)} 16% {opacity: 1;animation-timing-function: cubic-bezier(0.42,0,0.58,1)} 84% {opacity: 1;animation-timing-function: cubic-bezier(0.42,0,0.58,1)} 90% {opacity: 0} 100% {opacity: 0}} #etFh1Tg0z8B9_to {animation: etFh1Tg0z8B9_to__to 5000ms linear 1 normal forwards}@keyframes etFh1Tg0z8B9_to__to { 0% {transform: translate(19.212354px,24.647042px)} 8% {transform: translate(19.212354px,24.647042px);animation-timing-function: cubic-bezier(0.42,0,0.58,1)} 14% {transform: translate(9.207755px,24.647042px);animation-timing-function: cubic-bezier(0.42,0,0.58,1)} 86% {transform: translate(9.207755px,24.647042px);animation-timing-function: cubic-bezier(0.42,0,0.58,1)} 92% {transform: translate(19.212354px,24.647042px)} 100% {transform: translate(19.212354px,24.647042px)}} #etFh1Tg0z8B9 {animation: etFh1Tg0z8B9_c_o 5000ms linear 1 normal forwards}@keyframes etFh1Tg0z8B9_c_o { 0% {opacity: 0} 8% {opacity: 0;animation-timing-function: cubic-bezier(0.42,0,0.58,1)} 14% {opacity: 1;animation-timing-function: cubic-bezier(0.42,0,0.58,1)} 86% {opacity: 1;animation-timing-function: cubic-bezier(0.42,0,0.58,1)} 92% {opacity: 0} 100% {opacity: 0}} #etFh1Tg0z8B11 {animation: etFh1Tg0z8B11__m 5000ms linear 1 normal forwards}@keyframes etFh1Tg0z8B11__m { 0% {d: path('M95.24847,34.24516C89.947561,34.250959,85.645624,29.958424,85.639825,24.657515C85.634026,19.356606,89.926561,15.054669,95.22747,15.04887Q95.23797,15.04887,95.24847,15.04887L111.19524,15.04887C116.496149,15.043071,120.798086,19.335606,120.803885,24.636515C120.809684,29.937424,116.517149,34.239361,111.21624,34.24516Q111.20572,34.24516,111.19524,34.24516Z');animation-timing-function: cubic-bezier(0.42,0,0.58,1)} 8% {d: path('M95.24847,34.24516C89.947561,34.250959,85.645624,29.958424,85.639825,24.657515C85.634026,19.356606,89.926561,15.054669,95.22747,15.04887Q95.23797,15.04887,95.24847,15.04887L192.28559,15.215995C197.586499,15.210196,201.888436,19.502731,201.894235,24.80364C201.900034,30.104549,197.607498,34.406486,192.30659,34.412285Q192.296069,34.412285,192.28559,34.412285Z');animation-timing-function: cubic-bezier(0.42,0,0.58,1)} 16% {d: path('M180.913885,34.391285C175.612976,34.397084,171.311039,30.104549,171.30524,24.80364C171.299441,19.502731,175.591976,15.200794,180.892884,15.194995Q180.903385,15.194995,180.913885,15.194995L192.28559,15.215995C197.586499,15.210196,201.888436,19.502731,201.894235,24.80364C201.900034,30.104549,197.607498,34.406486,192.30659,34.412285Q192.296069,34.412285,192.28559,34.412285Z');animation-timing-function: cubic-bezier(0.42,0,0.58,1)} 84% {d: path('M180.913885,34.391285C175.612976,34.397084,171.311039,30.104549,171.30524,24.80364C171.299441,19.502731,175.591976,15.200794,180.892884,15.194995Q180.903385,15.194995,180.913885,15.194995L192.28559,15.215995C197.586499,15.210196,201.888436,19.502731,201.894235,24.80364C201.900034,30.104549,197.607498,34.406486,192.30659,34.412285Q192.296069,34.412285,192.28559,34.412285Z');animation-timing-function: cubic-bezier(0.42,0,0.58,1)} 92% {d: path('M95.24847,34.24516C89.947561,34.250959,85.645624,29.958424,85.639825,24.657515C85.634026,19.356606,89.926561,15.054669,95.22747,15.04887Q95.23797,15.04887,95.24847,15.04887L192.28559,15.215995C197.586499,15.210196,201.888436,19.502731,201.894235,24.80364C201.900034,30.104549,197.607498,34.406486,192.30659,34.412285Q192.296069,34.412285,192.28559,34.412285Z');animation-timing-function: cubic-bezier(0.42,0,0.58,1)} 100% {d: path('M95.24847,34.24516C89.947561,34.250959,85.645624,29.958424,85.639825,24.657515C85.634026,19.356606,89.926561,15.054669,95.22747,15.04887Q95.23797,15.04887,95.24847,15.04887L111.19524,15.04887C116.496149,15.043071,120.798086,19.335606,120.803885,24.636515C120.809684,29.937424,116.517149,34.239361,111.21624,34.24516Q111.20572,34.24516,111.19524,34.24516Z')}} #etFh1Tg0z8B12 {animation: etFh1Tg0z8B12__m 5000ms linear 1 normal forwards}@keyframes etFh1Tg0z8B12__m { 0% {d: path('M109.655815,16.58728C112.531078,16.579363,115.192154,18.105982,116.636642,20.592074C118.081129,23.078166,118.089577,26.146035,116.658802,28.640044C115.228027,31.134053,112.575399,32.675303,109.700136,32.68322Q109.677985,32.68328,109.655815,32.68322L95.24829,32.69511C90.803519,32.70734,87.190405,29.114056,87.178175,24.669285C87.165945,20.224514,90.759229,16.6114,95.204,16.59917Q95.22617,16.59911,95.24833,16.59917L109.655855,16.58728M109.655855,13.48718L95.24829,13.49907C89.091381,13.49907,84.10022,18.490231,84.10022,24.64714C84.10022,30.804049,89.091381,35.79521,95.24829,35.79521L109.655815,35.78332C115.812725,35.78332,120.803885,30.792159,120.803885,24.63525C120.803885,18.478341,115.812725,13.48718,109.655815,13.48718Z');animation-timing-function: cubic-bezier(0.42,0,0.58,1)} 8% {d: path('M193.747666,16.57533C196.62293,16.567413,199.284005,18.094032,200.728494,20.580124C202.172981,23.066216,202.181428,26.134085,200.750654,28.628094C199.319879,31.122103,196.667251,32.663353,193.791987,32.67127Q193.769837,32.67133,193.747666,32.67127L95.24829,32.69511C90.803519,32.70734,87.190405,29.114056,87.178175,24.669285C87.165945,20.224514,90.759229,16.6114,95.204,16.59917Q95.22617,16.59911,95.24833,16.59917L193.747706,16.57533M193.747706,13.47523L95.24829,13.49907C89.091381,13.49907,84.10022,18.490231,84.10022,24.64714C84.10022,30.804049,89.091381,35.79521,95.24829,35.79521L193.747666,35.77137C199.904577,35.77137,204.895737,30.780209,204.895737,24.6233C204.895737,18.466391,199.904577,13.47523,193.747666,13.47523Z');animation-timing-function: cubic-bezier(0.42,0,0.58,1)} 16% {d: path('M193.747666,16.57533C196.62293,16.567413,199.284005,18.094032,200.728494,20.580124C202.172981,23.066216,202.181428,26.134085,200.750654,28.628094C199.319879,31.122103,196.667251,32.663353,193.791987,32.67127Q193.769837,32.67133,193.747666,32.67127L179.375353,32.67127C174.930582,32.6835,171.317468,29.090216,171.305238,24.645445C171.293007,20.200674,174.886292,16.58756,179.331063,16.57533Q179.353232,16.57527,179.375393,16.57533L193.747706,16.57533M193.747706,13.47523L179.375353,13.47523C173.218443,13.47523,168.227283,18.466391,168.227283,24.6233C168.227283,30.780209,173.218443,35.77137,179.375353,35.77137L193.747666,35.77137C199.904577,35.77137,204.895737,30.780209,204.895737,24.6233C204.895737,18.466391,199.904577,13.47523,193.747666,13.47523Z');animation-timing-function: cubic-bezier(0.42,0,0.58,1)} 84% {d: path('M193.747666,16.57533C196.62293,16.567413,199.284005,18.094032,200.728494,20.580124C202.172981,23.066216,202.181428,26.134085,200.750654,28.628094C199.319879,31.122103,196.667251,32.663353,193.791987,32.67127Q193.769837,32.67133,193.747666,32.67127L179.375353,32.67127C174.930582,32.6835,171.317468,29.090216,171.305238,24.645445C171.293007,20.200674,174.886292,16.58756,179.331063,16.57533Q179.353232,16.57527,179.375393,16.57533L193.747706,16.57533M193.747706,13.47523L179.375353,13.47523C173.218443,13.47523,168.227283,18.466391,168.227283,24.6233C168.227283,30.780209,173.218443,35.77137,179.375353,35.77137L193.747666,35.77137C199.904577,35.77137,204.895737,30.780209,204.895737,24.6233C204.895737,18.466391,199.904577,13.47523,193.747666,13.47523Z');animation-timing-function: cubic-bezier(0.42,0,0.58,1)} 92% {d: path('M193.747666,16.57533C196.62293,16.567413,199.284005,18.094032,200.728494,20.580124C202.172981,23.066216,202.181428,26.134085,200.750654,28.628094C199.319879,31.122103,196.667251,32.663353,193.791987,32.67127Q193.769837,32.67133,193.747666,32.67127L95.24829,32.69511C90.803519,32.70734,87.190405,29.114056,87.178175,24.669285C87.165945,20.224514,90.759229,16.6114,95.204,16.59917Q95.22617,16.59911,95.24833,16.59917L193.747706,16.57533M193.747706,13.47523L95.24829,13.49907C89.091381,13.49907,84.10022,18.490231,84.10022,24.64714C84.10022,30.804049,89.091381,35.79521,95.24829,35.79521L193.747666,35.77137C199.904577,35.77137,204.895737,30.780209,204.895737,24.6233C204.895737,18.466391,199.904577,13.47523,193.747666,13.47523Z');animation-timing-function: cubic-bezier(0.42,0,0.58,1)} 100% {d: path('M109.655815,16.58728C112.531078,16.579363,115.192154,18.105982,116.636642,20.592074C118.081129,23.078166,118.089577,26.146035,116.658802,28.640044C115.228027,31.134053,112.575399,32.675303,109.700136,32.68322Q109.677985,32.68328,109.655815,32.68322L95.24829,32.69511C90.803519,32.70734,87.190405,29.114056,87.178175,24.669285C87.165945,20.224514,90.759229,16.6114,95.204,16.59917Q95.22617,16.59911,95.24833,16.59917L109.655855,16.58728M109.655855,13.48718L95.24829,13.49907C89.091381,13.49907,84.10022,18.490231,84.10022,24.64714C84.10022,30.804049,89.091381,35.79521,95.24829,35.79521L109.655815,35.78332C115.812725,35.78332,120.803885,30.792159,120.803885,24.63525C120.803885,18.478341,115.812725,13.48718,109.655815,13.48718Z')}} #etFh1Tg0z8B13_to {animation: etFh1Tg0z8B13_to__to 5000ms linear 1 normal forwards}@keyframes etFh1Tg0z8B13_to__to { 0% {transform: translate(25.689953px,24.658986px);animation-timing-function: cubic-bezier(0.42,0,0.58,1)} 16% {transform: translate(109.814109px,24.658986px);animation-timing-function: cubic-bezier(0.42,0,0.58,1)} 28% {transform: translate(109.814109px,24.658986px);animation-timing-function: cubic-bezier(0.42,0,0.58,1)} 40% {transform: translate(95.184974px,24.658986px);animation-timing-function: cubic-bezier(0.42,0,0.58,1)} 60% {transform: translate(95.184974px,24.658986px);animation-timing-function: cubic-bezier(0.42,0,0.58,1)} 72% {transform: translate(109.814109px,24.658986px);animation-timing-function: cubic-bezier(0.42,0,0.58,1)} 84% {transform: translate(109.814109px,24.658986px);animation-timing-function: cubic-bezier(0.42,0,0.58,1)} 100% {transform: translate(25.689953px,24.658986px)}} #etFh1Tg0z8B13 {animation: etFh1Tg0z8B13_f_p 5000ms linear 1 normal forwards}@keyframes etFh1Tg0z8B13_f_p { 0% {fill: #fff} 28% {fill: #fff;animation-timing-function: cubic-bezier(0.42,0,0.58,1)} 40% {fill: #ffcb05;animation-timing-function: cubic-bezier(0.42,0,0.58,1)} 60% {fill: #ffcb05;animation-timing-function: cubic-bezier(0.42,0,0.58,1)} 72% {fill: #fff} 100% {fill: #fff}}
]]></style>
<g><g><g><g id="etFh1Tg0z8B5_ts" transform="translate(127.097445,24.63525) scale(1,0)"><path d="M123.45057,35.75236v-35.75236h7.29375v35.75236Z" transform="translate(-127.097446,-24.63525)" fill="#4b5eaa"/></g><g id="etFh1Tg0z8B6_to" transform="translate(80.914807,31.384787)"><path id="etFh1Tg0z8B6" d="M75.7241,13.519v1.58818c-4.678206-2.828467-10.717184-1.847292-14.259289,2.31676s-3.542106,10.282218,0,14.44627s9.581083,5.145227,14.259289,2.31676v15.08353h7.29375v-35.7515ZM70.68876,29.68255c-2.03665.000044-3.872786-1.226764-4.652218-3.108367s-.348666-4.04745,1.091433-5.48761s3.605928-1.871015,5.487564-1.091661s3.108521,2.615438,3.108561,4.652088v.00011c-.000039,2.780942-2.254398,5.035346-5.03534,5.03544Z" transform="translate(-70.913038,-31.384787)" opacity="0" fill="#4b5eaa"/></g><g id="etFh1Tg0z8B7_to" transform="translate(58.935422,24.647119)"><path id="etFh1Tg0z8B7" d="M54.52282,20.35629c-.610762-.551341-1.302726-1.005417-2.0516-1.34629-.779028-.362745-1.628412-.549393-2.48775-.54667-.638208-.006483-1.270523.122592-1.85513.37869-.536088.204586-.879645.730906-.85119,1.304-.005393.583387.378112,1.09908.93837,1.26181.988708.356099,2.002794.637349,3.03368.84137.838947.175689,1.663361.414751,2.46615.71513.80446.295561,1.561658.706549,2.24782,1.22006.661992.497203,1.212198,1.127878,1.615,1.8512.424907.802229.635373,1.700618.611,2.6081.037691,1.16997-.249301,2.32753-.82917,3.34439-.537274.895322-1.277365,1.651906-2.16063,2.20878-.919781.574251-1.931039.986889-2.99,1.22005-1.088105.250014-2.200873.376877-3.31733.3782-1.770828.000838-3.530841-.275938-5.21594-.82025-1.581822-.477454-3.03619-1.304137-4.2557-2.419l4.01577-4.0806c.676377.700034,1.475181,1.270345,2.35692,1.68274.925169.447596,1.940365.677919,2.96811.67339.597246-.003428,1.186209-.140013,1.724-.39981.553235-.242389.894091-.806681.85119-1.40916-.00433-.652684-.426458-1.229125-1.04739-1.43027-1.060516-.418502-2.155998-.742299-3.27362-.9676-.770977-.172429-1.529294-.397251-2.26967-.6729-.733351-.266876-1.418756-.650507-2.02971-1.13606-.602581-.483237-1.100144-1.084427-1.4622-1.76673-.397021-.780761-.592139-1.648538-.56754-2.5241-.035092-1.129733.252593-2.24606.82933-3.21812.542367-.872698,1.273154-1.612963,2.13879-2.16653.893184-.569562,1.8737-.988846,2.90254-1.24117c1.034405-.262898,2.097292-.397182,3.16458-.39981c1.62149-.000893,3.233487.247422,4.77954.73625c1.4625.438327,2.810962,1.192328,3.9502,2.20878Z" transform="translate(-48.935822,-24.647119)" opacity="0" fill="#4b5eaa"/></g><g id="etFh1Tg0z8B8_to" transform="translate(33.858002,24.64712)"><path id="etFh1Tg0z8B8" d="M28.85807,13.49912C22.701204,13.499081,17.710044,18.490174,17.71,24.64704s4.991044,11.14803,11.14791,11.14808s11.148035-4.991034,11.14809-11.1479v-.0001c0-6.156843-4.991087-11.147961-11.14793-11.148Zm0,19.12791c-3.22758.000049-6.13738-1.944157-7.372563-4.926035s-.552498-6.414198,1.729717-8.69647s5.714517-2.965042,8.696426-1.729934s4.926188,4.144859,4.92622,7.372439v.00012c-.000061,4.407111-3.572689,7.97978-7.9798,7.97989Z" transform="translate(-28.858001,-24.64712)" opacity="0" fill="#4b5eaa"/></g><g id="etFh1Tg0z8B9_to" transform="translate(19.212354,24.647042)"><path id="etFh1Tg0z8B9" d="M11.148,32.627c-3.52543.000798-6.633626-2.31187-7.645782-5.68888s.311604-7.018022,3.25629-8.956445s6.812415-1.714857,9.514142.549945l2.137-2.33913c-4.505458-3.872213-11.255931-3.531008-15.347979.775769s-4.087861,11.065866.009521,15.367569s10.848271,4.634545,15.348928.756752L16.42447,30.631c-1.455553,1.288202-3.332738,1.998309-5.27647,1.996Z" transform="translate(-9.207755,-24.647042)" opacity="0" fill="#4b5eaa"/></g><g transform="translate(-84.10022 0.01195)"><path id="etFh1Tg0z8B11" d="M95.24847,34.24516c-5.300909.005799-9.602846-4.286736-9.608645-9.587645s4.286736-9.602846,9.587645-9.608645q.0105,0,.021,0h15.94677c5.300909-.005799,9.602846,4.286736,9.608645,9.587645s-4.286736,9.602846-9.587645,9.608645q-.01052,0-.021,0Z" fill="#7da7d9"/><path id="etFh1Tg0z8B12" d="M109.655815,16.58728c2.875263-.007917,5.536339,1.518702,6.980827,4.004794s1.452935,5.553961.02216,8.04797-4.083403,4.035259-6.958666,4.043176q-.022151.00006-.044321,0l-14.407525.01189c-4.444771.01223-8.057885-3.581054-8.070115-8.025825s3.581054-8.057885,8.025825-8.070115q.02217-.00006.04433,0l14.407525-.01189m0-3.1001l-14.407565.01189c-6.156909,0-11.14807,4.991161-11.14807,11.14807s4.991161,11.14807,11.14807,11.14807l14.407525-.01189c6.15691,0,11.14807-4.991161,11.14807-11.14807s-4.99116-11.14807-11.14807-11.14807Z" fill="#4b5faa"/></g><g id="etFh1Tg0z8B13_to" transform="translate(25.689953,24.658986)"><circle id="etFh1Tg0z8B13" r="7.97993" transform="translate(-0.000024,-0.000021)" fill="#fff"/></g></g></g></g></svg>
