<svg xmlns="http://www.w3.org/2000/svg" viewBox="0 0 12.4 12.2">
  <g id="f8df027e-b073-457e-9528-2db24d0a6e80" data-name="Layer 2">
    <g id="a56234ac-2e21-4312-ad94-48596ba32bf1" data-name="bar&amp;buttons">
      <g id="f4d91e8d-8a38-42e7-9e19-51a793fb2183" data-name="Search">
        <g>
          <g>
            <path d="M11.6,10.4a1.4,1.4,0,0,0-.2-.7L8.9,7.2H8.8l-1-1.1h0l-1-1h0a1.1,1.1,0,0,0-.7-.3.9.9,0,0,0-.7.3,1,1,0,0,0,0,1.4L7.7,8.8,10,11.1a.8.8,0,0,0,.7.3,1.1,1.1,0,0,0,.7-.3A1.4,1.4,0,0,0,11.6,10.4Z" fill="#7da6d7"/>
            <path d="M11.9,9.1,9.4,6.7h0L8.3,5.6h0l-.9-.9a2,2,0,0,0-2.1-.4,1.9,1.9,0,0,0-.5,2.9L7.1,9.4l2.3,2.2a1.8,1.8,0,0,0,.7.5,1.9,1.9,0,0,0,1.8-.4,1.9,1.9,0,0,0,.4-1.9A2.5,2.5,0,0,0,11.9,9.1Zm-1.9,2L7.7,8.8,5.4,6.5a1,1,0,0,1,0-1.4.9.9,0,0,1,.7-.3,1.1,1.1,0,0,1,.7.3h0l1,1h0l1,1.1h.1l2.5,2.5a1.3,1.3,0,0,1,0,1.4,1.1,1.1,0,0,1-.7.3A.8.8,0,0,1,10,11.1Z" fill="#4b5da9"/>
          </g>
          <g>
            <path d="M5.7.1A4.8,4.8,0,0,0,.1,5.7a4.7,4.7,0,0,0,4,4A4.8,4.8,0,0,0,9.7,4.1,4.7,4.7,0,0,0,5.7.1Z" fill="#4b5da9"/>
            <path d="M2.4,5.6A2.6,2.6,0,0,1,5.6,2.4,2.4,2.4,0,0,1,7.4,4.2,2.6,2.6,0,0,1,4.2,7.4,2.4,2.4,0,0,1,2.4,5.6Z" fill="#fff"/>
          </g>
        </g>
        <path d="M5.7,8.2A3.4,3.4,0,0,1,1.6,4.1,3.5,3.5,0,0,1,4.1,1.6,3.4,3.4,0,0,1,8.2,5.7,3.5,3.5,0,0,1,5.7,8.2Z" fill="#fff"/>
        <path d="M7.4,5.6A2.6,2.6,0,0,0,4.2,2.4,2.4,2.4,0,0,0,2.4,4.2,2.6,2.6,0,0,0,5.6,7.4,2.4,2.4,0,0,0,7.4,5.6Z" fill="#ffca05"/>
      </g>
    </g>
  </g>
</svg>
