<svg id="Capa_1" enable-background="new 0 0 511.982 511.982" height="512" viewBox="0 0 511.982 511.982" width="512" xmlns="http://www.w3.org/2000/svg"><g><path d="m340.4.493c-51.626 0-97.997 22.918-129.481 59.111-.176.152-.349.31-.513.481-.384.399-.711.83-.99 1.283-21.963 25.942-36.374 58.466-39.807 94.153-.015.126-.025.254-.034.383-.5 5.325-.767 10.716-.767 16.169 0 5.307.268 10.587.75 15.834.008.303.035.601.078.895 2.137 21.962 8.465 43.251 18.673 62.755-36.578 1.708-72.19 12.346-103.588 31.033-33.384 19.87-61.156 48.228-80.313 82.007-5.878 10.363-5.878 23.237 0 33.601 11.245 19.818 25.412 37.763 42.107 53.334 3.028 2.824 7.774 2.66 10.6-.37 2.825-3.029 2.66-7.775-.37-10.6-15.58-14.531-28.8-31.275-39.292-49.766-3.289-5.798-3.289-13.001 0-18.799 17.875-31.519 43.789-57.978 74.938-76.518 32.065-19.084 68.85-29.172 106.378-29.172s74.312 10.088 106.377 29.172c31.15 18.54 57.063 45 74.939 76.518 3.289 5.798 3.289 13.001 0 18.799-17.877 31.516-43.791 57.974-74.939 76.514-32.067 19.087-68.852 29.176-106.377 29.176-41.41 0-81.411-12.121-115.679-35.053-3.442-2.303-8.1-1.38-10.404 2.062-2.304 3.443-1.381 8.101 2.062 10.404 36.745 24.59 79.631 37.587 124.021 37.587 40.225 0 79.663-10.819 114.05-31.287 33.382-19.87 61.154-48.227 80.313-82.003 5.878-10.363 5.878-23.237 0-33.6-4.904-8.647-10.381-16.932-16.363-24.817 35.705-7.718 68.21-26.768 92.578-54.508 27.491-31.296 42.631-71.498 42.631-113.199.004-94.608-76.968-171.579-171.578-171.579zm154.869 148.441h-66.329c4.491-26.957 16.867-52.138 35.488-72.317 15.933 20.652 26.832 45.373 30.841 72.317zm-178.01-131.728v131.728h-18.648c-4.845-38.991-21.986-75.569-48.9-104.441 19.647-14.004 42.651-23.584 67.548-27.287zm-100.896 59.412c18.627 20.183 31.006 45.363 35.498 72.316h-66.339c4.008-26.943 14.908-51.664 30.841-72.316zm-10.974 174.794c-10.197-17.314-16.912-36.38-19.856-56.197h66.33c-3.466 20.842-11.623 40.68-23.872 58.011-7.479-.984-15.022-1.59-22.602-1.814zm69.991 13.412c12.236-21.391 20.183-45.17 23.23-69.609h18.649v90.117c-1.473-.924-2.943-1.851-4.438-2.741-11.931-7.101-24.471-13.038-37.441-17.767zm88.161 59.086v-128.695h18.647c4.846 39.024 21.998 75.617 48.932 104.488-19.328 13.756-41.607 23.015-65.201 26.882-.791-.894-1.573-1.795-2.378-2.675zm79.42-33.514c-26.736-28.24-43.202-64.672-46.55-103.328-.336-3.877-3.581-6.853-7.472-6.853h-32.897c-4.142 0-7.5 3.358-7.5 7.5v121.288c-5.208-4.714-10.644-9.18-16.282-13.392v-107.896c0-4.142-3.358-7.5-7.5-7.5h-32.897c-3.891 0-7.136 2.976-7.472 6.852-2.23 25.711-10.367 50.83-23.598 73.003-5.472-1.578-11.005-2.947-16.589-4.104 13.017-20.327 21.168-43.42 23.701-67.466.222-2.114-.462-4.224-1.885-5.804-1.422-1.58-3.448-2.482-5.574-2.482h-76.403c-.14-2.707-.234-5.419-.234-8.141 0-2.73.071-5.444.21-8.141h76.427c2.126 0 4.152-.902 5.574-2.482s2.107-3.689 1.885-5.804c-3.568-33.87-18.315-65.748-41.741-90.548 3.711-3.96 7.618-7.734 11.718-11.292 26.713 28.243 43.163 64.653 46.508 103.273.336 3.876 3.581 6.853 7.472 6.853h32.897c4.142 0 7.5-3.358 7.5-7.5v-140.729c2.696-.139 5.41-.21 8.141-.21s5.445.072 8.142.21v140.726c0 4.142 3.358 7.5 7.5 7.5h32.9c3.892 0 7.138-2.978 7.472-6.855 1.317-15.27 4.675-30.279 9.981-44.61 1.438-3.884-.545-8.199-4.429-9.637-3.886-1.44-8.199.545-9.637 4.429-4.977 13.441-8.378 27.43-10.14 41.674h-18.647v-131.724c24.898 3.704 47.903 13.286 67.55 27.293-8.697 9.326-16.446 19.504-23.066 30.381-2.153 3.538-1.031 8.152 2.507 10.306 1.218.741 2.563 1.094 3.892 1.094 2.531 0 5.001-1.281 6.414-3.602 6.307-10.362 13.724-20.04 22.076-28.867 4.098 3.557 8.004 7.329 11.713 11.288-23.42 24.794-38.164 56.673-41.732 90.549-.222 2.114.462 4.224 1.885 5.804 1.422 1.58 3.448 2.482 5.574 2.482h76.416c.139 2.696.21 5.41.21 8.141 0 2.722-.079 5.435-.219 8.141h-76.407c-2.126 0-4.152.902-5.574 2.482s-2.107 3.689-1.885 5.804c3.57 33.896 18.332 65.799 41.781 90.61-3.724 3.974-7.633 7.743-11.716 11.284zm-14.021-95.181h66.317c-3.922 26.297-14.478 51.217-30.78 72.378-18.648-20.196-31.042-45.4-35.537-72.378z"/><path d="m140.174 330.9c-11.401 0-20.676 9.275-20.676 20.676v.155c-7.6.228-14.703 3.284-20.072 8.668-5.613 5.598-8.704 13.056-8.704 21 0 16.065 12.827 29.181 28.776 29.667v.151c0 11.401 9.275 20.676 20.676 20.676s20.676-9.275 20.676-20.676v-.127h17.247v.127c0 11.401 9.275 20.676 20.676 20.676s20.676-9.275 20.676-20.676v-.127h17.248v.127c0 11.401 9.275 20.676 20.676 20.676s20.676-9.275 20.676-20.676v-.15c7.589-.227 14.692-3.281 20.092-8.682 5.604-5.618 8.69-13.071 8.69-20.986 0-16.067-12.83-29.184-28.782-29.667v-.156c0-11.401-9.275-20.676-20.676-20.676s-20.676 9.275-20.676 20.676v.133h-17.247v-.133c0-11.401-9.275-20.676-20.676-20.676s-20.676 9.275-20.676 20.676v.133h-17.248v-.133c0-11.401-9.275-20.676-20.676-20.676zm-34.452 50.499c0-3.93 1.526-7.616 4.31-10.394 2.548-2.554 5.882-4.034 9.466-4.252v29.289c-7.674-.475-13.776-6.851-13.776-14.643zm40.128 29.817c0 3.13-2.546 5.676-5.676 5.676s-5.676-2.546-5.676-5.676v-59.64c0-3.13 2.546-5.676 5.676-5.676s5.676 2.546 5.676 5.676zm145.982-29.817c0 3.916-1.531 7.607-4.303 10.387-2.559 2.559-5.898 4.041-9.479 4.259v-29.29c7.677.473 13.782 6.851 13.782 14.644zm-40.135-29.823c0-3.13 2.546-5.676 5.676-5.676s5.676 2.546 5.676 5.676v59.64c0 3.13-2.546 5.676-5.676 5.676s-5.676-2.546-5.676-5.676zm-15 15.133v29.38h-17.247v-29.38zm-43.6-15.133c0-3.13 2.546-5.676 5.676-5.676s5.676 2.546 5.676 5.676v59.64c0 3.13-2.546 5.676-5.676 5.676s-5.676-2.546-5.676-5.676zm-15 15.133v29.38h-17.247v-29.38z"/></g></svg>