<svg id="Capa_1" enable-background="new 0 0 512 512" height="512" viewBox="0 0 512 512" width="512" xmlns="http://www.w3.org/2000/svg"><g><path d="m384.132 108.698c15.737 0 28.541-12.804 28.541-28.542s-12.804-28.542-28.541-28.542c-15.738 0-28.542 12.804-28.542 28.542 0 15.739 12.804 28.542 28.542 28.542zm0-42.083c7.467 0 13.541 6.075 13.541 13.542s-6.074 13.542-13.541 13.542-13.542-6.075-13.542-13.542 6.075-13.542 13.542-13.542z"/><path d="m395.48 278.95h-8.18v-57.469c11.802-.595 21.22-10.384 21.22-22.331v-18.68c0-2.076-.29-4.084-.822-5.993 5.059-6.02 7.883-13.656 7.883-21.647 0-18.577-15.108-33.69-33.68-33.69-3.644 0-7.242.599-10.66 1.737-7.446-9.226-18.836-15.143-31.588-15.143-1.371 0-2.722.09-4.062.222v-57.696c-.001-26.611-21.654-48.26-48.271-48.26h-239.06c-26.611 0-48.26 21.649-48.26 48.26v239.06c0 26.616 21.649 48.27 48.26 48.27h116.079c-10.763 17.906-16.509 38.455-16.509 59.89 0 64.249 52.275 116.52 116.53 116.52h131.12c24.671 0 48.241-7.612 68.163-22.012 3.357-2.427 4.111-7.115 1.685-10.472-2.428-3.358-7.116-4.111-10.472-1.685-17.348 12.541-37.88 19.169-59.376 19.169h-131.12c-55.984 0-101.53-45.542-101.53-101.52 0-27.125 10.56-52.623 29.732-71.797 19.175-19.174 44.673-29.733 71.798-29.733h15.67c4.143 0 7.5-3.358 7.5-7.5v-64.94h84.77v64.94c0 4.142 3.357 7.5 7.5 7.5h15.681c55.979 0 101.52 45.546 101.52 101.53 0 21.496-6.628 42.028-19.168 59.376-2.427 3.357-1.673 8.045 1.685 10.472 3.355 2.426 8.045 1.673 10.472-1.685 14.399-19.922 22.01-43.492 22.01-68.163 0-64.255-52.271-116.53-116.52-116.53zm-13.58-144.81c10.3 0 18.68 8.384 18.68 18.69 0 3.147-.812 6.183-2.275 8.881-3.5-2.274-7.669-3.601-12.145-3.601h-7.677c1.136-3.734 1.753-7.692 1.753-11.793 0-4.123-.622-8.102-1.771-11.854 1.128-.209 2.276-.323 3.435-.323zm-16.664 12.177c0 14.107-11.477 25.584-25.584 25.584-6.646 0-12.948-2.544-17.743-7.165-1.71-1.648-4.1-2.387-6.441-1.996-2.343.392-4.36 1.87-5.441 3.984-3.216 6.294-9.596 10.204-16.648 10.204-10.305 0-18.688-8.383-18.688-18.688 0-10.304 8.383-18.688 18.688-18.688 3.751 0 7.367 1.105 10.456 3.197 1.967 1.332 4.448 1.653 6.691.865 2.241-.788 3.977-2.591 4.679-4.862 3.33-10.779 13.155-18.02 24.448-18.02 14.107.001 25.583 11.478 25.583 25.585zm-100.876 132.633c-31.132 0-60.396 12.12-82.404 34.127-2.418 2.418-4.708 4.928-6.884 7.513h-126.812c-18.34 0-33.26-14.925-33.26-33.27v-239.06c0-18.34 14.92-33.26 33.26-33.26h239.06c18.345 0 33.27 14.92 33.27 33.26v62.197c-6.782 3.591-12.471 9.063-16.305 15.902-3.482-1.191-7.158-1.805-10.907-1.805-18.575 0-33.688 15.112-33.688 33.688 0 1.541.113 3.055.315 4.542-5.37 4.169-8.696 10.675-8.696 17.686v18.68c0 11.947 9.419 21.736 21.221 22.331v57.469zm15.67-72.44h-6.36c-4.059 0-7.36-3.302-7.36-7.36v-18.68c0-.638.102-1.258.261-1.858 6.159 8.086 15.882 13.317 26.808 13.317 9.694 0 18.682-4.094 24.973-11.064 6.351 3.931 13.682 6.037 21.302 6.037 12.116 0 23.002-5.344 30.445-13.791h16.063c4.058 0 7.359 3.302 7.359 7.36v18.68c0 4.058-3.302 7.36-7.359 7.36h-6.36-99.772z"/><path d="m184.755 369.661c-2.211.91-3.855 2.82-4.427 5.141-1.657 6.729-2.498 13.685-2.498 20.674 0 47.707 38.817 86.52 86.53 86.52h131.119c47.708 0 86.521-38.813 86.521-86.52 0-.557-.003-1.102-.028-1.659-.126-2.691-1.685-5.108-4.084-6.332-2.4-1.224-5.272-1.067-7.522.41-31.081 20.395-85.499 26.557-137.01-5.649-35.417-22.135-95.099-34.611-148.601-12.585zm226.112 50.14c18.73-.001 37.604-3.664 55.103-12.186-5.779 33.677-35.188 59.382-70.49 59.382h-131.12c-39.442 0-71.53-32.084-71.53-71.52 0-4.502.421-8.985 1.254-13.373 47.628-18.004 99.954-6.742 131.32 12.862 23.539 14.717 54.316 24.836 85.463 24.835z"/><path d="m415.355 349.188c0-19.171-15.597-34.768-34.769-34.768s-34.769 15.597-34.769 34.768 15.597 34.769 34.769 34.769 34.769-15.597 34.769-34.769zm-54.537 0c0-10.9 8.868-19.768 19.769-19.768s19.769 8.868 19.769 19.768-8.868 19.769-19.769 19.769-19.769-8.868-19.769-19.769z"/><path d="m285.147 397.555c-14.954 0-27.12 12.166-27.12 27.12s12.166 27.12 27.12 27.12 27.12-12.166 27.12-27.12c.001-14.954-12.165-27.12-27.12-27.12zm0 39.24c-6.683 0-12.12-5.437-12.12-12.12s5.438-12.12 12.12-12.12 12.12 5.437 12.12 12.12c.001 6.683-5.437 12.12-12.12 12.12z"/><path d="m146.27 185.59c-.013 0-.116 0-.129 0-9.555.05-18.363.086-25.601.105v-115.205c0-12.406-10.094-22.5-22.5-22.5s-22.5 10.094-22.5 22.5v29.96c0 4.142 3.357 7.5 7.5 7.5s7.5-3.358 7.5-7.5v-29.96c0-4.135 3.364-7.5 7.5-7.5s7.5 3.365 7.5 7.5v122.72c0 1.99.791 3.899 2.199 5.306 1.407 1.405 3.313 2.194 5.301 2.194h.008c8.193-.009 19.974-.052 33.222-.12 4.11 0 7.471 3.345 7.49 7.465.025 4.13-3.319 7.51-7.453 7.535-13.806.079-25.102.12-33.576.12-12.915 0-15.284-.112-15.958-.233-3.611-.617-6.232-3.724-6.232-7.387v-72.7c0-4.142-3.357-7.5-7.5-7.5s-7.5 3.358-7.5 7.5v72.7c0 10.996 7.867 20.321 18.647 22.163 1.7.304 2.554.457 18.543.457 8.503 0 19.828-.04 33.664-.12 12.407-.075 22.439-10.224 22.365-22.616-.06-12.343-10.15-22.384-22.49-22.384z"/><path d="m204.388 120.685c-12.406 0-22.5 10.094-22.5 22.5v65.02c0 12.406 10.094 22.5 22.5 22.5s22.5-10.094 22.5-22.5v-65.02c0-12.406-10.094-22.5-22.5-22.5zm7.5 87.52c0 4.135-3.364 7.5-7.5 7.5s-7.5-3.365-7.5-7.5v-65.02c0-4.135 3.364-7.5 7.5-7.5s7.5 3.365 7.5 7.5z"/><path d="m204.388 69.945c-12.406 0-22.5 10.094-22.5 22.5v.604c0 12.406 10.094 22.5 22.5 22.5s22.5-10.094 22.5-22.5v-.604c0-12.406-10.094-22.5-22.5-22.5zm7.5 23.104c0 4.135-3.364 7.5-7.5 7.5s-7.5-3.365-7.5-7.5v-.604c0-4.135 3.364-7.5 7.5-7.5s7.5 3.365 7.5 7.5z"/><path d="m115.291 246.207c-10.89 0-19.749 8.859-19.749 19.749 0 9.768 7.136 17.881 16.464 19.453-2.168 2.62-3.977 4.056-4.18 4.212-3.292 2.479-3.968 7.155-1.505 10.467 1.472 1.979 3.733 3.024 6.023 3.024 1.556 0 3.126-.483 4.471-1.483.636-.473 15.607-11.833 18.043-33.04.087-.87.19-1.738.183-2.634-.001-10.888-8.86-19.748-19.75-19.748zm-4.749 19.749c0-2.619 2.131-4.749 4.749-4.749s4.749 2.13 4.749 4.749-2.131 4.749-4.749 4.749-4.749-2.13-4.749-4.749z"/><path d="m66.289 263.91c2.165-2.616 3.971-4.051 4.179-4.212 3.293-2.479 3.97-7.156 1.506-10.467-2.473-3.323-7.17-4.014-10.494-1.542-.636.473-15.607 11.833-18.044 33.039-.086.871-.19 1.738-.182 2.634 0 10.89 8.859 19.749 19.749 19.749s19.749-8.859 19.749-19.749c0-9.767-7.136-17.88-16.463-19.452zm-3.286 24.202c-2.618 0-4.749-2.131-4.749-4.749s2.131-4.749 4.749-4.749 4.749 2.13 4.749 4.749-2.131 4.749-4.749 4.749z"/><path d="m91.276 287.612c-4.143 0-7.5 3.358-7.5 7.5v.5c0 4.142 3.357 7.5 7.5 7.5s7.5-3.358 7.5-7.5v-.5c0-4.142-3.357-7.5-7.5-7.5z"/><path d="m276.73 90.535c-3.973 0-7.381-2.958-7.929-6.88-.051-.368-.077-.747-.077-1.126 0-4.142-3.357-7.5-7.5-7.5s-7.5 3.358-7.5 7.5c0 1.07.074 2.147.222 3.199 1.575 11.292 11.37 19.808 22.784 19.808 12.686 0 23.007-10.321 23.007-23.007 0-5.969-2.284-11.414-6.025-15.507 3.741-4.093 6.025-9.538 6.025-15.507 0-12.686-10.321-23.007-23.007-23.007-10.969 0-20.463 7.804-22.574 18.556-.798 4.064 1.85 8.007 5.914 8.805 4.067.799 8.007-1.849 8.805-5.914.733-3.735 4.037-6.446 7.855-6.446 4.415 0 8.007 3.592 8.007 8.007s-3.592 8.007-8.007 8.007c-4.143 0-7.5 3.358-7.5 7.5s3.357 7.5 7.5 7.5c4.415 0 8.007 3.592 8.007 8.007 0 4.414-3.591 8.005-8.007 8.005z"/></g></svg>