<svg id="Capa_1" enable-background="new 0 0 512 512" height="512" viewBox="0 0 512 512" width="512" xmlns="http://www.w3.org/2000/svg"><g><path d="m437.96 0h-4.82c-4.142 0-7.5 3.358-7.5 7.5s3.358 7.5 7.5 7.5h4.82c8.282 0 15.02 6.738 15.02 15.02v53.93c0 8.282-6.738 15.02-15.02 15.02-8.125 0-14.858-6.608-15.011-14.731-.056-3.007-1.904-5.69-4.694-6.814-2.789-1.125-5.98-.475-8.108 1.652l-35.37 35.37c-2.569 2.569-2.927 6.609-.851 9.59 13.853 19.888 21.174 43.306 21.174 67.723 0 31.761-12.364 61.617-34.813 84.067-19.956 19.955-46.351 32.178-74.338 34.418-3.204.262-6.477.395-9.729.395-13.379 0-26.467-2.18-38.907-6.481-17.035-5.869-32.229-15.402-45.16-28.333-22.45-22.45-34.813-52.306-34.813-84.067 0-3.187.138-6.375.387-9.531 6.519-1.861 13.282-2.819 20.174-2.819 3.431 0 6.854.244 10.237.716-.5 3.835-.757 7.725-.757 11.634 0 23.733 9.244 46.041 26.026 62.813 11.684 11.683 26.263 19.852 42.164 23.625 6.727 1.594 13.674 2.402 20.649 2.402 10.177 0 20.153-1.702 29.642-5.056 12.498-4.402 23.659-11.458 33.17-20.969 16.785-16.774 26.028-39.083 26.028-62.815 0-23.733-9.244-46.042-26.025-62.812-16.773-16.785-39.082-26.028-62.815-26.028-21.922 0-42.668 7.91-58.923 22.361-11.481-3.54-23.366-5.504-35.44-5.856 3.163-4.109 6.599-8.034 10.296-11.731 22.456-22.456 52.312-34.823 84.067-34.823 24.398 0 47.817 7.326 67.725 21.185 2.981 2.075 7.02 1.716 9.588-.852l35.37-35.37c2.127-2.127 2.777-5.318 1.652-8.108s-3.807-4.638-6.814-4.694c-8.128-.153-14.741-6.886-14.741-15.011 0-8.282 6.742-15.02 15.03-15.02h14.11c4.142 0 7.5-3.358 7.5-7.5s-3.358-7.5-7.5-7.5h-14.11c-16.559 0-30.03 13.467-30.03 30.02 0 11.137 6.215 20.968 15.358 26.145l-22.1 22.1c-21.251-13.363-45.678-20.395-71.038-20.395-35.762 0-69.384 13.927-94.673 39.216-7.037 7.037-13.253 14.797-18.522 23.104-31.883 3.54-61.356 18.416-83.346 42.166-22.995 24.835-35.659 57.116-35.659 90.894 0 32.292 11.712 63.499 32.979 87.871 1.483 1.699 3.562 2.569 5.654 2.569 1.75 0 3.507-.608 4.928-1.849 3.121-2.723 3.443-7.461.72-10.582-18.882-21.639-29.281-49.343-29.281-78.009 0-29.988 11.246-58.649 31.666-80.703 20.31-21.935 47.793-35.353 77.404-37.783 3.177-.268 6.478-.404 9.81-.404 13.292 0 26.355 2.189 38.824 6.506 47.89 16.599 80.066 61.763 80.066 112.384 0 3.193-.141 6.389-.396 9.554-6.527 1.847-13.29 2.796-20.174 2.796-3.438 0-6.866-.241-10.25-.708.509-3.85.77-7.743.77-11.642 0-20.068-6.91-39.754-19.456-55.429-12.349-15.43-29.664-26.434-48.749-30.985-6.728-1.61-13.67-2.426-20.636-2.426-10.201 0-20.187 1.718-29.67 5.103-35.385 12.569-59.16 46.22-59.16 83.737 0 48.986 39.849 88.84 88.83 88.84 21.863 0 42.584-7.904 58.851-22.344 11.434 3.518 23.312 5.471 35.42 5.828-17.939 23.35-43.913 39.356-73.075 44.626-3.57.645-6.167 3.752-6.167 7.38v29.91c0 4.142 3.358 7.5 7.5 7.5h20.41c8.288 0 15.03 6.738 15.03 15.02s-6.743 15.02-15.03 15.02h-20.41c-4.142 0-7.5 3.358-7.5 7.5v29.45c0 8.282-6.743 15.02-15.03 15.02-8.282 0-15.02-6.738-15.02-15.02v-29.45c0-4.142-3.358-7.5-7.5-7.5h-20.42c-8.282 0-15.02-6.738-15.02-15.02s6.738-15.02 15.02-15.02h20.42c4.142 0 7.5-3.358 7.5-7.5v-29.91c0-3.628-2.597-6.736-6.167-7.38-15.582-2.815-30.243-8.649-43.577-17.342-3.47-2.262-8.117-1.283-10.379 2.187s-1.283 8.117 2.187 10.379c13.25 8.638 27.666 14.771 42.936 18.274v16.293h-12.92c-16.553 0-30.02 13.467-30.02 30.02s13.467 30.02 30.02 30.02h12.92v21.95c0 16.553 13.467 30.02 30.02 30.02 16.559 0 30.03-13.467 30.03-30.02v-21.95h12.91c16.559 0 30.03-13.467 30.03-30.02s-13.472-30.02-30.03-30.02h-12.91v-16.295c34.25-7.874 64.095-29 83.058-58.869 30.096-3.293 58.344-16.833 79.905-38.394 25.283-25.283 39.207-58.905 39.207-94.673 0-25.376-7.029-49.803-20.384-71.039l22.101-22.101c5.177 9.139 15.007 15.35 26.143 15.35 16.553 0 30.02-13.467 30.02-30.02v-53.93c.002-16.553-13.465-30.02-30.018-30.02zm-204.408 131.5c12.387-8.811 27.17-13.58 42.668-13.58 19.725 0 38.265 7.682 52.208 21.635 13.95 13.94 21.632 32.48 21.632 52.205s-7.682 38.265-21.633 52.207c-5.034 5.034-10.621 9.23-16.687 12.564.027-1.094.05-2.188.05-3.281 0-52.692-30.967-100.111-78.238-121.75zm2.022 75.694c10.577 13.214 16.167 29.14 16.167 46.056 0 2.694-.148 5.383-.44 8.05-10.182-3.65-19.504-9.55-27.289-17.334-13.949-13.941-21.631-32.481-21.631-52.206 0-2.686.145-5.359.427-8.002 12.76 4.601 24.198 12.731 32.766 23.436zm-131.503 46.056c0-27.163 15-51.883 38.317-64.716-.025 1.075-.048 2.15-.048 3.226 0 35.768 13.924 69.391 39.207 94.673 11.458 11.458 24.511 20.538 38.911 27.115-12.38 8.787-27.123 13.542-42.557 13.542-40.711 0-73.83-33.125-73.83-73.84z"/></g></svg>