<svg id="Capa_1" enable-background="new 0 0 511.99 511.99" height="512" viewBox="0 0 511.99 511.99" width="512" xmlns="http://www.w3.org/2000/svg"><g><path d="m441.446 24.87h-33.632c-2.873-14.17-15.425-24.87-30.43-24.87s-27.557 10.7-30.43 24.87h-120.892c-2.873-14.17-15.425-24.87-30.43-24.87s-27.557 10.7-30.43 24.87h-33.637c-22.227 0-40.31 18.083-40.31 40.31v105.036l-22.555-19.02c-9.355-7.885-22.936-7.309-31.591 1.346-8.643 8.657-9.217 22.234-1.337 31.583l18.109 21.48c2.67 3.167 7.401 3.57 10.568.9s3.57-7.402.9-10.568l-18.109-21.479c-2.776-3.294-2.563-8.265.479-11.313 3.096-3.097 7.959-3.304 11.311-.48l131.859 111.185-32.463 32.463-70.516-83.618c-2.67-3.167-7.403-3.569-10.568-.898-3.167 2.67-3.568 7.402-.898 10.569l14.813 17.566v221.748c0 22.227 18.083 40.31 40.31 40.31h309.88c22.232 0 40.32-18.083 40.32-40.31v-406.5c-.001-22.227-18.089-40.31-40.321-40.31zm-80.11 6.179c0-8.849 7.199-16.049 16.049-16.049s16.049 7.199 16.049 16.049v36.103c0 8.849-7.199 16.049-16.049 16.049s-16.049-7.199-16.049-16.049zm-134.655 31.751v-22.93h119.654v22.93zm-47.097-31.751c0-8.849 7.199-16.049 16.049-16.049s16.049 7.199 16.049 16.049v36.103c0 8.849-7.199 16.049-16.049 16.049s-16.049-7.199-16.049-16.049zm-73.327 34.131c0-13.956 11.354-25.31 25.31-25.31h33.018v22.93h-27.888c-4.143 0-7.5 3.358-7.5 7.5v131.907l-22.939-19.343v-117.684zm147.451 233.8c6.982 0 13.547 2.719 18.484 7.657 10.193 10.193 10.193 26.777 0 36.969-2.929 2.929-2.929 7.677 0 10.606l2.379 2.379c10.339 10.339 16.032 24.084 16.032 38.705 0 12.09-3.893 23.582-11.086 33.043l-9.558-9.557c-15.129-15.129-35.196-23.625-55.534-23.625-1.154 0-2.313.028-3.469.083-7.337.348-14.544-2.429-19.741-7.627-10.192-10.193-10.192-26.777 0-36.97l44.008-44.008c4.938-4.936 11.502-7.655 18.485-7.655zm-67.796 35.754-17.345-17.344 33.402-33.401 17.344 17.344zm-33.142-11.927 23.028 23.028c-11.014 16.017-9.419 38.157 4.81 52.386 8.18 8.18 19.507 12.551 31.063 12.003 17.302-.823 34.675 6.159 47.682 19.166l15.218 15.218c1.465 1.465 3.384 2.197 5.304 2.197 1.919 0 3.839-.732 5.304-2.197 13.171-13.172 20.426-30.684 20.425-49.312 0-17.468-6.378-33.954-18.034-46.801 11.071-16.023 9.481-38.214-4.77-52.465-7.771-7.771-18.103-12.05-29.092-12.05-8.445 0-16.497 2.536-23.301 7.233l-23.133-23.134c-.012-.012-.323-.307-.472-.433l-62.605-52.791v-137.055h22.269c4.355 11.891 15.786 20.401 29.167 20.401s24.812-8.509 29.167-20.401h29.084l-84.021 84.022c-6.472 6.472-10.036 15.078-10.036 24.234 0 9.147 3.564 17.749 10.033 24.218 6.469 6.477 15.072 10.043 24.227 10.043 9.151 0 17.758-3.566 24.232-10.04l77.163-77.163c4.055-4.055 9.451-6.288 15.194-6.288 5.744 0 11.141 2.233 15.195 6.288 8.379 8.379 8.379 22.012-.001 30.392l-30.279 30.292c-6.215 6.231-9.638 14.494-9.638 23.266 0 8.987 3.553 17.383 10.002 23.641 12.824 12.455 33.761 12.084 46.669-.823l9.616-9.616c3.399-3.391 7.9-5.258 12.673-5.258 4.79 0 9.293 1.865 12.683 5.255 3.389 3.384 5.255 7.883 5.255 12.669s-1.866 9.285-5.259 12.673l-57.853 57.865c-5.544 5.543-8.597 12.915-8.597 20.756s3.053 15.213 8.596 20.756c5.542 5.543 12.913 8.596 20.756 8.596 7.842 0 15.213-3.052 20.757-8.595l17.35-17.35c5.749-5.75 15.113-5.748 20.876.008 2.778 2.77 4.308 6.47 4.308 10.42s-1.529 7.65-4.315 10.428l-100.567 100.561h-154.707v-146.344l8.027 9.519c.137.162.535.57.547.582zm313.996 148.873c0 13.956-11.358 25.31-25.32 25.31h-309.88c-13.956 0-25.31-11.354-25.31-25.31v-203.962l22.939 27.201v171.631c0 4.142 3.357 7.5 7.5 7.5h241.17c4.143 0 7.5-3.358 7.5-7.5s-3.357-7.5-7.5-7.5h-57.749l89.951-89.95c5.62-5.605 8.716-13.078 8.716-21.042s-3.096-15.437-8.712-21.038c-11.609-11.592-30.485-11.589-42.079.004l-17.349 17.349c-2.71 2.71-6.315 4.202-10.15 4.202s-7.439-1.492-10.149-4.202-4.202-6.314-4.202-10.149 1.492-7.439 4.203-10.15l57.85-57.862c6.226-6.218 9.655-14.486 9.655-23.282s-3.43-17.064-9.651-23.279c-6.22-6.22-14.49-9.645-23.286-9.645-8.772 0-17.035 3.423-23.273 9.645l-9.623 9.623c-7.145 7.144-18.633 7.446-25.614.667-3.514-3.41-5.449-7.983-5.449-12.878 0-4.772 1.867-9.273 5.253-12.667l30.272-30.285c14.227-14.227 14.227-37.376 0-51.604-6.889-6.888-16.052-10.682-25.803-10.682-9.75 0-18.913 3.794-25.802 10.682l-77.163 77.163c-3.641 3.641-8.48 5.647-13.625 5.647-5.144 0-9.979-2.004-13.616-5.647-3.64-3.639-5.644-8.474-5.644-13.615 0-5.149 2.004-9.988 5.644-13.627l94.627-94.628h73.12c4.355 11.891 15.786 20.401 29.167 20.401s24.812-8.509 29.167-20.401h22.274v381.25h-16.1c-4.143 0-7.5 3.358-7.5 7.5s3.357 7.5 7.5 7.5h23.6c4.143 0 7.5-3.358 7.5-7.5v-396.25c0-4.142-3.357-7.5-7.5-7.5h-27.893v-22.93h33.013c13.962 0 25.32 11.354 25.32 25.31v406.5z"/></g></svg>