<svg id="Capa_1" enable-background="new 0 0 512 512" height="512" viewBox="0 0 512 512" width="512" xmlns="http://www.w3.org/2000/svg"><g><path d="m426.912 35.528h-20.099v-15.409c0-11.094-9.025-20.119-20.119-20.119h-213.01c-4.142 0-7.5 3.358-7.5 7.5s3.357 7.5 7.5 7.5h213.01c2.823 0 5.12 2.297 5.12 5.12v276.767c0 2.823-2.297 5.12-5.12 5.12h-67.333l23.523-56.789c17.278-41.712-2.6-89.704-44.312-106.982-3.823-1.584-8.213.232-9.798 4.059l-48.676 117.511-48.675-117.511c-.761-1.838-2.221-3.298-4.058-4.059-1.838-.761-3.902-.761-5.74 0-20.204 8.369-35.941 24.107-44.311 44.314s-8.371 42.463-.001 62.667l23.523 56.79h-56.798c-2.817 0-5.11-2.297-5.11-5.12v-276.768c0-2.823 2.293-5.12 5.11-5.12h34.649c4.142 0 7.5-3.358 7.5-7.5s-3.357-7.5-7.5-7.5h-34.649c-11.09.001-20.111 9.026-20.111 20.12v276.767c0 11.094 9.021 20.119 20.109 20.119h20.109v15.419c0 11.088 9.025 20.109 20.118 20.109h37.499l9.962 24.051-1.087 2.623c-6.141-5.368-13.171-9.769-20.928-12.982-38.59-15.984-82.991 2.402-98.975 40.988-15.986 38.592 2.406 82.994 40.998 98.979 9.347 3.871 19.167 5.807 28.987 5.807 9.821 0 19.641-1.935 28.987-5.807 18.692-7.743 33.25-22.305 40.994-41.002l27.083-65.385c4.353 3.236 7.771 7.601 9.904 12.751l21.726 52.453c.026.063.047.128.074.191 12.076 29.138 40.353 46.76 70.094 46.759 9.641 0 19.437-1.852 28.883-5.764 5.543-2.298 10.79-5.231 15.593-8.718 3.351-2.433 4.096-7.123 1.663-10.475-2.433-3.351-7.123-4.096-10.475-1.663-3.853 2.797-8.067 5.153-12.522 7-30.948 12.816-66.554-1.936-79.378-32.877 0 0 0 0 0-.001l.004-.002-.067-.163c-12.693-30.919 2.06-66.428 32.952-79.223 30.95-12.813 66.552 1.933 79.368 32.878 6.49 15.676 6.218 32.823-.765 48.282-1.705 3.775-.027 8.217 3.748 9.922 3.776 1.705 8.217.027 9.921-3.747 8.58-18.994 8.927-40.933.954-60.194-15.98-38.587-60.374-56.979-98.965-40.998-7.859 3.255-14.864 7.705-20.928 13.028l-1.101-2.657 9.963-24.052h128.48c11.094 0 20.119-9.021 20.119-20.109v-276.779c.003-11.093-9.022-20.119-20.116-20.119zm-282.648 302.007c-2.822 0-5.119-2.292-5.119-5.11v-15.419h27.902l8.503 20.529zm66.441 69.683c-1.531-3.696-3.338-7.223-5.382-10.576.869-.031 1.746-.207 2.597-.559 5.139-2.129 10.637-2.798 16.007-2.011l-9.759 23.56c-.898-3.518-2.048-6.998-3.463-10.414zm-46.737 85.117c-14.99 6.21-31.502 6.209-46.493 0-30.951-12.82-45.701-48.43-32.881-79.381 9.68-23.368 32.352-37.497 56.204-37.497 7.735 0 15.596 1.487 23.175 4.626 14.992 6.21 26.667 17.884 32.875 32.874 6.21 14.99 6.209 31.502-.001 46.493-6.213 14.997-17.889 26.675-32.879 32.885zm97.579-85.519c-4.65-11.226-13.389-19.959-24.598-24.588-8.867-3.673-18.444-4.441-27.607-2.307l-58.174-140.445c-6.836-16.503-6.835-34.682.002-51.187 5.871-14.174 16.178-25.655 29.423-32.944l97.797 236.103c-5.758 7.889-9.943 16.82-12.333 26.257zm-13.333-127.414 51.386-124.053c29.391 16.221 42.568 52.399 29.426 84.128l-48.675 117.512zm183.818 53.023c0 2.817-2.297 5.11-5.12 5.11h-122.267l8.503-20.529h73.546c11.094 0 20.119-9.025 20.119-20.119v-246.359h20.099c2.823 0 5.12 2.297 5.12 5.12z"/><path d="m155.766 399.894c-20.03-8.294-43.068 1.245-51.361 21.266-8.296 20.027 1.249 43.069 21.275 51.365 4.902 2.03 9.983 2.991 14.986 2.991 15.432 0 30.105-9.148 36.369-24.271 8.294-20.022-1.248-43.058-21.269-51.351zm7.413 45.611c-5.131 12.386-19.378 18.292-31.758 13.162-12.385-5.131-18.288-19.381-13.159-31.768 5.129-12.38 19.375-18.279 31.764-13.148 12.38 5.129 18.28 19.374 13.153 31.754z"/><path d="m324.433 399.888c-9.7 4.018-17.255 11.573-21.273 21.273-4.017 9.701-4.017 20.385.001 30.085 6.262 15.121 20.939 24.266 36.379 24.266 5.002 0 10.085-.96 14.986-2.988.001 0 .002 0 .003-.001 20.023-8.295 29.567-31.334 21.272-51.361-8.305-20.022-31.348-29.564-51.368-21.274zm24.355 58.778c-12.391 5.125-26.642-.778-31.771-13.16-2.484-5.998-2.485-12.605 0-18.604s7.157-10.671 13.156-13.156c3.031-1.256 6.174-1.85 9.267-1.85 9.545 0 18.625 5.657 22.504 15.009 5.129 12.384-.772 26.631-13.156 31.761z"/><path d="m232.608 339.751c-3.827-1.58-8.213.241-9.794 4.069l-.204.494c-1.582 3.828.24 8.214 4.068 9.795.936.387 1.906.57 2.86.57 2.946 0 5.74-1.747 6.934-4.638l.204-.494c1.582-3.829-.24-8.214-4.068-9.796z"/></g></svg>