<svg id="Capa_1" enable-background="new 0 0 512 512" height="512" viewBox="0 0 512 512" width="512" xmlns="http://www.w3.org/2000/svg"><g><path d="m472.97 149.9h-1.939v-37.67c0-4.142-3.357-7.5-7.5-7.5h-147.911c-19.152 0-35.944 10.282-45.161 25.614-8.026-13.349-21.798-22.858-37.869-25.097v-73.607c0-17.446-14.198-31.64-31.65-31.64h-115.53c-4.143 0-7.5 3.358-7.5 7.5s3.357 7.5 7.5 7.5h115.53c9.181 0 16.649 7.465 16.649 16.64v142.39c0 9.175-7.469 16.64-16.649 16.64h-22.85c-4.143 0-7.5 3.358-7.5 7.5v29.88c0 .859-.412 1.44-1.225 1.726-.814.288-1.502.092-2.038-.574l-28.711-35.73c-1.424-1.771-3.574-2.802-5.847-2.802h-89.029c-9.176 0-16.641-7.465-16.641-16.64v-142.39c.001-9.175 7.465-16.64 16.641-16.64h6.67c4.143 0 7.5-3.358 7.5-7.5s-3.357-7.5-7.5-7.5h-6.67c-17.446 0-31.64 14.194-31.64 31.64v142.39c0 16.529 12.743 30.13 28.92 31.515v230.875c0 14.849 12.077 26.93 26.921 26.93h116.751v17.013c0 17.445 14.196 31.637 31.646 31.637h157.207c17.444 0 31.637-14.192 31.637-31.637v-17.013h67.788c14.85 0 26.931-12.081 26.931-26.93v-259.6c-.001-14.844-12.082-26.92-26.931-26.92zm-405.03 298.45c-6.573 0-11.921-5.352-11.921-11.93v-230.75h13.86v143.86 29.17 45.16c0 4.142 3.357 7.5 7.5 7.5h107.312v16.99zm16.94-62.15h99.812v30.16h-99.812zm99.811-48.234v33.234h-99.811v-21.67-143.86h44.295l26.462 32.931c3.288 4.086 8.047 6.308 13.018 6.308 1.892 0 3.813-.322 5.696-.985 6.827-2.406 11.239-8.637 11.239-15.874v-22.38h15.351c17.451 0 31.649-14.194 31.649-31.64v-53.584c17.289 3.409 30.37 18.68 30.37 36.954v117.641l-1.312-1.633c-4.534-5.646-11.879-7.738-18.709-5.336-6.832 2.404-11.246 8.635-11.246 15.876v22.381h-15.354c-17.451 0-31.648 14.192-31.648 31.637zm205.491 142.397c0 9.174-7.463 16.637-16.637 16.637h-157.207c-9.179 0-16.646-7.463-16.646-16.637v-142.397c0-9.174 7.468-16.637 16.646-16.637h22.854c4.143 0 7.5-3.358 7.5-7.5v-29.881c0-.86.412-1.44 1.225-1.726s1.497-.092 2.036.579l28.71 35.726c1.423 1.771 3.573 2.802 5.846 2.802h89.036c9.174 0 16.637 7.463 16.637 16.637zm15-94.163h50.849v30.16h-50.849zm79.718 50.22c0 6.578-5.353 11.93-11.931 11.93h-67.788v-16.99h58.349c4.143 0 7.5-3.358 7.5-7.5v-45.16-29.17-10.02c0-4.142-3.357-7.5-7.5-7.5s-7.5 3.358-7.5 7.5v10.02 21.67h-50.849v-33.234c0-17.445-14.192-31.637-31.637-31.637h-85.441l-10.144-12.622v-136.307c0-20.771 16.895-37.67 37.66-37.67h140.41v184.96c0 4.142 3.357 7.5 7.5 7.5s7.5-3.358 7.5-7.5v-139.79h1.939c6.578 0 11.931 5.347 11.931 11.92v259.6z"/><path d="m430.246 137.177h-124.469c-4.143 0-7.5 3.358-7.5 7.5s3.357 7.5 7.5 7.5h124.469c4.143 0 7.5-3.358 7.5-7.5s-3.357-7.5-7.5-7.5z"/><path d="m430.246 169.879h-124.469c-4.143 0-7.5 3.358-7.5 7.5s3.357 7.5 7.5 7.5h124.469c4.143 0 7.5-3.358 7.5-7.5s-3.357-7.5-7.5-7.5z"/><path d="m430.246 202.58h-124.469c-4.143 0-7.5 3.358-7.5 7.5s3.357 7.5 7.5 7.5h124.469c4.143 0 7.5-3.358 7.5-7.5s-3.357-7.5-7.5-7.5z"/><path d="m430.246 235.281h-124.469c-4.143 0-7.5 3.358-7.5 7.5s3.357 7.5 7.5 7.5h124.469c4.143 0 7.5-3.358 7.5-7.5s-3.357-7.5-7.5-7.5z"/><path d="m366.997 267.982h-61.22c-4.143 0-7.5 3.358-7.5 7.5s3.357 7.5 7.5 7.5h61.22c4.143 0 7.5-3.358 7.5-7.5s-3.357-7.5-7.5-7.5z"/><path d="m109.165 253.083h25.285c4.143 0 7.5-3.358 7.5-7.5s-3.357-7.5-7.5-7.5h-25.285c-4.143 0-7.5 3.358-7.5 7.5s3.357 7.5 7.5 7.5z"/><path d="m195.895 253.083h20.129c4.143 0 7.5-3.358 7.5-7.5s-3.357-7.5-7.5-7.5h-20.129c-4.143 0-7.5 3.358-7.5 7.5s3.357 7.5 7.5 7.5z"/><path d="m223.523 278.284c0-4.142-3.357-7.5-7.5-7.5h-106.858c-4.143 0-7.5 3.358-7.5 7.5s3.357 7.5 7.5 7.5h106.858c4.143 0 7.5-3.358 7.5-7.5z"/><path d="m170.705 303.485h-61.54c-4.143 0-7.5 3.358-7.5 7.5s3.357 7.5 7.5 7.5h61.54c4.143 0 7.5-3.358 7.5-7.5s-3.357-7.5-7.5-7.5z"/><path d="m78.739 158.887c3.869 1.474 8.204-.468 9.679-4.339l7.958-20.893h52.852l7.876 20.872c1.133 3.004 3.987 4.854 7.018 4.854.88 0 1.775-.156 2.647-.485 3.875-1.463 5.831-5.79 4.368-9.665l-38.98-103.292c-.026-.07-.054-.139-.082-.208-1.53-3.716-5.112-6.115-9.131-6.115-.004 0-.008 0-.012 0-4.022.005-7.604 2.414-9.128 6.137-.022.056-.045.113-.066.169l-39.338 103.286c-1.474 3.871.469 8.205 4.339 9.679zm44.184-94.935 20.644 54.702h-41.478z"/><path d="m347.43 352.014c-2.93-2.929-7.678-2.929-10.607 0-13.947 13.947-22.229 32.036-23.747 51.491h-13.069v-46.188c0-4.142-3.357-7.5-7.5-7.5s-7.5 3.358-7.5 7.5v46.188h-13.069c-1.518-19.454-9.8-37.544-23.747-51.491-2.93-2.929-7.678-2.929-10.607 0s-2.929 7.678 0 10.606c11.112 11.112 17.839 25.44 19.317 40.884h-4.091c-4.143 0-7.5 3.358-7.5 7.5s3.357 7.5 7.5 7.5h3.855c-1.846 14.685-8.447 28.268-19.082 38.902-2.929 2.929-2.929 7.677 0 10.606 1.465 1.464 3.384 2.197 5.304 2.197 1.919 0 3.839-.732 5.304-2.197 13.473-13.473 21.673-30.809 23.584-49.509h13.231v44.206c0 4.142 3.357 7.5 7.5 7.5s7.5-3.358 7.5-7.5v-44.206h13.231c1.911 18.7 10.112 36.036 23.584 49.509 1.465 1.465 3.385 2.197 5.304 2.197 1.92 0 3.839-.732 5.304-2.197 2.929-2.929 2.929-7.677 0-10.606-10.634-10.635-17.236-24.218-19.082-38.902h3.855c4.143 0 7.5-3.358 7.5-7.5s-3.357-7.5-7.5-7.5h-4.091c1.479-15.445 8.205-29.772 19.317-40.884 2.93-2.928 2.93-7.677.002-10.606z"/></g></svg>