<svg id="Capa_1" enable-background="new 0 0 511.924 511.924" height="512" viewBox="0 0 511.924 511.924" width="512" xmlns="http://www.w3.org/2000/svg"><g><path d="m452.317 239.284c-.002-.002-.004-.005-.006-.007-.009-.009-.018-.017-.027-.026-35.423-35.406-84.973-51.974-134.26-45.344.184-2.713.283-5.442.283-8.187 0-63.248-49.923-115.057-112.43-118.099v-13.061h9.44c15.042 0 27.28-12.238 27.28-27.28 0-7.284-2.836-14.132-7.987-19.284-5.156-5.156-12.008-7.996-19.293-7.996h-99.44c-15.037 0-27.27 12.238-27.27 27.28 0 7.308 2.845 14.161 7.989 19.276 5.147 5.162 11.995 8.004 19.281 8.004h9.46v13.063c-17.048.84-33.834 5.371-48.873 13.229-3.671 1.918-5.092 6.45-3.174 10.121 1.917 3.671 6.449 5.091 10.12 3.174 14.607-7.633 31.111-11.667 47.727-11.667h1.7c4.142 0 7.5-3.358 7.5-7.5v-27.92c0-4.142-3.358-7.5-7.5-7.5h-16.96c-3.271 0-6.347-1.277-8.682-3.619-2.314-2.301-3.588-5.377-3.588-8.662 0-6.771 5.504-12.28 12.27-12.28h99.44c3.278 0 6.363 1.28 8.687 3.603 2.317 2.318 3.594 5.399 3.594 8.677 0 6.771-5.509 12.28-12.28 12.28h-16.94c-4.142 0-7.5 3.358-7.5 7.5v27.92c0 4.142 3.358 7.5 7.5 7.5h1.69c56.927 0 103.24 46.313 103.24 103.24 0 27.57-10.74 53.494-30.243 72.997-19.496 19.496-45.42 30.233-72.997 30.233h-1.69c-4.142 0-7.5 3.358-7.5 7.5v27.93c0 4.142 3.358 7.5 7.5 7.5h16.94c3.285 0 6.37 1.276 8.679 3.586 2.322 2.329 3.601 5.413 3.601 8.684 0 6.771-5.509 12.28-12.28 12.28h-99.44c-3.278 0-6.353-1.273-8.674-3.601-2.319-2.312-3.596-5.395-3.596-8.679 0-6.766 5.504-12.27 12.27-12.27h16.96c4.142 0 7.5-3.358 7.5-7.5v-27.93c0-4.142-3.358-7.5-7.5-7.5h-1.7c-56.927 0-103.24-46.309-103.24-103.23 0-27.401 10.618-53.206 29.897-72.661 2.916-2.942 2.894-7.691-.048-10.606s-7.691-2.894-10.606.048c-22.082 22.283-34.243 51.837-34.243 83.22 0 63.247 49.927 115.053 112.44 118.089v13.07h-9.46c-15.037 0-27.27 12.233-27.27 27.27 0 7.299 2.843 14.154 7.989 19.286 5.141 5.155 11.988 7.994 19.281 7.994h64.871c4.273 35.384 20.321 68.462 45.638 93.779 31.144 31.144 72.053 46.715 112.961 46.715 40.909 0 81.818-15.572 112.962-46.715 62.287-62.287 62.289-163.634.007-225.924zm-10.614 215.319c-40.15 40.151-98.212 51.728-148.703 34.75 19.513-1.719 37.633-10.132 51.651-24.15 3.97-3.97 7.535-8.323 10.597-12.937 2.29-3.452 1.348-8.106-2.104-10.396-3.453-2.291-8.106-1.348-10.396 2.103-2.51 3.783-5.438 7.357-8.704 10.623-12.962 12.962-30.195 20.101-48.526 20.101-18.33 0-35.564-7.139-48.526-20.101-.008-.008-.016-.014-.024-.022-22.495-22.507-36.901-51.778-41.09-83.145h19.441c15.042 0 27.28-12.238 27.28-27.28 0-7.27-2.833-14.116-7.987-19.283-5.15-5.15-12.002-7.987-19.293-7.987h-9.44v-13.069c29.4-1.414 56.839-13.533 77.794-34.488 16.647-16.647 27.716-37.383 32.276-59.938 23.761-3.878 47.7-1.771 69.854 5.734-19.553 1.698-37.714 10.115-51.757 24.158-32.605 32.606-32.605 85.66 0 118.267 15.012 15.012 22.158 35.724 19.608 56.827-.497 4.112 2.434 7.849 6.545 8.346.306.037.609.055.91.055 3.74 0 6.976-2.794 7.436-6.601 3.107-25.707-5.601-50.941-23.892-69.233-26.758-26.758-26.758-70.296 0-97.054 12.962-12.962 30.196-20.101 48.526-20.101 18.319 0 35.54 7.13 48.499 20.075.009.009.018.017.026.025 56.44 56.442 56.44 148.279-.001 204.721z"/><path d="m393.177 263.284c-9.383 0-18.204 3.654-24.84 10.289-13.695 13.696-13.695 35.982 0 49.679h.001c6.635 6.635 15.456 10.289 24.839 10.289 9.384 0 18.205-3.654 24.84-10.289 13.695-13.696 13.695-35.982 0-49.679-6.635-6.635-15.456-10.289-24.84-10.289zm14.233 49.362c-3.801 3.802-8.855 5.896-14.232 5.896-5.376 0-10.431-2.094-14.233-5.896h.001c-7.848-7.848-7.848-20.618-.001-28.466 3.803-3.802 8.857-5.896 14.233-5.896 5.377 0 10.432 2.094 14.232 5.896 7.847 7.848 7.847 20.617 0 28.466z"/><path d="m310.357 381.232c-13.698-13.696-35.982-13.695-49.679 0-13.696 13.696-13.696 35.982 0 49.679 6.635 6.635 15.456 10.289 24.84 10.289 9.383 0 18.204-3.654 24.84-10.289 13.695-13.696 13.695-35.982-.001-49.679zm-10.606 39.073c-3.803 3.802-8.857 5.896-14.233 5.896-5.377 0-10.432-2.094-14.232-5.896-7.849-7.848-7.849-20.618 0-28.466 3.924-3.924 9.077-5.886 14.232-5.886 5.154 0 10.309 1.962 14.232 5.886 7.848 7.848 7.848 20.618.001 28.466z"/><path d="m132.834 266.354c1.562 0 3.106-.488 4.403-1.428 1.946-1.411 3.098-3.669 3.098-6.072v-146.276c0-2.403-1.152-4.661-3.097-6.072-1.946-1.411-4.451-1.804-6.734-1.057-12.511 4.091-24.069 11.199-33.426 20.557-15.95 15.95-24.734 37.156-24.734 59.714 0 36.626 23.373 68.88 58.16 80.262.76.249 1.547.372 2.33.372zm-7.5-18.694c-23.09-11.682-37.992-35.417-37.992-61.94 0-18.551 7.224-35.991 20.341-49.107 5.173-5.173 11.16-9.509 17.651-12.817z"/><path d="m193.971 264.925c1.95 1.415 4.464 1.801 6.734 1.057 12.502-4.088 24.058-11.196 33.418-20.556 15.95-15.95 24.733-37.154 24.733-59.706 0-36.63-23.368-68.888-58.15-80.27-2.284-.748-4.789-.355-6.734 1.056-1.946 1.411-3.098 3.668-3.098 6.072v146.275c0 2.404 1.151 4.662 3.097 6.072zm11.903-141.152c23.083 11.684 37.983 35.422 37.983 61.947 0 18.545-7.224 35.982-20.34 49.099-5.173 5.173-11.158 9.509-17.643 12.816z"/></g></svg>