<svg id="Capa_1" enable-background="new 0 0 512 512" height="512" viewBox="0 0 512 512" width="512" xmlns="http://www.w3.org/2000/svg"><g><path d="m504.5 397.69c4.143 0 7.5-3.358 7.5-7.5v-192.7c0-23.953-19.487-43.44-43.44-43.44h-106.41v-118.88c0-19.393-15.777-35.17-35.17-35.17h-291.81c-19.393 0-35.17 15.777-35.17 35.17v331.55c0 19.393 15.777 35.17 35.17 35.17h189.6v66.67c0 23.953 19.491 43.44 43.45 43.44h200.34c23.953 0 43.44-19.487 43.44-43.44v-43.37c0-4.142-3.357-7.5-7.5-7.5s-7.5 3.358-7.5 7.5v43.37c0 15.682-12.758 28.44-28.44 28.44h-200.34c-15.688 0-28.45-12.758-28.45-28.44v-271.07c0-15.682 12.763-28.44 28.45-28.44h200.34c15.683 0 28.44 12.758 28.44 28.44v192.7c0 4.142 3.357 7.5 7.5 7.5zm-469.33-10.8c-11.122 0-20.17-9.048-20.17-20.17v-331.55c0-11.122 9.048-20.17 20.17-20.17h291.81c11.122 0 20.17 9.048 20.17 20.17v118.88h-15v-26.34-31.72-58.49c0-4.142-3.357-7.5-7.5-7.5h-214.56c-4.143 0-7.5 3.358-7.5 7.5s3.357 7.5 7.5 7.5h207.06v43.49h-60.92c-1.574-10.07-10.282-17.808-20.787-17.808s-19.213 7.738-20.787 17.808h-78.903c-1.574-10.07-10.282-17.808-20.787-17.808-5.166 0-9.897 1.876-13.565 4.974-3.668-3.098-8.399-4.974-13.565-4.974-10.505 0-19.213 7.737-20.787 17.808h-22.049v-43.49h30.13c4.143 0 7.5-3.358 7.5-7.5s-3.357-7.5-7.5-7.5h-37.63c-4.143 0-7.5 3.358-7.5 7.5v326.89c0 4.142 3.357 7.5 7.5 7.5h187.27v15zm221.339-283.4h60.642v16.72h-60.642zm-15-11.742v40.205c0 3.345-2.721 6.065-6.065 6.065s-6.065-2.721-6.065-6.065v-40.205c0-3.345 2.721-6.065 6.065-6.065s6.065 2.72 6.065 6.065zm-27.131 28.462h-78.347v-16.72h78.347zm-105.478-28.462c0-3.345 2.721-6.065 6.065-6.065s6.065 2.721 6.065 6.065v40.205c0 3.345-2.721 6.065-6.065 6.065s-6.065-2.721-6.065-6.065zm-15 40.205c0 3.345-2.721 6.065-6.064 6.065-3.345 0-6.065-2.721-6.065-6.065v-40.205c0-3.345 2.721-6.065 6.065-6.065s6.064 2.721 6.064 6.065zm-27.129-11.743h-21.771v-16.72h21.771zm37.987 121.903c10.503 0 19.21-7.735 20.786-17.803h17.2c1.576 10.068 10.283 17.803 20.786 17.803 5.166 0 9.897-1.876 13.565-4.974 3.668 3.098 8.4 4.974 13.565 4.974 10.503 0 19.21-7.735 20.786-17.803h13.322v42.37h-38.66c-1.573-10.071-10.282-17.81-20.787-17.81s-19.214 7.738-20.787 17.81h-42.046c-1.573-10.071-10.282-17.81-20.787-17.81s-19.214 7.738-20.787 17.81h-15.914v-42.37h38.972c1.576 10.068 10.283 17.803 20.786 17.803zm-6.066-21.066v-40.206c0-3.345 2.721-6.065 6.065-6.065s6.065 2.721 6.065 6.065v40.206c0 3.345-2.721 6.065-6.065 6.065s-6.065-2.72-6.065-6.065zm27.131-28.467h16.642v16.73h-16.642zm43.773 28.467c0 3.345-2.721 6.065-6.065 6.065s-6.065-2.721-6.065-6.065v-40.206c0-3.345 2.721-6.065 6.065-6.065s6.065 2.721 6.065 6.065zm15-40.205c0-3.345 2.721-6.065 6.065-6.065s6.065 2.721 6.065 6.065v40.206c0 3.345-2.721 6.065-6.065 6.065s-6.065-2.721-6.065-6.065zm27.131 11.738h13.328c-.182 1.613-.285 3.25-.285 4.91v11.82h-13.043zm-151.091 105.82h-15.636v-16.72h15.636zm-15.636 15h15.914c1.575 10.07 10.283 17.807 20.787 17.807s19.212-7.737 20.787-17.807h42.047c1.575 10.07 10.283 17.807 20.787 17.807s19.212-7.737 20.787-17.807h38.66v43.49h-179.769zm30.636-3.259v-40.205c0-3.345 2.721-6.065 6.065-6.065s6.065 2.721 6.065 6.065v40.205c0 3.345-2.721 6.065-6.065 6.065s-6.065-2.72-6.065-6.065zm27.131-28.461h41.49v16.72h-41.49zm56.49 28.461v-40.205c0-3.345 2.721-6.065 6.065-6.065s6.065 2.721 6.065 6.065v40.205c0 3.345-2.721 6.065-6.065 6.065s-6.065-2.72-6.065-6.065zm27.131-28.461h38.382v16.72h-38.382zm-102.696-72.37h-38.692v-16.73h38.692zm145.93-31.73h-18.174c-1.576-10.068-10.283-17.804-20.786-17.804-5.166 0-9.897 1.876-13.565 4.974-3.668-3.098-8.4-4.974-13.565-4.974-10.503 0-19.211 7.735-20.786 17.804h-17.2c-1.576-10.068-10.283-17.804-20.786-17.804s-19.211 7.735-20.786 17.804h-38.974v-42.37h22.049c1.574 10.071 10.282 17.809 20.787 17.809 5.166 0 9.896-1.876 13.565-4.974 3.668 3.098 8.399 4.974 13.565 4.974 10.505 0 19.213-7.738 20.787-17.809h78.903c1.574 10.071 10.282 17.809 20.787 17.809s19.213-7.738 20.787-17.809h60.92v18.84h-48.93c-16.783 0-31.364 9.569-38.598 23.53z"/><path d="m452.28 307.039h-167.787c-15.655 0-28.392 12.737-28.392 28.392v116.849c0 15.655 12.736 28.392 28.392 28.392h167.787c15.655 0 28.392-12.736 28.392-28.392v-116.85c0-15.655-12.736-28.391-28.392-28.391zm13.392 28.391v50.926h-89.785v-64.317h76.394c7.383 0 13.391 6.007 13.391 13.391zm-181.179-13.391h76.394v64.317h-89.785v-50.925c0-7.384 6.007-13.392 13.391-13.392zm-13.391 130.241v-50.924h89.785v64.316h-76.394c-7.384 0-13.391-6.008-13.391-13.392zm181.178 13.392h-76.394v-64.316h89.785v50.924c.001 7.385-6.007 13.392-13.391 13.392z"/><path d="m480.672 213.769c0-15.655-12.736-28.391-28.392-28.391h-167.787c-15.655 0-28.392 12.737-28.392 28.392v48.827c0 15.655 12.736 28.392 28.392 28.392h167.787c15.655 0 28.392-12.736 28.392-28.391zm-15 48.829c0 7.384-6.008 13.391-13.392 13.391h-167.787c-7.384 0-13.392-6.008-13.392-13.392v-48.827c0-7.384 6.008-13.392 13.392-13.392h167.787c7.384 0 13.392 6.007 13.392 13.391z"/><path d="m330.181 427.02h-7.553v-7.553c0-4.142-3.357-7.5-7.5-7.5s-7.5 3.358-7.5 7.5v7.553h-7.554c-4.143 0-7.5 3.358-7.5 7.5s3.357 7.5 7.5 7.5h7.554v7.553c0 4.142 3.357 7.5 7.5 7.5s7.5-3.358 7.5-7.5v-7.553h7.553c4.143 0 7.5-3.358 7.5-7.5s-3.358-7.5-7.5-7.5z"/><path d="m412.402 353.192-5.341 5.341c-2.929 2.929-2.929 7.678 0 10.606 1.465 1.464 3.385 2.197 5.304 2.197s3.839-.732 5.304-2.197l5.34-5.34 5.34 5.34c1.465 1.464 3.385 2.197 5.304 2.197s3.839-.732 5.304-2.197c2.929-2.929 2.929-7.678 0-10.606l-5.341-5.341 5.341-5.341c2.929-2.929 2.929-7.678 0-10.606-2.93-2.929-7.678-2.929-10.607 0l-5.34 5.34-5.34-5.34c-2.93-2.929-7.678-2.929-10.607 0s-2.929 7.678 0 10.606z"/><path d="m304.483 371.336c1.919 0 3.839-.732 5.304-2.197l21.288-21.288c2.929-2.929 2.929-7.678 0-10.606-2.93-2.929-7.678-2.929-10.607 0l-21.288 21.288c-2.929 2.929-2.929 7.678 0 10.606 1.465 1.465 3.384 2.197 5.303 2.197z"/><path d="m438.062 427.02h-30.105c-4.143 0-7.5 3.358-7.5 7.5s3.357 7.5 7.5 7.5h30.105c4.143 0 7.5-3.358 7.5-7.5s-3.357-7.5-7.5-7.5z"/><path d="m397.474 207.968h-10.07c-4.143 0-7.5 3.358-7.5 7.5s3.357 7.5 7.5 7.5h2.57v39.613c0 4.142 3.357 7.5 7.5 7.5s7.5-3.358 7.5-7.5v-47.113c0-4.142-3.358-7.5-7.5-7.5z"/><path d="m449.294 239.958c.059-10.831.078-21.571-.06-23.221-.389-4.651-3.249-8.465-7.287-9.715-4.043-1.25-8.275.237-11.325 3.979-2.719 3.335-14.194 23.965-19.003 32.68-1.281 2.324-1.24 5.151.109 7.436s3.805 3.687 6.458 3.687h16.008c-.018 2.231-.034 4.368-.052 6.341-.035 4.142 3.293 7.528 7.436 7.564h.065c4.112 0 7.463-3.315 7.499-7.436.014-1.646.033-3.931.054-6.604 3.461-.666 6.076-3.71 6.076-7.365 0-3.62-2.565-6.642-5.978-7.346zm-15.001-.154h-3.345c1.161-2.064 2.296-4.072 3.373-5.964-.008 1.914-.017 3.919-.028 5.964z"/><path d="m342.761 207.872c-7.18 0-13.769 3.923-17.195 10.237-1.976 3.641-.626 8.193 3.015 10.169 3.642 1.977 8.193.625 10.169-3.015.801-1.475 2.338-2.392 4.012-2.392 2.512 0 4.556 2.043 4.556 4.555s-2.044 4.556-4.556 4.556c-4.143 0-7.5 3.358-7.5 7.5s3.357 7.5 7.5 7.5c2.512 0 4.556 2.043 4.556 4.555s-2.044 4.556-4.556 4.556c-1.667 0-3.201-.911-4.003-2.378-1.988-3.635-6.546-4.97-10.179-2.983-3.635 1.987-4.97 6.544-2.983 10.178 3.435 6.281 10.012 10.183 17.165 10.183 10.783 0 19.556-8.772 19.556-19.556 0-4.544-1.558-8.731-4.168-12.055 2.61-3.324 4.168-7.511 4.168-12.056-.002-10.782-8.774-19.554-19.557-19.554z"/><path d="m373.936 254.582c-4.143 0-7.5 3.358-7.5 7.5v.5c0 4.142 3.357 7.5 7.5 7.5s7.5-3.358 7.5-7.5v-.5c0-4.143-3.358-7.5-7.5-7.5z"/></g></svg>