<svg id="Capa_1" enable-background="new 0 0 512 512" height="512" viewBox="0 0 512 512" width="512" xmlns="http://www.w3.org/2000/svg"><g><path d="m414.85 377.47h-52.267v-242.94h52.267c36.937 0 67.113-30.042 67.271-66.968.018-4.142-3.326-7.514-7.468-7.532-.012 0-.022 0-.033 0-4.127 0-7.481 3.337-7.499 7.468-.122 28.69-23.57 52.032-52.271 52.032h-275.421c15.227-12.343 24.984-31.182 24.984-52.265s-9.757-39.923-24.985-52.265h275.422c17.605 0 33.917 8.779 43.633 23.484 1.442 2.183 3.83 3.367 6.265 3.367 1.419 0 2.854-.402 4.128-1.244 3.455-2.283 4.406-6.936 2.123-10.392-12.502-18.92-33.492-30.215-56.149-30.215h-317.7s0 0-.001 0-.001 0-.001 0c-37.055 0-67.204 30.117-67.263 67.158 0 .038-.006.074-.006.112v171.23c0 4.142 3.357 7.5 7.5 7.5s7.5-3.358 7.5-7.5v-128.958c12.342 15.23 31.183 24.989 52.269 24.989.013 0 .026-.001.039-.001h250.396v242.94h-250.396c-.013 0-.026-.001-.039-.001-21.085 0-39.926 9.759-52.269 24.989v-128.958c0-4.142-3.357-7.5-7.5-7.5s-7.5 3.358-7.5 7.5v171.23c0 .038.005.074.006.112.059 37.041 30.208 67.158 67.263 67.158h.001s0 0 .001 0h198.16c4.143 0 7.5-3.358 7.5-7.5s-3.357-7.5-7.5-7.5h-155.882c15.228-12.342 24.985-31.182 24.985-52.265s-9.757-39.922-24.984-52.265h275.421c28.822 0 52.271 23.443 52.271 52.26 0 28.822-23.448 52.27-52.271 52.27h-84.54c-4.143 0-7.5 3.358-7.5 7.5s3.357 7.5 7.5 7.5h84.54c37.093 0 67.271-30.177 67.271-67.27-.001-37.087-30.179-67.26-67.271-67.26zm-265.437-310.205c0 16.706-13.591 30.297-30.297 30.297s-30.297-13.591-30.297-30.297 13.591-30.297 30.297-30.297 30.297 13.592 30.297 30.297zm-104.53 0c0-28.819 23.446-52.265 52.265-52.265 9.628 0 18.65 2.628 26.404 7.188-1.46-.143-2.939-.22-4.437-.22-24.977 0-45.297 20.32-45.297 45.297s20.32 45.297 45.297 45.297c1.498 0 2.977-.077 4.438-.22-7.745 4.554-16.753 7.181-26.367 7.188h-.036c-.005 0-.009.001-.014.001-28.813-.007-52.253-23.45-52.253-52.266zm104.53 377.47c0 16.706-13.591 30.297-30.297 30.297s-30.297-13.591-30.297-30.297 13.591-30.297 30.297-30.297 30.297 13.591 30.297 30.297zm-25.859-45.077c-1.46-.143-2.94-.22-4.438-.22-24.977 0-45.297 20.32-45.297 45.297s20.32 45.297 45.297 45.297c1.497 0 2.976-.077 4.437-.22-7.755 4.56-16.776 7.188-26.404 7.188-28.819 0-52.266-23.446-52.266-52.265 0-28.815 23.44-52.259 52.254-52.265.005 0 .009.001.014.001h.037c9.613.006 18.621 2.633 26.366 7.187z"/><path d="m106.619 215.868c9.368 0 17.778-4.183 23.46-10.778 5.682 6.595 14.092 10.778 23.46 10.778s17.777-4.182 23.459-10.778c5.683 6.596 14.092 10.778 23.46 10.778s17.777-4.182 23.46-10.778c5.682 6.596 14.091 10.778 23.459 10.778s17.778-4.183 23.46-10.778c5.682 6.595 14.092 10.778 23.46 10.778 17.071 0 30.959-13.888 30.959-30.959 0-4.142-3.357-7.5-7.5-7.5s-7.5 3.358-7.5 7.5c0 8.8-7.159 15.959-15.959 15.959-8.801 0-15.96-7.159-15.96-15.959 0-4.142-3.357-7.5-7.5-7.5s-7.5 3.358-7.5 7.5c0 8.8-7.159 15.959-15.96 15.959-8.8 0-15.959-7.159-15.959-15.959 0-4.142-3.357-7.5-7.5-7.5s-7.5 3.358-7.5 7.5c0 8.8-7.159 15.959-15.96 15.959s-15.96-7.159-15.96-15.959c0-4.142-3.357-7.5-7.5-7.5s-7.5 3.358-7.5 7.5c0 8.8-7.159 15.959-15.959 15.959-8.801 0-15.96-7.159-15.96-15.959 0-4.142-3.357-7.5-7.5-7.5s-7.5 3.358-7.5 7.5c0 8.8-7.159 15.959-15.96 15.959-8.8 0-15.959-7.159-15.959-15.959 0-4.142-3.357-7.5-7.5-7.5s-7.5 3.358-7.5 7.5c0 17.071 13.888 30.959 30.959 30.959z"/><path d="m106.619 275.23c9.368 0 17.778-4.183 23.46-10.778 5.682 6.596 14.092 10.778 23.46 10.778s17.777-4.182 23.459-10.778c5.683 6.596 14.092 10.778 23.46 10.778s17.777-4.182 23.46-10.778c5.682 6.596 14.091 10.778 23.459 10.778s17.778-4.183 23.46-10.778c5.682 6.596 14.092 10.778 23.46 10.778 17.071 0 30.959-13.889 30.959-30.96 0-4.142-3.357-7.5-7.5-7.5s-7.5 3.358-7.5 7.5c0 8.8-7.159 15.96-15.959 15.96-8.801 0-15.96-7.16-15.96-15.96 0-4.142-3.357-7.5-7.5-7.5s-7.5 3.358-7.5 7.5c0 8.8-7.159 15.96-15.96 15.96-8.8 0-15.959-7.16-15.959-15.96 0-4.142-3.357-7.5-7.5-7.5s-7.5 3.358-7.5 7.5c0 8.8-7.159 15.96-15.96 15.96s-15.96-7.16-15.96-15.96c0-4.142-3.357-7.5-7.5-7.5s-7.5 3.358-7.5 7.5c0 8.8-7.159 15.96-15.959 15.96-8.801 0-15.96-7.16-15.96-15.96 0-4.142-3.357-7.5-7.5-7.5s-7.5 3.358-7.5 7.5c0 8.8-7.159 15.96-15.96 15.96-8.8 0-15.959-7.16-15.959-15.96 0-4.142-3.357-7.5-7.5-7.5s-7.5 3.358-7.5 7.5c0 17.071 13.888 30.96 30.959 30.96z"/><path d="m106.619 334.591c9.368 0 17.778-4.183 23.46-10.778 5.682 6.595 14.092 10.778 23.46 10.778s17.777-4.182 23.459-10.778c5.683 6.596 14.092 10.778 23.46 10.778s17.777-4.182 23.46-10.778c5.682 6.596 14.091 10.778 23.459 10.778s17.778-4.183 23.46-10.778c5.682 6.595 14.092 10.778 23.46 10.778 17.071 0 30.959-13.888 30.959-30.959 0-4.142-3.357-7.5-7.5-7.5s-7.5 3.358-7.5 7.5c0 8.8-7.159 15.959-15.959 15.959-8.801 0-15.96-7.159-15.96-15.959 0-4.142-3.357-7.5-7.5-7.5s-7.5 3.358-7.5 7.5c0 8.8-7.159 15.959-15.96 15.959-8.8 0-15.959-7.159-15.959-15.959 0-4.142-3.357-7.5-7.5-7.5s-7.5 3.358-7.5 7.5c0 8.8-7.159 15.959-15.96 15.959s-15.96-7.159-15.96-15.959c0-4.142-3.357-7.5-7.5-7.5s-7.5 3.358-7.5 7.5c0 8.8-7.159 15.959-15.959 15.959-8.801 0-15.96-7.159-15.96-15.959 0-4.142-3.357-7.5-7.5-7.5s-7.5 3.358-7.5 7.5c0 8.8-7.159 15.959-15.96 15.959-8.8 0-15.959-7.159-15.959-15.959 0-4.142-3.357-7.5-7.5-7.5s-7.5 3.358-7.5 7.5c0 17.071 13.888 30.959 30.959 30.959z"/></g></svg>