<svg id="Capa_1" enable-background="new 0 0 511.988 511.988" height="512" viewBox="0 0 511.988 511.988" width="512" xmlns="http://www.w3.org/2000/svg"><g><path d="m395.469 278.284h-8.181v-48.5c0-4.142-3.357-7.5-7.5-7.5s-7.5 3.358-7.5 7.5v56c0 4.142 3.357 7.5 7.5 7.5h15.681c55.979 0 101.52 45.542 101.52 101.52 0 27.118-10.56 52.613-29.732 71.786-19.175 19.174-44.669 29.734-71.787 29.734h-131.12c-55.984 0-101.53-45.542-101.53-101.52 0-27.112 10.563-52.607 29.743-71.787 19.174-19.174 44.668-29.733 71.787-29.733h15.68c4.143 0 7.5-3.358 7.5-7.5v-122.19h84.76v31.19c0 4.142 3.357 7.5 7.5 7.5s7.5-3.358 7.5-7.5v-31.224c11.802-.595 21.221-10.385 21.221-22.332v-18.682c0-12.33-10.031-22.361-22.36-22.361h-112.488c-12.33 0-22.361 10.031-22.361 22.361v18.682c0 11.949 9.422 21.739 21.227 22.332v114.724h-8.18c-22.48 0-43.985 6.325-62.49 18.128l-11.918-23.349v-44.628h4.849c12.33 0 22.361-10.031 22.361-22.361v-18.682c0-12.33-10.031-22.361-22.361-22.361h-49.148v-64.438c3.182.417 6.374.623 9.555.623 19.331 0 38.251-7.595 52.212-21.565 18.535-18.535 25.844-45.813 19.075-71.19-.692-2.595-2.719-4.622-5.313-5.314-25.379-6.769-52.657.54-71.19 19.075-5.709 5.709-10.396 12.247-13.927 19.366-1.981-2.794-4.205-5.441-6.667-7.903-15.553-15.554-38.44-21.688-59.733-16.006-2.594.692-4.621 2.719-5.313 5.313-5.681 21.291.452 44.179 16.006 59.733 11.719 11.719 27.6 18.089 43.825 18.089 2.154 0 4.314-.118 6.471-.345v64.563h-48.338c-12.33 0-22.361 10.031-22.361 22.361v18.682c0 12.33 10.031 22.361 22.361 22.361h4.847v44.628l-81.14 158.982c-8.692 17.03-7.92 36.932 2.065 53.238 9.984 16.306 27.362 26.041 46.485 26.041h167.979c5.856 0 11.561-.898 16.994-2.668 8 1.742 16.3 2.668 24.814 2.668h131.12c31.124 0 60.386-12.12 82.394-34.127 22.006-22.007 34.126-51.268 34.126-82.393-.001-64.25-52.271-116.521-116.52-116.521zm-129.167-137.055v-18.682c0-4.059 3.303-7.361 7.361-7.361h112.485c4.059 0 7.36 3.302 7.36 7.361v18.682c0 4.059-3.302 7.361-7.36 7.361h-112.485c-4.059 0-7.361-3.303-7.361-7.361zm-84.347 171.182c-3.419 3.419-6.599 7.014-9.533 10.763h-26.781v-94.738h29.3v46.429c0 1.185.281 2.354.82 3.41l13.849 27.132c-2.636 2.212-5.193 4.543-7.655 7.004zm-21.369-279.583c13.713-13.713 33.443-19.71 52.385-16.17 3.54 18.944-2.457 38.673-16.171 52.387-13.108 13.116-31.707 19.168-49.863 16.579 1.127-8.51.453-17.097-1.868-25.217 2.535-10.429 7.872-19.934 15.517-27.579zm-69.634 39.289c-10.724-10.724-15.535-26.055-13.064-40.891 14.833-2.471 30.167 2.34 40.891 13.064 10.724 10.724 15.535 26.055 13.063 40.891-14.835 2.469-30.167-2.34-40.89-13.064zm-8.647 141.318c-4.059 0-7.361-3.302-7.361-7.361v-18.682c0-4.059 3.302-7.361 7.361-7.361h112.485c4.059 0 7.361 3.302 7.361 7.361v18.682c0 4.059-3.302 7.361-7.361 7.361zm-27.743 282.89c-13.86 0-26.456-7.056-33.693-18.874s-7.796-26.243-1.497-38.586l81.959-160.589c.539-1.056.82-2.224.82-3.409v-46.429h28.49v94.738h-30.793c-2.818 0-5.399 1.58-6.68 4.09l-28.43 55.7c-1.883 3.689-.419 8.207 3.271 10.09 1.092.557 2.256.822 3.404.822 2.729 0 5.36-1.495 6.686-4.092l26.342-51.61h58.018c-9.554 17.125-14.64 36.487-14.64 56.63 0 26.936 9.192 51.764 24.599 71.52h-117.86c-4.64 0-7.066-2.838-8.104-4.536-1.04-1.698-2.47-5.163-.366-9.284l16.14-31.62c1.883-3.689.419-8.207-3.271-10.09-3.689-1.883-8.207-.419-10.09 3.271l-16.14 31.62c-5.631 11.031-1.223 20.414.93 23.929 4.479 7.333 12.292 11.711 20.9 11.711h131.824c6.351 5.728 13.335 10.765 20.831 15h-152.65z"/><path d="m343.103 406.012c17.23 0 34.096-6.77 46.539-19.223 16.522-16.521 23.038-40.836 17.005-63.456-.692-2.595-2.72-4.622-5.314-5.314-22.617-6.034-46.935.482-63.455 17.003-4.736 4.735-8.673 10.114-11.734 15.95-1.545-2.06-3.239-4.026-5.086-5.874-13.901-13.901-34.359-19.382-53.385-14.305-2.595.692-4.62 2.719-5.312 5.313-5.078 19.028.403 39.483 14.305 53.384 10.474 10.473 24.666 16.167 39.166 16.167 1.593 0 3.189-.075 4.784-.214v20.481h-125.19c-2.665 0-5.129 1.414-6.474 3.714s-1.369 5.141-.063 7.463c15.343 27.278 44.256 44.223 75.457 44.223h131.119c31.207 0 60.124-16.945 75.467-44.223 1.306-2.322 1.282-5.163-.063-7.463s-3.81-3.714-6.474-3.714h-128.781v-20.351c2.496.288 4.996.439 7.489.439zm-55.833-27.128c-9.064-9.064-13.214-21.958-11.332-34.511 12.55-1.882 25.446 2.268 34.511 11.332 9.065 9.065 13.215 21.959 11.332 34.511-12.551 1.882-25.445-2.267-34.511-11.332zm162.819 62.041c-13.471 15.918-33.411 25.4-54.626 25.4h-131.119c-21.21 0-41.146-9.482-54.616-25.4zm-114.952-71.718c2.212-8.913 6.802-17.034 13.346-23.578 11.695-11.695 28.459-16.89 44.628-14.074 2.815 16.173-2.381 32.933-14.077 44.629-11.109 11.117-26.788 16.36-42.185 14.438.838-7.232.23-14.51-1.712-21.415z"/></g></svg>