<svg id="Capa_1" enable-background="new 0 0 512 512" height="512" viewBox="0 0 512 512" width="512" xmlns="http://www.w3.org/2000/svg"><g><path d="m358.529 71.644v-10.753h5.967c16.788 0 30.445-13.658 30.445-30.445s-13.657-30.446-30.445-30.446h-72.827c-16.788 0-30.445 13.658-30.445 30.445s13.658 30.445 30.445 30.445h5.969v10.751c-34.908 6.484-66.021 23.903-89.635 48.564-8.79-7.601-20.025-11.846-31.873-11.846h-21.12c-7.96 0-15.445-3.102-21.081-8.737-5.629-5.62-8.729-13.104-8.729-21.072 0-11.966-4.662-23.218-13.131-31.687-8.475-8.463-19.729-13.123-31.689-13.123-24.708 0-44.81 20.102-44.81 44.81v236.628c-10.388 3.208-17.958 12.9-17.958 24.329 0 14.037 11.42 25.458 25.457 25.458 3.728 0 7.268-.812 10.461-2.258v7.354c0 4.142 3.358 7.5 7.5 7.5 14.176 0 26.118 9.757 29.465 22.91h-29.465c-4.142 0-7.5 3.358-7.5 7.5v31.83c0 4.142 3.358 7.5 7.5 7.5s7.5-3.358 7.5-7.5v-24.33h30.4c4.142 0 7.5-3.358 7.5-7.5 0-22.484-16.423-41.204-37.9-44.791v-23.67c0-22.708 8.905-43.992 25.076-59.934 16.169-15.94 37.589-24.552 60.316-24.217 21.91.315 42.583 9.103 58.211 24.744 15.629 15.641 24.4 36.32 24.697 58.23.311 22.714-8.295 44.121-24.232 60.278-15.941 16.16-37.22 25.06-59.918 25.06h-.12c-10.175 0-18.987 6.9-21.431 16.781l-12.689 51.369c-.754 3.05-3.472 5.18-6.609 5.18h-36.5c-3.75 0-6.8-3.055-6.8-6.81v-15.51c0-4.142-3.358-7.5-7.5-7.5s-7.5 3.358-7.5 7.5v15.51c0 12.026 9.78 21.81 21.8 21.81h36.5c10.051 0 18.757-6.818 21.171-16.581l12.689-51.369c.783-3.168 3.608-5.38 6.869-5.38h.12c26.743 0 51.815-10.486 70.597-29.526 8.858-8.98 15.792-19.338 20.61-30.583 25.466 14.986 54.37 22.889 84.192 22.889 91.704 0 166.31-74.602 166.31-166.3 0-81.306-58.649-149.161-135.86-163.507zm-82.305-41.199c0-8.517 6.929-15.445 15.445-15.445h72.827c8.517 0 15.445 6.929 15.445 15.445s-6.929 15.445-15.445 15.445h-72.827c-8.516.001-15.445-6.928-15.445-15.445zm36.415 30.446h30.89v8.673c-5.089-.471-10.24-.724-15.45-.724-5.206 0-10.354.253-15.44.723zm-269.571 289.073c-5.766 0-10.457-4.691-10.457-10.458 0-2.843 1.144-5.421 2.991-7.308.33 3.838 3.544 6.851 7.467 6.851 3.922 0 7.136-3.012 7.467-6.849 1.846 1.887 2.989 4.464 2.989 7.306.001 5.767-4.691 10.458-10.457 10.458zm12.882-32.401c-1.681-.99-3.482-1.797-5.38-2.384v-236.629c0-16.437 13.373-29.81 29.81-29.81 7.958 0 15.448 3.103 21.087 8.733 5.632 5.632 8.733 13.117 8.733 21.077 0 11.979 4.663 23.232 13.126 31.684 8.464 8.465 19.717 13.126 31.683 13.126h21.12c8.172 0 15.921 2.917 21.998 8.139-13.87 17.355-24.339 37.536-30.397 59.531h-35.64c-26.925 0-48.83 21.905-48.83 48.83v28.856c-.061.06-.124.118-.185.178-13.726 13.531-23.007 30.33-27.125 48.669zm42.31-60.977v-16.726c0-18.654 15.176-33.83 33.83-33.83h32.244c-1.677 9.458-2.555 19.188-2.555 29.12 0 1.867.042 3.746.106 5.629-2.565-.237-5.148-.381-7.748-.418-20.154-.299-39.443 5.383-55.877 16.225zm229.819 129.864c-28.186 0-55.479-7.734-79.282-22.413 1.672-6.604 2.669-13.418 2.953-20.36 22.235 15.666 48.785 24.153 76.331 24.153 73.166 0 132.69-59.52 132.69-132.68 0-23.08-6.02-45.809-17.409-65.732-2.056-3.596-6.639-4.844-10.233-2.789-3.596 2.056-4.845 6.637-2.789 10.233 10.095 17.66 15.431 37.815 15.431 58.288 0 64.889-52.795 117.68-117.69 117.68-28.623 0-56.039-10.323-77.5-29.123-3.282-20.39-12.899-39.259-27.836-54.207-2.998-3-6.156-5.782-9.451-8.346-1.914-8.498-2.894-17.231-2.894-26.005 0-64.895 52.791-117.69 117.68-117.69 30.869 0 60.034 11.858 82.125 33.391 2.965 2.891 7.714 2.83 10.605-.136s2.831-7.714-.136-10.605c-24.908-24.279-57.792-37.649-92.595-37.649-73.16 0-132.68 59.524-132.68 132.69 0 5.136.306 10.259.892 15.343-6.159-3.04-12.616-5.423-19.282-7.113-.148-2.753-.231-5.505-.231-8.229 0-83.433 67.873-151.31 151.3-151.31 83.433 0 151.31 67.877 151.31 151.31.001 83.426-67.877 151.299-151.309 151.299z"/><path d="m350.579 157.153c0-12.407-10.093-22.5-22.5-22.5s-22.5 10.093-22.5 22.5v57.46c-4.951 5.421-7.976 12.631-7.976 20.534 0 16.807 13.673 30.479 30.479 30.479s30.48-13.673 30.48-30.479c0-7.907-3.028-15.12-7.984-20.542v-57.452zm-22.5-7.5c4.136 0 7.5 3.364 7.5 7.5v48.449c-2.399-.609-4.91-.935-7.496-.935-2.589 0-5.102.327-7.504.937v-48.451c0-4.136 3.364-7.5 7.5-7.5zm.004 100.973c-8.536 0-15.479-6.944-15.479-15.479s6.944-15.48 15.479-15.48 15.48 6.944 15.48 15.48-6.945 15.479-15.48 15.479z"/><path d="m152.68 384.222c24.73 0 44.85-20.12 44.85-44.851s-20.12-44.85-44.85-44.85-44.851 20.12-44.851 44.85 20.12 44.851 44.851 44.851zm0-74.701c16.459 0 29.85 13.391 29.85 29.85s-13.391 29.851-29.85 29.851-29.851-13.391-29.851-29.851 13.391-29.85 29.851-29.85z"/></g></svg>