<svg id="Capa_1" enable-background="new 0 0 512 512" height="512" viewBox="0 0 512 512" width="512" xmlns="http://www.w3.org/2000/svg"><g><path d="m495.568 457.106-3.688-.663 19.551-47.274c.803-1.941.755-4.13-.133-6.034-.887-1.904-2.533-3.349-4.535-3.982l-142.793-45.18v-143.583c6.055 4.832 13.998 8.117 24 8.793 1.759.119 3.548.179 5.316.179 20.963 0 40.618-8.217 55.346-23.137 14.725-14.917 22.684-34.684 22.412-55.658-.412-31.728-20.394-59.02-48.455-70.688 5.975-5.782 9.701-13.874 9.701-22.826 0-8.484-3.305-16.461-9.307-22.464-6.002-6.001-13.983-9.306-22.474-9.306h-23.24c-4.142 0-7.5 3.358-7.5 7.5s3.358 7.5 7.5 7.5h23.24c4.484 0 8.699 1.745 11.867 4.913 3.168 3.169 4.914 7.38 4.914 11.857 0 9.252-7.528 16.78-16.78 16.78h-289.02c-4.477 0-8.693-1.747-11.867-4.913-3.168-3.168-4.914-7.383-4.914-11.867 0-9.247 7.528-16.77 16.78-16.77h230.78c4.142 0 7.5-3.358 7.5-7.5s-3.358-7.5-7.5-7.5h-230.779c-17.524 0-31.78 14.252-31.78 31.77 0 8.49 3.305 16.471 9.313 22.479.122.121.249.234.372.353-28.053 11.672-48.027 38.959-48.439 70.681-.272 20.975 7.688 40.741 22.412 55.658 14.728 14.92 34.383 23.137 55.346 23.137 1.769 0 3.557-.06 5.317-.179 10.002-.676 17.944-3.961 24-8.793v143.582l-36.952 11.69c-3.949 1.249-6.138 5.464-4.889 9.413 1.25 3.949 5.464 6.138 9.413 4.888l85.089-26.919c18.855-5.962 39.123 2.775 47.809 20.368v42.001l-213.272 38.317-1.576-3.811 151.594-31.788c4.054-.85 6.651-4.826 5.801-8.88s-4.832-6.65-8.879-5.801l-154.348 32.366-1.129-2.729 165.731-47.454c3.982-1.14 6.286-5.293 5.146-9.275-1.141-3.982-5.29-6.287-9.275-5.146l-167.371 47.924-3.369-8.147 64.718-20.475c3.949-1.249 6.138-5.464 4.889-9.413-1.25-3.949-5.465-6.137-9.413-4.888l-72.51 22.94c-2.003.634-3.648 2.078-4.536 3.982-.888 1.904-.936 4.093-.133 6.034l19.551 47.274-3.689.663c-9.521 1.712-16.431 9.974-16.431 19.648 0 5.928 2.608 11.509 7.155 15.312 3.626 3.033 8.146 4.652 12.788 4.652 1.179 0 2.366-.104 3.548-.317l178.904-32.141c3.857 14.183 16.848 24.642 32.235 24.642h42.74c15.387 0 28.378-10.459 32.235-24.642l178.904 32.141c5.833 1.048 11.789-.531 16.336-4.335 4.547-3.803 7.155-9.384 7.155-15.312 0-9.674-6.91-17.936-16.432-19.647zm-4.491-37.971-167.372-47.923c-3.983-1.141-8.134 1.164-9.275 5.146-1.14 3.982 1.164 8.135 5.146 9.275l165.731 47.454-1.129 2.729-154.349-32.366c-4.051-.849-8.029 1.747-8.879 5.801s1.747 8.03 5.801 8.88l151.594 31.788-1.576 3.811-213.269-38.317v-41.955c6.691-13.571 20.561-22.275 35.78-22.275 4.08 0 8.126.626 12.028 1.861l183.139 57.945zm-181.387-81.953c-3.426-.663-6.909-.998-10.41-.998-5.448 0-10.771.817-15.83 2.344v-131.625c0-7.234 5.885-13.12 13.12-13.12s13.12 5.885 13.12 13.12zm-186.671-132.965c-1.424.096-2.873.145-4.305.145-16.919 0-32.783-6.632-44.67-18.674-11.884-12.04-18.308-27.995-18.088-44.926.443-34.148 29.066-61.929 63.807-61.929h272.478c34.74 0 63.363 27.781 63.806 61.929.22 16.931-6.204 32.886-18.088 44.926-11.887 12.042-27.751 18.674-44.67 18.674-1.433 0-2.881-.049-4.305-.145-18.001-1.217-25.612-14.996-25.169-28.112.454-13.443 9.171-27.007 27.621-27.007h.805c4.142 0 7.5-3.358 7.5-7.5s-3.358-7.5-7.5-7.5h-.805-270.87-.805c-4.142 0-7.5 3.358-7.5 7.5s3.358 7.5 7.5 7.5h.805c18.45 0 27.167 13.564 27.621 27.007.443 13.116-7.167 26.895-25.168 28.112zm40.011-23.043c.162-1.867.211-3.731.149-5.575-.32-9.463-3.63-18.973-9.723-26.501h205.088c-6.093 7.528-9.403 17.039-9.723 26.501-.062 1.844-.013 3.709.149 5.575v168.053l-24.28-7.682v-134.642c0-15.505-12.615-28.12-28.12-28.12s-28.12 12.615-28.12 28.12v138.79c-4.691 3.184-8.907 7.075-12.442 11.593-3.559-4.562-7.779-8.465-12.458-11.635v-138.748c0-15.505-12.614-28.12-28.12-28.12s-28.12 12.615-28.12 28.12v134.642l-24.28 7.682zm39.28 156.008v-130.28c0-7.234 5.886-13.12 13.12-13.12s13.12 5.885 13.12 13.12v131.614c-8.337-2.511-17.319-3.066-26.24-1.334zm292.912 143.377c-.664.555-2.076 1.434-4.061 1.077l-186.565-33.518c-.441-.079-.885-.118-1.326-.118-1.745 0-3.452.61-4.812 1.747-1.704 1.425-2.688 3.532-2.688 5.753 0 10.146-8.254 18.4-18.4 18.4h-42.74c-10.146 0-18.4-8.254-18.4-18.4 0-2.221-.984-4.328-2.688-5.753s-3.955-2.022-6.138-1.629l-186.565 33.518c-1.988.356-3.396-.522-4.061-1.077-.664-.556-1.778-1.789-1.778-3.806 0-2.404 1.718-4.458 4.084-4.883l236.916-42.564 236.916 42.564c2.367.425 4.084 2.479 4.084 4.883 0 2.017-1.114 3.25-1.778 3.806z"/></g></svg>