<svg id="Capa_1" enable-background="new 0 0 512 512" height="512" viewBox="0 0 512 512" width="512" xmlns="http://www.w3.org/2000/svg"><g><path d="m419.536 268.556-150.98 150.98c-2.145 2.145-2.786 5.371-1.625 8.173 1.16 2.802 3.896 4.63 6.929 4.63h150.98c4.143 0 7.5-3.358 7.5-7.5v-150.979c0-3.033-1.827-5.768-4.63-6.929-2.803-1.162-6.028-.519-8.174 1.625zm-2.196 148.783h-125.374l125.374-125.373z"/><path d="m504.5 407.14c4.143 0 7.5-3.358 7.5-7.5v-277.55c0-10.011-5.746-18.612-14.995-22.446-9.25-3.833-19.398-1.82-26.488 5.262l-158.852 158.852v-217.087c0-25.734-20.936-46.671-46.671-46.671h-218.323c-25.734 0-46.671 20.937-46.671 46.671v295.396c0 25.734 20.937 46.671 46.671 46.671h140.015l-81.781 81.782c-7.079 7.085-9.095 17.234-5.26 26.485 3.834 9.25 12.435 14.995 22.445 14.995h365.61c13.399 0 24.3-10.901 24.3-24.3v-53.06c0-4.142-3.357-7.5-7.5-7.5s-7.5 3.358-7.5 7.5v53.06c0 5.128-4.172 9.3-9.3 9.3h-17.605v-22.093c0-11.961-9.73-21.691-21.691-21.691s-21.691 9.731-21.691 21.691v22.093h-21.613v-22.093c0-11.961-9.73-21.691-21.691-21.691s-21.691 9.731-21.691 21.691v22.093h-21.613v-22.093c0-11.961-9.73-21.691-21.691-21.691s-21.691 9.731-21.691 21.691v22.093h-21.613v-22.093c0-11.961-9.73-21.691-21.691-21.691s-21.691 9.731-21.691 21.691v22.093h-21.618v-22.093c0-11.961-9.73-21.691-21.691-21.691s-21.691 9.731-21.691 21.691v22.093h-44.638c-5.762 0-8.03-4.393-8.588-5.739-.559-1.347-2.063-6.059 2.012-10.138l92.386-92.386h57.095c25.734 0 46.671-20.937 46.671-46.671v-57.095l169.456-169.456c4.079-4.076 8.792-2.573 10.14-2.014 1.347.558 5.739 2.826 5.739 8.589v277.55c-.001 4.142 3.356 7.5 7.499 7.5zm-62.788 67.767c0-3.69 3.002-6.691 6.691-6.691s6.691 3.002 6.691 6.691v22.093h-13.383v-22.093zm-64.996 0c0-3.69 3.002-6.691 6.691-6.691s6.691 3.002 6.691 6.691v22.093h-13.383v-22.093zm-64.996 0c0-3.69 3.002-6.691 6.691-6.691s6.691 3.002 6.691 6.691v22.093h-13.382zm-64.996 0c0-3.69 3.002-6.691 6.691-6.691s6.691 3.002 6.691 6.691v22.093h-13.383v-22.093zm-64.996 0c0-3.69 3.002-6.691 6.691-6.691s6.691 3.002 6.691 6.691v22.093h-13.383v-22.093zm114.937-132.84c0 17.463-14.207 31.671-31.671 31.671h-218.323c-17.464 0-31.671-14.208-31.671-31.671v-295.396c0-17.463 14.207-31.671 31.671-31.671h218.323c17.464 0 31.671 14.208 31.671 31.671z"/><path d="m247.258 166.723h-182.85c-16.689 0-30.268 13.578-30.268 30.267v127.34c0 16.69 13.578 30.268 30.268 30.268h182.849c16.689 0 30.268-13.578 30.268-30.267v-127.341c-.001-16.689-13.578-30.267-30.267-30.267zm15.266 30.267v56.17h-99.192v-71.437h83.926c8.418 0 15.266 6.849 15.266 15.267zm-198.116-15.267h83.924v71.437h-99.191v-56.17c0-8.418 6.848-15.267 15.267-15.267zm-15.267 142.607v-56.17h99.191v71.437h-83.924c-8.419 0-15.267-6.849-15.267-15.267zm198.116 15.267h-83.925v-71.437h99.192v56.17c0 8.418-6.848 15.267-15.267 15.267z"/><path d="m64.41 147.89h7.47c4.143 0 7.5-3.358 7.5-7.5s-3.357-7.5-7.5-7.5h-7.47c-8.42 0-15.271-6.85-15.271-15.27v-53.21c0-8.42 6.851-15.27 15.271-15.27h182.85c8.414 0 15.26 6.85 15.26 15.27v53.21c0 8.42-6.846 15.27-15.26 15.27h-140.38c-4.143 0-7.5 3.358-7.5 7.5s3.357 7.5 7.5 7.5h140.38c16.686 0 30.26-13.579 30.26-30.27v-53.21c0-16.691-13.574-30.27-30.26-30.27h-182.85c-16.691 0-30.271 13.579-30.271 30.27v53.21c.001 16.691 13.58 30.27 30.271 30.27z"/><path d="m114.196 297.475h-8.904v-8.904c0-4.142-3.357-7.5-7.5-7.5s-7.5 3.358-7.5 7.5v8.904h-8.904c-4.143 0-7.5 3.358-7.5 7.5s3.357 7.5 7.5 7.5h8.904v8.904c0 4.142 3.357 7.5 7.5 7.5s7.5-3.358 7.5-7.5v-8.904h8.904c4.143 0 7.5-3.358 7.5-7.5s-3.357-7.5-7.5-7.5z"/><path d="m204.752 216.346-6.296 6.296c-2.929 2.929-2.929 7.677 0 10.606 1.465 1.465 3.384 2.197 5.304 2.197 1.919 0 3.839-.732 5.304-2.197l6.296-6.296 6.296 6.296c1.465 1.465 3.385 2.197 5.304 2.197s3.839-.732 5.304-2.197c2.929-2.929 2.929-7.678 0-10.606l-6.296-6.296 6.296-6.296c2.929-2.929 2.929-7.677 0-10.606-2.929-2.928-7.677-2.929-10.607 0l-6.296 6.296-6.296-6.296c-2.93-2.929-7.678-2.929-10.607 0s-2.929 7.678 0 10.606z"/><path d="m86.192 235.446c1.919 0 3.839-.732 5.304-2.197l23.199-23.199c2.929-2.929 2.929-7.677 0-10.606-2.929-2.928-7.677-2.929-10.607 0l-23.199 23.199c-2.929 2.929-2.929 7.677 0 10.606 1.465 1.464 3.383 2.197 5.303 2.197z"/><path d="m231.764 297.475h-32.809c-4.143 0-7.5 3.358-7.5 7.5s3.357 7.5 7.5 7.5h32.809c4.143 0 7.5-3.358 7.5-7.5s-3.358-7.5-7.5-7.5z"/><path d="m185.92 120.896c4.143 0 7.5-3.358 7.5-7.5v-46.645c0-4.142-3.357-7.5-7.5-7.5h-9.97c-4.143 0-7.5 3.358-7.5 7.5s3.357 7.5 7.5 7.5h2.47v39.145c0 4.142 3.357 7.5 7.5 7.5z"/><path d="m243.621 81.502c.185-.99.396-2.492.424-3.498 0-10.717-8.719-19.436-19.436-19.436-9.265 0-17.285 6.593-19.071 15.676-.799 4.064 1.849 8.007 5.913 8.806 4.065.798 8.007-1.848 8.806-5.913.406-2.068 2.237-3.569 4.353-3.569 2.324 0 4.236 1.796 4.421 4.073l-.101.788c-.39 1.463-1.357 3.83-3.719 7.205-7.36 10.516-11.751 16.265-14.109 19.354-2.98 3.902-4.949 6.48-3.713 10.5.731 2.378 2.598 4.274 4.992 5.072.988.33 1.733.578 11.072.578 3.604 0 8.49-.037 15.163-.121 4.143-.052 7.458-3.452 7.405-7.594-.051-4.11-3.398-7.406-7.497-7.406-.032 0-.064 0-.096 0-3.117.039-6.373.07-9.42.088 2.265-3.087 5.065-6.978 8.491-11.872 3.146-4.492 5.205-8.776 6.122-12.731z"/></g></svg>