<svg id="Capa_1" enable-background="new 0 0 511.99 511.99" height="512" viewBox="0 0 511.99 511.99" width="512" xmlns="http://www.w3.org/2000/svg"><g><path d="m511.99 176.859c0-39.708-16.889-77.779-46.335-104.449-3.07-2.781-7.813-2.545-10.594.524s-2.546 7.813.524 10.594c26.313 23.832 41.405 57.85 41.405 93.331 0 69.421-56.479 125.9-125.9 125.9-69.416 0-125.89-56.479-125.89-125.9 0-69.416 56.474-125.89 125.89-125.89 20.581 0 40.19 4.803 58.281 14.274 3.667 1.921 8.201.503 10.123-3.166 1.921-3.669.504-8.202-3.166-10.123-19.974-10.458-42.534-15.985-65.238-15.985-40.37 0-76.823 17.072-102.534 44.369l-52.945-52.954c-15.63-15.619-41.062-15.618-56.694.002l-116.78 116.78c-2.929 2.929-2.929 7.678 0 10.606 1.464 1.464 3.384 2.197 5.303 2.197s3.839-.732 5.303-2.197l116.778-116.778c9.783-9.776 25.703-9.776 35.485-.002l53.826 53.835c-6.615 8.712-12.239 18.214-16.707 28.338-2.199 1.091-4.211 2.532-6.002 4.322l-25.843 25.851v-52.56c0-12.689-10.324-23.013-23.013-23.013s-23.013 10.324-23.013 23.013v52.559l-25.845-25.851c-8.973-8.974-23.573-8.974-32.546 0-8.97 8.97-8.97 23.565 0 32.535l58.391 58.401v20.387l-41.117-41.117c-8.971-8.97-23.566-8.971-32.532-.004-4.353 4.345-6.75 10.125-6.75 16.272s2.397 11.927 6.745 16.268l73.653 73.663v20.354c-14.932 8.43-31.831 12.875-49.144 12.875-26.745 0-51.887-10.414-70.797-29.323-16.261-16.262-26.491-37.795-28.805-60.633-2.283-22.529 3.168-45.352 15.348-64.263 2.243-3.482 1.238-8.124-2.245-10.367-3.484-2.242-8.124-1.237-10.367 2.245-14.012 21.757-20.284 48-17.66 73.897 2.661 26.266 14.424 51.029 33.122 69.727 21.743 21.743 50.652 33.717 81.403 33.717 17.105 0 33.863-3.784 49.144-11.001v67.154c0 12.684 10.324 23.003 23.013 23.003s23.013-10.319 23.013-23.003v-67.167c15.348 7.224 32.24 11.008 49.268 11.008 4.157 0 8.324-.225 12.477-.679 23.855-2.611 46.45-12.781 64.276-28.773l-10.247 107.89c-.392 4.124 2.634 7.784 6.757 8.175.241.023.48.034.718.034 3.822 0 7.089-2.909 7.458-6.792l10.69-112.553c6.349.879 12.828 1.344 19.414 1.344 6.59 0 13.072-.465 19.424-1.345l12.35 129.985c.861 9.053-2.035 17.745-8.155 24.475-6.125 6.735-14.513 10.445-23.618 10.445-13.318 0-25.359-8.393-29.963-20.884-1.432-3.886-5.74-5.877-9.631-4.443-3.886 1.432-5.876 5.744-4.443 9.631 6.767 18.36 24.464 30.696 44.037 30.696 13.189 0 25.843-5.596 34.716-15.353 8.868-9.751 13.238-22.868 11.99-35.986l-12.487-131.431c61.21-15.331 106.681-70.797 106.681-136.691zm-280.7 17.545c.728 5.836 1.815 11.562 3.237 17.156l-24.248 24.248v-20.387zm-36.01 103.379v107.488c0 4.413-3.595 8.003-8.013 8.003s-8.013-3.59-8.013-8.003v-107.488c0-1.989-.79-3.896-2.196-5.303l-75.854-75.863c-1.514-1.511-2.347-3.521-2.347-5.657s.833-4.146 2.352-5.662c1.512-1.512 3.522-2.344 5.662-2.344s4.15.833 5.662 2.344l53.92 53.92c2.145 2.146 5.373 2.787 8.173 1.626 2.803-1.161 4.63-3.896 4.63-6.929v-41.6c0-1.989-.79-3.896-2.196-5.303l-60.588-60.598c-3.122-3.122-3.122-8.201 0-11.323 3.125-3.125 8.208-3.125 11.332 0l38.648 38.658c2.145 2.145 5.372 2.787 8.174 1.626 2.803-1.161 4.63-3.896 4.63-6.929v-70.668c0-4.418 3.595-8.013 8.013-8.013s8.013 3.595 8.013 8.013v70.668c0 3.034 1.828 5.769 4.63 6.929 2.802 1.161 6.028.52 8.174-1.626l24.922-24.929c-1.67 8.239-2.614 16.738-2.773 25.425l-32.757 32.767c-1.406 1.407-2.196 3.314-2.196 5.303v41.6c0 3.034 1.827 5.768 4.63 6.929.928.384 1.902.571 2.869.571 1.952 0 3.87-.762 5.305-2.197l31.585-31.585c2.068 5.336 4.453 10.516 7.13 15.517l-49.322 49.331c-1.409 1.406-2.199 3.314-2.199 5.302zm75.112 35.739c-20.823 2.278-42.003-2.071-60.113-12.271v-20.362l44.54-44.549c16.849 24.573 41.274 43.557 69.881 53.562-15.337 13.258-33.96 21.393-54.308 23.62z"/><path d="m264.374 176.863c0 58.845 47.874 106.718 106.718 106.718s106.718-47.873 106.718-106.718-47.873-106.718-106.718-106.718-106.718 47.873-106.718 106.718zm198.436 0c0 50.574-41.145 91.718-91.718 91.718s-91.718-41.145-91.718-91.718 41.145-91.718 91.718-91.718 91.718 41.144 91.718 91.718z"/><path d="m351.521 140.419c-2.68 0-5.155 1.43-6.495 3.75l-17.406 30.147h-34.812c-4.142 0-7.5 3.358-7.5 7.5s3.358 7.5 7.5 7.5h34.812l17.406 30.148c1.34 2.32 3.815 3.75 6.495 3.75h39.142c2.68 0 5.155-1.43 6.495-3.75l17.406-30.148h34.812c4.142 0 7.5-3.358 7.5-7.5s-3.358-7.5-7.5-7.5h-34.812l-15.241-26.397 17.406-30.148c2.071-3.587.842-8.174-2.745-10.245-3.588-2.072-8.174-.842-10.245 2.745l-17.406 30.148zm34.812 67.795h-30.481l-15.241-26.398 15.241-26.397h30.481l15.241 26.397z"/></g></svg>