<svg id="Capa_1" enable-background="new 0 0 512 512" height="512" viewBox="0 0 512 512" width="512" xmlns="http://www.w3.org/2000/svg"><g><path d="m458.091 196.234c-2.914-2.944-7.663-2.967-10.606-.055-2.944 2.914-2.968 7.663-.055 10.606 31.786 32.116 49.291 74.681 49.291 119.854 0 93.937-76.423 170.36-170.36 170.36-93.937.001-170.361-76.422-170.361-170.359 0-6.397.359-12.819 1.07-19.166 11.117-.216 21.948-1.617 32.373-4.083-1.291 7.658-1.952 15.436-1.952 23.249 0 1.206.011 2.412.042 3.601 1.611 63.048 45.578 117.164 106.927 131.601 10.417 2.44 21.149 3.678 31.9 3.678 10.765 0 21.503-1.241 31.917-3.689 61.342-14.425 105.31-68.536 106.92-131.58.032-1.196.043-2.404.043-3.61 0-22.193-5.08-43.405-15.1-63.051-23.878-46.767-71.308-75.819-123.78-75.819-7.661 0-15.292.635-22.808 1.877 2.501-10.417 3.943-21.242 4.195-32.356 6.156-.67 12.392-1.011 18.612-1.011 34.297 0 67.367 10.15 95.636 29.354 1.291.876 2.756 1.297 4.208 1.297 2.401 0 4.76-1.151 6.211-3.287 2.327-3.426 1.437-8.091-1.99-10.418-30.765-20.899-66.75-31.946-104.064-31.946-6.345 0-12.704.332-18.997.974-5.903-79.431-72.415-142.255-153.327-142.255-84.782 0-153.756 68.975-153.756 153.757 0 80.744 62.561 147.147 141.756 153.291-.683 6.496-1.035 13.055-1.035 19.593-.001 102.207 83.152 185.359 185.359 185.359 102.208 0 185.36-83.152 185.36-185.36 0-49.151-19.045-95.464-53.629-130.406zm-222.128 87.576 48.958 16.328c-4.914 7.657-7.778 16.749-7.778 26.503 0 1.752.096 3.482.275 5.188l-74.875-8.476c.219-8.367 1.266-16.671 3.141-24.774 10.686-3.823 20.829-8.794 30.279-14.769zm124.616 42.831c0 18.868-15.35 34.218-34.218 34.218s-34.218-15.35-34.218-34.218 15.35-34.218 34.218-34.218 34.218 15.349 34.218 34.218zm-157.503 11.868 78.682 8.906c3.655 7.817 9.305 14.515 16.291 19.448l-8.394 78.111c-47.619-14.726-81.835-56.806-86.579-106.465zm159.999 106.458-1.997-18.559c-.443-4.119-4.144-7.098-8.259-6.655-4.119.443-7.098 4.141-6.655 8.259l2.211 20.546c-14.483 2.585-29.524 2.585-44.018.005l8.031-74.738c4.433 1.315 9.12 2.033 13.974 2.033 4.857 0 9.548-.718 13.983-2.035l2.088 19.429c.414 3.846 3.665 6.699 7.448 6.699.268 0 .539-.014.811-.043 4.118-.443 7.098-4.14 6.655-8.259l-2.665-24.792c6.982-4.932 12.628-11.628 16.282-19.441l78.691-8.907c-4.74 49.66-38.958 91.74-86.58 106.458zm87.119-121.615-74.89 8.477c.18-1.705.275-3.436.275-5.188 0-9.754-2.864-18.847-7.778-26.503l71.744-23.926c6.653 14.874 10.229 30.688 10.649 47.14zm-123.833-120.582c43.87 0 83.788 22.767 106.163 59.971l-75.735 25.257c-8.381-6.614-18.947-10.576-30.427-10.576s-22.047 3.962-30.428 10.576l-44.954-14.992c21.462-17.48 38.133-40.624 47.714-67.133 9.039-2.06 18.327-3.103 27.667-3.103zm-311.081-49.013c0-76.511 62.245-138.757 138.756-138.757s138.757 62.246 138.757 138.757-62.246 138.756-138.757 138.756-138.756-62.245-138.756-138.756z"/><path d="m269.583 153.757c0-63.713-51.834-115.547-115.547-115.547s-115.547 51.834-115.547 115.547 51.834 115.547 115.547 115.547 115.547-51.834 115.547-115.547zm-216.094 0c0-55.442 45.105-100.547 100.547-100.547s100.547 45.105 100.547 100.547-45.105 100.547-100.547 100.547-100.547-45.105-100.547-100.547z"/><path d="m232.53 169.14v-30.77c0-9.401-7.648-17.05-17.05-17.05h-78.07c-4.142 0-7.5 3.358-7.5 7.5s3.358 7.5 7.5 7.5h78.07c1.13 0 2.05.92 2.05 2.05v30.77c0 1.136-.919 2.06-2.05 2.06h-122.89c-1.13 0-2.05-.924-2.05-2.06v-30.77c0-1.13.919-2.05 2.05-2.05h10.16c4.142 0 7.5-3.358 7.5-7.5s-3.358-7.5-7.5-7.5h-10.16c-9.401 0-17.05 7.649-17.05 17.05v30.77c0 9.407 7.648 17.06 17.05 17.06h122.89c9.402 0 17.05-7.653 17.05-17.06z"/></g></svg>