<svg id="Capa_1" enable-background="new 0 0 512 512" height="512" viewBox="0 0 512 512" width="512" xmlns="http://www.w3.org/2000/svg"><g><path d="m495.566 471.167-3.686-.662 19.55-47.268c.803-1.941.755-4.13-.133-6.035-.887-1.904-2.533-3.349-4.536-3.982l-190.931-60.41c-4.912-1.554-9.893-2.381-14.824-2.54l-5.938-73.592h81.861c24.719 0 44.83-20.115 44.83-44.84 0-5.59-1.023-11.053-3.038-16.233-.523-1.348-1.108-2.665-1.754-3.947 16.811-6.569 28.453-22.9 28.453-41.749 0-11.103-4.088-21.75-11.505-29.978-4.713-5.236-10.527-9.24-16.956-11.763 3.135-6.209 4.801-13.112 4.801-20.19 0-11.967-4.66-23.225-13.13-31.707-7.71-7.699-17.723-12.25-28.478-13.01 2.252-5.412 3.438-11.255 3.438-17.213 0-11.967-4.66-23.224-13.13-31.707-8.475-8.462-19.733-13.123-31.7-13.123h-148.02c-4.142 0-7.5 3.358-7.5 7.5s3.358 7.5 7.5 7.5h148.02c7.964 0 15.458 3.103 21.093 8.729 5.634 5.643 8.737 13.136 8.737 21.101 0 7.233-2.628 14.213-7.399 19.656-1.941 2.214-2.407 5.358-1.191 8.04s3.887 4.404 6.831 4.404h10.1c7.964 0 15.458 3.103 21.093 8.729 5.634 5.642 8.737 13.136 8.737 21.101 0 7.332-2.687 14.38-7.565 19.846-1.868 2.093-2.412 5.054-1.409 7.675 1.002 2.621 3.384 4.462 6.172 4.773 7.228.807 13.907 4.25 18.812 9.699 4.933 5.471 7.65 12.552 7.65 19.938 0 15.204-11.377 27.945-26.465 29.637-2.789.312-5.17 2.156-6.171 4.777-1.001 2.622-.455 5.583 1.415 7.675 2.384 2.666 4.248 5.706 5.542 9.04 1.34 3.445 2.02 7.079 2.02 10.801 0 16.454-13.381 29.84-29.83 29.84h-241.862c-7.966 0-15.458-3.105-21.093-8.739-5.634-5.643-8.737-13.137-8.737-21.101 0-7.331 2.687-14.379 7.565-19.846 1.868-2.093 2.412-5.054 1.409-7.674-1.003-2.621-3.384-4.462-6.172-4.773-7.228-.807-13.907-4.249-18.812-9.698-4.934-5.472-7.65-12.553-7.65-19.938 0-15.204 11.378-27.945 26.466-29.637 2.789-.312 5.169-2.156 6.17-4.777 1.001-2.622.455-5.583-1.415-7.675-2.384-2.667-4.248-5.706-5.542-9.04-1.34-3.445-2.02-7.079-2.02-10.801 0-16.448 13.381-29.83 29.83-29.83h10.1c2.943 0 5.614-1.721 6.83-4.401s.752-5.824-1.187-8.039c-2.336-2.669-4.165-5.693-5.436-8.988-1.306-3.386-1.968-6.977-1.968-10.672 0-11.252 6.223-21.432 16.24-26.565 3.687-1.889 5.143-6.409 3.254-10.095-1.889-3.687-6.411-5.143-10.095-3.254-15.05 7.712-24.399 23.007-24.399 39.915 0 5.548 1 10.954 2.972 16.068.148.385.302.767.46 1.146-23.219 1.659-41.602 21.081-41.602 44.715 0 5.59 1.023 11.053 3.038 16.233.523 1.348 1.109 2.665 1.755 3.947-16.811 6.569-28.453 22.901-28.453 41.75 0 11.102 4.087 21.75 11.506 29.978 4.713 5.236 10.527 9.24 16.956 11.762-3.135 6.21-4.801 13.112-4.801 20.19 0 11.967 4.66 23.225 13.126 31.704 8.472 8.471 19.731 13.136 31.703 13.136h81.861l-5.938 73.592c-4.93.158-9.912.985-14.824 2.54l-190.929 60.408c-2.003.633-3.648 2.078-4.536 3.982-.888 1.904-.936 4.093-.133 6.035l19.55 47.268-3.678.661c-4.609.823-8.798 3.254-11.799 6.847-2.994 3.586-4.642 8.134-4.642 12.806 0 5.932 2.611 11.515 7.163 15.318 3.623 3.027 8.137 4.643 12.768 4.643 1.182 0 2.372-.105 3.556-.319l178.909-32.144c3.857 14.183 16.848 24.642 32.235 24.642h42.74c8.923 0 17.309-3.472 23.613-9.777 4.189-4.189 7.129-9.294 8.632-14.862l68.667 12.341c4.078.733 7.976-1.979 8.708-6.055.732-4.077-1.979-7.976-6.055-8.708l-76.34-13.72c-2.187-.39-4.434.204-6.138 1.628-1.704 1.425-2.688 3.532-2.688 5.753 0 4.916-1.916 9.539-5.393 13.017-3.472 3.472-8.091 5.383-13.007 5.383h-42.74c-10.146 0-18.4-8.254-18.4-18.4 0-2.221-.984-4.328-2.688-5.753-1.703-1.425-3.952-2.021-6.138-1.629l-186.577 33.522c-1.976.358-3.384-.519-4.047-1.072-.665-.556-1.78-1.789-1.78-3.808 0-1.494.629-2.561 1.157-3.192.742-.889 1.779-1.491 2.929-1.696l236.914-42.562 236.91 42.561c2.37.427 4.09 2.483 4.09 4.889 0 2.735-2.207 4.96-4.92 4.96-.316 0-.606-.024-.914-.082l-75.82-13.62c-4.074-.731-7.975 1.979-8.708 6.056-.732 4.077 1.979 7.976 6.056 8.708l75.769 13.611c1.162.217 2.379.327 3.618.327 10.984 0 19.92-8.954 19.92-19.96-.001-9.671-6.911-17.935-16.435-19.652zm-1.12-46.111-3.368 8.143-167.372-47.924c-3.977-1.136-8.134 1.164-9.275 5.146-1.14 3.982 1.164 8.134 5.146 9.275l165.731 47.454-1.128 2.729-154.348-32.366c-4.051-.85-8.029 1.747-8.879 5.801s1.747 8.029 5.801 8.879l151.593 31.788-1.575 3.809-213.272-38.313v-42c8.687-17.593 28.951-26.331 47.807-20.364zm-214.425-148.377 6.066 75.179c-11.777 2.919-22.446 9.694-30.087 19.482-7.641-9.787-18.31-16.563-30.087-19.481l6.066-75.179h48.042zm-246.367 187.303 151.593-31.788c4.054-.85 6.651-4.826 5.801-8.879-.85-4.055-4.832-6.651-8.879-5.801l-154.348 32.365-1.13-2.731 54.063-15.478c3.982-1.14 6.286-5.292 5.146-9.275-1.14-3.982-5.293-6.283-9.275-5.146l-55.704 15.948-3.367-8.14 183.139-57.944c18.852-5.965 39.119 2.771 47.807 20.364v42.001l-213.27 38.312z"/><path d="m188.295 385.279-78.03 22.34c-3.982 1.14-6.286 5.292-5.146 9.275.943 3.292 3.944 5.438 7.207 5.438.684 0 1.379-.094 2.068-.292l78.03-22.34c3.982-1.14 6.286-5.292 5.146-9.275s-5.294-6.283-9.275-5.146z"/></g></svg>