<svg id="Capa_1" enable-background="new 0 0 511.999 511.999" height="512" viewBox="0 0 511.999 511.999" width="512" xmlns="http://www.w3.org/2000/svg"><g><path d="m510.595 259.604-9.3-25.53c-1.418-3.892-5.718-5.9-9.614-4.48-3.892 1.417-5.897 5.722-4.479 9.614l9.298 25.525c1.385 3.808-.434 6.66-1.28 7.71-.845 1.049-3.247 3.425-7.255 2.885l-186.876-25.301c-3.318-.446-5.82-3.308-5.82-6.657v-43c0-3.507 2.738-6.45 6.242-6.7l153.414-11.109c6.667-.481 12.946 3.578 15.237 9.867l5.07 13.91c1.419 3.892 5.723 5.897 9.615 4.478 3.892-1.418 5.896-5.723 4.479-9.615l-5.07-13.909c-4.572-12.55-17.083-20.655-30.409-19.693l-76.647 5.551c.232-3.538.359-7.083.359-10.61 0-43.429-16.906-84.254-47.605-114.953-44.785-44.784-112.079-59.5-171.441-37.489-3.884 1.44-5.865 5.756-4.425 9.64 1.439 3.884 5.756 5.864 9.64 4.425 53.882-19.98 114.967-6.621 155.619 34.031 15.224 15.224 26.701 33.196 33.991 52.794l-23.083 23.084h-28.146c-4.143 0-7.5 3.358-7.5 7.5s3.357 7.5 7.5 7.5h20.456l-3.542 9.508c-1.446 3.882.528 8.201 4.41 9.646.863.321 1.747.474 2.617.474 3.042 0 5.905-1.865 7.029-4.884l6.74-18.095 18.505-18.505c2.793 11.424 4.236 23.263 4.236 35.325 0 3.892-.173 7.808-.484 11.705l-61.639 4.464c-4.539.323-8.668 2.067-12.004 4.751-9.24-6.377-22.09-10.05-35.973-10.05-24.166 0-43.802 10.951-48.758 26.016l-14.991.002 37.943-37.943c3.826 1.949 8.241 2.943 13.075 2.943 3.061 0 6.289-.398 9.641-1.204 10.474-2.517 21.19-8.852 30.178-17.839 8.986-8.987 15.321-19.704 17.839-30.177 2.831-11.782.629-22.031-6.2-28.861-6.83-6.83-17.08-9.031-28.861-6.2-10.474 2.517-21.19 8.852-30.178 17.839-8.986 8.987-15.321 19.704-17.839 30.177-2.077 8.645-1.434 16.458 1.748 22.707l-37.948 37.948.002-14.985c15.064-4.954 26.015-24.59 26.015-48.754 0-28.024-14.723-49.976-33.517-49.976s-33.519 21.952-33.519 49.976c0 24.166 10.952 43.803 26.019 48.756l-.004 29.986-36.478 36.478-2.742-18.037c6.266-3.148 11.414-9.059 14.864-17.252 4.181-9.927 5.43-22.314 3.518-34.879s-6.79-24.019-13.733-32.253c-7.813-9.263-17.375-13.567-26.921-12.111-9.549 1.453-17.397 8.403-22.1 19.571-4.181 9.927-5.43 22.314-3.518 34.879 3.637 23.893 17.418 41.659 33.058 44.287l4.404 28.966-19.848 19.848c-2.929 2.929-2.929 7.678 0 10.606 1.465 1.464 3.385 2.197 5.304 2.197s3.839-.732 5.304-2.197l19.845-19.845 28.955 4.402c1.141 6.92 5.254 13.595 12.051 19.327 8.234 6.944 19.689 11.821 32.254 13.733 3.923.597 7.766.884 11.488.884 22.562 0 40.534-10.551 42.962-26.5 1.453-9.548-2.849-19.109-12.111-26.921-8.234-6.944-19.689-11.821-32.254-13.733-23.885-3.636-44.948 4.235-52.114 18.384l-18.061-2.746 36.477-36.477 29.991-.004c4.951 15.069 24.59 26.024 48.76 26.024 10.035 0 19.706-1.985 27.81-5.548v8.468c0 10.826 8.091 20.079 18.814 21.522l21.211 2.872-25.421 33.361c-27.268 35.785-68.648 58.04-113.533 61.058-44.885 3.013-88.867-13.496-120.678-45.306-13.891-13.89-24.863-30.099-32.567-47.689l27.382-19.267 25.875 4.461c.432.074.86.11 1.283.11 3.583 0 6.753-2.576 7.382-6.227.704-4.082-2.034-7.961-6.116-8.666l-23.509-4.053-3.754-27.779 10.503-10.503c2.93-2.929 2.93-7.677.001-10.606s-7.678-2.93-10.606 0l-13.13 13.129c-1.655 1.655-2.443 3.988-2.13 6.308l4.378 32.396-23.05 16.219c-6.049-18.66-8.598-38.496-7.252-58.515 3.019-44.887 25.274-86.268 61.062-113.532l49.216-37.507c2.743-2.087 5.565-4.084 8.39-5.936 3.465-2.271 4.432-6.92 2.161-10.384-2.27-3.464-6.919-4.431-10.384-2.161-3.117 2.043-6.229 4.245-9.255 6.547l-49.219 37.51c-39.23 29.887-63.628 75.25-66.938 124.457-3.309 49.205 14.795 97.423 49.669 132.292 32.155 32.155 75.654 50.052 120.813 50.05 3.814 0 7.646-.128 11.478-.386 49.203-3.308 94.566-27.704 124.458-66.932l30.585-40.137 26.05 3.527v67.196c-11.113 3.84-19.12 14.403-19.12 26.808v70.39c0 4.142 3.357 7.5 7.5 7.5s7.5-3.358 7.5-7.5v-70.39c0-7.367 5.988-13.36 13.35-13.36h34.45c7.367 0 13.36 5.993 13.36 13.36v116.02c0 7.361-5.993 13.35-13.36 13.35h-34.45c-7.361 0-13.35-5.989-13.35-13.35v-10.63c0-4.142-3.357-7.5-7.5-7.5s-7.5 3.358-7.5 7.5v10.63c0 15.632 12.718 28.35 28.35 28.35h34.45c15.638 0 28.36-12.718 28.36-28.35v-116.02c0-12.407-8.012-22.971-19.131-26.81v-60.03l69.604 9.423c1.057.143 2.108.213 3.151.213 6.892 0 13.38-3.072 17.796-8.55 5.085-6.31 6.468-14.627 3.696-22.252zm-358.505-134.524c0-20.612 9.759-34.976 18.517-34.976s18.517 14.364 18.517 34.976-9.759 34.976-18.517 34.976-18.517-14.364-18.517-34.976zm-61.266 52.879c-1.48-9.726-.564-19.494 2.512-26.801 2.562-6.084 6.4-9.934 10.532-10.563.414-.063.836-.094 1.264-.094 3.827 0 8.104 2.507 11.933 7.046 5.111 6.061 8.892 15.115 10.371 24.84 1.48 9.726.564 19.494-2.512 26.801-2.562 6.084-6.4 9.934-10.532 10.563-8.648 1.316-20.466-11.414-23.568-31.792zm76.961 85.185c1.11-7.294 12.407-13.757 28.125-13.757 2.938 0 6.03.226 9.239.714 9.726 1.48 18.779 5.26 24.84 10.371 5.047 4.256 7.58 9.066 6.951 13.197-1.317 8.659-16.984 16.144-37.364 13.044-9.725-1.48-18.779-5.26-24.84-10.371-5.047-4.257-7.58-9.067-6.951-13.198zm61.106-131.475c1.853-7.708 6.904-16.119 13.861-23.075 6.956-6.956 15.366-12.008 23.075-13.861 2.136-.513 4.156-.766 6.01-.766 3.719 0 6.769 1.017 8.739 2.988 2.955 2.955 3.765 8.331 2.223 14.75-1.853 7.708-6.904 16.119-13.861 23.075-6.956 6.956-15.366 12.008-23.075 13.861-6.421 1.543-11.796.732-14.749-2.222-2.955-2.955-3.765-8.331-2.223-14.75zm23.567 93.782c-20.614 0-34.979-9.76-34.979-18.52s14.365-18.52 34.979-18.52c11.188 0 21.539 2.971 28.196 7.916-.251 1.313-.387 2.665-.387 4.044v17.442c-6.719 4.759-17.028 7.638-27.809 7.638zm148.89 113.8h-22.909v-63.614l22.909 3.102z"/></g></svg>