<svg id="Capa_1" enable-background="new 0 0 512 512" height="512" viewBox="0 0 512 512" width="512" xmlns="http://www.w3.org/2000/svg"><g><path d="m293.188 249.487c-1.506 6.835 1.001 13.733 6.542 18.003 3.216 2.479 7.028 3.744 10.879 3.744 2.784 0 5.588-.661 8.201-2.003l33.639-17.285c12.517 4.278 25.611 6.444 38.972 6.444 66.488 0 120.579-54.091 120.579-120.579 0-53.797-36.129-101.531-87.858-116.078-3.987-1.119-8.128 1.203-9.25 5.189-1.122 3.987 1.202 8.129 5.189 9.25 45.289 12.737 76.919 54.532 76.919 101.639 0 58.216-47.363 105.579-105.579 105.579-12.693 0-25.104-2.229-36.887-6.627-1.976-.737-4.171-.608-6.05.356l-36.528 18.769c-1.415.726-2.53.136-3.07-.279-.539-.416-1.392-1.344-1.049-2.897l8.01-36.4c.528-2.403-.155-4.912-1.829-6.715-18.17-19.567-28.175-45.061-28.175-71.786 0-27.559 10.555-53.637 29.72-73.429 19.121-19.747 44.75-31.138 72.164-32.074 4.14-.141 7.381-3.612 7.24-7.751-.142-4.14-3.66-7.372-7.752-7.24-31.318 1.069-60.591 14.078-82.429 36.63-21.889 22.606-33.944 52.389-33.944 83.864 0 29.195 10.457 57.105 29.527 79.037z"/><path d="m227.985 162.462c-2.033 1.399-3.248 3.71-3.248 6.178v23.956c-2.092-.675-4.319-1.044-6.633-1.044-11.929 0-21.634 9.704-21.634 21.633v14.84c0 11.929 9.705 21.633 21.634 21.633s21.633-9.704 21.633-21.633v-14.84-33.648l13.848 5.295c3.875 1.48 8.205-.459 9.684-4.327 1.478-3.869-.458-8.204-4.327-9.684l-24.026-9.186c-2.305-.881-4.896-.572-6.931.827zm-3.248 65.563c0 3.658-2.976 6.633-6.633 6.633-3.658 0-6.634-2.976-6.634-6.633v-14.84c0-3.657 2.976-6.633 6.634-6.633 3.657 0 6.633 2.976 6.633 6.633z"/><path d="m481.208 265.521-24.026-9.186c-2.304-.881-4.896-.572-6.931.827-2.033 1.399-3.248 3.71-3.248 6.178v23.956c-2.092-.675-4.319-1.044-6.633-1.044-11.929 0-21.634 9.704-21.634 21.633v14.84c0 11.929 9.705 21.633 21.634 21.633s21.633-9.704 21.633-21.633v-14.84-33.648l13.848 5.295c3.874 1.48 8.205-.459 9.684-4.327 1.479-3.869-.458-8.205-4.327-9.684zm-34.204 57.203c0 3.658-2.976 6.633-6.633 6.633-3.658 0-6.634-2.976-6.634-6.633v-14.84c0-3.658 2.976-6.633 6.634-6.633 3.657 0 6.633 2.976 6.633 6.633z"/><path d="m421.809 114.473c-13.084 0-23.728 10.644-23.728 23.728v17.04c0 13.083 10.644 23.728 23.728 23.728s23.728-10.644 23.728-23.728v-69.84c0-2.351-1.103-4.566-2.978-5.984-1.878-1.418-4.31-1.873-6.569-1.231l-59.818 16.981c-3.227.916-5.452 3.861-5.452 7.215v30.742c-2.704-1.074-5.647-1.67-8.728-1.67-13.084 0-23.728 10.644-23.728 23.728v17.04c0 13.083 10.644 23.728 23.728 23.728s23.728-10.644 23.728-23.728v-64.172l44.818-12.723v20.817c-2.705-1.074-5.648-1.671-8.729-1.671zm-51.09 57.749c0 4.812-3.916 8.728-8.728 8.728s-8.728-3.915-8.728-8.728v-17.04c0-4.812 3.916-8.728 8.728-8.728s8.728 3.915 8.728 8.728zm59.818-16.98c0 4.812-3.916 8.728-8.728 8.728s-8.728-3.915-8.728-8.728v-17.04c0-4.813 3.916-8.728 8.728-8.728s8.728 3.915 8.728 8.728z"/><path d="m170.364 122.032c13.084 0 23.728-10.644 23.728-23.728v-17.04-47.133l44.818-12.723v20.818c-2.704-1.074-5.647-1.67-8.728-1.67-13.084 0-23.728 10.644-23.728 23.728v17.04c0 13.083 10.644 23.728 23.728 23.728s23.728-10.644 23.728-23.728v-17.04-52.8c0-2.351-1.103-4.566-2.978-5.984-1.877-1.418-4.309-1.873-6.569-1.231l-59.818 16.981c-3.227.916-5.452 3.861-5.452 7.215v30.742c-2.704-1.074-5.647-1.67-8.728-1.67-13.084 0-23.728 10.644-23.728 23.728v17.039c-.001 13.084 10.643 23.728 23.727 23.728zm68.546-40.709c0 4.812-3.916 8.728-8.728 8.728s-8.728-3.915-8.728-8.728v-17.04c0-4.812 3.916-8.728 8.728-8.728s8.728 3.915 8.728 8.728zm-77.274-.059c0-4.813 3.916-8.728 8.728-8.728s8.728 3.915 8.728 8.728v17.039c0 4.813-3.916 8.728-8.728 8.728s-8.728-3.915-8.728-8.728z"/><path d="m361.915 311.306c-24.673-18.298-47.63-28.495-68.237-30.308-36.147-3.179-60.801 9.727-75.119 21.116-5.855 4.667-14.355 4.667-20.217-.004-14.312-11.384-38.96-24.286-75.114-21.111-11.718 1.029-24.315 4.81-37.441 11.235-3.72 1.821-5.26 6.313-3.438 10.034 1.82 3.719 6.31 5.258 10.034 3.439 11.464-5.612 22.283-8.897 32.158-9.765 31.233-2.742 52.289 8.225 64.458 17.904 11.271 8.983 27.634 8.984 38.904.004 12.175-9.684 33.255-20.652 64.462-17.908 42.147 3.707 88.34 49.615 106.239 69.177 4.109 4.498 4.411 11.286.716 16.143-76.646 100.867-159.012 111.757-190.866 111.757s-114.22-10.89-190.868-111.76c-3.696-4.859-3.395-11.645.713-16.137 10.27-11.225 26.503-27.57 45.518-41.69 3.325-2.47 4.019-7.167 1.55-10.493s-7.167-4.019-10.493-1.55c-19.969 14.829-36.929 31.899-47.641 43.608-9.008 9.845-9.674 24.709-1.588 35.339 11.884 15.639 37.035 45.686 71.953 71.2 42.211 30.843 86.238 46.481 130.856 46.481s88.645-15.638 130.856-46.481c34.919-25.514 60.07-55.56 71.951-71.197 8.083-10.626 7.417-25.488-1.587-35.343-10.74-11.738-27.745-28.845-47.759-43.69z"/><path d="m42.267 365.915c-.387 2.494.506 5.016 2.377 6.709.807.73 20.093 18.086 49.847 35.643 50.122 29.576 89.637 35.784 113.961 35.784 44.068 0 86.296-19.46 113.962-35.784 29.754-17.557 49.04-34.913 49.847-35.643 1.871-1.694 2.764-4.215 2.377-6.709s-2.002-4.626-4.299-5.674c-52.002-23.719-85.567-13.27-115.18-4.051-15.449 4.81-30.042 9.352-46.707 9.352s-31.257-4.543-46.707-9.352c-29.614-9.22-63.18-19.669-115.179 4.051-2.297 1.047-3.913 3.18-4.299 5.674zm115.02 4.596c15.84 4.932 32.218 10.031 51.164 10.031 18.945 0 35.325-5.099 51.165-10.031 20.309-6.322 39.852-12.399 65.159-8.769l-4.444 7.859c-10.43 4.846-59.593 26.374-109.496 26.374-49.906 0-99.065-21.532-109.487-26.374l-4.752-8.401c23.172-2.355 41.594 3.367 60.691 9.311zm-76.382-6.585 8.554 15.122c.736 1.3 1.844 2.352 3.181 3.019 2.366 1.18 58.635 28.908 118.196 28.908s115.839-27.728 118.206-28.908c1.338-.667 2.445-1.719 3.181-3.02l7.934-14.032c4.09 1.14 8.324 2.515 12.74 4.185-22.472 17.717-82.443 59.852-144.444 59.852-62.005 0-121.976-42.139-144.443-59.852 5.929-2.243 11.539-3.969 16.895-5.274z"/></g></svg>