<svg id="Capa_1" enable-background="new 0 0 512 512" height="512" viewBox="0 0 512 512" width="512" xmlns="http://www.w3.org/2000/svg"><g><path d="m496.695 65.311c-3.334-1.382-6.782-2.004-10.168-1.932-.546-4.912-2.716-9.463-6.264-13.004-4.125-4.125-9.613-6.397-15.454-6.397s-11.328 2.272-15.453 6.397l-36.47 36.47c-2.929 2.929-2.929 7.678 0 10.606 2.93 2.929 7.678 2.929 10.607 0l36.47-36.47c1.291-1.292 3.013-2.003 4.846-2.003 1.834 0 3.556.711 4.852 2.008 1.299 1.296 2.014 3.017 2.014 4.847s-.715 3.551-2.019 4.852l-200.106 200.106-2.429-16.978 131.641-131.632c2.93-2.929 2.93-7.678.001-10.607-2.929-2.928-7.678-2.929-10.606 0l-123.69 123.681-5.962-41.679c-.23-1.606-.975-3.094-2.122-4.241l-164.68-164.68c-1.566-1.566-3.747-2.359-5.951-2.169-22.049 1.913-42.816 11.59-58.475 27.249-15.661 15.66-25.338 36.423-27.249 58.465-.191 2.207.603 4.385 2.169 5.951l19.84 19.84c2.929 2.929 7.678 2.929 10.606 0 2.929-2.929 2.929-7.678 0-10.606l-17.3-17.3c2.257-17.254 10.184-33.386 22.54-45.744 12.356-12.356 28.493-20.282 45.753-22.541l153.512 153.512c-16.206 4.566-30.896 13.153-43.016 25.273-12.119 12.12-20.706 26.81-25.272 43.015l-111.517-111.515c-2.929-2.929-7.678-2.929-10.606 0-2.929 2.929-2.929 7.678 0 10.606l120.14 120.14c1.147 1.147 2.635 1.891 4.24 2.121l77.219 11.054-155.199 155.2c-7.225 7.231-9.282 17.589-5.368 27.031 3.913 9.44 12.691 15.305 22.908 15.305h376.521c13.676 0 24.802-11.126 24.802-24.801v-376.522c0-10.217-5.864-18.995-15.305-22.908zm-241.286 212.555-35.278-5.05c2.208-7.065 6.082-13.472 11.421-18.811s11.746-9.213 18.811-11.421zm-50.67-50.674c11.206-11.205 24.994-18.858 40.216-22.409l3.262 22.803c-10.292 2.768-19.614 8.152-27.272 15.811-7.659 7.658-13.043 16.979-15.811 27.27l-22.803-3.264c3.551-15.219 11.204-29.006 22.408-40.211zm-32.868 247.35v-22.976c0-3.923 3.192-7.115 7.115-7.115s7.115 3.192 7.115 7.115v22.976zm66.936 0v-22.976c0-3.923 3.192-7.115 7.115-7.115s7.115 3.192 7.115 7.115v22.976zm66.936 0v-22.976c0-3.923 3.191-7.115 7.114-7.115 3.924 0 7.115 3.192 7.115 7.115v22.976zm66.936 0v-22.976c0-3.923 3.191-7.115 7.115-7.115 3.923 0 7.114 3.192 7.114 7.115v22.976zm66.935 0v-22.976c0-3.923 3.191-7.115 7.115-7.115s7.115 3.192 7.115 7.115v22.976zm57.386-9.801c0 5.404-4.397 9.801-9.802 9.801h-18.354v-22.976c0-12.194-9.921-22.115-22.115-22.115s-22.115 9.92-22.115 22.115v22.976h-22.706v-22.976c0-12.194-9.921-22.115-22.114-22.115-12.194 0-22.115 9.92-22.115 22.115v22.976h-22.706v-22.976c0-12.194-9.921-22.115-22.115-22.115-12.193 0-22.114 9.92-22.114 22.115v22.976h-22.706v-22.976c0-12.194-9.921-22.115-22.115-22.115s-22.115 9.92-22.115 22.115v22.976h-22.707v-22.976c0-12.194-9.92-22.115-22.115-22.115s-22.115 9.92-22.115 22.115v22.976h-46.194c-6.073 0-8.463-4.629-9.051-6.048s-2.174-6.386 2.12-10.684l376.519-376.519c2.274-2.271 4.733-2.899 6.757-2.899 1.804 0 3.261.499 3.931.776 1.418.588 6.048 2.979 6.048 9.051v376.522z"/><path d="m425.33 237.589c-2.803-1.161-6.029-.518-8.174 1.626l-155.479 155.49c-2.145 2.145-2.786 5.371-1.625 8.173 1.16 2.803 3.896 4.63 6.929 4.63h98.699c4.143 0 7.5-3.358 7.5-7.5s-3.357-7.5-7.5-7.5h-80.594l129.874-129.883v129.882h-14.28c-4.143 0-7.5 3.358-7.5 7.5s3.357 7.5 7.5 7.5h21.78c4.143 0 7.5-3.358 7.5-7.5v-155.49c0-3.033-1.827-5.767-4.63-6.928z"/></g></svg>