<svg id="Capa_1" enable-background="new 0 0 512 512" height="512" viewBox="0 0 512 512" width="512" xmlns="http://www.w3.org/2000/svg"><g><path d="m459.402 22.5c0-12.406-10.094-22.5-22.5-22.5h-326.181c-32.049 0-58.123 26.074-58.123 58.123v395.754c0 .025.003.05.004.075.039 32.014 26.094 58.048 58.118 58.048h326.18c12.38 0 22.456-10.051 22.498-22.422 0-.026.004-.052.004-.078zm-22.502 418.25c2.63 0 5.154-.458 7.502-1.291v28.832c-2.348-.833-4.872-1.291-7.502-1.291h-15.11v-26.25zm-326.179-425.75h326.182c4.136 0 7.5 3.365 7.5 7.5v374.541c-2.348-.833-4.872-1.291-7.502-1.291h-326.181c-17.09 0-32.478 7.418-43.122 19.202v-356.829c0-23.778 19.344-43.123 43.123-43.123zm326.179 482h-326.18c-23.776 0-43.12-19.344-43.12-43.12 0-23.782 19.344-43.13 43.12-43.13h326.18c4.136 0 7.5 3.364 7.5 7.5s-3.364 7.5-7.5 7.5h-326.18c-15.506 0-28.12 12.619-28.12 28.13 0 15.505 12.614 28.12 28.12 28.12h25.971c4.143 0 7.5-3.358 7.5-7.5s-3.357-7.5-7.5-7.5h-25.971c-7.234 0-13.12-5.886-13.12-13.12 0-7.24 5.886-13.13 13.12-13.13h296.07v26.25h-235.1c-4.143 0-7.5 3.358-7.5 7.5s3.357 7.5 7.5 7.5h265.21c4.136 0 7.5 3.364 7.5 7.5s-3.364 7.5-7.5 7.5z"/><path d="m281.571 147.964c-.004 0-.008 0-.012 0-3.111 0-5.901 1.922-7.009 4.831l-26.79 70.342c-.878 2.305-.566 4.895.833 6.926 1.4 2.031 3.709 3.244 6.176 3.244h53.336c2.463 0 4.769-1.209 6.169-3.234 1.4-2.026 1.718-4.61.848-6.914l-26.546-70.342c-1.099-2.917-3.888-4.848-7.005-4.853zm-15.92 70.342 15.876-41.686 15.731 41.686z"/><path d="m183.407 302.345c3.006 6.701 8.44 11.83 15.306 14.444 14.173 5.394 30.091-1.746 35.486-15.91l10.5-27.569h73.315l10.379 27.499c4.017 10.642 14.355 17.792 25.727 17.792 10.612.078 20.788-6.432 25.06-16.177 3.024-6.693 3.261-14.165.667-21.041l-48.5-128.52c-1.462-3.876-5.789-5.83-9.665-4.369-3.875 1.463-5.831 5.79-4.368 9.665l48.499 128.519c1.18 3.128 1.072 6.527-.303 9.57-1.942 4.436-6.576 7.386-11.39 7.353-5.168 0-9.867-3.25-11.693-8.088l-12.21-32.35c-1.102-2.919-3.896-4.852-7.017-4.852h-83.67c-3.112 0-5.901 1.922-7.009 4.831l-12.34 32.4c-2.453 6.438-9.69 9.682-16.133 7.23-3.119-1.188-5.589-3.519-6.954-6.563-1.366-3.044-1.464-6.439-.276-9.558l69.24-181.795.133-.335c2.574-6.292 8.625-10.363 15.438-10.37 6.79 0 12.844 4.058 15.422 10.339.027.066.05.118.079.184l7.833 20.746c1.462 3.875 5.791 5.832 9.665 4.369 3.875-1.462 5.831-5.79 4.368-9.665l-7.771-20.59c-.01-.026-.037-.098-.048-.124-.091-.234-.184-.467-.285-.701-4.919-11.883-16.396-19.557-29.302-19.557-12.901.013-24.396 7.742-29.313 19.764l-.178.446c-.014.033-.026.067-.039.1l-69.261 181.851c-2.611 6.861-2.397 14.332.608 21.032z"/><path d="m170.412 380.754h221.799c20.508 0 37.191-16.684 37.191-37.191v-276.372c0-20.507-16.684-37.191-37.191-37.191h-221.799c-20.508 0-37.191 16.684-37.191 37.191v276.372c0 20.507 16.683 37.191 37.191 37.191zm-22.191-313.563c0-12.236 9.955-22.191 22.191-22.191h221.799c12.236 0 22.191 9.955 22.191 22.191v276.372c0 12.236-9.955 22.191-22.191 22.191h-221.799c-12.236 0-22.191-9.955-22.191-22.191z"/><path d="m388.554 79.431c4.143 0 7.5-3.358 7.5-7.5v-.5c0-4.142-3.357-7.5-7.5-7.5s-7.5 3.358-7.5 7.5v.5c0 4.142 3.357 7.5 7.5 7.5z"/><path d="m174.069 79.431c4.143 0 7.5-3.358 7.5-7.5v-.5c0-4.142-3.357-7.5-7.5-7.5s-7.5 3.358-7.5 7.5v.5c0 4.142 3.358 7.5 7.5 7.5z"/><path d="m388.554 329.904c-4.143 0-7.5 3.358-7.5 7.5v.5c0 4.142 3.357 7.5 7.5 7.5s7.5-3.358 7.5-7.5v-.5c0-4.142-3.358-7.5-7.5-7.5z"/><path d="m174.069 345.404c4.143 0 7.5-3.358 7.5-7.5v-.5c0-4.142-3.357-7.5-7.5-7.5s-7.5 3.358-7.5 7.5v.5c0 4.142 3.358 7.5 7.5 7.5z"/></g></svg>