<svg id="Capa_1" enable-background="new 0 0 512 512" height="512" viewBox="0 0 512 512" width="512" xmlns="http://www.w3.org/2000/svg"><g><path d="m504.5 433.54c4.142 0 7.5-3.358 7.5-7.5v-211.78c0-16.878-13.731-30.61-30.61-30.61h-4.527v-16.447c0-14.587-11.868-26.455-26.455-26.455s-26.455 11.868-26.455 26.455v16.447h-28.843v-16.447c0-14.587-11.868-26.455-26.455-26.455-3.708 0-7.238.77-10.444 2.153-8.16-37.88-28.406-72.362-57.867-98.138-32.991-28.866-75.329-44.763-119.214-44.763-99.876 0-181.13 81.254-181.13 181.13s81.254 181.13 181.13 181.13c14.986 0 29.803-1.826 44.18-5.434v25.355h-97.25c-2.216 0-4.318.979-5.743 2.676-10.625 12.65-16.477 28.708-16.477 45.213s5.852 32.562 16.477 45.214c1.425 1.696 3.527 2.676 5.743 2.676h31.41c4.142 0 7.5-3.358 7.5-7.5s-3.358-7.5-7.5-7.5h-27.777c-7.021-9.493-10.853-21.046-10.853-32.89 0-11.845 3.833-23.397 10.853-32.89h152.695c-5.068 10.143-7.718 21.307-7.718 32.89s2.65 22.747 7.718 32.89h-89.978c-4.142 0-7.5 3.358-7.5 7.5s3.358 7.5 7.5 7.5h30.9v3.43c0 16.878 13.731 30.61 30.61 30.61h225.47c16.878 0 30.61-13.731 30.61-30.61v-20.35c0-4.142-3.358-7.5-7.5-7.5s-7.5 3.358-7.5 7.5v20.35c0 8.607-7.002 15.61-15.61 15.61h-225.47c-8.607 0-15.61-7.002-15.61-15.61v-3.43h56.35c1.623 0 3.201-.526 4.499-1.5l53.87-40.39c1.889-1.416 3.001-3.64 3.001-6 0-2.361-1.112-4.584-3.001-6l-53.87-40.39c-1.298-.974-2.876-1.5-4.499-1.5h-56.35v-167.92c0-8.607 7.002-15.61 15.61-15.61h4.529v4.467c0 14.587 11.868 26.455 26.455 26.455s26.455-11.868 26.455-26.455v-4.467h28.842v4.467c0 14.587 11.868 26.455 26.455 26.455s26.455-11.868 26.455-26.455v-4.467h28.843v4.467c0 14.587 11.868 26.455 26.455 26.455s26.455-11.868 26.455-26.455v-4.467h4.527c8.607 0 15.61 7.002 15.61 15.61v211.78c-.001 4.142 3.357 7.5 7.499 7.5zm-205.184-32.494 10.062 7.544c-3.456 6.589-5.258 13.894-5.258 21.48s1.801 14.892 5.258 21.481l-10.061 7.544c-5.018-8.807-7.647-18.708-7.647-29.024 0-10.317 2.628-20.218 7.646-29.025zm22.302 41.327c-1.645-3.853-2.498-8.011-2.498-12.303s.852-8.45 2.498-12.303l16.409 12.303zm-23.259-239.256c0 6.316-5.139 11.455-11.455 11.455s-11.455-5.139-11.455-11.455v-35.914c0-6.316 5.139-11.455 11.455-11.455s11.455 5.139 11.455 11.455zm35.879-19.467c.013-.836.022-1.675.022-2.52 0-84.436-68.694-153.13-153.13-153.13-27.676 0-54.808 7.492-78.465 21.667-3.553 2.129-4.708 6.735-2.579 10.288s6.735 4.708 10.289 2.579c21.328-12.779 45.794-19.534 70.755-19.534 76.165 0 138.13 61.965 138.13 138.13 0 .846-.008 1.686-.023 2.52h-5.878v-16.447c0-14.587-11.868-26.455-26.455-26.455s-26.455 11.868-26.455 26.455v16.447h-4.529c-16.878 0-30.61 13.731-30.61 30.61v97.75c-14.194 4.808-29.03 7.25-44.18 7.25-76.165 0-138.13-61.965-138.13-138.13 0-37.336 14.718-72.337 41.442-98.556 2.957-2.901 3.002-7.649.101-10.606-2.9-2.956-7.648-3.002-10.606-.101-29.623 29.062-45.937 67.866-45.937 109.263 0 84.436 68.694 153.13 153.13 153.13 15.091 0 29.906-2.184 44.18-6.496v13.547c-14.32 3.945-29.154 5.949-44.18 5.949-91.605 0-166.13-74.526-166.13-166.13s74.525-166.13 166.13-166.13c40.25 0 79.081 14.579 109.339 41.052 29.321 25.654 48.688 60.699 54.741 98.919-1.918 3.661-3.009 7.82-3.009 12.232v16.447zm45.873 19.467c0 6.316-5.139 11.455-11.455 11.455s-11.455-5.139-11.455-11.455v-35.914c0-6.316 5.139-11.455 11.455-11.455s11.455 5.139 11.455 11.455zm70.298 11.455c-6.316 0-11.455-5.139-11.455-11.455v-35.914c0-6.316 5.139-11.455 11.455-11.455s11.455 5.139 11.455 11.455v35.914c-.001 6.316-5.139 11.455-11.455 11.455z"/><path d="m475.067 263.234c-4.142 0-7.5 3.358-7.5 7.5 0 7.6-6.183 13.782-13.783 13.782s-13.783-6.183-13.783-13.782c0-4.142-3.358-7.5-7.5-7.5s-7.5 3.358-7.5 7.5c0 7.6-6.183 13.782-13.783 13.782s-13.783-6.183-13.783-13.782c0-4.142-3.358-7.5-7.5-7.5s-7.5 3.358-7.5 7.5c0 7.6-6.183 13.782-13.782 13.782s-13.783-6.183-13.783-13.782c0-4.142-3.358-7.5-7.5-7.5s-7.5 3.358-7.5 7.5c0 7.6-6.183 13.782-13.783 13.782s-13.783-6.183-13.783-13.782c0-4.142-3.358-7.5-7.5-7.5s-7.5 3.358-7.5 7.5c0 7.6-6.183 13.782-13.783 13.782s-13.782-6.183-13.782-13.782c0-4.142-3.358-7.5-7.5-7.5s-7.5 3.358-7.5 7.5c0 15.871 12.912 28.782 28.782 28.782 8.424 0 16.014-3.638 21.283-9.424 5.269 5.786 12.859 9.424 21.283 9.424s16.014-3.638 21.283-9.424c5.269 5.786 12.859 9.424 21.283 9.424 8.423 0 16.014-3.638 21.282-9.424 5.269 5.786 12.859 9.424 21.283 9.424s16.014-3.638 21.283-9.424c5.269 5.786 12.859 9.424 21.283 9.424 15.871 0 28.783-12.912 28.783-28.782 0-4.142-3.358-7.5-7.5-7.5z"/><path d="m482.567 324.827c0-4.142-3.358-7.5-7.5-7.5s-7.5 3.358-7.5 7.5c0 7.6-6.183 13.783-13.783 13.783s-13.783-6.183-13.783-13.783c0-4.142-3.358-7.5-7.5-7.5s-7.5 3.358-7.5 7.5c0 7.6-6.183 13.783-13.783 13.783s-13.783-6.183-13.783-13.783c0-4.142-3.358-7.5-7.5-7.5s-7.5 3.358-7.5 7.5c0 7.6-6.183 13.783-13.782 13.783s-13.783-6.183-13.783-13.783c0-4.142-3.358-7.5-7.5-7.5s-7.5 3.358-7.5 7.5c0 7.6-6.183 13.783-13.783 13.783s-13.783-6.183-13.783-13.783c0-4.142-3.358-7.5-7.5-7.5s-7.5 3.358-7.5 7.5c0 7.6-6.183 13.783-13.783 13.783s-13.782-6.183-13.782-13.783c0-4.142-3.358-7.5-7.5-7.5s-7.5 3.358-7.5 7.5c0 15.871 12.912 28.783 28.782 28.783 8.424 0 16.014-3.638 21.283-9.425 5.269 5.787 12.859 9.425 21.283 9.425s16.014-3.638 21.283-9.425c5.269 5.787 12.859 9.425 21.283 9.425 8.423 0 16.014-3.638 21.282-9.425 5.269 5.787 12.859 9.425 21.283 9.425s16.014-3.638 21.283-9.425c5.269 5.787 12.859 9.425 21.283 9.425 15.871-.001 28.783-12.913 28.783-28.783z"/><path d="m78.242 124.719c-1.289 3.937.857 8.173 4.793 9.462l15.855 5.192c-1.543 8.672-2.557 17.374-3.036 26.086h-12.48c-4.142 0-7.5 3.358-7.5 7.5s3.358 7.5 7.5 7.5h12.192c.124 8.2.701 16.398 1.766 24.576l-13.824 3.541c-4.012 1.028-6.432 5.114-5.404 9.127.868 3.388 3.917 5.641 7.26 5.641.616 0 1.242-.077 1.867-.236l12.575-3.221c.12.6.228 1.201.353 1.8 1.628 7.773 4.961 14.874 9.673 20.898l-9.834 9.834c-2.929 2.929-2.929 7.678 0 10.606 1.464 1.465 3.384 2.197 5.303 2.197s3.839-.732 5.303-2.197l10.139-10.14c2.269 1.58 4.68 3 7.231 4.221 7.034 3.368 14.546 5.048 22.051 5.048 7.915 0 15.822-1.87 23.147-5.603l.783-.399c4.151-2.115 7.906-4.749 11.228-7.778l12.736 9.559c1.35 1.013 2.929 1.502 4.496 1.502 2.279 0 4.531-1.035 6.004-2.999 2.486-3.312 1.816-8.014-1.497-10.5l-12.251-9.195c4.445-7.471 6.953-16.025 7.136-24.841l10.494 2.542c.593.144 1.187.213 1.771.213 3.382 0 6.452-2.304 7.283-5.736.975-4.026-1.498-8.08-5.523-9.055l-15.928-3.858c-1.142-6.806-1.661-13.646-1.558-20.482h14.715c4.142 0 7.5-3.358 7.5-7.5s-3.358-7.5-7.5-7.5h-13.488c.333-2.234.724-4.465 1.191-6.692.922-4.397 1.223-8.816.97-13.157l14.094-3.42c4.025-.977 6.497-5.032 5.52-9.057s-5.029-6.496-9.057-5.52l-13.654 3.313c-4.351-11.678-12.964-21.724-24.679-27.694l-.787-.401c-14.272-7.272-30.747-7.474-45.198-.554-.31.148-.606.315-.911.469l-5.071-10.051c-1.866-3.698-6.377-5.184-10.074-3.318-3.698 1.866-5.184 6.376-3.318 10.074l6.068 12.029c-5.319 5.092-9.464 11.284-12.144 18.235l-14.823-4.854c-3.929-1.288-8.169.856-9.458 4.793zm36.598 11.119c2.305-11.002 9.454-20.103 19.613-24.967 4.967-2.378 10.271-3.565 15.57-3.565 5.588 0 11.171 1.32 16.342 3.955l.777.396c.001.001.003.001.004.002 14.435 7.354 22.223 23.431 18.94 39.095-3.681 17.563-3.681 35.374 0 52.937 3.283 15.664-4.505 31.741-18.939 39.095l-.783.399c-10.075 5.134-21.707 5.277-31.912.391-10.159-4.864-17.308-13.964-19.613-24.966-5.752-27.461-5.752-55.31.001-82.772z"/><path d="m153.707 169.47c14.312 0 25.956-11.644 25.956-25.956s-11.644-25.956-25.956-25.956-25.956 11.644-25.956 25.956c-.001 14.312 11.644 25.956 25.956 25.956zm0-36.912c6.041 0 10.956 4.915 10.956 10.956s-4.915 10.956-10.956 10.956-10.956-4.915-10.956-10.956 4.915-10.956 10.956-10.956z"/><path d="m158.14 189.276c-11.287 0-20.469 9.182-20.469 20.469s9.183 20.469 20.469 20.469 20.469-9.183 20.469-20.469-9.182-20.469-20.469-20.469zm0 25.938c-3.016 0-5.469-2.454-5.469-5.469s2.454-5.469 5.469-5.469 5.469 2.453 5.469 5.469-2.453 5.469-5.469 5.469z"/><path d="m129.375 189.201c4.142 0 7.5-3.358 7.5-7.5v-.5c0-4.142-3.358-7.5-7.5-7.5s-7.5 3.358-7.5 7.5v.5c0 4.142 3.358 7.5 7.5 7.5z"/><path d="m252.273 136.793c13.762 0 24.958-11.196 24.958-24.958s-11.196-24.958-24.958-24.958-24.958 11.196-24.958 24.958c-.001 13.761 11.196 24.958 24.958 24.958zm0-34.917c5.491 0 9.958 4.467 9.958 9.958s-4.467 9.958-9.958 9.958-9.958-4.467-9.958-9.958c-.001-5.491 4.467-9.958 9.958-9.958z"/><path d="m442.56 395.344-23.088 47.008-17.1-22.324c-2.52-3.289-7.227-3.912-10.515-1.393s-3.912 7.227-1.393 10.515l24.455 31.924c1.427 1.863 3.634 2.939 5.953 2.939.245 0 .492-.012.739-.037 2.583-.255 4.85-1.828 5.994-4.157l28.419-57.863c1.826-3.718.292-8.212-3.426-10.038-3.716-1.825-8.212-.292-10.038 3.426z"/></g></svg>