<svg id="Capa_1" enable-background="new 0 0 512 512" height="512" viewBox="0 0 512 512" width="512" xmlns="http://www.w3.org/2000/svg"><g><path d="m508.435 387.392c-4.406-7.197-12.073-11.493-20.508-11.493h-8.609v-269.677c0-25.717-20.923-46.64-46.64-46.64h-353.356c-25.718 0-46.64 20.923-46.64 46.64v177.098c0 4.142 3.357 7.5 7.5 7.5s7.5-3.358 7.5-7.5v-177.098c0-17.446 14.194-31.64 31.64-31.64h353.356c17.446 0 31.64 14.194 31.64 31.64v269.677h-416.636v-57.6c0-4.142-3.357-7.5-7.5-7.5s-7.5 3.358-7.5 7.5v57.6h-8.609c-8.434 0-16.101 4.296-20.508 11.493-4.407 7.198-4.748 15.982-.912 23.498l14.511 28.41c4.133 8.091 12.341 13.118 21.419 13.118h353.836c4.143 0 7.5-3.358 7.5-7.5s-3.357-7.5-7.5-7.5h-353.837c-3.415 0-6.504-1.894-8.06-4.941l-14.51-28.408c-1.465-2.87-1.339-6.094.345-8.845 1.684-2.749 4.496-4.326 7.716-4.326h150.272v3.703c0 12.771 10.39 23.16 23.16 23.16h116.991c12.77 0 23.16-10.39 23.16-23.16v-3.703h150.272c3.22 0 6.032 1.577 7.716 4.326 1.684 2.751 1.81 5.975.345 8.843l-14.509 28.409c-1.558 3.048-4.646 4.942-8.061 4.942h-46.139c-4.143 0-7.5 3.358-7.5 7.5s3.357 7.5 7.5 7.5h46.139c9.078 0 17.286-5.026 21.42-13.119l14.51-28.411c3.834-7.514 3.493-16.298-.914-23.496zm-185.779 7.209c0 4.5-3.66 8.161-8.16 8.161h-116.991c-4.5 0-8.16-3.661-8.16-8.161v-3.7h133.311z"/><path d="m316.549 89.582h-225.738c-15.511 0-28.13 12.619-28.13 28.13v215.068c0 15.505 12.619 28.12 28.13 28.12h330.378c15.511 0 28.13-12.615 28.13-28.12v-215.069c0-15.511-12.619-28.13-28.13-28.13h-69.68c-4.143 0-7.5 3.358-7.5 7.5s3.357 7.5 7.5 7.5h69.68c7.24 0 13.13 5.89 13.13 13.13v215.068c0 7.234-5.89 13.12-13.13 13.12h-330.378c-7.24 0-13.13-5.886-13.13-13.12v-215.068c0-7.24 5.89-13.13 13.13-13.13h225.738c4.143 0 7.5-3.358 7.5-7.5 0-4.141-3.357-7.499-7.5-7.499z"/><path d="m288.028 172.11c-7.91-13.701-25.311-20.306-49.018-18.59-.558.04-1.127.104-1.69.154-.239-.512-.468-1.037-.712-1.54-10.366-21.381-24.788-33.155-40.608-33.155s-30.242 11.775-40.608 33.155c-.244.503-.473 1.028-.712 1.54-.562-.049-1.132-.114-1.69-.154-23.707-1.717-41.108 4.889-49.018 18.59s-4.924 32.078 8.409 51.746c.314.463.654.924.978 1.386-.324.462-.664.923-.978 1.386-13.333 19.668-16.319 38.045-8.409 51.746 7.09 12.28 21.807 18.857 41.846 18.857 2.32 0 4.713-.088 7.172-.266.558-.04 1.127-.104 1.69-.154.238.512.467 1.037.712 1.54 10.366 21.381 24.788 33.155 40.608 33.155s30.242-11.775 40.608-33.155c.244-.503.473-1.028.712-1.54.562.049 1.132.114 1.69.154 2.461.178 4.851.266 7.172.266 20.037 0 34.757-6.578 41.846-18.857 7.91-13.701 4.924-32.078-8.409-51.746-.314-.463-.654-.924-.978-1.386.324-.462.664-.923.978-1.386 13.333-19.667 16.319-38.044 8.409-51.746zm-51.642 53.132c0 7.717-.445 15.278-1.299 22.567-5.885 4.384-12.21 8.55-18.893 12.408s-13.454 7.254-20.193 10.158c-6.739-2.904-13.51-6.3-20.193-10.158s-13.008-8.024-18.893-12.408c-.854-7.289-1.299-14.85-1.299-22.567s.445-15.278 1.299-22.567c5.885-4.384 12.21-8.55 18.893-12.408s13.454-7.254 20.193-10.158c6.739 2.904 13.51 6.3 20.193 10.158s13.008 8.024 18.893 12.408c.854 7.289 1.299 14.85 1.299 22.567zm14.802-8.941c3.036 2.934 5.864 5.92 8.462 8.941-2.599 3.021-5.427 6.007-8.463 8.941.124-2.959.198-5.939.198-8.941.001-3.002-.073-5.981-.197-8.941zm-23.363 64.064c-3.915-.74-7.915-1.697-11.973-2.858 2.625-1.372 5.242-2.798 7.842-4.299s5.143-3.054 7.643-4.641c-1.024 4.095-2.195 8.037-3.512 11.798zm-63.649 0c-1.316-3.761-2.488-7.703-3.511-11.798 2.501 1.587 5.043 3.14 7.643 4.641s5.217 2.927 7.842 4.299c-4.059 1.161-8.059 2.117-11.974 2.858zm-23.363-46.182c-3.036-2.934-5.864-5.92-8.463-8.941 2.599-3.021 5.427-6.007 8.462-8.941-.124 2.959-.198 5.939-.198 8.941.001 3.002.075 5.982.199 8.941zm23.363-64.063c3.915.74 7.915 1.697 11.973 2.858-2.625 1.372-5.242 2.798-7.842 4.299s-5.142 3.054-7.643 4.641c1.024-4.095 2.196-8.037 3.512-11.798zm59.518 7.157c-2.6-1.501-5.217-2.927-7.842-4.299 4.059-1.162 8.058-2.118 11.973-2.858 1.316 3.761 2.488 7.703 3.512 11.798-2.501-1.586-5.044-3.14-7.643-4.641zm-27.693-43.299c9.066 0 18.363 8.002 25.774 22.064-8.384 1.799-17.048 4.446-25.774 7.863-8.726-3.417-17.39-6.064-25.774-7.863 7.411-14.061 16.708-22.064 25.774-22.064zm-79.038 45.632c4.533-7.852 16.116-11.907 31.996-11.29-2.634 8.16-4.674 16.987-6.078 26.253-7.323 5.849-13.948 12.029-19.697 18.39-8.472-13.449-10.754-25.502-6.221-33.353zm0 91.264c-4.533-7.851-2.251-19.904 6.221-33.353 5.75 6.362 12.375 12.541 19.697 18.39 1.404 9.266 3.443 18.092 6.078 26.252-15.88.614-27.462-3.438-31.996-11.289zm79.038 45.632c-9.066 0-18.363-8.003-25.774-22.064 8.384-1.799 17.048-4.446 25.774-7.863 8.726 3.417 17.39 6.064 25.774 7.863-7.411 14.061-16.709 22.064-25.774 22.064zm79.037-45.632c-4.533 7.851-16.112 11.901-31.996 11.289 2.634-8.16 4.674-16.986 6.078-26.252 7.323-5.849 13.948-12.029 19.697-18.39 8.472 13.449 10.754 25.502 6.221 33.353zm-25.918-76.301c-1.404-9.267-3.444-18.094-6.078-26.254 1.049-.041 2.082-.063 3.093-.063 14.291 0 24.67 4.021 28.903 11.354 4.533 7.851 2.251 19.904-6.221 33.353-5.75-6.361-12.374-12.541-19.697-18.39z"/><path d="m196.001 200.783c-13.487 0-24.46 10.973-24.46 24.459 0 13.487 10.973 24.46 24.46 24.46s24.46-10.973 24.46-24.46c-.001-13.487-10.973-24.459-24.46-24.459zm0 33.919c-5.216 0-9.46-4.244-9.46-9.46s4.244-9.459 9.46-9.459 9.46 4.244 9.46 9.459c-.001 5.216-4.245 9.46-9.46 9.46z"/><path d="m405.194 130.617h-77.15c-4.143 0-7.5 3.358-7.5 7.5s3.357 7.5 7.5 7.5h77.15c4.143 0 7.5-3.358 7.5-7.5s-3.358-7.5-7.5-7.5z"/><path d="m405.194 159.659h-77.15c-4.143 0-7.5 3.358-7.5 7.5s3.357 7.5 7.5 7.5h77.15c4.143 0 7.5-3.358 7.5-7.5s-3.358-7.5-7.5-7.5z"/><path d="m328.044 203.701h64.845c4.143 0 7.5-3.358 7.5-7.5s-3.357-7.5-7.5-7.5h-64.845c-4.143 0-7.5 3.358-7.5 7.5s3.358 7.5 7.5 7.5z"/><path d="m405.194 217.742h-77.15c-4.143 0-7.5 3.358-7.5 7.5s3.357 7.5 7.5 7.5h77.15c4.143 0 7.5-3.358 7.5-7.5s-3.358-7.5-7.5-7.5z"/><path d="m405.194 246.784h-77.15c-4.143 0-7.5 3.358-7.5 7.5s3.357 7.5 7.5 7.5h77.15c4.143 0 7.5-3.358 7.5-7.5s-3.358-7.5-7.5-7.5z"/><path d="m328.044 290.825h38.907c4.143 0 7.5-3.358 7.5-7.5s-3.357-7.5-7.5-7.5h-38.907c-4.143 0-7.5 3.358-7.5 7.5s3.358 7.5 7.5 7.5z"/><path d="m328.044 319.867h77.15c4.143 0 7.5-3.358 7.5-7.5s-3.357-7.5-7.5-7.5h-77.15c-4.143 0-7.5 3.358-7.5 7.5s3.358 7.5 7.5 7.5z"/></g></svg>