<svg id="Capa_1" enable-background="new 0 0 512 512" height="512" viewBox="0 0 512 512" width="512" xmlns="http://www.w3.org/2000/svg"><g><path d="m88.401 310.856c-4.143 0-7.5 3.358-7.5 7.5s3.357 7.5 7.5 7.5h12.798v8.288c0 4.142 3.357 7.5 7.5 7.5s7.5-3.358 7.5-7.5v-8.288h22.201v8.288c0 4.142 3.357 7.5 7.5 7.5s7.5-3.358 7.5-7.5v-8.288h22.202v8.288c0 4.142 3.357 7.5 7.5 7.5s7.5-3.358 7.5-7.5v-8.288h22.201v8.288c0 4.142 3.357 7.5 7.5 7.5s7.5-3.358 7.5-7.5v-8.288h20.697v16.269c0 4.142 3.357 7.5 7.5 7.5s7.5-3.358 7.5-7.5v-16.269h25.146v8.288c0 4.142 3.357 7.5 7.5 7.5s7.5-3.358 7.5-7.5v-8.288h22.201v8.288c0 4.142 3.357 7.5 7.5 7.5s7.5-3.358 7.5-7.5v-8.288h22.201v8.288c0 4.142 3.357 7.5 7.5 7.5s7.5-3.358 7.5-7.5v-8.288h22.202v8.288c0 4.142 3.357 7.5 7.5 7.5s7.5-3.358 7.5-7.5v-8.288h8.351c4.143 0 7.5-3.358 7.5-7.5s-3.357-7.5-7.5-7.5h-160.1v-6.817c29.506-2.733 56.794-21.559 77.497-53.728 21.789-33.856 33.788-78.722 33.788-126.332 0-4.142-3.357-7.5-7.5-7.5s-7.5 3.358-7.5 7.5c0 44.767-11.152 86.75-31.401 118.214-17.773 27.617-40.58 43.976-64.884 46.774v-20.825h7.93c4.143 0 7.5-3.358 7.5-7.5s-3.357-7.5-7.5-7.5h-7.93v-22.202h7.93c4.143 0 7.5-3.358 7.5-7.5s-3.357-7.5-7.5-7.5h-7.93v-22.2h7.93c4.143 0 7.5-3.358 7.5-7.5s-3.357-7.5-7.5-7.5h-7.93v-64.76c0-4.142-3.357-7.5-7.5-7.5s-7.5 3.358-7.5 7.5v64.76h-7.929c-4.143 0-7.5 3.358-7.5 7.5s3.357 7.5 7.5 7.5h7.929v22.201h-7.929c-4.143 0-7.5 3.358-7.5 7.5s3.357 7.5 7.5 7.5h7.929v22.202h-7.929c-4.143 0-7.5 3.358-7.5 7.5s3.357 7.5 7.5 7.5h7.929v20.825c-24.303-2.798-47.11-19.157-64.883-46.774-20.249-31.465-31.401-73.448-31.401-118.214 0-4.142-3.357-7.5-7.5-7.5s-7.5 3.358-7.5 7.5c0 47.61 11.999 92.476 33.788 126.332 20.702 32.169 47.99 50.995 77.496 53.728v6.817h-160.1z"/><path d="m195.527 156.317c1.353 1.02 2.938 1.512 4.51 1.512 2.273 0 4.521-1.03 5.994-2.985l9.072-12.031 9.655 12.722c1.476 1.944 3.715 2.966 5.98 2.966 1.58 0 3.173-.498 4.528-1.526 3.3-2.504 3.944-7.208 1.44-10.508l-12.219-16.101 10.099-13.393c2.494-3.308 1.834-8.01-1.473-10.504-3.309-2.494-8.011-1.834-10.504 1.473l-7.546 10.007-7.609-10.026c-2.505-3.299-7.21-3.944-10.509-1.44-3.3 2.504-3.944 7.208-1.44 10.508l10.173 13.404-11.625 15.417c-2.492 3.309-1.832 8.011 1.474 10.505z"/><path d="m399.605 301.555c1.353 1.02 2.938 1.512 4.51 1.512 2.273 0 4.521-1.03 5.994-2.985l28.556-37.871c2.494-3.308 1.834-8.01-1.473-10.504-3.31-2.495-8.012-1.834-10.504 1.473l-7.545 10.006-7.606-10.023c-2.504-3.299-7.209-3.945-10.509-1.44-3.3 2.504-3.944 7.208-1.44 10.508l10.17 13.401-11.625 15.418c-2.494 3.308-1.834 8.011 1.472 10.505z"/><path d="m498.35 401.199v-328.829c0-14.916-12.135-27.05-27.05-27.05h-61.93c-4.143 0-7.5 3.358-7.5 7.5s3.357 7.5 7.5 7.5h61.93c6.645 0 12.05 5.406 12.05 12.05v327.43h-309.355c2.847-4.393 4.67-9.504 5.132-15h261.213c15.444 0 28.01-12.57 28.01-28.02v-253.44c0-15.45-12.565-28.02-28.01-28.02h-368.68c-15.444 0-28.01 12.57-28.01 28.02v190.49c0 4.142 3.357 7.5 7.5 7.5s7.5-3.358 7.5-7.5v-190.49c0-7.179 5.836-13.02 13.01-13.02h368.68c7.174 0 13.01 5.841 13.01 13.02v253.44c0 7.179-5.836 13.02-13.01 13.02h-263.463c-4.858-12.029-16.648-20.543-30.397-20.543h-49.881c-13.359 0-24.869 8.039-29.967 19.53-4.684-1.972-7.981-6.611-7.981-12.007v-27.97c0-4.142-3.357-7.5-7.5-7.5s-7.5 3.358-7.5 7.5v27.97c0 12.745 8.554 23.523 20.218 26.908.297 5.918 2.177 11.423 5.216 16.112h-40.435v-327.43c0-6.645 5.405-12.05 12.05-12.05h333.71c4.143 0 7.5-3.358 7.5-7.5s-3.357-7.5-7.5-7.5h-333.71c-14.915 0-27.05 12.135-27.05 27.05v328.829c-7.965 3.035-13.65 10.732-13.65 19.751v24.58c0 11.663 9.488 21.15 21.15 21.15h421.1c4.143 0 7.5-3.358 7.5-7.5s-3.357-7.5-7.5-7.5h-421.1c-3.392 0-6.15-2.759-6.15-6.15v-24.58c0-3.392 2.759-6.15 6.15-6.15h469.7c3.392 0 6.15 2.759 6.15 6.15v24.58c0 3.392-2.759 6.15-6.15 6.15h-13.64c-4.143 0-7.5 3.358-7.5 7.5s3.357 7.5 7.5 7.5h13.64c11.662 0 21.15-9.488 21.15-21.15v-24.58c0-9.019-5.685-16.716-13.65-19.751zm-419.524-19.169c0-9.8 7.973-17.773 17.772-17.773h49.881c9.801 0 17.773 7.973 17.773 17.773 0 9.78-7.942 17.738-17.716 17.77h-49.995c-9.773-.032-17.715-7.99-17.715-17.77z"/></g></svg>