<svg id="Capa_1" enable-background="new 0 0 512 512" height="512" viewBox="0 0 512 512" width="512" xmlns="http://www.w3.org/2000/svg"><g><path d="m462.433 148.317-16.8-16.8c-4.25-4.251-9.902-6.592-15.913-6.592s-11.663 2.341-15.918 6.596c-8.762 8.777-8.76 23.048.004 31.812l11.506 11.506-9.378 9.378c-4.572-3.999-9.473-7.63-14.655-10.85v-139.107c.001-18.891-15.363-34.26-34.249-34.26h-332.77c-1.72 0-3.439.13-5.068.381-16.642 2.464-29.192 17.029-29.192 33.879v258.92c0 18.891 15.369 34.26 34.26 34.26h213.905c3.128 4.965 6.634 9.668 10.481 14.066l-9.378 9.378-12-11.993c-4.246-4.253-9.896-6.596-15.909-6.596-6.011 0-11.662 2.341-15.908 6.587-4.253 4.246-6.596 9.896-6.596 15.909 0 6.01 2.341 11.661 6.592 15.912l17.3 17.3c31.314 31.314 72.718 48.856 116.874 49.611v20.579h-34.858c-18.746 0-34.439 14.05-36.504 32.682l-1.418 12.799c-.235 2.12.444 4.24 1.867 5.829s3.455 2.497 5.588 2.497h179.572c2.133 0 4.165-.908 5.588-2.497 1.422-1.589 2.102-3.709 1.867-5.829l-1.418-12.799c-2.065-18.632-17.759-32.682-36.504-32.682h-34.861v-26.762c21.829-6.091 42.209-16.586 60.293-31.197 3.222-2.603 3.724-7.325 1.121-10.547s-7.326-3.723-10.547-1.121c-27.601 22.298-61.079 34.084-96.817 34.084-41.26 0-80.055-16.071-109.237-45.253l-17.3-17.3c-1.417-1.418-2.198-3.302-2.198-5.305 0-2.001.779-3.881 2.198-5.298 1.417-1.417 3.302-2.198 5.306-2.198 2.001 0 3.881.779 5.299 2.2l17.309 17.298c26.305 26.305 61.332 40.792 98.628 40.792 37.297 0 72.324-14.487 98.628-40.792 54.384-54.384 54.384-142.873 0-197.256l-16.81-16.81c-2.921-2.921-2.919-7.68 0-10.603 1.418-1.418 3.303-2.198 5.307-2.198s3.889.781 5.307 2.198l16.8 16.8c27.075 27.075 43.047 63.085 44.975 101.397 1.915 38.038-10.097 75.205-33.822 104.654-2.599 3.226-2.09 7.947 1.135 10.546 3.226 2.599 7.947 2.09 10.545-1.135 26.039-32.321 39.222-73.097 37.123-114.818-2.115-42.034-19.641-81.544-49.35-111.252zm-107.813 288.915c6.392-.438 12.704-1.227 18.92-2.359v23.317h-18.92zm68.778 35.961c11.09 0 20.374 8.312 21.596 19.334l.496 4.473h-162.819l.496-4.473c1.222-11.022 10.506-19.334 21.596-19.334zm-1.293-229.382c-5.663-5.649-13.184-8.76-21.177-8.76-2.755-.413-3.559-1.237-3.97-3.98 0-2.189 1.781-3.97 3.97-3.97h29.008c5.885 12.468 9.183 26.387 9.183 41.063 0 30.404-14.134 57.565-36.171 75.271v-43.817c15.76-2.202 27.93-15.771 27.93-32.127v-2.5c0-8.002-3.113-15.521-8.773-21.18zm-.98-31.711h-20.197c-10.46 0-18.97 8.51-18.97 18.97 0 5.056 1.969 9.818 5.569 13.436 3.592 3.575 8.352 5.544 13.401 5.544 3.994 0 7.752 1.555 10.577 4.374 2.82 2.82 4.373 6.572 4.373 10.566v2.5c0 9.616-7.824 17.44-17.44 17.44h-2.99c-4.142 0-7.5 3.358-7.5 7.5v60.92c-5.06 2.705-10.386 4.971-15.93 6.75v-12.8c0-4.142-3.358-7.5-7.5-7.5h-9.98c-7.417 0-13.45-6.034-13.45-13.45v-19.158c0-13.93-11.333-25.262-25.262-25.262h-11.667c-3.838 0-6.96-3.122-6.96-6.96v-14.47c0-4.142-3.358-7.5-7.5-7.5h-12.054c-3.929 0-7.381-3.247-7.386-6.95-.003-1.863.723-3.616 2.043-4.937 1.318-1.318 3.067-2.043 4.927-2.043h22.44c4.142 0 7.5-3.358 7.5-7.5v-2.85c0-8.596 6.994-15.59 15.59-15.59h2.72c16.862 0 30.58-13.718 30.58-30.58v-9.97c26.748 3.751 50.017 18.5 65.066 39.52zm-386.865 100.34c-10.62 0-19.26-8.64-19.26-19.26v-258.92c0-6.218 3.048-11.868 7.79-15.419v12.269c0 14.562 11.843 26.41 26.4 26.41h1.53v1.01c0 14.557 11.847 26.4 26.41 26.4h37.32v10.73c0 8.591-6.989 15.58-15.58 15.58h-2.72c-15.287 0-27.991 11.271-30.237 25.94h-15.293c-5.866 0-11.383 2.286-15.533 6.437-4.165 4.165-6.451 9.695-6.437 15.563.015 11.887 10.264 21.93 22.38 21.93h4.56v6.97c0 12.109 9.851 21.96 21.96 21.96h11.66c5.663 0 10.27 4.607 10.27 10.27v19.15c0 15.687 12.763 28.45 28.45 28.45h2.48v9.61c0 12.66 10.3 22.96 22.96 22.96 6.136 0 11.905-2.389 16.234-6.718 4.344-4.328 6.736-10.097 6.736-16.242v-17.8c0-4.142-3.358-7.5-7.5-7.5s-7.5 3.358-7.5 7.5v17.8c0 2.129-.825 4.124-2.333 5.626-1.505 1.505-3.507 2.333-5.637 2.333-4.389 0-7.96-3.571-7.96-7.96v-17.11c0-4.142-3.358-7.5-7.5-7.5h-9.98c-7.417 0-13.45-6.034-13.45-13.45v-19.15c0-13.934-11.336-25.27-25.27-25.27h-11.66c-3.838 0-6.96-3.122-6.96-6.96v-14.47c0-4.142-3.358-7.5-7.5-7.5h-12.06c-3.927 0-7.375-3.248-7.38-6.958-.004-1.856.721-3.606 2.044-4.929 1.317-1.317 3.067-2.043 4.926-2.043h22.44c4.142 0 7.5-3.358 7.5-7.5v-2.85c0-8.596 6.994-15.59 15.59-15.59h2.72c16.862 0 30.58-13.718 30.58-30.58v-18.229c0-4.142-3.358-7.5-7.5-7.5h-44.82c-6.292 0-11.41-5.114-11.41-11.4v-8.51c0-4.142-3.358-7.5-7.5-7.5h-9.03c-6.286 0-11.4-5.118-11.4-11.41v-16.11h329.24c10.614 0 19.25 8.64 19.25 19.26v131.293c-13.424-5.737-28.191-8.917-43.688-8.917-14.722 0-28.784 2.874-41.662 8.079-3.576-11.816-14.562-20.445-27.53-20.445h-4.15c-3.86 0-7-3.136-7-6.99v-22.98c0-8.252-3.209-16.006-9.037-21.833-5.834-5.834-13.588-9.047-21.833-9.047-17.027 0-30.88 13.853-30.88 30.88v.59c0 5.69-4.634 10.32-10.33 10.32h-15.49c-10.134 0-18.608 7.75-19.292 17.645-.377 5.488 1.634 10.863 5.532 14.761 3.592 3.575 8.351 5.544 13.4 5.544 3.993 0 7.752 1.555 10.577 4.373 2.82 2.821 4.374 6.573 4.374 10.567v2.5c0 9.616-7.824 17.44-17.44 17.44h-2.99c-4.142 0-7.5 3.358-7.5 7.5v19.2c0 4.142 3.358 7.5 7.5 7.5s7.5-3.358 7.5-7.5v-12.012c15.761-2.201 27.93-15.77 27.93-32.127v-2.5c0-8-3.113-15.52-8.773-21.18-5.663-5.649-13.184-8.76-21.177-8.76-1.425 0-2.378-.737-2.807-1.163-.48-.48-1.27-1.524-1.161-3.109.141-2.028 2.082-3.678 4.328-3.678h15.49c13.967 0 25.33-11.359 25.33-25.32v-.59c0-8.756 7.124-15.88 15.88-15.88 4.239 0 8.226 1.653 11.227 4.653 2.994 2.994 4.643 6.981 4.643 11.227v22.98c0 12.125 9.869 21.99 22 21.99h4.15c7.058 0 12.886 5.344 13.665 12.198-33.441 19.278-56 55.402-56 96.696 0 15.725 3.278 30.696 9.175 44.276h-205.981zm211.805-44.276c0-52.713 42.473-95.685 94.994-96.508v10.895c0 8.591-6.989 15.58-15.58 15.58h-2.72c-15.287 0-27.991 11.271-30.238 25.94h-15.292c-5.866 0-11.382 2.286-15.534 6.437-4.16 4.16-6.445 9.688-6.436 15.566.017 11.885 10.269 21.926 22.386 21.926h4.554v6.97c0 12.109 9.851 21.96 21.96 21.96h11.667c5.659 0 10.262 4.604 10.262 10.262v19.158c0 15.687 12.763 28.45 28.45 28.45h2.48v8.813c-4.708.708-9.524 1.079-14.426 1.079-53.225 0-96.527-43.303-96.527-96.528zm189.69-82.554c43.324 48.827 41.616 123.822-5.138 170.577-46.754 46.754-121.748 48.462-170.576 5.138l9.212-9.212c19.621 17.163 45.286 27.579 73.34 27.579 61.497 0 111.528-50.031 111.528-111.528 0-28.054-10.416-53.719-27.579-73.34z"/><path d="m309.125 73.978h19.935v19.935c0 4.142 3.358 7.5 7.5 7.5s7.5-3.358 7.5-7.5v-19.935h19.935c4.142 0 7.5-3.358 7.5-7.5s-3.358-7.5-7.5-7.5h-19.935v-19.935c0-4.142-3.358-7.5-7.5-7.5s-7.5 3.358-7.5 7.5v19.935h-19.935c-4.142 0-7.5 3.358-7.5 7.5s3.358 7.5 7.5 7.5z"/></g></svg>