<svg id="Capa_1" enable-background="new 0 0 511.98 511.98" height="512" viewBox="0 0 511.98 511.98" width="512" xmlns="http://www.w3.org/2000/svg"><g><path d="m219.447 269.366 39.296-39.296 12.226 12.226c6.216 6.216 14.48 9.639 23.271 9.639 6.232 0 12.196-1.729 17.357-4.945l10.896 10.896c-3.217 5.161-4.946 11.124-4.946 17.356 0 8.79 3.424 17.054 9.639 23.27l17.589 17.589h.001c6.415 6.416 14.842 9.623 23.27 9.623 8.427 0 16.854-3.208 23.271-9.623l59.319-59.319c12.83-12.832 12.83-33.709 0-46.54l-17.59-17.589c-6.216-6.216-14.48-9.639-23.271-9.639-6.232 0-12.196 1.729-17.356 4.945l-10.896-10.896c3.217-5.161 4.946-11.125 4.946-17.357 0-8.79-3.424-17.054-9.639-23.27l-12.226-12.226 7.699-7.699c3.99-3.99 6.187-9.293 6.186-14.935-.002-5.641-2.2-10.945-6.191-14.936l-17.69-17.69c-3.991-3.991-9.295-6.189-14.936-6.19-.002 0-.003 0-.006 0-5.639 0-10.94 2.196-14.929 6.184l-7.699 7.699-12.228-12.228c-11.005-11.005-27.927-12.562-40.619-4.687l-11.161-11.162c-2.929-2.929-7.678-2.93-10.606 0-2.93 2.929-2.93 7.677-.001 10.606l10.545 10.545-45.207 45.209-18.931-61.511c-.773-2.514-2.808-4.439-5.36-5.073-2.55-.635-5.251.115-7.111 1.976l-16.97 16.97c-1.865 1.866-4.336 2.893-6.956 2.893s-5.091-1.027-6.961-2.897c-1.859-1.857-2.884-4.325-2.884-6.949 0-2.625 1.025-5.098 2.889-6.96l33.309-33.31c6.762-6.76 17.762-6.762 24.523 0l14.37 14.37c2.93 2.929 7.678 2.929 10.607 0s2.929-7.678 0-10.606l-14.371-14.37c-12.609-12.61-33.125-12.608-45.736 0l-33.31 33.31c-4.695 4.696-7.281 10.935-7.281 17.567 0 6.635 2.587 12.873 7.281 17.559 4.698 4.7 10.937 7.288 17.563 7.288s12.865-2.588 17.563-7.287l8.161-8.161 17.709 57.557c-4.253 5.66-6.557 12.51-6.557 19.715 0 8.79 3.424 17.054 9.639 23.27l12.228 12.228-39.294 39.293c-9.841-6.265-23.076-5.115-31.654 3.461l-70.27 70.27c-2.929 2.929-2.929 7.678 0 10.606 2.93 2.929 7.678 2.929 10.607 0l70.27-70.27c4.067-4.068 10.691-4.064 14.763 0l39.78 39.791c4.067 4.067 4.066 10.692.001 14.763l-106.762 106.752c-1.969 1.972-4.588 3.057-7.375 3.057-2.789 0-5.411-1.087-7.385-3.061l-39.777-39.777c-4.069-4.075-4.071-10.7-.003-14.767l11.75-11.75c2.929-2.929 2.929-7.678 0-10.606-2.93-2.929-7.678-2.929-10.607 0l-11.75 11.75c-9.911 9.912-9.913 26.049 0 35.977l39.78 39.78c4.808 4.807 11.197 7.454 17.992 7.454 6.798 0 13.187-2.648 17.984-7.454l106.765-106.754c8.574-8.587 9.722-21.822 3.457-31.654zm152.078-81.086 9.676 9.675-48.713 48.713-9.676-9.676zm50.913 14.979 17.589 17.589c6.982 6.982 6.982 18.344 0 25.327l-59.318 59.319c-6.984 6.982-18.344 6.982-25.328 0h.001l-17.589-17.589c-3.383-3.383-5.246-7.88-5.246-12.664s1.863-9.281 5.246-12.663l59.319-59.319c3.382-3.383 7.879-5.245 12.662-5.245s9.281 1.862 12.664 5.245zm-87.096-123.708c1.154-1.155 2.689-1.791 4.322-1.791h.001c1.636 0 3.175.639 4.333 1.797l17.69 17.69c1.158 1.159 1.797 2.697 1.798 4.333 0 1.633-.636 3.168-1.792 4.324l-7.699 7.699-26.353-26.353zm-131.032 67.453c0-4.783 1.863-9.281 5.246-12.663l.007-.007c.024-.023.048-.047.071-.071l59.2-59.202c.013-.013.028-.023.041-.037.007-.006.012-.014.018-.021 6.985-6.962 18.332-6.957 25.307.019l72.021 72.021c6.983 6.983 6.983 18.344 0 25.327l-59.318 59.319c-6.982 6.982-18.344 6.982-25.326 0l-72.021-72.021c-3.383-3.383-5.246-7.88-5.246-12.664zm43.827 72.459-38.866 38.867-26.35-26.357 38.864-38.863z"/><path d="m461.107 346.628h-56.017c-13.695 0-24.838 11.143-24.838 24.838s11.143 24.838 24.838 24.838h.503v91.196c0 2.203.968 4.293 2.647 5.719l20.01 16.98c1.399 1.188 3.126 1.781 4.853 1.781 1.728 0 3.454-.594 4.854-1.783l20-16.98c1.678-1.425 2.646-3.516 2.646-5.717v-25.36c0-4.142-3.357-7.5-7.5-7.5s-7.5 3.358-7.5 7.5v21.889l-12.501 10.613-12.509-10.615v-87.723h25.01v30.855c0 4.142 3.357 7.5 7.5 7.5s7.5-3.358 7.5-7.5v-30.855h.504c13.696 0 24.839-11.143 24.839-24.838s-11.143-24.838-24.839-24.838zm0 34.677h-56.017c-5.425 0-9.838-4.414-9.838-9.838s4.413-9.838 9.838-9.838h56.017c5.425 0 9.839 4.414 9.839 9.838s-4.415 9.838-9.839 9.838z"/><path d="m362.037 461.034c-1.04-1.941-2.881-3.327-5.034-3.79l-89.16-19.163.106-.492c2.877-13.39-5.676-26.625-19.066-29.503-6.487-1.394-13.127-.178-18.699 3.422-5.573 3.601-9.409 9.156-10.804 15.643l-11.771 54.766c-2.877 13.39 5.676 26.625 19.065 29.503 1.752.376 3.501.558 5.225.558 11.45 0 21.776-7.984 24.279-19.623l.105-.491 89.159 19.162c.522.112 1.051.167 1.576.167 1.639 0 3.249-.538 4.571-1.554l20.804-15.992c2.91-2.238 3.773-6.253 2.039-9.489zm-132.211 35.723c-5.304-1.14-8.692-6.382-7.552-11.686l11.771-54.767c.552-2.569 2.071-4.77 4.278-6.196 1.611-1.041 3.447-1.579 5.321-1.579.693 0 1.392.074 2.086.223 5.304 1.14 8.692 6.382 7.552 11.687l-11.77 54.766c-1.14 5.305-6.384 8.689-11.686 7.552zm115.374-1.123-85.765-18.433 5.256-24.454 85.765 18.433 7.749 14.457z"/></g></svg>