<svg id="Capa_1" enable-background="new 0 0 512 512" height="512" viewBox="0 0 512 512" width="512" xmlns="http://www.w3.org/2000/svg"><g><path d="m488.17 304.82h-47.29v-21.033l8.384-8.384c.514-.514.938-1.085 1.271-1.692 51.996-58.894 49.299-148.103-6.441-203.844-28.14-28.14-65.555-43.637-105.354-43.637-34.812 0-68.248 12.063-94.882 34.104-25.237-20.858-56.846-32.886-89.729-34.015-34.934-1.197-69.279 9.934-96.706 31.351-3.265 2.549-3.845 7.262-1.295 10.527 2.551 3.265 7.263 3.845 10.527 1.295 24.655-19.253 55.555-29.262 86.959-28.182 31.572 1.084 61.834 13.337 85.212 34.5 2.857 2.587 7.21 2.587 10.067-.001 24.627-22.298 56.534-34.579 89.847-34.579 35.792 0 69.44 13.937 94.746 39.243 49.552 49.552 52.491 128.504 7.394 181.467v-4.411c0-13.14-10.69-23.83-23.83-23.83h-62.16c-13.14 0-23.83 10.69-23.83 23.83v47.29h-47.29c-13.14 0-23.829 10.69-23.829 23.83v62.17c0 13.14 10.689 23.83 23.829 23.83h5.034l-19.946 19.947c-6.676 6.675-15.551 10.351-24.992 10.351s-18.317-3.676-24.991-10.351l-168.613-168.61c-.23-.368-.495-.721-.796-1.053-22.226-24.607-34.466-56.467-34.466-89.713 0-29.747 10.034-58.988 28.253-82.336 2.548-3.266 1.967-7.979-1.299-10.527-3.267-2.547-7.979-1.966-10.527 1.299-20.266 25.972-31.427 58.49-31.427 91.564 0 36.395 13.194 71.299 37.192 98.487.334.609.759 1.181 1.274 1.696l169.8 169.799c9.508 9.508 22.15 14.744 35.599 14.744 13.447 0 26.09-5.236 35.599-14.744l30.553-30.553h21.042v47.29c0 13.14 10.69 23.83 23.83 23.83h62.16c13.14 0 23.83-10.69 23.83-23.83v-47.29h10.351c4.143 0 7.5-3.358 7.5-7.5s-3.357-7.5-7.5-7.5h-17.85c-4.143 0-7.5 3.358-7.5 7.5v54.79c0 4.869-3.961 8.83-8.83 8.83h-62.16c-4.869 0-8.83-3.961-8.83-8.83v-54.79c0-4.142-3.357-7.5-7.5-7.5h-54.79c-4.868 0-8.829-3.961-8.829-8.83v-62.17c0-4.869 3.961-8.83 8.829-8.83h54.79c4.143 0 7.5-3.358 7.5-7.5v-54.79c0-4.869 3.961-8.83 8.83-8.83h62.16c4.869 0 8.83 3.961 8.83 8.83v54.79c0 4.142 3.357 7.5 7.5 7.5h54.79c4.869 0 8.83 3.961 8.83 8.83v62.17c0 4.869-3.961 8.83-8.83 8.83h-1.979c-4.143 0-7.5 3.358-7.5 7.5s3.357 7.5 7.5 7.5h1.979c13.14 0 23.83-10.69 23.83-23.83v-62.17c0-13.139-10.69-23.829-23.83-23.829z"/></g></svg>