<svg id="Capa_1" enable-background="new 0 0 512 512" height="512" viewBox="0 0 512 512" width="512" xmlns="http://www.w3.org/2000/svg"><g><path d="m482.777 159.757v-23.207h8.603c11.37 0 20.62-9.25 20.62-20.62v-24.11c0-9.164-5.903-17.098-14.695-19.744l-239.15-71.76c-1.405-.422-2.905-.422-4.311 0l-133.11 39.94c-3.968 1.19-6.219 5.372-5.028 9.339 1.19 3.968 5.372 6.221 9.339 5.028l130.955-39.292 236.988 71.111c2.399.722 4.012 2.884 4.012 5.378v24.11c0 3.099-2.521 5.62-5.62 5.62h-470.76c-3.099 0-5.62-2.521-5.62-5.62v-24.11c0-2.495 1.612-4.656 4.005-5.376l72.52-21.76c3.967-1.19 6.219-5.372 5.028-9.339-1.19-3.968-5.37-6.22-9.339-5.028l-72.526 21.761c-8.785 2.644-14.688 10.578-14.688 19.742v24.11c0 11.37 9.25 20.62 20.62 20.62h8.603v23.207c0 10.952 8.91 19.862 19.862 19.862h8.956l-12.517 239.221h-5.335c-10.498 0-19.039 8.541-19.039 19.039v20.042h-1.94c-10.592-.001-19.21 8.617-19.21 19.209v27.37c0 4.142 3.358 7.5 7.5 7.5h95.07c4.142 0 7.5-3.358 7.5-7.5s-3.358-7.5-7.5-7.5h-87.57v-19.87c0-2.321 1.889-4.21 4.21-4.21h473.58c2.321 0 4.21 1.889 4.21 4.21v19.87h-359.43c-4.142 0-7.5 3.358-7.5 7.5s3.358 7.5 7.5 7.5h366.93c4.142 0 7.5-3.358 7.5-7.5v-27.37c0-10.592-8.618-19.21-19.21-19.21h-1.941v-20.042c0-10.498-8.541-19.039-19.039-19.039h-5.333l-12.515-239.221h8.952c10.953.001 19.863-8.909 19.863-19.861zm-438.554 0v-23.207h423.554v23.207c0 2.681-2.181 4.862-4.862 4.862h-413.83c-2.681 0-4.862-2.181-4.862-4.862zm298.263 259.083h-64.003l12.516-239.221h38.971zm-93.948 0-12.516-239.221h39.957l-12.517 239.221zm-108.969 0-12.516-239.221h39.957l-12.517 239.221zm42.461-239.221h38.971l12.516 239.221h-64.003zm-108.968 0h38.971l12.516 239.221h-64.004zm402.787 258.259v20.04h-439.698v-20.04c0-2.227 1.812-4.039 4.039-4.039h431.621c2.227.001 4.038 1.812 4.038 4.039zm-85.871-210.918c4.148.216 7.666-2.961 7.882-7.098l2.108-40.242h38.975l12.515 239.22h-64.004l8.587-164.078c.216-4.137-2.961-7.666-7.098-7.882-4.146-.219-7.666 2.961-7.882 7.098l-8.628 164.862h-14.925l-12.518-239.221h39.957l-2.067 39.459c-.216 4.136 2.961 7.665 7.098 7.882z"/><path d="m87.637 93.64c0 4.142 3.358 7.5 7.5 7.5h323.227c4.142 0 7.5-3.358 7.5-7.5s-3.358-7.5-7.5-7.5h-323.227c-4.142 0-7.5 3.358-7.5 7.5z"/><path d="m299.98 70.178c4.142 0 7.5-3.358 7.5-7.5s-3.358-7.5-7.5-7.5h-86.459c-4.142 0-7.5 3.358-7.5 7.5s3.358 7.5 7.5 7.5z"/></g></svg>