<svg id="Capa_1" enable-background="new 0 0 512 512" height="512" viewBox="0 0 512 512" width="512" xmlns="http://www.w3.org/2000/svg"><g><path d="m456.36 146.72h-68.84v-53.68c0-4.142-3.357-7.5-7.5-7.5s-7.5 3.358-7.5 7.5v132.04h-233.04v-197.81c0-6.766 5.504-12.27 12.27-12.27h208.5c6.766 0 12.27 5.504 12.27 12.27v30.79c0 4.142 3.357 7.5 7.5 7.5s7.5-3.358 7.5-7.5v-30.79c0-15.037-12.234-27.27-27.27-27.27h-208.5c-15.036 0-27.27 12.233-27.27 27.27v119.45h-68.84c-15.588 0-28.27 12.682-28.27 28.27v141.57c0 15.588 12.682 28.27 28.27 28.27h4.61v55.41c0 4.142 3.357 7.5 7.5 7.5s7.5-3.358 7.5-7.5v-55.41h361.5v133.79c0 10.135-8.245 18.38-18.38 18.38h-324.75c-10.129 0-18.37-8.245-18.37-18.38v-43.4c0-4.142-3.357-7.5-7.5-7.5s-7.5 3.358-7.5 7.5v43.4c0 18.406 14.97 33.38 33.37 33.38h324.75c18.405 0 33.38-14.974 33.38-33.38v-133.79h4.61c15.588 0 28.27-12.682 28.27-28.27v-141.57c0-15.588-12.682-28.27-28.27-28.27zm-68.84 53.01h5.04c6.986 0 12.671 5.688 12.671 12.68 0 3.381-1.319 6.562-3.713 8.956-2.396 2.395-5.577 3.714-8.958 3.714h-5.04zm-268.08 25.35c-6.986 0-12.671-5.684-12.671-12.67 0-3.381 1.321-6.568 3.713-8.966 2.396-2.395 5.577-3.714 8.958-3.714h5.04v25.35zm-77.07-50.09c0-7.317 5.953-13.27 13.27-13.27h68.841v23.01h-5.04c-7.388 0-14.335 2.879-19.571 8.114-5.224 5.238-8.1 12.187-8.1 19.566 0 15.257 12.413 27.67 27.671 27.67h273.119c7.388 0 14.335-2.879 19.564-8.107 5.228-5.228 8.106-12.176 8.106-19.562 0-15.263-12.413-27.68-27.671-27.68h-5.04v-23.01h68.841c7.316 0 13.27 5.953 13.27 13.27v74.84c0 7.317-5.953 13.27-13.27 13.27h-400.72c-7.316 0-13.27-5.953-13.27-13.27zm413.99 154.84h-400.72c-7.316 0-13.27-5.953-13.27-13.27v-41.777c3.959 2.114 8.476 3.317 13.27 3.317h400.72c4.793 0 9.31-1.203 13.27-3.317v41.777c0 7.317-5.953 13.27-13.27 13.27z"/><path d="m321.085 45.481c-7.194-4.409-15.677-5.754-23.878-3.784-8.204 1.969-15.149 7.015-19.559 14.208l-31.241 50.973-12.863-12.863c-5.966-5.966-13.897-9.251-22.334-9.251s-16.368 3.285-22.333 9.251c-5.967 5.966-9.253 13.898-9.253 22.335s3.286 16.369 9.252 22.335l41.192 41.192c5.966 5.966 13.897 9.251 22.333 9.251 1.234 0 2.483-.074 3.713-.219 9.668-1.144 18.131-6.561 23.22-14.862l52.176-85.131c4.409-7.193 5.752-15.673 3.783-23.877-1.97-8.203-7.016-15.149-14.208-19.558zm-2.364 35.598-52.176 85.131c-2.672 4.359-7.116 7.203-12.191 7.804-.647.077-1.304.115-1.952.115-4.429 0-8.594-1.725-11.726-4.858l-41.193-41.192c-3.133-3.133-4.858-7.298-4.858-11.729s1.726-8.595 4.859-11.729c3.132-3.132 7.297-4.857 11.727-4.857 4.431 0 8.596 1.725 11.728 4.857l19.59 19.59c1.624 1.623 3.897 2.412 6.185 2.145 2.281-.27 4.313-1.571 5.514-3.529l36.212-59.083c2.315-3.777 5.963-6.427 10.271-7.461 4.308-1.035 8.76-.328 12.538 1.987 3.777 2.315 6.427 5.962 7.461 10.271 1.031 4.308.326 8.76-1.989 12.538z"/></g></svg>