<svg id="Capa_1" enable-background="new 0 0 512 512" height="512" viewBox="0 0 512 512" width="512" xmlns="http://www.w3.org/2000/svg"><g><path d="m506.671 224.094.003-.002-68.303-111.772 51.948-11.167c6.689-1.436 12.42-5.396 16.136-11.148 3.714-5.75 4.969-12.601 3.533-19.289-1.437-6.689-5.394-12.42-11.143-16.135-5.75-3.715-12.602-4.97-19.298-3.533l-63.229 13.6c-11.495 2.474-23.75.23-33.604-6.135l-1.66-1.08c-3.473-2.257-8.118-1.273-10.376 2.199-2.259 3.473-1.274 8.118 2.198 10.376l1.68 1.092c13.193 8.522 29.565 11.514 44.917 8.213l63.227-13.6c2.778-.597 5.619-.075 8.005 1.466 2.384 1.54 4.023 3.914 4.618 6.685.596 2.773.074 5.615-1.467 8.001-1.541 2.385-3.915 4.027-6.687 4.622l-102.064 21.941c-5.761 1.243-11.617 1.335-17.412.274-5.812-1.062-11.258-3.22-16.199-6.422-13.377-8.639-29.327-11.556-44.916-8.212l-1.809.39c.329-2.329.511-4.705.511-7.124 0-9.968-2.905-19.264-7.895-27.11l27.186-5.84c6.524-1.4 13.389-1.314 19.854.247 4.027.974 8.078-1.502 9.052-5.528.973-4.026-1.502-8.079-5.528-9.052-8.642-2.089-17.813-2.204-26.527-.333l-35.017 7.523v-15.443c-.002-17.533-14.267-31.798-31.8-31.798-8.497 0-16.483 3.307-22.487 9.311-6.011 6.011-9.321 13.997-9.321 22.487v16.129c-5.333 4.312-9.773 9.681-13.004 15.788l-35.669 7.669c-15.581 3.35-28.923 12.564-37.568 25.946l-10.571 16.362c-6.471 10.017-16.459 16.914-28.122 19.421l-63.237 13.596c-13.812 2.97-22.633 16.624-19.664 30.437 1.438 6.689 5.396 12.419 11.147 16.135 5.756 3.728 12.662 4.963 19.289 3.53l21.71-4.668-64.574 105.665.003.002c-.012.02-.027.037-.039.057-1.354 2.263-1.421 5.071-.175 7.396 15.752 29.383 46.226 47.637 79.527 47.637s63.774-18.253 79.526-47.637c1.246-2.324 1.18-5.132-.175-7.396-.012-.02-.027-.037-.039-.057l.003-.002-67.994-111.269 54.282-11.671c15.592-3.353 28.935-12.568 37.568-25.946 3.193-4.942 7.274-9.151 12.128-12.507 4.849-3.349 10.23-5.675 15.994-6.915l9.652-2.075v137.018c0 12.408-6.576 24.135-17.159 30.604-7.422 4.531-13.593 10.937-17.842 18.521-4.254 7.579-6.502 16.185-6.502 24.887v9.684h-24.681c-15.713 0-28.497 12.784-28.497 28.498 0 4.879 1.234 9.475 3.404 13.494h-30.256c-33.603 0-60.939 27.337-60.939 60.94 0 33.597 27.337 60.93 60.939 60.93h344.28c12.87 0 23.34-10.466 23.34-23.33 0-12.87-10.47-23.34-23.34-23.34h-16.363v-28.531h16.363c12.87 0 23.34-10.466 23.34-23.33 0-12.87-10.47-23.34-23.34-23.34h-67.855c2.17-4.019 3.404-8.615 3.404-13.494 0-15.713-12.784-28.498-28.497-28.498h-24.681v-9.684c0-17.601-9.327-34.233-24.343-43.408-5.235-3.196-9.587-7.714-12.589-13.07-2.997-5.34-4.581-11.403-4.581-17.534v-137.694c5.337-4.314 9.781-9.686 13.014-15.796l10.311-2.22c11.667-2.502 23.612-.32 33.617 6.141 6.599 4.277 13.884 7.166 21.648 8.584 7.738 1.418 15.569 1.295 23.268-.365l24.753-5.321-64.972 106.321.003.002c-.012.02-.027.037-.039.057-1.354 2.263-1.421 5.071-.175 7.396 15.753 29.383 46.227 47.636 79.527 47.636s63.774-18.253 79.527-47.636c1.246-2.325 1.18-5.133-.175-7.396-.009-.02-.024-.037-.036-.057zm-424.82-27.313 59.544 97.438h-119.089zm0 141.118c-23.314 0-44.965-10.731-59.085-28.68h118.169c-14.119 17.948-35.771 28.68-59.084 28.68zm155.945-306.101c0-4.483 1.75-8.702 4.929-11.88 3.171-3.171 7.39-4.917 11.88-4.917 9.263 0 16.798 7.536 16.798 16.798v7.737c-5.26-1.854-10.911-2.874-16.798-2.874-5.891 0-11.545 1.021-16.809 2.877zm16.809 19.863c19.67 0 35.673 16.003 35.673 35.673s-16.003 35.673-35.673 35.673c-19.671 0-35.674-16.003-35.674-35.673s16.003-35.673 35.674-35.673zm-65.983 72.414c-6.483 4.483-11.934 10.104-16.202 16.71-6.461 10.013-16.447 16.909-28.119 19.418l-102.058 21.943c-5.556 1.316-11.535-2.549-12.619-8.152-1.231-5.727 2.426-11.388 8.152-12.619l63.236-13.596c15.581-3.35 28.924-12.564 37.569-25.946l10.571-16.362c6.377-9.871 16.627-16.95 28.121-19.421l27.167-5.841c-.33 2.33-.511 4.706-.511 7.126 0 9.967 2.904 19.262 7.893 27.108l-1.834.394c-7.697 1.654-14.885 4.762-21.366 9.238zm265.262 289.395c0 4.593-3.741 8.33-8.34 8.33h-344.28c-16.14 0-29.27 13.13-29.27 29.27 0 16.134 13.13 29.26 29.27 29.26h27.721c4.143 0 7.5-3.358 7.5-7.5s-3.357-7.5-7.5-7.5h-27.721c-7.868 0-14.27-6.397-14.27-14.26 0-7.869 6.401-14.27 14.27-14.27h312.917v28.53h-250.217c-4.143 0-7.5 3.358-7.5 7.5s3.357 7.5 7.5 7.5h281.58c4.599 0 8.34 3.741 8.34 8.34 0 4.593-3.741 8.33-8.34 8.33h-344.28c-25.331 0-45.939-20.604-45.939-45.93 0-25.332 20.608-45.94 45.939-45.94h344.28c4.599 0 8.34 3.742 8.34 8.34zm-87.791-36.834c0 7.42-6.019 13.457-13.43 13.494h-196.118c-7.411-.037-13.43-6.074-13.43-13.494 0-7.442 6.055-13.498 13.497-13.498h195.983c7.443.001 13.498 6.056 13.498 13.498zm-88.192-87.322c4.255 7.593 10.429 14.002 17.854 18.535 10.585 6.467 17.161 18.195 17.161 30.606v9.684h-116.623v-9.684c0-6.137 1.585-12.204 4.585-17.55 2.997-5.348 7.345-9.862 12.579-13.058 15.013-9.177 24.339-25.809 24.339-43.405v-129.313c5.263 1.856 10.918 2.877 16.809 2.877 5.887 0 11.537-1.02 16.798-2.874v129.31c0 8.697 2.248 17.299 6.498 24.872zm209.001-68.812h-119.089l59.544-97.438zm-59.544 43.681c-23.313 0-44.964-10.731-59.084-28.68h118.168c-14.12 17.948-35.771 28.68-59.084 28.68z"/></g></svg>