<svg id="Capa_1" enable-background="new 0 0 512 512" height="512" viewBox="0 0 512 512" width="512" xmlns="http://www.w3.org/2000/svg"><g><path d="m472.095 417.789v-83.369h10.455c7.858 0 15.251-3.058 20.83-8.623 5.559-5.573 8.621-12.966 8.621-20.817 0-16.239-13.211-29.45-29.45-29.45h-30.46c-4.142 0-7.5 3.358-7.5 7.5s3.358 7.5 7.5 7.5h30.46c7.968 0 14.45 6.482 14.45 14.45 0 3.852-1.506 7.482-4.227 10.21-2.734 2.728-6.365 4.23-10.223 4.23h-302.351c-7.968 0-14.45-6.478-14.45-14.44 0-3.858 1.503-7.487 4.24-10.224 2.719-2.726 6.345-4.227 10.21-4.227h236.89c4.142 0 7.5-3.358 7.5-7.5s-3.358-7.5-7.5-7.5h-127.32v-50.7c0-11.894-9.676-21.57-21.57-21.57h-113.78c-13.154 0-25.498-5.179-34.759-14.582-9.263-9.405-14.253-21.84-14.052-35.014.403-26.502 22.686-48.064 49.671-48.064h112.92c11.894 0 21.57-9.676 21.57-21.57v-62.459c0-11.894-9.676-21.57-21.57-21.57h-113.78c-37.779 0-74.137 13.782-102.375 38.807-3.1 2.747-3.386 7.487-.638 10.587 2.746 3.1 7.486 3.386 10.587.639 25.492-22.592 58.316-35.033 92.426-35.033h35.57v75.6h-34.71c-32.598 0-59.908 24.273-64.102 55.453h-75.907c1.515-25.636 9.957-50.121 24.692-71.265 2.368-3.398 1.533-8.073-1.865-10.441-3.398-2.367-8.073-1.534-10.441 1.865-18.114 25.992-27.677 56.53-27.657 88.312.051 83.497 67.353 151.712 151.003 154.254 1.871 14.444 14.246 25.642 29.197 25.642h34.267l-27.341 75.361c-9.753-1.888-19.82-.671-28.993 3.617-11.47 5.363-20.166 14.873-24.484 26.775-8.915 24.572 3.823 51.815 28.396 60.73 5.319 1.93 10.763 2.845 16.12 2.845 19.387 0 37.625-11.988 44.61-31.24 8.044-22.173-1.547-46.516-21.549-57.609l29.198-80.479h67.052v83.37c-22.588 3.608-39.906 23.222-39.906 46.81 0 5.611.979 11.121 2.91 16.377 1.428 3.887 5.735 5.882 9.627 4.453 3.888-1.429 5.881-5.739 4.453-9.627-1.321-3.594-1.99-7.363-1.99-11.203 0-17.871 14.539-32.41 32.41-32.41 17.865 0 32.4 14.539 32.4 32.41 0 17.865-14.535 32.4-32.4 32.4-3.433 0-6.801-.532-10.012-1.58-3.941-1.289-8.172.864-9.458 4.801-1.286 3.938.864 8.172 4.801 9.458 4.716 1.54 9.651 2.321 14.668 2.321 16.737 0 31.465-8.728 39.901-21.863 8.439 13.135 23.167 21.863 39.905 21.863 16.739 0 31.468-8.728 39.905-21.865 8.437 13.137 23.167 21.865 39.905 21.865 26.139 0 47.405-21.266 47.405-47.405 0-23.587-17.318-43.199-39.905-46.806zm-267.105-402.789h63.21c3.623 0 6.57 2.947 6.57 6.57v62.46c0 3.623-2.947 6.57-6.57 6.57h-63.21zm69.78 209.83v50.7h-69.78v-57.27h63.21c3.623 0 6.57 2.947 6.57 6.57zm-259.606-63.777h75.796c1.474 14.356 7.713 27.691 18.014 38.151 12.103 12.289 28.243 19.056 45.446 19.056h35.57v57.27h-9.79c-7.879 0-15.277 3.066-20.823 8.627-2.812 2.812-4.983 6.094-6.445 9.667-74.072-1.495-134.308-59.912-137.768-132.771zm193.511 306.34c-6.094 16.797-24.717 25.506-41.514 19.411-8.137-2.952-14.637-8.896-18.303-16.737-3.667-7.841-4.06-16.64-1.107-24.777 2.952-8.137 8.896-14.637 16.737-18.303 4.365-2.041 9.025-3.067 13.705-3.067 3.726 0 7.465.651 11.072 1.96 16.796 6.093 25.504 24.716 19.41 41.513zm248.42-49.604c-13.585 2.169-25.254 10.132-32.405 21.266-7.151-11.134-18.82-19.097-32.405-21.266v-83.369h64.81zm-144.619 0v-83.369h64.81v83.369c-13.586 2.169-25.255 10.133-32.405 21.267-7.152-11.135-18.821-19.099-32.405-21.267zm72.309 79.211c-17.868 0-32.405-14.537-32.405-32.405s14.537-32.405 32.405-32.405 32.405 14.537 32.405 32.405-14.537 32.405-32.405 32.405zm79.81 0c-17.868 0-32.405-14.537-32.405-32.405s14.537-32.405 32.405-32.405 32.405 14.537 32.405 32.405-14.537 32.405-32.405 32.405z"/><path d="m421.797 246.744c.847.308 1.712.454 2.564.454 3.063 0 5.94-1.892 7.048-4.937 3.146-8.643 2.737-17.994-1.15-26.331s-10.788-14.66-19.432-17.806c-17.843-6.494-37.642 2.739-44.137 20.581-3.665 10.07-14.838 15.282-24.912 11.616-10.07-3.665-15.281-14.84-11.616-24.911 1.417-3.892-.59-8.196-4.483-9.613-3.892-1.416-8.197.59-9.613 4.483-6.494 17.843 2.739 37.643 20.581 44.137 17.844 6.494 37.643-2.738 44.138-20.582 3.665-10.07 14.841-15.281 24.911-11.616 4.878 1.775 8.773 5.344 10.967 10.049 2.194 4.706 2.425 9.983.649 14.862-1.415 3.893.592 8.197 4.485 9.614z"/><path d="m336.649 106.217c17.844 6.494 37.643-2.738 44.138-20.582 3.665-10.07 14.841-15.282 24.911-11.616 4.878 1.775 8.773 5.344 10.967 10.049 2.194 4.706 2.425 9.983.649 14.862-1.417 3.892.59 8.196 4.483 9.613.847.308 1.712.454 2.564.454 3.063 0 5.94-1.892 7.048-4.937 3.146-8.643 2.737-17.994-1.15-26.331s-10.788-14.66-19.432-17.806c-17.843-6.494-37.642 2.739-44.137 20.581-3.665 10.071-14.838 15.283-24.912 11.616-4.878-1.775-8.773-5.344-10.967-10.049-2.194-4.706-2.425-9.983-.649-14.862 1.417-3.892-.59-8.196-4.483-9.613-3.892-1.416-8.196.59-9.613 4.483-3.146 8.643-2.737 17.994 1.15 26.331s10.79 14.661 19.433 17.807z"/></g></svg>