<svg id="Capa_1" enable-background="new 0 0 511.999 511.999" height="512" viewBox="0 0 511.999 511.999" width="512" xmlns="http://www.w3.org/2000/svg"><g><path d="m485.468 458.949h-21.182v-37.33h21.182c14.628 0 26.53-11.897 26.53-26.52 0-14.629-11.901-26.53-26.53-26.53h-41.005c3.502-5.282 5.548-11.61 5.548-18.409 0-15.84-11.085-29.132-25.903-32.548v-53.992c0-9.045-1.456-17.929-4.326-26.406-1.329-3.922-5.584-6.024-9.51-4.698-3.923 1.329-6.026 5.586-4.698 9.51 2.345 6.924 3.534 14.189 3.534 21.594v53.13h-139.089v-53.13c0-25.411 14.364-48.636 36.859-60.091 10.021 4.665 21.12 7.264 32.687 7.264 11.568 0 22.669-2.599 32.691-7.265 6.082 3.094 11.646 7.081 16.569 11.895 1.459 1.426 3.351 2.137 5.243 2.137 1.948 0 3.894-.754 5.363-2.257 2.896-2.961 2.842-7.71-.12-10.606-3.843-3.758-8.016-7.091-12.46-10.006 12.939-9.902 22.792-23.787 27.516-40.019 11.63-1.238 20.72-11.108 20.72-23.061 0-12.237-9.528-22.291-21.555-23.134-3.888-11.833-10.524-22.473-19.457-31.213v-69.763c0-3.353-2.225-6.298-5.45-7.214-3.226-.917-6.666.418-8.429 3.27l-17.125 27.703-17.125-27.702c-1.367-2.21-3.78-3.556-6.379-3.556s-5.013 1.346-6.379 3.556l-17.127 27.702-17.125-27.702c-1.763-2.852-5.207-4.189-8.429-3.27-3.225.916-5.45 3.862-5.45 7.214v69.762c-8.934 8.74-15.57 19.38-19.458 31.214-12.027.843-21.555 10.897-21.555 23.134 0 11.953 9.09 21.823 20.72 23.061 4.724 16.231 14.575 30.115 27.513 40.016-22.973 15.074-37.257 40.914-37.257 68.931v53.993c-5.034 1.161-9.638 3.458-13.521 6.612-1.896-.91-3.867-1.637-5.908-2.14v-33.242c0-25.513-12.836-49.067-33.546-63.039 10.975-8.625 19.31-20.318 23.789-33.788h.687c12.532 0 22.728-10.196 22.728-22.728 0-6.072-2.366-11.781-6.662-16.076-4.289-4.29-9.995-6.653-16.066-6.653h-.687c-6.805-20.455-22.478-36.873-42.867-44.559-4.74-1.783-9.628-3.036-14.61-3.781 3.933-7.803 11.639-18.788 25.209-23.431 3.919-1.341 6.009-5.604 4.668-9.524-1.341-3.918-5.605-6.011-9.524-4.668-14.555 4.979-23.959 14.91-29.811 23.921-2.205-3.664-4.943-7.154-8.148-10.359-2.929-2.929-7.678-2.929-10.606 0-2.929 2.929-2.929 7.678 0 10.606 4.856 4.856 7.351 9.566 8.635 13.186-27.474 3.361-50.592 22.184-59.34 48.609h-.681c-12.532 0-22.728 10.196-22.728 22.728 0 6.061 2.359 11.767 6.662 16.086 4.299 4.284 10.005 6.643 16.066 6.643h.68c4.526 13.674 12.9 25.314 23.732 33.83-20.674 13.977-33.484 37.51-33.484 62.997v33.24c-5.465 1.343-10.479 4.152-14.561 8.234-5.894 5.894-9.14 13.728-9.14 22.061 0 6.263 1.863 12.096 5.054 16.988-34.498 5.169-61.039 34.997-61.039 70.912 0 39.546 32.169 71.72 71.71 71.72h413.758c14.628 0 26.53-11.901 26.53-26.53-.001-14.622-11.902-26.519-26.531-26.519zm-175.786-409.482c1.367 2.21 3.78 3.556 6.379 3.556s5.013-1.346 6.379-3.556l17.125-27.702 17.125 27.702c1.367 2.21 3.78 3.556 6.379 3.556s5.013-1.346 6.379-3.556l9.625-15.57v38.385h-79.019v-38.386zm-31.688 96.31c-.724-3.479-3.789-5.973-7.343-5.973h-3.416c-4.517 0-8.191-3.675-8.191-8.192s3.675-8.191 8.191-8.191h4.021c3.448 0 6.451-2.35 7.28-5.697 2.898-11.699 9.005-22.168 17.728-30.441h86.602c8.724 8.272 14.83 18.742 17.728 30.441.829 3.347 3.832 5.697 7.28 5.697h4.021c4.517 0 8.191 3.675 8.191 8.191 0 4.517-3.675 8.192-8.191 8.192h-3.416c-3.553 0-6.619 2.494-7.343 5.973-6.028 28.981-31.923 50.016-61.572 50.016-29.648 0-55.542-21.035-61.57-50.016zm-15.466 185.975h154.074c10.151 0 18.409 8.258 18.409 18.409 0 10.147-8.253 18.403-18.399 18.409h-154.094c-10.146-.005-18.399-8.261-18.399-18.409-.001-10.151 8.258-18.409 18.409-18.409zm-160.152-149.004c-.816-3.364-3.828-5.733-7.289-5.733h-6.329c-2.065 0-4.011-.806-5.46-2.249-1.462-1.468-2.268-3.414-2.268-5.479 0-4.262 3.467-7.728 7.728-7.728h6.329c3.461 0 6.473-2.369 7.289-5.732 6.2-25.564 28.923-43.418 55.258-43.418 6.899 0 13.645 1.222 20.046 3.629 17.613 6.639 30.78 21.515 35.223 39.792.817 3.362 3.828 5.728 7.288 5.728h6.329c2.064 0 4.003.802 5.46 2.259 1.462 1.462 2.268 3.405 2.268 5.469 0 4.262-3.467 7.728-7.728 7.728h-6.329c-3.46 0-6.471 2.367-7.288 5.729-4.453 18.326-17.658 33.219-35.325 39.839-6.36 2.384-13.07 3.593-19.944 3.593-26.336.001-49.059-17.857-55.258-43.427zm-7.69 106.095c0-22.851 12.828-43.744 32.953-54.178 9.176 4.198 19.351 6.511 29.994 6.511 8.678 0 17.16-1.53 25.208-4.547 1.613-.604 3.185-1.282 4.738-1.994 20.159 10.424 33.011 31.335 33.011 54.208v32.335h-125.904zm-18.955 52.081c3.061-3.061 7.129-4.746 11.455-4.746h140.904c1.331 0 2.635.161 3.893.471-1.836 4.134-2.865 8.704-2.865 13.512 0 6.329 1.769 12.251 4.838 17.301-1.847.719-3.826 1.107-5.866 1.107h-140.904c-8.934 0-16.201-7.263-16.201-16.19 0-4.326 1.686-8.395 4.746-11.455zm409.737 156.075h-413.758c-31.27 0-56.71-25.445-56.71-56.72 0-31.27 25.44-56.71 56.71-56.71h413.758c6.357 0 11.53 5.172 11.53 11.53 0 6.352-5.172 11.52-11.53 11.52h-413.758c-18.56 0-33.66 15.104-33.66 33.67 0 18.56 15.1 33.66 33.66 33.66h37.86c4.142 0 7.5-3.358 7.5-7.5s-3.358-7.5-7.5-7.5h-37.86c-10.289 0-18.66-8.371-18.66-18.66 0-10.294 8.371-18.67 18.66-18.67h377.576v37.33h-304.736c-4.142 0-7.5 3.358-7.5 7.5s3.358 7.5 7.5 7.5h340.918c6.357 0 11.53 5.168 11.53 11.52 0 6.357-5.172 11.53-11.53 11.53z"/><path d="m157.637 203.647c9.868 0 19.736-3.756 27.248-11.268 2.929-2.929 2.929-7.678 0-10.606-2.929-2.929-7.678-2.929-10.606 0-9.177 9.177-24.107 9.177-33.284 0-2.929-2.929-7.678-2.929-10.606 0-2.929 2.929-2.929 7.678 0 10.606 7.512 7.512 17.38 11.268 27.248 11.268z"/><path d="m173.22 163.494c4.142 0 7.5-3.358 7.5-7.5v-13.297c0-4.142-3.358-7.5-7.5-7.5s-7.5 3.358-7.5 7.5v13.297c0 4.142 3.358 7.5 7.5 7.5z"/><path d="m142.053 163.494c4.142 0 7.5-3.358 7.5-7.5v-13.297c0-4.142-3.358-7.5-7.5-7.5s-7.5 3.358-7.5 7.5v13.297c0 4.142 3.358 7.5 7.5 7.5z"/><path d="m339.565 169.764c10.609 0 21.222-4.04 29.299-12.117 2.929-2.929 2.929-7.677 0-10.606-2.928-2.93-7.677-2.929-10.606 0-10.307 10.307-27.077 10.308-37.385 0-2.929-2.929-7.678-2.929-10.606 0-2.929 2.929-2.929 7.678 0 10.606 8.078 8.079 18.686 12.117 29.298 12.117z"/><path d="m356.605 125.859c4.142 0 7.5-3.358 7.5-7.5v-14.539c0-4.142-3.358-7.5-7.5-7.5s-7.5 3.358-7.5 7.5v14.539c0 4.142 3.358 7.5 7.5 7.5z"/><path d="m322.525 125.859c4.142 0 7.5-3.358 7.5-7.5v-14.539c0-4.142-3.358-7.5-7.5-7.5s-7.5 3.358-7.5 7.5v14.539c0 4.142 3.358 7.5 7.5 7.5z"/></g></svg>