<svg id="Capa_1" enable-background="new 0 0 512 512" height="512" viewBox="0 0 512 512" width="512" xmlns="http://www.w3.org/2000/svg"><g><path d="m221.177 147.541c0 19.202 15.622 34.823 34.823 34.823s34.823-15.622 34.823-34.823-15.622-34.823-34.823-34.823-34.823 15.621-34.823 34.823zm54.646 0c0 10.931-8.893 19.823-19.823 19.823s-19.823-8.893-19.823-19.823 8.893-19.823 19.823-19.823 19.823 8.892 19.823 19.823z"/><path d="m485.42 395.94h-140.526c4.688-4.809 8.588-10.42 11.511-16.687 6.819-14.623 7.536-31.025 2.018-46.185l-5.936-16.309h41.344c4.143 0 7.5-3.358 7.5-7.5s-3.357-7.5-7.5-7.5h-46.804l-38.694-106.31c11.579-12.637 18.657-29.461 18.657-47.91 0-6.948-.998-13.794-2.968-20.348-1.191-3.967-5.373-6.217-9.341-5.024-3.967 1.191-6.217 5.374-5.024 9.341 1.548 5.153 2.333 10.547 2.333 16.032 0 30.873-25.117 55.99-55.99 55.99s-55.99-25.117-55.99-55.99 25.117-55.99 55.99-55.99c13.687 0 26.856 4.994 37.084 14.062 3.1 2.748 7.84 2.463 10.587-.636 2.748-3.099 2.464-7.839-.636-10.587-4.409-3.909-9.256-7.205-14.405-9.875v-60.144c0-13.437-10.933-24.37-24.37-24.37h-16.52c-13.438 0-24.37 10.933-24.37 24.37v60.155c-22.766 11.836-38.36 35.632-38.36 63.015 0 18.452 7.081 35.279 18.663 47.916l-38.696 106.304h-46.807c-4.143 0-7.5 3.358-7.5 7.5s3.357 7.5 7.5 7.5h41.347l-5.615 15.425c-1.417 3.892.59 8.196 4.482 9.613.847.309 1.713.455 2.564.455 3.063 0 5.94-1.891 7.049-4.937l47.798-131.31c8.328 5.745 17.936 9.75 28.303 11.508l3.919 10.767-60.041 164.97c-9.927-5.589-17.375-14.689-20.91-25.803-1.256-3.948-5.475-6.131-9.421-4.874-3.947 1.255-6.129 5.473-4.874 9.42 2.919 9.176 7.854 17.311 14.33 23.946h-140.521c-14.656 0-26.58 11.924-26.58 26.58v62.9c0 14.656 11.924 26.58 26.58 26.58h380.47c4.143 0 7.5-3.358 7.5-7.5s-3.357-7.5-7.5-7.5h-380.47c-6.385 0-11.58-5.195-11.58-11.58v-62.9c0-6.385 5.195-11.58 11.58-11.58h6.497v22.974c0 12.194 9.921 22.115 22.115 22.115 12.193 0 22.114-9.92 22.114-22.115v-22.974h22.707v22.974c0 12.194 9.921 22.115 22.114 22.115 12.194 0 22.115-9.92 22.115-22.115v-22.974h22.706v22.974c0 12.194 9.921 22.115 22.115 22.115 12.193 0 22.114-9.92 22.114-22.115v-22.974h22.706v22.974c0 12.194 9.921 22.115 22.115 22.115s22.115-9.92 22.115-22.115v-22.974h22.706v22.974c0 12.194 9.921 22.115 22.114 22.115 12.194 0 22.115-9.92 22.115-22.115v-22.974h22.706v22.974c0 12.194 9.921 22.115 22.115 22.115 12.193 0 22.114-9.92 22.114-22.115v-22.974h22.707v22.974c0 12.194 9.921 22.115 22.114 22.115 12.194 0 22.115-9.92 22.115-22.115v-22.974h6.497c6.385 0 11.58 5.195 11.58 11.58v62.9c0 6.385-5.195 11.58-11.58 11.58h-43.37c-4.143 0-7.5 3.358-7.5 7.5s3.357 7.5 7.5 7.5h43.37c14.656 0 26.58-11.924 26.58-26.58v-62.9c.004-14.656-11.92-26.58-26.576-26.58zm-247.05-371.57c0-5.167 4.203-9.37 9.37-9.37h16.52c5.167 0 9.37 4.204 9.37 9.37v54.419c-5.716-1.465-11.631-2.239-17.63-2.239-6.084 0-11.991.771-17.63 2.218zm-35.408 371.567 28.817-79.177h16.721v9.691c0 4.142 3.357 7.5 7.5 7.5s7.5-3.358 7.5-7.5v-9.691h16.724l28.819 79.177h-.721c-.02 0-.039.003-.058.003zm139.848-23.024c-4.053 8.691-10.59 15.722-18.783 20.335l-63.647-174.867c13.247-.811 25.52-5.266 35.831-12.381l48.116 132.198c4.148 11.395 3.609 23.724-1.517 34.715zm-68.046-71.153h-11.264v-9.697c0-4.142-3.357-7.5-7.5-7.5s-7.5 3.358-7.5 7.5v9.697h-11.262l18.762-51.552zm-212.457 132.154c0 3.923-3.191 7.115-7.114 7.115-3.924 0-7.115-3.192-7.115-7.115v-22.974h14.229zm66.936 0c0 3.923-3.191 7.115-7.115 7.115-3.923 0-7.114-3.192-7.114-7.115v-22.974h14.229zm66.936 0c0 3.923-3.191 7.115-7.114 7.115-3.924 0-7.115-3.192-7.115-7.115v-22.974h14.229zm66.936 0c0 3.923-3.191 7.115-7.115 7.115s-7.115-3.192-7.115-7.115v-22.974h14.23zm66.936 0c0 3.923-3.191 7.115-7.115 7.115-3.923 0-7.114-3.192-7.114-7.115v-22.974h14.229zm66.935 0c0 3.923-3.191 7.115-7.114 7.115-3.924 0-7.115-3.192-7.115-7.115v-22.974h14.229zm66.937 0c0 3.923-3.191 7.115-7.115 7.115-3.923 0-7.114-3.192-7.114-7.115v-22.974h14.229z"/></g></svg>