<svg id="Capa_1" enable-background="new 0 0 512 512" height="512" viewBox="0 0 512 512" width="512" xmlns="http://www.w3.org/2000/svg"><g><path d="m482.75 109.38h-3.068v-43.069c0-4.142-3.358-7.5-7.5-7.5h-165.612c-21.67 0-40.592 11.94-50.569 29.578-8.81-15.576-24.6-26.692-43.097-29.081-.296-8.353-3.68-16.163-9.624-22.107-6.231-6.216-14.502-9.64-23.289-9.64-.001 0-.002 0-.003 0v-.002h-50.879c-17.597 0-32.015 13.87-32.897 31.251h-56.392c-4.142 0-7.5 3.358-7.5 7.5v43.07h-3.07c-16.128 0-29.25 13.118-29.25 29.241v290.67c0 16.128 13.122 29.25 29.25 29.25h172.434c2.533 14.689 15.365 25.9 30.767 25.9h47.1c15.401 0 28.234-11.211 30.767-25.9h74.882c4.142 0 7.5-3.358 7.5-7.5s-3.358-7.5-7.5-7.5h-74.43v-20.807h161.412c4.142 0 7.5-3.358 7.5-7.5v-290.854h3.068c7.857 0 14.25 6.388 14.25 14.24v290.67c0 7.857-6.393 14.25-14.25 14.25h-62.61c-4.142 0-7.5 3.358-7.5 7.5s3.358 7.5 7.5 7.5h62.61c16.128 0 29.25-13.122 29.25-29.25v-290.67c0-16.122-13.122-29.24-29.25-29.24zm-302.758-66.819c4.787 0 9.295 1.868 12.688 5.253 2.985 2.986 4.785 6.841 5.171 10.997h-35.715c.856-9.102 8.534-16.25 17.856-16.25zm-68.822 17.938c0-9.892 8.048-17.939 17.939-17.939h23.278c-3.37 5.167-5.337 11.328-5.337 17.943l-.001 263.747-14.788-8.956c-2.448-1.482-5.526-1.443-7.936.103l-13.155 8.441zm90.063 383.042h-171.983c-7.857 0-14.25-6.393-14.25-14.25v-290.67c0-7.852 6.393-14.24 14.25-14.24h3.07v36.83c0 4.142 3.358 7.5 7.5 7.5s7.5-3.358 7.5-7.5v-87.4h48.85v40.73h-9.48c-4.142 0-7.5 3.358-7.5 7.5s3.358 7.5 7.5 7.5h9.48v17.39h-9.48c-4.142 0-7.5 3.358-7.5 7.5s3.358 7.5 7.5 7.5h9.48v17.4h-9.48c-4.142 0-7.5 3.358-7.5 7.5s3.358 7.5 7.5 7.5h9.48v17.39h-9.48c-4.142 0-7.5 3.358-7.5 7.5s3.358 7.5 7.5 7.5h9.48v17.4h-9.48c-4.142 0-7.5 3.358-7.5 7.5s3.358 7.5 7.5 7.5h9.48v17.39h-9.48c-4.142 0-7.5 3.358-7.5 7.5s3.358 7.5 7.5 7.5h9.48v46.05c0 2.742 1.497 5.266 3.903 6.581 1.123.614 2.361.919 3.596.919 1.412 0 2.82-.398 4.051-1.188l20.77-13.326 22.174 13.429c2.316 1.403 5.208 1.448 7.567.119s3.818-3.827 3.818-6.534v-46.05h19.481c4.142 0 7.5-3.358 7.5-7.5s-3.358-7.5-7.5-7.5h-19.481v-17.39h47.941c4.142 0 7.5-3.358 7.5-7.5s-3.358-7.5-7.5-7.5h-47.941v-17.4h47.941c4.142 0 7.5-3.358 7.5-7.5s-3.358-7.5-7.5-7.5h-47.941v-17.39h47.941c4.142 0 7.5-3.358 7.5-7.5s-3.358-7.5-7.5-7.5h-47.941v-17.4h47.941c4.142 0 7.5-3.358 7.5-7.5s-3.358-7.5-7.5-7.5h-47.941v-17.39h47.941c4.142 0 7.5-3.358 7.5-7.5s-3.358-7.5-7.5-7.5h-47.941v-40.73h43.381c23.749 0 43.07 19.321 43.07 43.07v259.394c-.649-.716-1.319-1.419-2.007-2.107-10.967-10.967-25.55-17.007-41.063-17.007h-158.109l-.001-160.95c0-4.142-3.358-7.5-7.5-7.5s-7.5 3.358-7.5 7.5l.001 219.023c0 4.142 3.358 7.5 7.5 7.5h161.412zm-153.912-35.807v-35.573h158.109c11.506 0 22.323 4.479 30.457 12.613 6.338 6.338 10.444 14.308 11.954 22.96zm248.449 45.487c0 8.944-7.276 16.22-16.22 16.22h-47.1c-8.944 0-16.22-7.276-16.22-16.22l.003-30.487h79.537zm168.912-45.487h-200.513c3.561-20.183 21.212-35.568 42.401-35.568h158.112zm0-50.569h-158.112c-17.065 0-32.435 7.4-43.068 19.158v-259.443c0-23.748 19.32-43.068 43.068-43.068h158.112z"/><path d="m294.514 122.041c0 4.142 3.358 7.5 7.5 7.5h123.299c4.142 0 7.5-3.358 7.5-7.5s-3.358-7.5-7.5-7.5h-123.299c-4.142 0-7.5 3.358-7.5 7.5z"/><path d="m425.313 146.935h-123.299c-4.142 0-7.5 3.358-7.5 7.5s3.358 7.5 7.5 7.5h123.299c4.142 0 7.5-3.358 7.5-7.5s-3.358-7.5-7.5-7.5z"/><path d="m425.313 179.329h-123.299c-4.142 0-7.5 3.358-7.5 7.5s3.358 7.5 7.5 7.5h123.299c4.142 0 7.5-3.358 7.5-7.5s-3.358-7.5-7.5-7.5z"/><path d="m425.313 211.723h-123.299c-4.142 0-7.5 3.358-7.5 7.5s3.358 7.5 7.5 7.5h123.299c4.142 0 7.5-3.358 7.5-7.5s-3.358-7.5-7.5-7.5z"/><path d="m425.313 244.117h-123.299c-4.142 0-7.5 3.358-7.5 7.5s3.358 7.5 7.5 7.5h123.299c4.142 0 7.5-3.358 7.5-7.5s-3.358-7.5-7.5-7.5z"/><path d="m376.392 276.511h-74.378c-4.142 0-7.5 3.358-7.5 7.5s3.358 7.5 7.5 7.5h74.378c4.142 0 7.5-3.358 7.5-7.5s-3.358-7.5-7.5-7.5z"/></g></svg>