<svg id="Capa_1" enable-background="new 0 0 511.999 511.999" height="512" viewBox="0 0 511.999 511.999" width="512" xmlns="http://www.w3.org/2000/svg"><g><path d="m509.175 108.179-42.24-80.2c-6.269-11.89-21.043-16.469-32.929-10.207l-13.209 6.96c-3.665 1.931-5.07 6.467-3.14 10.131 1.931 3.663 6.465 5.072 10.131 3.139l13.208-6.959c4.569-2.409 10.255-.646 12.668 3.929l42.243 80.204c1.166 2.21 1.4 4.744.659 7.135-.743 2.395-2.375 4.358-4.592 5.527l-115.319 60.739c-2.216 1.168-4.754 1.404-7.148.662-2.392-.741-4.351-2.369-5.517-4.582l-42.241-80.2c-1.169-2.218-1.405-4.757-.665-7.149.74-2.391 2.368-4.349 4.586-5.516l71.188-37.499c3.665-1.93 5.071-6.466 3.141-10.131-1.93-3.664-6.467-5.071-10.13-3.14l-71.185 37.497c-5.764 3.033-10.001 8.13-11.927 14.353-1.534 4.955-1.452 10.15.179 14.969l-127.801 67.321c-4.719 2.486-8.187 6.661-9.767 11.755-1.486 4.794-1.108 9.857 1.011 14.37l-68.729 36.203-20.053-38.068.412-.217c5.661-2.982 9.822-7.99 11.716-14.102 1.894-6.111 1.295-12.595-1.686-18.256-6.156-11.686-20.671-16.184-32.357-10.03l-46.88 24.695c-5.661 2.982-9.821 7.99-11.716 14.101-1.894 6.112-1.295 12.595 1.687 18.256 4.285 8.135 12.621 12.787 21.233 12.787 3.76 0 7.572-.887 11.124-2.757l.412-.217 20.053 38.068-11.817 6.225c-10.27 5.41-14.224 18.166-8.814 28.436l8.526 16.186c2.621 4.975 7.022 8.632 12.393 10.296 2.058.638 4.163.954 6.258.954 3.372 0 6.717-.82 9.786-2.436l126.601-66.689c2.524 4.3 6.485 7.475 11.28 8.961 1.952.605 3.949.905 5.936.905 3.199 0 6.371-.778 9.282-2.311l19.8-10.43 20.228 38.401c4.009 7.611 9.835 13.873 16.913 18.353v16.615h-2.131c-12.484 0-22.64 10.156-22.64 22.64 0 8.526 4.739 15.963 11.719 19.824l-25.259 48.191c-1.923 3.669-.507 8.201 3.161 10.124 3.67 1.923 8.201.507 10.125-3.161l27.432-52.338h15.995l-61.142 116.673c-1.228 2.344-3.633 3.8-6.276 3.8-4.392 0-7.11-3.685-7.11-7.1 0-1.122.28-2.224.833-3.278l14.04-26.789c1.923-3.669.507-8.201-3.161-10.124-3.668-1.922-8.201-.507-10.124 3.161l-14.038 26.786c-1.691 3.223-2.549 6.669-2.549 10.244 0 12.186 9.918 22.099 22.11 22.099 8.241 0 15.737-4.536 19.562-11.838l60.256-114.981 60.261 114.984c3.825 7.299 11.321 11.834 19.562 11.834 7.797 0 14.86-3.983 18.896-10.653 4.035-6.671 4.284-14.777.665-21.683l-55.531-105.951c6.98-3.861 11.719-11.298 11.719-19.824 0-12.484-10.157-22.64-22.641-22.64h-2.128v-24.609c13.577-14.681 17.18-36.915 7.343-55.589l-20.229-38.401 22.152-11.669c3.054 4.066 7.274 7.082 12.228 8.617 2.383.739 4.821 1.105 7.246 1.105 3.908 0 7.781-.95 11.335-2.824l115.319-60.739c5.761-3.037 9.996-8.135 11.924-14.353 1.932-6.224 1.321-12.823-1.716-18.575zm-493.132 98.7c-2.301-4.368-.619-9.795 3.749-12.096l46.88-24.695c1.327-.699 2.752-1.031 4.158-1.031 3.22 0 6.335 1.739 7.937 4.78 1.115 2.116 1.339 4.54.63 6.824-.708 2.285-2.263 4.157-4.38 5.271l-46.88 24.695c-4.366 2.302-9.792.62-12.094-3.748zm32.77 9.812 19.513-10.279 20.053 38.068-19.513 10.279zm16.123 91.449c-1.43.754-3.066.905-4.612.426-1.544-.479-2.809-1.53-3.562-2.96l-8.526-16.186c-.753-1.43-.905-3.068-.426-4.613.478-1.544 1.53-2.809 2.96-3.562l126.56-66.667 14.167 26.894zm153.098-59.134c-2.425 1.276-5.435.344-6.712-2.08l-27.277-51.783c-.619-1.174-.743-2.519-.35-3.787s1.256-2.307 2.431-2.925l127.518-67.172 27.743 52.665 4.166 7.911zm180.618 238.544c-.621 1.028-2.456 3.418-6.061 3.418-2.644 0-5.049-1.455-6.276-3.796l-61.147-116.675h15.997l57.701 110.097c1.673 3.193.408 5.928-.214 6.956zm-45.309-139.694c0 4.213-3.428 7.641-7.641 7.641l-65.864-.002c-.006 0-.013.001-.019.001-4.205-.009-7.623-3.433-7.623-7.64 0-4.213 3.428-7.64 7.64-7.64h65.866c4.213 0 7.641 3.427 7.641 7.64zm-56.377-22.639v-10.328c3.667.861 7.379 1.292 11.078 1.292 7.039 0 14.021-1.566 20.53-4.625v13.661zm40.68-73.208c8.615 16.355 2.318 36.67-14.037 45.285-7.924 4.173-16.998 5.012-25.55 2.361-8.553-2.651-15.562-8.474-19.736-16.397l-20.229-38.401 59.322-31.249z"/><path d="m308.182 290.674c13.46 0 24.411-10.951 24.411-24.411s-10.951-24.411-24.411-24.411-24.411 10.951-24.411 24.411 10.951 24.411 24.411 24.411zm0-33.823c5.189 0 9.412 4.222 9.412 9.412s-4.223 9.412-9.412 9.412-9.412-4.222-9.412-9.412c.001-5.19 4.223-9.412 9.412-9.412z"/><path d="m90.276 79.288 28.133 9.662 9.662 28.133c1.946 5.667 7.075 9.329 13.067 9.329s11.121-3.662 13.067-9.329l9.662-28.133 28.134-9.662c5.667-1.946 9.329-7.075 9.329-13.067s-3.662-11.121-9.329-13.067l-28.134-9.662-9.662-28.133c-1.946-5.667-7.075-9.329-13.067-9.329s-11.121 3.662-13.067 9.329l-9.662 28.133-28.133 9.662c-5.667 1.946-9.329 7.075-9.329 13.068 0 5.991 3.662 11.12 9.329 13.066zm36.471-22.801c2.187-.751 3.906-2.47 4.657-4.657l9.734-28.343 9.734 28.343c.751 2.187 2.47 3.906 4.657 4.657l28.343 9.734-28.343 9.734c-2.187.751-3.906 2.47-4.657 4.657l-9.734 28.343-9.734-28.343c-.751-2.187-2.47-3.906-4.657-4.657l-28.342-9.734z"/><path d="m499.58 259.942-28.135-9.662-9.661-28.134c-1.947-5.667-7.076-9.329-13.068-9.329s-11.121 3.662-13.068 9.329l-9.661 28.133-28.135 9.662c-5.667 1.946-9.328 7.076-9.328 13.067s3.661 11.121 9.328 13.067l28.135 9.662 9.661 28.134c1.947 5.667 7.076 9.329 13.068 9.329s11.121-3.662 13.068-9.329l9.661-28.133 28.135-9.662c5.667-1.946 9.328-7.076 9.328-13.067s-3.662-11.121-9.328-13.067zm-36.474 22.801c-2.187.751-3.905 2.47-4.657 4.657l-9.733 28.343-9.733-28.343c-.752-2.187-2.47-3.906-4.657-4.657l-28.344-9.734 28.344-9.734c2.187-.751 3.905-2.47 4.657-4.657l9.733-28.343 9.733 28.343c.752 2.187 2.47 3.906 4.657 4.657l28.344 9.734z"/><path d="m177.762 365.663-28.134-9.662-9.662-28.133c-1.946-5.667-7.075-9.329-13.067-9.329s-11.121 3.662-13.067 9.329l-9.662 28.133-28.133 9.662c-5.667 1.946-9.329 7.076-9.329 13.068s3.662 11.121 9.329 13.067l28.133 9.662 9.662 28.133c1.946 5.667 7.075 9.329 13.067 9.329s11.121-3.662 13.067-9.329l9.662-28.133 28.134-9.662c5.667-1.946 9.329-7.075 9.329-13.067 0-5.993-3.662-11.122-9.329-13.068zm-36.473 22.801c-2.187.751-3.906 2.47-4.657 4.657l-9.734 28.343-9.734-28.343c-.751-2.187-2.47-3.906-4.657-4.657l-28.342-9.734 28.342-9.734c2.187-.751 3.906-2.47 4.657-4.657l9.734-28.343 9.734 28.343c.751 2.187 2.47 3.906 4.657 4.657l28.343 9.734z"/></g></svg>