<svg id="Capa_1" enable-background="new 0 0 511.996 511.996" height="512" viewBox="0 0 511.996 511.996" width="512" xmlns="http://www.w3.org/2000/svg"><g><path d="m465.496 118.858c-12.146 0-23.222 4.681-31.515 12.331-.359-25.333-21.079-45.831-46.495-45.831-25.422 0-46.146 20.496-46.505 45.828-8.291-7.648-19.362-12.328-31.505-12.328-16.799 0-32.313 9.27-40.479 23.634-10.799-2.714-22.095-4.164-33.724-4.164-76.31 0-138.392 62.083-138.392 138.392 0 25.952 7.187 50.255 19.665 71.033l-99.786 82.483c-10 8.259-16.089 20.426-16.708 33.382-.619 12.965 4.291 25.668 13.472 34.855 8.667 8.662 20.467 13.521 32.666 13.521.725 0 1.453-.018 2.18-.052 12.958-.616 25.131-6.705 33.396-16.704l.72-.87c2.64-3.192 2.193-7.919-.999-10.56s-7.92-2.192-10.56.999l-.721.872c-5.663 6.852-13.67 10.857-22.548 11.279-8.882.43-17.238-2.808-23.527-9.092-6.289-6.293-9.519-14.65-9.095-23.534.423-8.874 4.428-16.875 11.279-22.534l98.681-81.567c7.662 10.093 16.674 19.105 26.768 26.767l-58.538 70.831c-2.639 3.193-2.189 7.92 1.003 10.559 1.398 1.156 3.091 1.719 4.773 1.719 2.16 0 4.303-.928 5.786-2.722l59.453-71.938c20.779 12.479 45.081 19.665 71.033 19.665 59.502 0 110.35-37.748 129.865-90.552 7.325 1.33 14.814 2.008 22.348 2.008 27.174 0 52.995-8.598 74.671-24.865 20.958-15.728 36.715-38.113 44.369-63.033 1.216-3.959-1.009-8.155-4.968-9.372-3.958-1.218-8.155 1.008-9.372 4.967-6.729 21.912-20.592 41.601-39.032 55.439-19.059 14.302-41.767 21.862-65.668 21.862-6.03 0-12.023-.5-17.901-1.467 2.659-10.695 4.08-21.874 4.08-33.381 0-59.232-37.408-109.884-89.837-129.593 5.835-8.147 15.381-13.27 25.649-13.27 17.369 0 31.5 14.131 31.5 31.5 0 4.142 3.357 7.5 7.5 7.5s7.5-3.358 7.5-7.5v-33.5c0-17.369 14.135-31.5 31.51-31.5 17.369 0 31.5 14.131 31.5 31.5v33.5c0 4.142 3.357 7.5 7.5 7.5s7.5-3.358 7.5-7.5c0-17.369 14.135-31.5 31.51-31.5 17.369 0 31.5 14.131 31.5 31.5v36.88c0 4.142 3.357 7.5 7.5 7.5s7.5-3.358 7.5-7.5v-36.88c-.002-25.637-20.862-46.497-46.502-46.497zm-106.832 157.863c0 68.039-55.354 123.392-123.392 123.392-68.039 0-123.392-55.353-123.392-123.392s55.353-123.392 123.392-123.392 123.392 55.354 123.392 123.392z"/><path d="m289.977 114.939c14.889 0 27.001-12.113 27.001-27.001v-30.273c0-14.889-12.112-27.001-27.001-27.001s-27.002 12.113-27.002 27.001v30.273c0 14.889 12.113 27.001 27.002 27.001zm-12.002-57.274c0-6.618 5.384-12.001 12.002-12.001 6.617 0 12.001 5.384 12.001 12.001v30.273c0 6.618-5.384 12.001-12.001 12.001-6.618 0-12.002-5.384-12.002-12.001z"/><path d="m353.006 84.278c14.889 0 27.002-12.113 27.002-27.001v-30.274c0-14.889-12.113-27.001-27.002-27.001s-27.002 12.113-27.002 27.001v30.273c0 14.889 12.114 27.002 27.002 27.002zm-12.002-57.275c0-6.618 5.384-12.001 12.002-12.001s12.002 5.384 12.002 12.001v30.273c0 6.618-5.384 12.001-12.002 12.001s-12.002-5.384-12.002-12.001z"/><path d="m484.993 114.939c14.889 0 27.001-12.113 27.001-27.001v-30.273c0-14.889-12.112-27.001-27.001-27.001s-27.002 12.113-27.002 27.001v30.273c0 14.889 12.113 27.001 27.002 27.001zm-12.002-57.274c0-6.618 5.384-12.001 12.002-12.001 6.617 0 12.001 5.384 12.001 12.001v30.273c0 6.618-5.384 12.001-12.001 12.001-6.618 0-12.002-5.384-12.002-12.001z"/><path d="m421.963 84.278c14.889 0 27.001-12.113 27.001-27.001v-30.274c0-14.889-12.112-27.001-27.001-27.001s-27.002 12.113-27.002 27.001v30.273c0 14.889 12.114 27.002 27.002 27.002zm-12.002-57.275c0-6.618 5.384-12.001 12.002-12.001 6.617 0 12.001 5.384 12.001 12.001v30.273c0 6.618-5.384 12.001-12.001 12.001-6.618 0-12.002-5.384-12.002-12.001z"/><path d="m130.418 276.721c0 57.817 47.038 104.855 104.855 104.855s104.854-47.038 104.854-104.855-47.037-104.855-104.854-104.855-104.855 47.038-104.855 104.855zm194.709 0c0 26.863-11.852 51.006-30.598 67.486-38.46-11.079-70.186-39.546-85.336-76.803-1.561-3.838-5.938-5.682-9.773-4.123-3.837 1.561-5.683 5.936-4.123 9.773 15.414 37.906 46.238 67.633 84.111 81.911-13.044 7.387-28.105 11.611-44.135 11.611-49.546 0-89.855-40.309-89.855-89.855 0-30.739 15.518-57.917 39.127-74.125v15.302c0 6.566.44 13.158 1.308 19.593.507 3.765 3.726 6.499 7.423 6.499.333 0 .671-.022 1.012-.068 4.105-.553 6.984-4.33 6.43-8.435-.778-5.772-1.173-11.689-1.173-17.588v-23.616c10.956-4.767 23.037-7.417 35.728-7.417 49.546 0 89.854 40.309 89.854 89.855z"/></g></svg>