<svg id="Capa_1" enable-background="new 0 0 511.995 511.995" height="512" viewBox="0 0 511.995 511.995" width="512" xmlns="http://www.w3.org/2000/svg"><g><path d="m450.754 243.096c4.29-7.941 6.581-16.877 6.581-26.028 0-7.009-1.352-13.931-3.938-20.386 33.517-17.318 56.484-52.308 56.484-92.564 0-57.411-46.707-104.118-104.117-104.118-46.445 0-85.88 30.572-99.251 72.647-7.58-5.391-16.682-8.352-26.318-8.352-9.021 0-17.743 2.635-25.221 7.62-3.629 2.419-6.865 5.319-9.633 8.61-8.524-10.125-21.207-16.23-34.856-16.23-12.16 0-23.6 4.735-32.218 13.341-6.803 6.813-11.188 15.397-12.722 24.709h-12.15c-26.291 0-47.681 21.389-47.681 47.68 0 4.163.538 8.288 1.594 12.24h-19.163c-30.217 0-54.801 24.583-54.801 54.8 0 6.727 1.21 13.301 3.594 19.535.85 2.225 1.84 4.384 2.966 6.47-22.2 7.138-37.789 27.8-37.789 52.126 0 14.636 5.698 28.395 16.043 38.74 10.344 10.356 24.104 16.06 38.747 16.06h21.889c-1.945 5.677-2.949 11.667-2.949 17.75 0 7.65 1.549 15.058 4.604 22.015 1.234 2.812 3.985 4.487 6.871 4.487 1.007 0 2.03-.204 3.011-.635 3.793-1.665 5.518-6.089 3.853-9.882-2.215-5.045-3.338-10.423-3.338-15.985 0-6.202 1.458-12.258 4.203-17.747h3.436c25.036 0 45.404-20.368 45.404-45.404 0-4.142-3.357-7.5-7.5-7.5s-7.5 3.358-7.5 7.5c0 16.765-13.64 30.404-30.404 30.404l-41.578-.003c-10.633 0-20.624-4.141-28.137-11.663-7.515-7.515-11.653-17.507-11.653-28.137 0-20.587 15.367-37.553 35.789-39.582h39.303c4.143 0 7.5-3.358 7.5-7.5s-3.357-7.5-7.5-7.5h-36.137c-2.127-2.888-3.847-6.025-5.123-9.367-1.729-4.522-2.605-9.293-2.605-14.182 0-21.946 17.854-39.8 39.801-39.8h30.196c.023 0 .045.003.068.003h.4c8.957 0 17.49 2.774 24.634 7.899-11.02 14.184-17.188 31.775-17.188 50.388 0 45.358 36.906 82.26 82.271 82.26 10.327 0 20.207-1.931 29.322-5.421v143.356c-3.337 2.832-7.057 5.12-11.113 6.805-5.133 2.144-10.6 3.23-16.249 3.23-23.374 0-42.391-19.016-42.391-42.39l-.001-15.565c0-14.374 11.694-26.067 26.068-26.067 4.143 0 7.5-3.358 7.5-7.5s-3.357-7.5-7.5-7.5c-22.55 0-40.906 18.269-41.061 40.782h-22.456c-5.562 0-10.94-1.123-15.985-3.337-3.794-1.664-8.218.061-9.882 3.854-1.665 3.793.061 8.217 3.853 9.882 6.958 3.054 14.365 4.602 22.015 4.602h22.449v.85c0 31.645 25.745 57.39 57.391 57.39 7.645 0 15.057-1.477 22.016-4.383 4.608-1.914 8.907-4.397 12.843-7.416 9.965 7.65 22.11 11.799 34.852 11.799 3.754 0 7.472-.367 11.111-1.082 12.408 19.396 34.124 32.292 58.809 32.292 22.088 0 43.104-10.633 56.219-28.443 2.456-3.335 1.743-8.03-1.592-10.486-3.335-2.457-8.031-1.743-10.486 1.592-10.3 13.987-26.801 22.337-44.141 22.337-30.206 0-54.78-24.574-54.78-54.78s24.574-54.78 54.78-54.78 54.78 24.574 54.78 54.78c0 1.624-.071 3.244-.211 4.815-.367 4.126 2.681 7.768 6.806 8.135 4.135.372 7.77-2.68 8.136-6.806.179-2.012.27-4.079.27-6.145 0-16.249-5.598-31.206-14.946-43.078 6.406-9.155 9.887-20.079 9.887-31.391 0-5.266-.749-10.478-2.228-15.491-.223-.758-.463-1.511-.72-2.259h21.887c30.217 0 54.8-24.583 54.8-54.799 0-13.742-5.111-26.885-14.392-37.008-6.451-7.033-14.524-12.195-23.432-15.093zm-44.99-228.096c49.14 0 89.117 39.978 89.117 89.117s-39.978 89.117-89.117 89.117-89.116-39.978-89.116-89.117 39.977-89.117 89.116-89.117zm-264.51 220.555c0-23.189 11.712-44.442 31.33-56.852 3.5-2.214 4.543-6.847 2.328-10.348-2.213-3.501-6.847-4.543-10.348-2.329-3.858 2.441-7.462 5.165-10.801 8.13-8.843-6.822-19.398-10.871-30.596-11.708-.536-1.299-.989-2.63-1.35-3.99-.732-2.724-1.104-5.562-1.104-8.434 0-18.02 14.66-32.68 32.681-32.68h18.983c.02 0 .039.003.058.003h5.399c9.552 0 17.322 7.771 17.322 17.322 0 4.142 3.357 7.5 7.5 7.5s7.5-3.358 7.5-7.5c0-16.814-12.908-30.665-29.334-32.178 1.315-5.348 4.063-10.255 8.051-14.249 5.777-5.77 13.452-8.947 21.61-8.947 11.64 0 22.217 6.634 27.362 17.003v62.418c-9.115-3.49-18.995-5.421-29.322-5.421-2.646 0-5.268.127-7.79.377-4.122.409-7.132 4.082-6.724 8.204.409 4.122 4.072 7.132 8.204 6.723 2.032-.202 4.155-.304 6.31-.304 37.087 0 67.26 30.173 67.26 67.26s-30.173 67.26-67.26 67.26c-37.091 0-67.269-30.172-67.269-67.26zm292.521 99.442-41.572.001c-16.765 0-30.404-13.639-30.404-30.404 0-4.142-3.357-7.5-7.5-7.5s-7.5 3.358-7.5 7.5c0 25.036 20.368 45.404 45.404 45.404h3.427c1.051 2.099 1.933 4.268 2.59 6.499 1.072 3.635 1.615 7.42 1.615 11.25 0 7.26-1.972 14.3-5.637 20.426-12.027-9.829-27.377-15.737-44.085-15.737-9.173 0-17.93 1.797-25.96 5.028-7.52-6.847-17.309-10.697-27.628-10.697-4.143 0-7.5 3.358-7.5 7.5s3.357 7.5 7.5 7.5c4.711 0 9.249 1.269 13.205 3.595-17.773 12.661-29.397 33.418-29.397 56.854 0 8.191 1.431 16.052 4.035 23.36-1.381.135-2.774.209-4.175.209-10.11 0-19.705-3.548-27.348-10.031v-150.956c22.793-14.641 37.938-40.198 37.938-69.243s-15.144-54.602-37.938-69.243v-70.033c2.381-4.797 5.959-8.891 10.447-11.883 5.006-3.337 10.85-5.101 16.9-5.101 8.693 0 16.743 3.586 22.524 9.92-.701 4.869-1.071 9.843-1.071 14.902 0 .081.003.161.003.242-12.408 4.607-21.124 16.633-21.124 30.309 0 4.142 3.357 7.5 7.5 7.5s7.5-3.358 7.5-7.5c0-5.789 2.916-11.019 7.412-14.181 3.537 22.3 14.177 42.265 29.524 57.496-11.357 10.749-17.946 25.741-17.946 41.644 0 4.142 3.357 7.5 7.5 7.5s7.5-3.358 7.5-7.5c0-12.269 5.299-23.816 14.391-31.814 17.307 12.824 38.71 20.42 61.856 20.42 11.836 0 23.216-1.99 33.826-5.645 1.793 4.594 2.745 9.503 2.745 14.479 0 8.5-2.727 16.742-7.728 23.546h-36.128c-4.143 0-7.5 3.358-7.5 7.5s3.357 7.5 7.5 7.5h39.272c9.735.967 18.738 5.473 25.375 12.712 6.737 7.35 10.448 16.893 10.448 26.872.004 21.946-17.85 39.8-39.796 39.8z"/><path d="m209.101 190.011c-14.4-.285-26.669 10.198-28.65 24.398-.181 1.302-.272 2.627-.272 3.938 0 4.142 3.357 7.5 7.5 7.5s7.5-3.358 7.5-7.5c0-.624.044-1.254.129-1.87.932-6.675 6.73-11.637 13.491-11.469 6.955.14 12.685 5.683 13.044 12.619.192 3.705-1.103 7.221-3.647 9.901-2.547 2.683-5.982 4.16-9.675 4.16-4.143 0-7.5 3.358-7.5 7.5v14.283c0 4.142 3.357 7.5 7.5 7.5s7.5-3.358 7.5-7.5v-7.803c4.937-1.363 9.48-4.049 13.053-7.812 5.405-5.693 8.157-13.153 7.75-21.006-.767-14.752-12.944-26.541-27.723-26.839z"/><path d="m208.52 265.587c-4.143 0-7.5 3.358-7.5 7.5v.513c0 4.142 3.357 7.5 7.5 7.5s7.5-3.358 7.5-7.5v-.513c0-4.142-3.358-7.5-7.5-7.5z"/><path d="m323.726 466.482c1.465 1.464 3.384 2.197 5.304 2.197 1.919 0 3.839-.732 5.303-2.196 8.702-8.701 22.859-8.701 31.56 0 2.93 2.929 7.678 2.929 10.607 0s2.929-7.678 0-10.606c-14.549-14.548-38.224-14.55-52.772 0-2.931 2.928-2.931 7.676-.002 10.605z"/><path d="m372.584 427.82v-12.775c0-4.142-3.357-7.5-7.5-7.5s-7.5 3.358-7.5 7.5v12.775c0 4.142 3.357 7.5 7.5 7.5s7.5-3.358 7.5-7.5z"/><path d="m342.642 427.82v-12.775c0-4.142-3.357-7.5-7.5-7.5s-7.5 3.358-7.5 7.5v12.775c0 4.142 3.357 7.5 7.5 7.5s7.5-3.358 7.5-7.5z"/><path d="m337.485 88.233c1.123 4.184 3.808 7.679 7.558 9.84l5.59 3.224c-.049.941-.073 1.88-.073 2.814 0 .937.024 1.877.073 2.819l-5.588 3.228c-3.752 2.163-6.437 5.658-7.56 9.842-1.121 4.181-.549 8.549 1.617 12.306l8.917 15.433c4.463 7.742 14.394 10.411 22.146 5.943l5.6-3.231c1.578 1.024 3.204 1.964 4.874 2.818v6.452c0 8.941 7.27 16.216 16.205 16.216h17.842c8.937 0 16.206-7.274 16.206-16.216v-6.452c1.669-.854 3.295-1.794 4.873-2.818l5.598 3.23c7.731 4.466 17.664 1.805 22.146-5.938l8.906-15.432c2.172-3.752 2.75-8.124 1.629-12.31-1.12-4.184-3.804-7.68-7.558-9.843l-5.588-3.228c.048-.941.072-1.881.072-2.819 0-.935-.024-1.874-.073-2.814l5.589-3.223c3.753-2.163 6.438-5.658 7.558-9.842 1.121-4.186.543-8.558-1.623-12.3l-8.917-15.46c-2.173-3.754-5.677-6.437-9.865-7.552-4.186-1.113-8.547-.531-12.273 1.63l-5.596 3.229c-1.575-1.022-3.202-1.963-4.877-2.82v-6.458c0-8.936-7.27-16.205-16.206-16.205h-17.842c-8.936 0-16.205 7.27-16.205 16.205v6.458c-1.675.857-3.303 1.799-4.878 2.821l-5.588-3.225c-3.753-2.172-8.125-2.751-12.31-1.629-4.185 1.121-7.681 3.805-9.841 7.553l-8.924 15.455c-2.162 3.751-2.735 8.119-1.614 12.299zm14.607-4.804 8.924-15.455c.205-.355.509-.5.728-.559.219-.06.557-.085.924.126l9.783 5.646c2.668 1.538 6.003 1.292 8.413-.623 3.037-2.412 6.418-4.368 10.05-5.813 2.854-1.136 4.726-3.897 4.726-6.968v-11.282c0-.665.541-1.205 1.205-1.205h17.842c.665 0 1.206.541 1.206 1.205v11.282c0 3.071 1.872 5.832 4.726 6.968 3.63 1.445 7.011 3.401 10.049 5.813 2.409 1.914 5.745 2.161 8.413.623l9.798-5.655c.35-.204.685-.176.9-.119.223.059.532.207.737.561l8.917 15.46c.208.359.181.696.122.916-.059.219-.203.522-.561.728l-9.773 5.636c-2.661 1.535-4.117 4.538-3.675 7.579.282 1.933.425 3.89.425 5.817 0 1.936-.143 3.892-.424 5.812-.445 3.04 1.009 6.044 3.669 7.581l9.773 5.646c.002.001.005.002.007.004.355.205.5.509.559.728s.086.557-.127.923l-8.906 15.432c-.337.583-1.079.788-1.658.454l-9.783-5.646c-2.663-1.537-5.993-1.293-8.403.615-3.07 2.43-6.45 4.384-10.044 5.806-2.861 1.132-4.74 3.897-4.74 6.974v11.282c0 .67-.541 1.216-1.206 1.216h-17.842c-.664 0-1.205-.545-1.205-1.216v-11.282c0-3.077-1.879-5.842-4.74-6.974-3.596-1.423-6.975-3.376-10.045-5.806-1.354-1.073-3.001-1.619-4.655-1.619-1.289 0-2.582.332-3.748 1.004l-9.779 5.644c-.579.333-1.323.137-1.659-.447l-8.917-15.433c-.208-.361-.181-.701-.121-.923.059-.22.204-.526.568-.736l9.772-5.646c2.659-1.536 4.113-4.539 3.669-7.577-.281-1.929-.424-3.886-.424-5.816 0-1.921.143-3.879.425-5.82.441-3.04-1.015-6.041-3.675-7.576l-9.774-5.637c-.357-.206-.503-.512-.562-.732-.062-.22-.089-.56.116-.916z"/><path d="m405.765 132.225c15.502 0 28.114-12.612 28.114-28.114 0-15.501-12.612-28.113-28.114-28.113s-28.113 12.612-28.113 28.113c-.001 15.502 12.611 28.114 28.113 28.114zm0-41.227c7.231 0 13.114 5.883 13.114 13.113 0 7.231-5.883 13.114-13.114 13.114-7.23 0-13.113-5.883-13.113-13.114-.001-7.23 5.882-13.113 13.113-13.113z"/></g></svg>