<svg id="Capa_1" enable-background="new 0 0 511.993 511.993" height="512" viewBox="0 0 511.993 511.993" width="512" xmlns="http://www.w3.org/2000/svg"><g><path d="m470.981 150.786c-2.832-3.022-7.578-3.178-10.601-.346s-3.178 7.578-.346 10.601c4.852 5.179 7.523 11.945 7.523 19.053 0 15.384-12.516 27.9-27.9 27.9s-27.9-12.516-27.9-27.9c0-13.51 9.629-25.059 22.896-27.46 4.076-.738 6.782-4.64 6.044-8.716-.737-4.076-4.641-6.785-8.716-6.044-20.41 3.694-35.224 21.451-35.224 42.22 0 .173.011.343.013.516l-36.085 20.829c-6.411-3.817-13.891-6.018-21.878-6.018-7.986 0-15.466 2.2-21.876 6.016l-68.472-39.527c.002-.171.013-.34.013-.512 0-16.03-8.843-30.026-21.902-37.389v-43.719c13.059-7.363 21.902-21.359 21.902-37.389 0-23.655-19.245-42.9-42.901-42.9s-42.901 19.245-42.901 42.9c0 16.029 8.842 30.024 21.899 37.388v43.722c-13.057 7.364-21.899 21.358-21.899 37.387 0 .172.011.341.013.512l-68.461 39.534c-6.413-3.82-13.896-6.023-21.887-6.023-23.655 0-42.9 19.245-42.9 42.901 0 16.031 8.844 30.026 21.902 37.39v26.292c0 4.142 3.358 7.5 7.5 7.5s7.5-3.358 7.5-7.5v-21.209c1.961.276 3.962.428 5.998.428 2.038 0 4.041-.153 6.004-.429v68.904c-1.963-.276-3.966-.429-6.004-.429-2.036 0-4.037.152-5.998.428v-12.713c0-4.142-3.358-7.5-7.5-7.5s-7.5 3.358-7.5 7.5v17.796c-13.059 7.363-21.902 21.359-21.902 37.39 0 23.655 19.245 42.9 42.9 42.9 7.989 0 15.471-2.202 21.882-6.02l68.466 39.529c-.002.172-.013.342-.013.514 0 23.656 19.245 42.901 42.901 42.901s42.901-19.245 42.901-42.901c0-.169-.011-.337-.013-.506l68.47-39.535c6.411 3.817 13.891 6.018 21.878 6.018 23.656 0 42.901-19.245 42.901-42.9 0-16.029-8.842-30.023-21.898-37.387v-79.073c13.057-7.364 21.898-21.358 21.898-37.387 0-.172-.011-.341-.013-.513l36.081-20.835c6.411 3.818 13.893 6.02 21.881 6.02 23.655 0 42.9-19.245 42.9-42.9.001-10.932-4.11-21.341-11.576-29.309zm-165.933 61.111c-2.464 3.141-4.499 6.63-6.018 10.384l-59.694-34.464c2.463-3.14 4.497-6.628 6.015-10.381zm-99.476-196.897c15.385 0 27.901 12.516 27.901 27.9 0 15.385-12.516 27.901-27.901 27.901s-27.901-12.516-27.901-27.901c0-15.384 12.516-27.9 27.901-27.9zm-6.002 70.373c1.962.276 3.964.429 6.001.429 2.036 0 4.037-.152 5.999-.428v33.552c-1.962-.276-3.962-.428-5.999-.428s-4.039.153-6.001.429zm6.002 48.124c15.385 0 27.901 12.516 27.901 27.9 0 15.385-12.516 27.901-27.901 27.901s-27.901-12.516-27.901-27.901c0-15.384 12.516-27.9 27.901-27.9zm-33.765 54.318-59.692 34.468c-1.518-3.752-3.552-7.239-6.013-10.378l59.691-34.47c1.518 3.753 3.552 7.241 6.014 10.38zm-127.372 50.506c0-15.385 12.516-27.901 27.9-27.901 15.385 0 27.901 12.516 27.901 27.901s-12.516 27.901-27.901 27.901c-15.384 0-27.9-12.516-27.9-27.901zm48.905 37.387c13.056-7.364 21.896-21.358 21.896-37.386 0-.172-.011-.341-.013-.512l68.464-39.532c6.412 3.819 13.894 6.021 21.884 6.021 7.989 0 15.472-2.202 21.883-6.021l68.465 39.528c-.002.173-.013.343-.013.516 0 16.031 8.844 30.027 21.903 37.39v79.067c-13.059 7.363-21.903 21.359-21.903 37.39 0 .171.011.34.013.512l-68.473 39.527c-6.41-3.816-13.889-6.016-21.875-6.016-7.987 0-15.466 2.2-21.876 6.017l-68.472-39.532c.002-.17.013-.337.013-.508 0-16.028-8.841-30.022-21.896-37.386zm-48.905 116.461c0-15.385 12.516-27.901 27.9-27.901 15.385 0 27.901 12.516 27.901 27.901 0 15.384-12.516 27.9-27.901 27.9-15.384 0-27.9-12.516-27.9-27.9zm61.664 26.419c2.464-3.141 4.499-6.631 6.017-10.385l59.696 34.465c-2.464 3.141-4.499 6.63-6.019 10.385zm99.473 78.405c-15.385 0-27.901-12.516-27.901-27.901 0-15.384 12.516-27.9 27.901-27.9s27.901 12.516 27.901 27.9c-.001 15.385-12.517 27.901-27.901 27.901zm33.759-54.326 59.698-34.461c1.519 3.754 3.555 7.244 6.018 10.385l-59.694 34.468c-1.52-3.757-3.557-7.248-6.022-10.392zm99.476-22.598c-15.385 0-27.901-12.516-27.901-27.9 0-15.385 12.516-27.901 27.901-27.901s27.901 12.516 27.901 27.901c0 15.384-12.516 27.9-27.901 27.9zm6.003-70.372c-1.963-.276-3.965-.429-6.002-.429-2.036 0-4.036.152-5.998.428v-68.902c1.961.276 3.962.428 5.998.428 2.038 0 4.04-.153 6.002-.429zm-6.003-83.475c-15.385 0-27.901-12.516-27.901-27.901s12.516-27.901 27.901-27.901 27.901 12.516 27.901 27.901-12.516 27.901-27.901 27.901zm33.762-54.323 27.312-15.765c1.519 3.752 3.552 7.239 6.015 10.379l-27.309 15.77c-1.52-3.754-3.555-7.243-6.018-10.384z"/><path d="m133.637 356.78c1.389 2.406 3.91 3.751 6.502 3.751 1.272 0 2.562-.324 3.743-1.006l28.882-16.675c6.343 7.527 15.222 12.842 25.307 14.629v33.333c0 4.142 3.358 7.5 7.5 7.5s7.5-3.358 7.5-7.5v-33.333c10.086-1.787 18.964-7.102 25.307-14.629l28.882 16.675c1.181.682 2.471 1.006 3.743 1.006 2.592 0 5.113-1.346 6.502-3.751 2.071-3.587.842-8.174-2.745-10.245l-28.859-16.661c1.661-4.566 2.57-9.491 2.57-14.625s-.909-10.059-2.57-14.625l28.859-16.661c3.587-2.071 4.816-6.658 2.745-10.245s-6.658-4.817-10.245-2.745l-28.882 16.675c-6.343-7.527-15.221-12.842-25.307-14.629v-33.332c0-4.142-3.358-7.5-7.5-7.5s-7.5 3.358-7.5 7.5v33.332c-10.086 1.787-18.964 7.102-25.307 14.629l-28.882-16.675c-3.588-2.072-8.175-.842-10.245 2.745-2.071 3.587-.842 8.174 2.745 10.245l28.859 16.661c-1.661 4.567-2.57 9.491-2.57 14.625s.909 10.058 2.57 14.625l-28.859 16.661c-3.587 2.07-4.816 6.657-2.745 10.245zm71.935-69.432c15.385 0 27.901 12.516 27.901 27.901 0 15.384-12.516 27.9-27.901 27.9s-27.901-12.516-27.901-27.9c0-15.385 12.516-27.901 27.901-27.901z"/></g></svg>