<svg id="Capa_1" enable-background="new 0 0 511.994 511.994" height="512" viewBox="0 0 511.994 511.994" width="512" xmlns="http://www.w3.org/2000/svg"><g><path d="m108.335 284.677c18.824 0 34.138-15.314 34.138-34.138s-15.314-34.138-34.138-34.138-34.138 15.314-34.138 34.138 15.314 34.138 34.138 34.138zm0-53.275c10.553 0 19.138 8.585 19.138 19.138s-8.585 19.138-19.138 19.138-19.138-8.585-19.138-19.138 8.585-19.138 19.138-19.138z"/><path d="m140.259 206.675c15.747 0 28.558-12.811 28.558-28.557s-12.811-28.557-28.558-28.557-28.557 12.811-28.557 28.557 12.81 28.557 28.557 28.557zm0-42.114c7.476 0 13.558 6.082 13.558 13.557s-6.082 13.557-13.558 13.557-13.557-6.082-13.557-13.557 6.081-13.557 13.557-13.557z"/><path d="m488.459 241.278c8.839-19.285 13.706-39.872 14.48-61.301.149-4.14-3.085-7.617-7.224-7.766-4.168-.165-7.616 3.084-7.766 7.224-.783 21.669-6.175 42.382-16.027 61.565-.939 1.829-1.086 3.964-.407 5.905s2.126 3.518 4.001 4.361c13.047 5.869 21.477 18.897 21.477 33.19 0 20.071-16.329 36.4-36.4 36.4h-17.59c-4.142 0-7.5 3.358-7.5 7.5v42.4c0 9.893-8.048 17.94-17.94 17.94s-17.94-8.048-17.94-17.94c0-4.142-3.358-7.5-7.5-7.5s-7.5 3.358-7.5 7.5c0 9.893-8.048 17.94-17.94 17.94s-17.94-8.048-17.94-17.94c0-4.142-3.358-7.5-7.5-7.5s-7.5 3.358-7.5 7.5c0 4.793-1.866 9.299-5.254 12.687-3.387 3.388-7.893 5.253-12.686 5.253-9.892 0-17.94-8.048-17.94-17.94 0-4.142-3.358-7.5-7.5-7.5s-7.5 3.358-7.5 7.5c0 4.793-1.866 9.299-5.253 12.687s-7.894 5.253-12.687 5.253c-9.892 0-17.94-8.048-17.94-17.94v-4.97c3.973-2.104 7.944-4.208 11.918-6.311 1.759-.931 3.075-2.522 3.66-4.423.585-1.902.391-3.958-.541-5.716-17.457-32.962-42.018-61.038-71.951-82.523 3.796-6.803 9.74-12.323 16.902-15.547 1.875-.844 3.321-2.42 4-4.361.679-1.94.533-4.074-.406-5.903-10.698-20.842-16.122-43.366-16.122-66.945v-11.85c0-39.21 15.272-76.076 43.003-103.807 27.725-27.725 64.587-42.993 103.797-42.993 74.801 0 137.51 55.96 145.867 130.169.464 4.116 4.178 7.078 8.292 6.614 4.116-.464 7.077-4.176 6.613-8.292-9.21-81.804-78.328-143.492-160.771-143.492-43.216 0-83.846 16.829-114.403 47.387-30.564 30.564-47.396 71.197-47.396 114.413v11.85c0 23.528 4.904 46.109 14.588 67.229-6.722 4.356-12.366 10.258-16.435 17.146-4.991-3.129-10.11-6.087-15.355-8.864-3.661-1.937-8.199-.542-10.137 3.119l-3.289 6.212c-14.165 26.752-28.331 53.505-42.503 80.257-2.672-1.05-5.538-1.615-8.495-1.615-6.201 0-12.03 2.415-16.414 6.798-4.385 4.385-6.799 10.214-6.799 16.415s2.415 12.03 6.799 16.414l2.656 2.656-31.224 24.403c-3.264 2.55-3.842 7.264-1.291 10.527 2.55 3.263 7.263 3.843 10.527 1.291l32.671-25.533 26.325 26.325-56.844 72.75c-3.212 4.11-8.039 6.649-13.243 6.966-5.195.318-10.291-1.615-13.975-5.301l-16.68-16.68c-3.682-3.682-5.611-8.777-5.293-13.978s2.854-10.022 6.958-13.229l12.5-9.77c3.264-2.551 3.841-7.264 1.291-10.528-2.55-3.263-7.263-3.842-10.528-1.291l-12.499 9.769c-7.487 5.85-12.115 14.646-12.695 24.133-.581 9.487 2.94 18.782 9.659 25.5l16.678 16.678c6.24 6.246 14.703 9.731 23.479 9.73.67 0 1.343-.02 2.016-.061 9.491-.578 18.293-5.208 24.15-12.703l55.712-71.303 2.656 2.656c4.526 4.525 10.47 6.788 16.414 6.788s11.889-2.263 16.414-6.788c4.385-4.384 6.799-10.214 6.799-16.414 0-2.958-.565-5.824-1.615-8.497 19.896-10.54 39.795-21.075 59.695-31.609 1.475 16.809 15.62 30.039 32.805 30.039 8.8 0 17.072-3.426 23.293-9.647.762-.762 1.482-1.555 2.159-2.375 6.046 7.337 15.2 12.022 25.428 12.022 8.8 0 17.073-3.426 23.293-9.647.762-.762 1.482-1.555 2.159-2.375 6.046 7.337 15.2 12.022 25.428 12.022 10.234 0 19.394-4.691 25.44-12.037 6.046 7.346 15.206 12.037 25.44 12.037 18.163 0 32.94-14.777 32.94-32.94v-34.9h10.09c28.342 0 51.4-23.058 51.4-51.4.001-17.58-9.03-33.806-23.534-43.175zm-326.664 25.165c6.036 3.454 11.871 7.187 17.521 11.149l-15.177 24.055c-2.21 3.503-1.162 8.135 2.341 10.345 1.243.784 2.627 1.158 3.995 1.158 2.489 0 4.924-1.238 6.351-3.499l14.517-23.008c11.337 9.146 21.73 19.366 31.072 30.532l-41.847 28.292c-3.432 2.32-4.333 6.982-2.013 10.414 1.45 2.144 3.813 3.3 6.22 3.3 1.445 0 2.906-.417 4.194-1.288l42.701-28.87c4.841 6.646 9.354 13.562 13.476 20.761-27.348 14.476-54.69 28.955-82.031 43.438l-44.757-44.758c14.484-27.339 28.961-54.68 43.437-82.021zm-5.161 153.128c-3.202 3.202-8.413 3.203-11.615 0l-53.008-53.009c-1.551-1.551-2.406-3.613-2.406-5.807s.854-4.256 2.406-5.808c3.203-3.202 8.413-3.203 11.615 0l53.008 53.009c1.551 1.551 2.406 3.613 2.406 5.807s-.854 4.257-2.406 5.808z"/><path d="m462.476 225.599c0-29.44-23.951-53.391-53.391-53.391s-53.391 23.951-53.391 53.391c0 29.439 23.951 53.391 53.391 53.391 29.439 0 53.391-23.951 53.391-53.391zm-91.782 0c0-21.169 17.222-38.391 38.391-38.391 21.168 0 38.391 17.222 38.391 38.391 0 21.168-17.222 38.391-38.391 38.391s-38.391-17.222-38.391-38.391z"/><path d="m326.799 225.599c0-29.44-23.951-53.391-53.391-53.391s-53.391 23.951-53.391 53.391c0 29.439 23.951 53.391 53.391 53.391s53.391-23.951 53.391-53.391zm-53.391 38.391c-21.168 0-38.391-17.222-38.391-38.391s17.222-38.391 38.391-38.391 38.391 17.222 38.391 38.391-17.222 38.391-38.391 38.391z"/><path d="m323.278 332.298h35.936c6.616 0 12.541-3.421 15.849-9.15 3.308-5.73 3.308-12.571 0-18.301l-17.968-31.122c-3.308-5.729-9.233-9.15-15.849-9.15s-12.541 3.421-15.849 9.15l-17.968 31.122c-3.308 5.729-3.308 12.571 0 18.301 3.308 5.729 9.233 9.15 15.849 9.15zm-2.858-19.951 17.968-31.122c.829-1.436 2.147-1.65 2.858-1.65.712 0 2.03.215 2.859 1.65l17.968 31.122c.829 1.436.356 2.685 0 3.301s-1.2 1.65-2.858 1.65h-35.936c-1.658 0-2.502-1.034-2.858-1.65s-.83-1.865-.001-3.301z"/></g></svg>