<svg id="Capa_1" enable-background="new 0 0 511.998 511.998" height="512" viewBox="0 0 511.998 511.998" width="512" xmlns="http://www.w3.org/2000/svg"><g><path d="m217.601 79.86c-2.718-3.127-7.455-3.459-10.581-.742s-3.458 7.454-.741 10.581c7.82 9 12.278 19.992 12.891 31.791.762 14.647-4.373 28.568-14.458 39.196-6.536 6.883-14.865 11.896-24.087 14.496-3.232.911-5.465 3.86-5.465 7.218v10.74c0 4.852-3.947 8.8-8.8 8.8s-8.801-3.948-8.801-8.8v-24.77c0-4.858 3.948-8.81 8.801-8.81 9.772 0 18.857-3.907 25.578-10.995 6.731-7.088 10.159-16.38 9.651-26.164-.953-18.342-16.104-33.008-34.521-33.39-.206-.003-.408-.005-.614-.005-17.599 0-32.604 12.947-35.031 30.341-.228 1.618-.343 3.281-.343 4.943 0 4.852-3.947 8.8-8.8 8.8s-8.8-3.948-8.8-8.8c0-2.432.172-4.916.507-7.362 3.627-25.95 26.143-45.518 52.373-45.518.357.001.711-.001 1.093.008 4.412.086 8.795.732 13.027 1.922 3.988 1.122 8.129-1.203 9.25-5.191 1.12-3.987-1.204-8.128-5.191-9.249-5.459-1.534-11.108-2.368-16.761-2.478-.468-.011-.938-.012-1.418-.012-33.67 0-62.571 25.125-67.231 58.461-.431 3.139-.648 6.308-.648 9.419 0 13.123 10.677 23.8 23.8 23.8s23.8-10.677 23.8-23.8c0-.966.066-1.928.197-2.863 1.411-10.105 10.224-17.582 20.508-17.419 10.569.219 19.277 8.64 19.824 19.171.293 5.634-1.678 10.981-5.552 15.061-3.864 4.076-9.084 6.32-14.697 6.32-13.124 0-23.801 10.681-23.801 23.81v24.77c0 13.123 10.677 23.8 23.801 23.8 13.123 0 23.8-10.677 23.8-23.8v-5.313c9.643-3.615 18.351-9.358 25.431-16.814 12.945-13.643 19.537-31.507 18.56-50.302-.78-14.957-6.657-29.465-16.551-40.851z"/><path d="m166.359 222.78c-13.124 0-23.801 10.677-23.801 23.801v1.086c0 13.124 10.677 23.801 23.801 23.801s23.801-10.677 23.801-23.801v-1.086c0-13.124-10.677-23.801-23.801-23.801zm8.801 24.887c0 4.853-3.948 8.801-8.801 8.801s-8.801-3.948-8.801-8.801v-1.086c0-4.853 3.948-8.801 8.801-8.801s8.801 3.948 8.801 8.801z"/><path d="m469.985 439.247c26.369-29.822 40.844-67.983 40.844-107.907 0-89.878-73.121-163-163-163-7.044 0-13.986.45-20.797 1.321.09-2.221.147-4.444.147-6.661 0-89.878-73.126-163-163.01-163-89.879 0-163 73.122-163 163 0 39.924 14.475 78.085 40.844 107.907l-10.177 46.276c-1.836 8.314 1.215 16.71 7.96 21.912 3.919 3.021 8.562 4.563 13.253 4.563 3.387 0 6.798-.805 9.977-2.437l47.346-24.318c17.255 6.038 35.337 9.097 53.798 9.097 6.959 0 13.92-.452 20.798-1.326-.09 2.212-.147 4.432-.147 6.666 0 83.125 62.211 152.763 144.707 161.984 4.109.457 7.827-2.503 8.286-6.621.461-4.116-2.504-7.827-6.62-8.287-74.895-8.371-131.373-71.6-131.373-147.077 0-81.607 66.396-148 148.01-148 81.607 0 148 66.393 148 148 0 37.449-14.027 73.19-39.498 100.639-1.673 1.803-2.355 4.311-1.827 6.712l11.012 50.066c.856 3.879-1.676 6.185-2.473 6.799-.798.615-3.674 2.482-7.217.663l-50.25-25.81c-1.878-.964-4.072-1.092-6.05-.355-11.252 4.2-23.05 7.014-35.064 8.363-4.116.462-7.078 4.174-6.616 8.29.463 4.117 4.174 7.076 8.29 6.616 12.121-1.361 24.043-4.077 35.491-8.08l47.347 24.319c3.178 1.632 6.589 2.437 9.976 2.436 4.689 0 9.334-1.542 13.253-4.563 6.746-5.201 9.796-13.597 7.962-21.905zm-283.677-129.899c-7.295 1.091-14.717 1.652-22.139 1.652-17.79 0-35.184-3.125-51.698-9.287-1.977-.738-4.174-.608-6.049.355l-50.25 25.809c-3.541 1.82-6.419-.047-7.217-.662-.797-.614-3.329-2.919-2.471-6.805l11.01-50.06c.528-2.401-.154-4.91-1.827-6.712-25.471-27.448-39.498-63.189-39.498-100.638 0-81.607 66.393-148 148-148 81.613 0 148.01 66.393 148.01 148 0 3.111-.109 6.236-.304 9.343-65.655 14.837-116.408 69.405-125.567 137.005z"/><path d="m409.091 263.5c4.143 0 7.5-3.358 7.5-7.5s-3.357-7.5-7.5-7.5h-122.531c-4.143 0-7.5 3.358-7.5 7.5s3.357 7.5 7.5 7.5z"/><path d="m255.195 294.3c0 4.142 3.357 7.5 7.5 7.5h170.261c4.143 0 7.5-3.358 7.5-7.5s-3.357-7.5-7.5-7.5h-170.261c-4.142 0-7.5 3.358-7.5 7.5z"/><path d="m241.815 332.599c0 4.142 3.357 7.5 7.5 7.5h197.021c4.143 0 7.5-3.358 7.5-7.5s-3.357-7.5-7.5-7.5h-197.021c-4.142 0-7.5 3.358-7.5 7.5z"/><path d="m262.695 378.399h170.261c4.143 0 7.5-3.358 7.5-7.5s-3.357-7.5-7.5-7.5h-170.261c-4.143 0-7.5 3.358-7.5 7.5s3.358 7.5 7.5 7.5z"/><path d="m286.56 416.699h122.531c4.143 0 7.5-3.358 7.5-7.5s-3.357-7.5-7.5-7.5h-122.531c-4.143 0-7.5 3.358-7.5 7.5s3.357 7.5 7.5 7.5z"/></g></svg>