<svg id="Capa_1" enable-background="new 0 0 512 512" height="512" viewBox="0 0 512 512" width="512" xmlns="http://www.w3.org/2000/svg"><g><path d="m504.5 358.646c4.143 0 7.5-3.358 7.5-7.5v-141.03c0-22.288-18.142-40.42-40.44-40.42h-176.248v-115.584c0-22.291-18.135-40.425-40.425-40.425h-214.448c-22.298 0-40.439 18.135-40.439 40.425v194.247c0 22.291 18.141 40.425 40.439 40.425h23.677v33.261c0 8.703 5.306 16.192 13.517 19.081 2.26.795 4.566 1.181 6.835 1.181 5.978 0 11.7-2.675 15.646-7.59l36.912-45.932h79.664v115.582c0 22.293 18.132 40.43 40.42 40.43h117.866l36.914 45.923c3.945 4.918 9.667 7.594 15.646 7.594 2.269 0 4.574-.385 6.833-1.179 8.213-2.888 13.52-10.376 13.52-19.078v-33.26h23.67c22.299 0 40.44-18.137 40.44-40.43v-18.22c0-4.142-3.357-7.5-7.5-7.5s-7.5 3.358-7.5 7.5v18.22c0 14.022-11.412 25.43-25.44 25.43h-31.17c-4.143 0-7.5 3.358-7.5 7.5v40.76c0 3.337-2.443 4.557-3.494 4.926-.82.289-3.662 1.021-5.81-1.655l-39.17-48.73c-1.424-1.771-3.573-2.801-5.846-2.801h-121.459c-14.017 0-25.42-11.408-25.42-25.43v-115.582h23.198c11.454 0 21.802-4.796 29.165-12.477 3.54 2.25 7.691 3.491 12.067 3.491h5.757c2.54 9.074 6.771 21.142 13.682 34.304 4.834 9.198 10.549 18.08 17.04 26.486-10.338 7.835-21.981 14.649-34.704 20.302-5.498 2.44-9.716 6.877-11.876 12.494-2.16 5.619-2.002 11.741.442 17.23 3.605 8.129 11.686 13.382 20.585 13.382 3.167 0 6.244-.657 9.135-1.948 17.734-7.882 33.909-17.672 48.166-29.146 14.244 11.47 30.416 21.26 48.161 29.147 2.909 1.292 5.982 1.947 9.133 1.947 8.899 0 16.979-5.252 20.581-13.373 2.448-5.499 2.606-11.621.446-17.24-2.16-5.617-6.377-10.054-11.872-12.493-12.798-5.688-24.453-12.485-34.739-20.252 6.5-8.419 12.227-17.318 17.073-26.54 6.91-13.161 11.14-25.229 13.68-34.302h5.757c12.418 0 22.521-10.103 22.521-22.521s-10.104-22.521-22.521-22.521h-45.707v-12.469c0-12.418-10.104-22.521-22.521-22.521-12.419 0-22.522 10.103-22.522 22.521v12.469h-45.697c-.271 0-.538.02-.808.03v-50.089h176.248c14.028 0 25.44 11.403 25.44 25.42v141.03c0 4.142 3.357 7.5 7.5 7.5zm-249.612-84.861h-121.456c-2.272 0-4.423 1.03-5.846 2.802l-39.166 48.736c-2.088 2.602-4.76 2.023-5.81 1.653-1.051-.37-3.495-1.59-3.495-4.931v-40.761c0-4.142-3.358-7.5-7.5-7.5h-31.176c-14.027.001-25.439-11.405-25.439-25.425v-194.247c0-14.02 11.412-25.425 25.439-25.425h214.449c14.02 0 25.425 11.406 25.425 25.425v194.247c-.001 14.02-11.406 25.426-25.425 25.426zm94.428-24.029c4.143 0 7.5-3.358 7.5-7.5v-19.969c0-4.147 3.375-7.521 7.522-7.521s7.521 3.374 7.521 7.521v19.969c0 4.142 3.357 7.5 7.5 7.5h53.206c4.147 0 7.521 3.374 7.521 7.521s-3.374 7.521-7.521 7.521h-11.555c-3.471 0-6.488 2.381-7.295 5.757-2.033 8.509-6.089 21.761-13.865 36.569-5.514 10.494-12.281 20.543-20.114 29.871-1.282 1.526-1.903 3.5-1.728 5.486.177 1.986 1.136 3.82 2.667 5.097 12.692 10.585 27.506 19.677 44.032 27.022 1.833.813 3.239 2.294 3.96 4.168.722 1.876.669 3.92-.152 5.765-1.203 2.711-3.901 4.464-6.874 4.464-1.04 0-2.064-.221-3.043-.655-18.468-8.208-35.075-18.598-49.359-30.88-2.812-2.417-6.966-2.417-9.777-.002-14.303 12.288-30.914 22.678-49.384 30.887-.966.431-1.986.65-3.031.65-2.973 0-5.671-1.752-6.878-4.473-.817-1.835-.87-3.879-.148-5.755.721-1.874 2.127-3.354 3.963-4.169 16.421-7.296 31.223-16.409 43.996-27.087 1.528-1.278 2.485-3.111 2.66-5.095.176-1.984-.446-3.957-1.727-5.482-7.821-9.315-14.575-19.345-20.074-29.809-7.776-14.81-11.833-28.062-13.866-36.571-.807-3.375-3.824-5.757-7.295-5.757h-11.558c-1.388 0-2.707-.383-3.852-1.068 1.781-4.316 2.832-9.005 3.007-13.914.279-.031.559-.061.845-.061z"/><path d="m342.833 301.408c4.466 8.307 9.724 16.247 15.626 23.6 1.421 1.771 3.568 2.802 5.84 2.805h.009c2.268 0 4.413-1.026 5.837-2.791 15.454-19.155 23.197-38.067 26.972-50.558.687-2.272.257-4.735-1.158-6.641-1.415-1.905-3.648-3.029-6.021-3.029h-51.146c-2.373 0-4.606 1.124-6.021 3.029s-1.845 4.368-1.158 6.64c2.777 9.197 6.552 18.262 11.22 26.945zm36.557-21.614c-3.226 8.185-8.013 17.904-15.065 28.013-3.013-4.342-5.783-8.859-8.28-13.503-2.543-4.732-4.79-9.585-6.721-14.51z"/><path d="m170.889 69.227c-.026-.068-.062-.161-.09-.228-.051-.128-.102-.252-.155-.375-3.996-9.658-13.317-15.903-23.804-15.917-10.484 0-19.836 6.268-23.826 15.967-.021.051-.06.146-.079.197-.061.15-.121.305-.178.46l-16.554 43.868c-1.462 3.875.494 8.203 4.369 9.665 3.877 1.464 8.203-.494 9.665-4.369l16.57-43.91c.017-.045.026-.064.042-.11l.046-.117c1.672-4.041 5.573-6.65 9.954-6.65 4.383.006 8.288 2.632 9.95 6.691.02.048.04.096.06.143l53.67 140.911c1.474 3.878-.479 8.238-4.344 9.714-3.884 1.475-8.242-.474-9.717-4.348l-9.68-25.42c-1.107-2.909-3.896-4.831-7.009-4.831h-65.479c-3.12 0-5.914 1.932-7.017 4.851l-9.584 25.381c-1.09 2.905-3.915 4.856-7.029 4.856-.908 0-1.795-.162-2.65-.487-3.88-1.465-5.846-5.809-4.382-9.686l24.36-64.56c1.462-3.875-.494-8.202-4.37-9.665-3.874-1.463-8.202.494-9.665 4.37l-24.359 64.558c-2.125 5.628-1.93 11.746.549 17.227 2.478 5.478 6.941 9.665 12.557 11.785 2.55.967 5.228 1.458 7.96 1.458 9.329 0 17.796-5.861 21.067-14.571l7.748-20.52h55.125l7.84 20.589c3.416 8.973 11.99 14.503 21.078 14.502 2.66 0 5.366-.474 7.997-1.475 11.591-4.427 17.434-17.464 13.023-29.066z"/><path d="m125.638 175.523h42.702c2.467 0 4.775-1.213 6.175-3.244s1.711-4.621.833-6.926l-21.448-56.314c-1.108-2.909-3.897-4.831-7.009-4.831-.004 0-.008 0-.011 0-3.117.005-5.905 1.936-7.006 4.852l-21.253 56.315c-.869 2.304-.552 4.888.848 6.914 1.401 2.025 3.707 3.234 6.169 3.234zm21.285-42.659 10.534 27.659h-20.973z"/></g></svg>