<svg id="Capa_1" enable-background="new 0 0 511.856 511.856" height="512" viewBox="0 0 511.856 511.856" width="512" xmlns="http://www.w3.org/2000/svg"><g><path d="m248.529 158.89c12.557 0 22.773-10.216 22.773-22.773v-41.796l15.786 6.036c3.87 1.479 8.205-.458 9.684-4.327s-.458-8.205-4.327-9.684l-25.965-9.928c-2.307-.881-4.897-.572-6.931.827s-3.248 3.71-3.248 6.178v15.25c-2.427-.884-5.045-1.368-7.773-1.368-12.557 0-22.773 10.216-22.773 22.773v16.037c.001 12.559 10.217 22.775 22.774 22.775zm-7.773-38.81c0-4.286 3.487-7.773 7.773-7.773s7.773 3.487 7.773 7.773v16.037c0 4.286-3.487 7.773-7.773 7.773s-7.773-3.487-7.773-7.773z"/><path d="m291.109 171.764c-12.557 0-22.773 10.216-22.773 22.773v16.037c0 12.557 10.216 22.773 22.773 22.773s22.773-10.216 22.773-22.773v-60.064l41.298-11.724v18.363c-2.427-.884-5.045-1.368-7.773-1.368-12.557 0-22.773 10.216-22.773 22.773v16.037c0 12.557 10.216 22.773 22.773 22.773s22.773-10.216 22.773-22.773v-65.731c0-2.351-1.103-4.566-2.979-5.984s-4.308-1.874-6.57-1.231l-56.298 15.982c-3.226.916-5.452 3.862-5.452 7.215v28.288c-2.426-.882-5.043-1.366-7.772-1.366zm64.072 22.829c0 4.286-3.487 7.773-7.773 7.773s-7.773-3.487-7.773-7.773v-16.037c0-4.286 3.487-7.773 7.773-7.773s7.773 3.487 7.773 7.773zm-56.299 15.982c0 4.286-3.487 7.773-7.773 7.773s-7.773-3.487-7.773-7.773v-16.037c0-4.286 3.487-7.773 7.773-7.773s7.773 3.487 7.773 7.773z"/><path d="m38.901 89.014h130.588c4.142 0 7.5-3.358 7.5-7.5s-3.358-7.5-7.5-7.5h-130.588c-4.142 0-7.5 3.358-7.5 7.5s3.358 7.5 7.5 7.5z"/><path d="m38.901 118.063h130.588c4.142 0 7.5-3.358 7.5-7.5s-3.358-7.5-7.5-7.5h-130.588c-4.142 0-7.5 3.358-7.5 7.5s3.358 7.5 7.5 7.5z"/><path d="m38.901 165.669h130.588c4.142 0 7.5-3.358 7.5-7.5s-3.358-7.5-7.5-7.5h-130.588c-4.142 0-7.5 3.358-7.5 7.5s3.358 7.5 7.5 7.5z"/><path d="m38.901 194.718h130.588c4.142 0 7.5-3.358 7.5-7.5s-3.358-7.5-7.5-7.5h-130.588c-4.142 0-7.5 3.358-7.5 7.5s3.358 7.5 7.5 7.5z"/><path d="m169.49 227.32h-15.76c-4.142 0-7.5 3.358-7.5 7.5s3.358 7.5 7.5 7.5h15.76c4.142 0 7.5-3.358 7.5-7.5s-3.358-7.5-7.5-7.5z"/><path d="m38.9 242.32h79.83c4.142 0 7.5-3.358 7.5-7.5s-3.358-7.5-7.5-7.5h-79.83c-4.142 0-7.5 3.358-7.5 7.5s3.358 7.5 7.5 7.5z"/><path d="m169.489 256.373h-130.588c-4.142 0-7.5 3.358-7.5 7.5s3.358 7.5 7.5 7.5h130.588c4.142 0 7.5-3.358 7.5-7.5s-3.358-7.5-7.5-7.5z"/><path d="m504.356 219.867c-41.488 0-78.232 20.682-100.476 52.273v-215.59c0-15.059-12.256-27.31-27.32-27.31h-174.62-174.62c-15.064 0-27.32 12.251-27.32 27.31v16.26c0 4.142 3.358 7.5 7.5 7.5s7.5-3.358 7.5-7.5v-16.26c0-6.788 5.527-12.31 12.32-12.31h167.12v223.738c-7.59 4.637-12.667 12.997-12.667 22.521v14.981l-33.775 3.119v-4.431c0-14.882-12.107-26.989-26.989-26.989s-26.989 12.108-26.989 26.989v13.072h-66.7c-6.793 0-12.32-5.522-12.32-12.31v-197.12c0-4.142-3.358-7.5-7.5-7.5s-7.5 3.358-7.5 7.5v197.12c0 15.059 12.256 27.31 27.32 27.31h66.7v48.949c0 14.882 12.107 26.989 26.989 26.989s26.989-12.107 26.989-26.989v-4.42l17.38 1.604c1.105 24.453 10.437 47.87 26.672 66.585 17.899 20.633 42.669 33.741 69.75 36.911 4.27.499 8.539.747 12.79.747 17.616 0 34.914-4.256 50.653-12.539 3.666-1.929 5.073-6.464 3.145-10.13s-6.464-5.072-10.13-3.145c-16.847 8.866-35.769 12.381-54.715 10.168-23.354-2.734-44.72-14.042-60.162-31.842-13.551-15.621-21.522-35.03-22.895-55.362l21.859 2.017c3.868 32.946 30.206 59.778 63.712 63.707 2.829.331 5.656.495 8.473.495 15.203 0 30.046-4.777 42.523-13.806 12.856-9.303 22.221-22.388 26.844-37.333l21.874 2.019c-3.858 15.022-11.351 28.834-21.959 40.312-2.811 3.042-2.624 7.787.418 10.599 1.442 1.333 3.268 1.992 5.088 1.992 2.019 0 4.032-.81 5.51-2.41 12.852-13.908 21.767-30.769 26.045-49.099l14.695 1.356c20.561 39.125 61.606 65.873 108.787 65.873 4.142 0 7.5-3.358 7.5-7.5v-230.621c.001-4.142-3.356-7.5-7.499-7.5zm-115.476-163.317v229.807l-16.7 1.542v-11.624c0-14.544-11.833-26.376-26.376-26.376s-26.376 11.833-26.376 26.376v16.495l-16.062 1.483v-10.444c0-14.551-11.838-26.389-26.389-26.389-14.544 0-26.376 11.838-26.376 26.389v15.317l-16.062 1.483v-10.109c0-14.115-11.146-25.675-25.099-26.344v-219.916h167.12c6.794 0 12.32 5.522 12.32 12.31zm-31.7 232.734-22.753 2.101v-15.11c0-6.273 5.104-11.376 11.376-11.376s11.376 5.104 11.376 11.376v13.009zm-68.814 6.354-22.765 2.102v-13.932c0-6.28 5.104-11.389 11.376-11.389 6.28 0 11.389 5.109 11.389 11.389zm-91.593-5.138c0-6.273 5.109-11.376 11.389-11.376 6.273 0 11.376 5.104 11.376 11.376v11.494l-22.765 2.102zm-75.764 102.678c-6.611 0-11.989-5.378-11.989-11.989v-77.021c0-6.611 5.378-11.989 11.989-11.989s11.989 5.378 11.989 11.989v12.594c0 .021-.003.041-.003.062v51.721c0 .021.003.041.003.062v12.582c0 6.611-5.378 11.989-11.989 11.989zm187.25 26.851c-11.736 8.494-26.104 12.247-40.457 10.565-25.509-2.991-45.775-22.712-50.088-47.391l110.816 10.227c-3.937 10.59-10.941 19.847-20.271 26.599zm-160.261-58.324v-38.042l240.678-22.223c-4.611 12.896-7.131 26.778-7.131 41.239s2.52 28.343 7.131 41.239zm348.858 88.527c-55.961-3.865-100.312-50.627-100.312-107.553s44.351-103.689 100.312-107.554z"/></g></svg>