<svg id="Capa_1" enable-background="new 0 0 512 512" height="512" viewBox="0 0 512 512" width="512" xmlns="http://www.w3.org/2000/svg"><g><path d="m485.47 458.95h-21.182v-37.33h21.182c14.628 0 26.53-11.897 26.53-26.52 0-14.629-11.901-26.53-26.53-26.53h-19.063c1.424-1.233 2.806-2.527 4.13-3.9 11.706-12.148 18.065-28.676 17.448-45.347-.152-4.139-3.604-7.38-7.772-7.217-4.139.153-7.37 3.633-7.217 7.772.467 12.622-4.366 25.154-13.26 34.383-8.892 9.228-20.894 14.309-33.796 14.309h-71.617c.535-1.841.837-3.78.837-5.792v-15.248c0-3.394-.834-6.59-2.282-9.423 5.474-3.749 9.075-10.041 9.075-17.161v-15.248c0-11.465-9.327-20.792-20.792-20.792h-87.783l31.368-83.983c4.296-11.505 12.495-20.879 23.237-26.651 2.043.436 4.16.67 6.331.67h87.23c2.169 0 4.284-.234 6.325-.669 10.747 5.776 18.95 15.149 23.244 26.651l32.77 87.75c1.126 3.016 3.986 4.878 7.027 4.878.872 0 1.758-.153 2.623-.476 3.88-1.449 5.851-5.77 4.402-9.65l-32.77-87.75c-4.465-11.958-12.183-22.145-22.244-29.581 5.511-5.491 8.927-13.083 8.927-21.458 0-12.746-7.913-23.67-19.08-28.141l21.846-42.129c5.152-9.923 4.763-21.549-1.04-31.1-5.804-9.553-15.945-15.256-27.126-15.256h-10.511c-1.561-5.03-4.115-9.762-7.605-13.894-7.576-8.972-18.659-14.117-30.402-14.117s-22.826 5.145-30.405 14.116c-3.49 4.131-6.044 8.864-7.605 13.894h-10.51c-14.322 0-26.938 9.682-30.681 23.545-1.08 3.999 1.287 8.116 5.286 9.195.654.177 1.312.261 1.959.261 3.306 0 6.333-2.203 7.236-5.547 1.674-6.199 7.332-12.455 16.199-12.455h8.859c.093 1.147.222 2.296.417 3.442l11.501 67.879h-11.314l-16.266-31.355c-1.908-3.677-6.436-5.111-10.111-3.204-3.677 1.908-5.111 6.435-3.204 10.111l13.804 26.609c-11.171 4.469-19.087 15.396-19.087 28.144 0 8.374 3.415 15.965 8.924 21.455-10.057 7.435-17.774 17.623-22.239 29.584l-33.467 89.604c-9.623 1.817-16.929 10.274-16.929 20.418v15.248c0 3.393.834 6.59 2.281 9.422-5.474 3.749-9.075 10.041-9.075 17.162v15.249c0 2.011.302 3.951.837 5.792h-10.29c.535-1.841.837-3.78.837-5.792v-15.247c0-11.465-9.327-20.792-20.792-20.792h-.539c.535-1.841.837-3.781.837-5.792v-15.248c0-2.011-.302-3.951-.837-5.792h7.776c11.465 0 20.792-9.327 20.792-20.792v-15.249c0-11.465-9.327-20.792-20.792-20.792h-5.414c.535-1.841.837-3.781.837-5.792v-15.248c0-11.465-9.327-20.792-20.792-20.792h-100.07c-11.465 0-20.792 9.327-20.792 20.792v15.248c0 11.465 9.327 20.792 20.792 20.792h5.415c-.535 1.841-.837 3.781-.837 5.792v15.249c0 2.011.302 3.951.837 5.792h-7.776c-11.465 0-20.792 9.327-20.792 20.792v15.248c0 11.465 9.327 20.792 20.792 20.792h.539c-.535 1.841-.837 3.781-.837 5.792v15.249c0 2.155.33 4.234.941 6.189-36.012 3.778-64.175 34.316-64.175 71.312 0 39.546 32.169 71.72 71.71 71.72h413.76c14.628 0 26.53-11.901 26.53-26.53 0-14.623-11.901-26.52-26.53-26.52zm-64.713-407.895c3.06 5.036 3.264 11.167.545 16.403l-24.307 46.874h-11.323l11.501-67.879c.194-1.146.323-2.295.417-3.442h8.86c5.898-.001 11.246 3.006 14.307 8.044zm-87.282-7.109c-1.222-7.215.785-14.56 5.508-20.15s11.628-8.796 18.947-8.796 14.224 3.206 18.947 8.796 6.73 12.935 5.508 20.15l-11.926 70.385h-25.057zm-19.227 85.389c.024 0 .047.005.071.005h87.23c.023 0 .044-.004.067-.005 8.406.039 15.233 6.886 15.233 15.302 0 8.439-6.866 15.305-15.305 15.305h-87.23c-8.439 0-15.305-6.866-15.305-15.305.001-8.418 6.831-15.266 15.239-15.302zm-78.95 176.363c0-3.194 2.598-5.792 5.792-5.792h100.071c3.194 0 5.792 2.598 5.792 5.792v15.248c0 3.194-2.598 5.792-5.792 5.792h-6.793-93.278c-3.194 0-5.792-2.598-5.792-5.792zm-6.794 57.08v-15.248c0-3.194 2.598-5.792 5.792-5.792h6.794 93.278c3.194 0 5.792 2.598 5.792 5.792v15.249c0 3.191-2.593 5.786-5.782 5.792h-100.091c-3.19-.007-5.783-2.602-5.783-5.793zm-168.403-125.497v-15.248c0-3.194 2.598-5.792 5.792-5.792h100.072c3.194 0 5.792 2.598 5.792 5.792v15.248c0 3.194-2.598 5.792-5.792 5.792h-100.072c-3.194 0-5.792-2.598-5.792-5.792zm25.37 41.833v-15.249c0-3.194 2.598-5.792 5.792-5.792h100.071c3.194 0 5.792 2.598 5.792 5.792v15.249c0 3.194-2.598 5.792-5.792 5.792h-100.071c-3.194 0-5.792-2.598-5.792-5.792zm-27.731 41.832v-15.248c0-3.194 2.598-5.792 5.792-5.792h100.071c3.194 0 5.792 2.598 5.792 5.792v15.248c0 3.194-2.598 5.792-5.792 5.792h-100.071c-3.194 0-5.792-2.598-5.792-5.792zm126.357 20.792c3.194 0 5.792 2.598 5.792 5.792v15.249c0 3.191-2.593 5.786-5.782 5.792h-100.091c-3.189-.005-5.782-2.601-5.782-5.792v-15.249c0-3.194 2.598-5.792 5.792-5.792zm301.373 155.262h-413.76c-31.27 0-56.71-25.445-56.71-56.72 0-31.27 25.44-56.71 56.71-56.71h413.76c6.357 0 11.53 5.172 11.53 11.53 0 6.352-5.172 11.52-11.53 11.52h-413.76c-18.56 0-33.66 15.104-33.66 33.67 0 18.56 15.1 33.66 33.66 33.66h17.97c4.142 0 7.5-3.358 7.5-7.5s-3.358-7.5-7.5-7.5h-17.97c-10.289 0-18.66-8.371-18.66-18.66 0-10.294 8.371-18.67 18.66-18.67h377.579v37.33h-324.749c-4.142 0-7.5 3.358-7.5 7.5s3.358 7.5 7.5 7.5h360.93c6.357 0 11.53 5.168 11.53 11.52 0 6.358-5.172 11.53-11.53 11.53z"/><path d="m411.341 348.57c4.142 0 7.5-3.358 7.5-7.5v-4.147c11.068-3.091 18.158-12.664 19.746-22.111 2.088-12.423-4.652-23.648-16.772-27.933-6.773-2.395-14.264-5.286-18.462-8.58-1.317-1.033-1.886-3.399-1.417-5.888.234-1.242 1.328-5.394 5.574-6.673 7.939-2.392 13.162 1.693 13.732 2.167 3.183 2.649 7.912 2.216 10.562-.967 2.65-3.184 2.217-7.913-.967-10.562-1.181-.983-5.474-4.237-11.995-5.687v-3.026c0-4.142-3.358-7.5-7.5-7.5s-7.5 3.358-7.5 7.5v3.529c-.219.061-.436.116-.658.183-8.206 2.472-14.332 9.467-15.988 18.257-1.525 8.091 1.119 15.935 6.9 20.469 4.76 3.734 11.343 6.897 22.72 10.919 7.564 2.674 7.401 8.795 6.979 11.303-.855 5.086-5.133 10.583-12.507 10.632-7.227.044-9.488-.31-15.046-3.945-3.466-2.268-8.115-1.296-10.382 2.171-2.268 3.466-1.295 8.114 2.171 10.382 5.996 3.922 10.421 5.514 15.81 6.095v3.41c0 4.144 3.358 7.502 7.5 7.502z"/></g></svg>