<svg id="Capa_1" enable-background="new 0 0 512 512" height="512" viewBox="0 0 512 512" width="512" xmlns="http://www.w3.org/2000/svg"><g><path d="m506.678 42.123-137.74-41.8c-1.42-.431-2.936-.431-4.355 0l-135.573 41.139-135.562-41.139c-2.272-.689-4.737-.262-6.645 1.152s-3.033 3.65-3.033 6.025v216.741c-49.64 25.036-83.77 76.498-83.77 135.789 0 36.111 12.886 71.113 36.283 98.556 2.688 3.152 7.422 3.529 10.573.842 3.152-2.688 3.529-7.421.842-10.573-21.086-24.732-32.698-56.277-32.698-88.825 0-75.531 61.445-136.98 136.97-136.98 75.531 0 136.98 61.449 136.98 136.98 0 75.525-61.449 136.97-136.98 136.97-28.881 0-56.5-8.88-79.873-25.68-3.364-2.418-8.05-1.651-10.467 1.712s-1.651 8.05 1.712 10.467c25.938 18.645 56.585 28.5 88.627 28.5 83.802 0 151.98-68.173 151.98-151.97 0-13.185-1.691-25.982-4.861-38.189l67.67-20.532 135.563 41.139c2.256.687 4.734.267 6.645-1.152 1.908-1.415 3.033-3.649 3.033-6.024v-285.971c.001-3.303-2.16-6.218-5.321-7.177zm-168.364 73.09c-7.783-5.772-17.567-7.47-26.838-4.654l-74.966 22.75v-47.097l122.75-37.248v144.655l-60.642 18.401c-5.016 1.521-10.31.604-14.52-2.519-4.211-3.123-6.625-7.921-6.625-13.164 0-7.268 4.674-13.569 11.628-15.679l39.968-12.129c12.856-3.901 21.494-15.55 21.494-28.985-.001-9.691-4.465-18.559-12.249-24.331zm20.946-81.925-122.75 37.248v-15.674l122.75-37.248zm-260.49-15.674 122.74 37.248v15.675l-98.062-29.753c-2.273-.689-4.737-.263-6.646 1.152-1.907 1.415-3.032 3.649-3.032 6.024v164.955c-5.11 1.328-10.113 2.921-15 4.754zm30 192.205v-151.746l92.74 28.139v47.096l-56.033-17.004c-3.961-1.202-8.152 1.035-9.354 4.999-1.203 3.963 1.035 8.152 4.999 9.354l60.389 18.326v75.934c-20.85-10.775-44.496-16.868-69.54-16.868-7.887.001-15.635.606-23.201 1.77zm107.74 23.975v-84.811l79.322-24.071c4.68-1.421 9.619-.564 13.548 2.349 3.929 2.914 6.183 7.391 6.183 12.282 0 6.782-4.36 12.662-10.85 14.632l-39.967 12.129c-13.321 4.042-22.271 16.111-22.272 30.032-.001 10.041 4.624 19.231 12.689 25.212 8.088 6.014 18.306 7.724 27.811 4.825l56.287-17.079v47.265l-78 23.672c-11.448-18.478-26.737-34.334-44.751-46.437zm52.161 59.863 70.589-21.423v15.674l-64.661 19.619c-1.75-4.738-3.732-9.365-5.928-13.87zm208.329 31.499-122.74-37.248v-15.675l98.062 29.753c2.257.687 4.734.267 6.646-1.152 1.907-1.415 3.032-3.649 3.032-6.024v-154.57c0-4.142-3.358-7.5-7.5-7.5s-7.5 3.358-7.5 7.5v144.457l-92.74-28.139v-47.264l48.845 14.823c3.961 1.201 8.151-1.035 9.354-4.999 1.203-3.963-1.035-8.152-4.999-9.354l-53.201-16.145v-144.655l92.741 28.147v28.189c0 4.142 3.358 7.5 7.5 7.5s7.5-3.358 7.5-7.5v-33.75c0-3.303-2.161-6.217-5.322-7.177l-102.418-31.084v-15.675l122.74 37.247z"/><path d="m151.974 480.513c66.437 0 120.487-54.05 120.487-120.487s-54.05-120.487-120.487-120.487-120.487 54.05-120.487 120.487c0 66.437 54.05 120.487 120.487 120.487zm-7.5-225.704v17.608c0 4.142 3.358 7.5 7.5 7.5s7.5-3.358 7.5-7.5v-17.608c52.2 3.685 94.032 45.517 97.717 97.717h-17.608c-4.142 0-7.5 3.358-7.5 7.5s3.358 7.5 7.5 7.5h17.608c-3.685 52.201-45.517 94.032-97.717 97.718v-17.608c0-4.142-3.358-7.5-7.5-7.5s-7.5 3.358-7.5 7.5v17.608c-52.201-3.685-94.033-45.517-97.718-97.718h17.608c4.142 0 7.5-3.358 7.5-7.5s-3.358-7.5-7.5-7.5h-17.607c3.685-52.2 45.516-94.032 97.717-97.717z"/><path d="m451.943 126.414c-2.354-1.331-5.242-1.292-7.558.103l-44.561 26.818c-2.21 1.33-3.582 3.703-3.631 6.281-.05 2.579 1.229 5.003 3.387 6.417l41.172 26.991v26.38c0 4.142 3.358 7.5 7.5 7.5s7.5-3.358 7.5-7.5v-86.461c0-2.704-1.456-5.198-3.809-6.529zm-34.158 33.618 22.967-13.822v28.878z"/><path d="m119.62 410.477c1.698 0 3.412-.24 5.089-.731l50.043-14.662c5.947-1.742 10.537-6.332 12.278-12.278v.001l14.662-50.043c1.861-6.351.11-13.204-4.57-17.883-4.68-4.68-11.533-6.432-17.883-4.57l-50.043 14.662c-5.945 1.742-10.535 6.332-12.277 12.277l-14.662 50.044c-1.861 6.351-.11 13.203 4.57 17.883 3.443 3.442 8.062 5.3 12.793 5.3zm63.837-85.773c1.076-.426 2.591.182 3.059.782.485.485 1.23 1.526.782 3.059l-12.736 43.469-34.574-34.574zm-66.806 66.806 12.734-43.461 34.569 34.569-43.461 12.734c-1.536.451-2.574-.297-3.06-.782-.485-.486-1.231-1.528-.782-3.06z"/></g></svg>