<svg id="Capa_1" enable-background="new 0 0 512 512" height="512" viewBox="0 0 512 512" width="512" xmlns="http://www.w3.org/2000/svg"><g><path d="m348.609 48.402h-227.049c-4.142 0-7.5 3.358-7.5 7.5s3.358 7.5 7.5 7.5h227.05c5.994 0 10.87 4.876 10.87 10.87v177.18c0 5.994-4.876 10.87-10.87 10.87h-293.18c-6 0-10.88-4.876-10.88-10.87v-177.18c0-5.994 4.881-10.87 10.88-10.87h31.13c4.142 0 7.5-3.358 7.5-7.5s-3.358-7.5-7.5-7.5h-31.13c-14.271 0-25.88 11.605-25.88 25.87v177.18c0 14.265 11.61 25.87 25.88 25.87h293.18c14.265 0 25.87-11.605 25.87-25.87v-177.18c-.001-14.265-11.606-25.87-25.871-25.87z"/><path d="m504.5 430.482c4.142 0 7.5-3.358 7.5-7.5v-87.09c0-15.489-12.601-28.09-28.09-28.09h-81.902c1.332-4.064 2.021-8.347 2.021-12.749v-235.349c0-22.528-18.328-40.856-40.856-40.856h-322.317c-22.528 0-40.856 18.328-40.856 40.856v235.348c0 22.528 18.328 40.857 40.856 40.857h105.83v15.148l-25.753 15.879c-6.757 4.166-9.843 12.095-7.678 19.732 2.166 7.639 8.955 12.771 16.894 12.771h64.951v65.631c0 15.483 12.597 28.08 28.08 28.08h260.73c15.489 0 28.09-12.597 28.09-28.08v-7.09c0-4.142-3.358-7.5-7.5-7.5s-7.5 3.358-7.5 7.5v7.09c0 7.212-5.872 13.08-13.09 13.08h-260.73c-7.212 0-13.08-5.868-13.08-13.08v-129.18c0-7.218 5.868-13.09 13.08-13.09h260.73c7.218 0 13.09 5.872 13.09 13.09v87.09c0 4.144 3.357 7.502 7.5 7.502zm-309.4-94.573v11.835h-33.413v-11.835zm-64.951 48.531c-1.599 0-2.222-1.012-2.462-1.862-.24-.848-.242-2.035 1.119-2.873l27.508-16.961h38.786v21.696zm69.296-63.531h-158.589c-14.257 0-25.856-11.599-25.856-25.857v-235.348c0-14.257 11.599-25.856 25.856-25.856h322.316c14.257 0 25.856 11.599 25.856 25.856v235.348c0 4.55-1.169 8.892-3.373 12.749h-162.475c-9.98.001-18.754 5.24-23.735 13.108z"/><path d="m232.149 337.359c-4.142 0-7.5 3.358-7.5 7.5v111.242c0 4.142 3.358 7.5 7.5 7.5h242.796c4.142 0 7.5-3.358 7.5-7.5v-111.242c0-4.142-3.358-7.5-7.5-7.5zm235.296 37.081h-17.925v-22.081h17.925zm-62.161 0v-22.081h29.237v22.081zm-22.118 37.081v-22.081h29.236v22.081zm-88.474 0v-22.081h29.237v22.081zm44.237-22.081h29.237v22.081h-29.237zm51.355-15h-29.236v-22.081h29.236zm-44.237 0h-29.237v-22.081h29.237zm-44.236 0h-29.237v-22.081h29.237zm-22.119 15v22.081h-40.043v-22.081zm22.119 37.081v22.081h-29.237v-22.081zm15 0h73.473v22.081h-73.473zm88.473 0h29.237v22.081h-29.237zm22.118-15v-22.081h40.043v22.081zm-169.828-59.162v22.081h-17.925v-22.081zm-17.925 74.162h17.925v22.081h-17.925zm209.872 22.081v-22.081h17.925v22.081z"/><path d="m185.904 212.932c2.982 0 5.802-1.791 6.972-4.73l33.862-85.138c1.531-3.849-.349-8.21-4.197-9.741-3.852-1.532-8.21.348-9.741 4.197l-33.862 85.138c-1.531 3.849.349 8.21 4.197 9.741.909.362 1.846.533 2.769.533z"/><path d="m244.355 207.838c1.184.686 2.476 1.011 3.752 1.011 2.588 0 5.106-1.341 6.497-3.742l22.739-39.257c1.371-2.366 1.345-5.29-.067-7.632l-22.739-37.717c-2.139-3.547-6.748-4.689-10.295-2.551-3.547 2.139-4.689 6.748-2.55 10.295l20.451 33.921-20.518 35.421c-2.076 3.586-.854 8.175 2.73 10.251z"/><path d="m159.79 117.951c-3.549-2.139-8.157-.996-10.295 2.551l-22.739 37.717c-1.412 2.342-1.438 5.266-.067 7.632l22.739 39.257c1.391 2.401 3.908 3.742 6.497 3.742 1.276 0 2.569-.326 3.752-1.011 3.584-2.076 4.807-6.665 2.73-10.249l-20.518-35.421 20.451-33.921c2.139-3.549.997-8.158-2.55-10.297z"/></g></svg>