<svg id="Capa_1" enable-background="new 0 0 511.999 511.999" height="512" viewBox="0 0 511.999 511.999" width="512" xmlns="http://www.w3.org/2000/svg"><g><path d="m480.419 313.133c-13.279-15.413-31.055-26.216-50.647-30.915l14.294-92.804c11.922-1.098 21.292-11.146 21.292-23.346 0-6.271-2.438-12.165-6.877-16.603-4.438-4.422-10.327-6.857-16.583-6.857h-19.36c-4.143 0-7.5 3.358-7.5 7.5s3.357 7.5 7.5 7.5h19.36c2.26 0 4.39.882 5.986 2.473 1.595 1.596 2.474 3.722 2.474 5.987 0 4.66-3.795 8.45-8.46 8.45h-196.601c-2.265 0-4.384-.875-5.977-2.473-1.602-1.602-2.483-3.724-2.483-5.977 0-4.665 3.795-8.46 8.46-8.46h142.42c4.143 0 7.5-3.358 7.5-7.5s-3.357-7.5-7.5-7.5h-142.42c-12.936 0-23.46 10.524-23.46 23.46 0 6.259 2.442 12.149 6.868 16.574 3.905 3.919 8.964 6.279 14.424 6.774l14.294 92.802c-19.59 4.699-37.366 15.502-50.65 30.915-15.086 17.505-23.395 39.887-23.395 63.025 0 23.12 8.298 45.491 23.382 63.011.549.634 1.108 1.267 1.668 1.89 2.767 3.082 7.51 3.335 10.591.568s3.336-7.51.568-10.591c-.5-.557-1-1.124-1.476-1.672-3.517-4.085-6.579-8.493-9.196-13.132h269.363c-2.616 4.638-5.678 9.045-9.195 13.128-12.481 14.493-29.656 24.156-48.404 27.268h-154.169c-7.331-1.219-14.444-3.429-21.148-6.585-3.747-1.765-8.216-.158-9.98 3.59s-.157 8.216 3.59 9.98c5.333 2.512 10.884 4.521 16.583 6.009l-12.933 32.071c-.932 2.312-.655 4.935.739 7.001s3.724 3.304 6.216 3.304h188.04c2.492 0 4.821-1.238 6.216-3.303s1.672-4.689.74-7l-12.927-32.073c18.862-4.927 35.941-15.538 48.803-30.473 15.069-17.498 23.368-39.869 23.368-62.99.001-23.143-8.31-45.527-23.398-63.026zm-219.73 183.866 10.232-25.37h145.363l10.224 25.37zm227.778-128.345h-289.74c.554-5.999 1.766-11.894 3.602-17.579h282.537c1.836 5.686 3.048 11.58 3.601 17.579zm-270.333-45.728c12.61-14.631 30-24.344 48.966-27.35 4.079-.646 6.867-4.468 6.238-8.549l-15.019-97.508h170.553l-6.809 44.207-8.472-8.472c-2.93-2.929-7.678-2.929-10.607 0l-17.968 17.968-24.615-24.616c-1.407-1.407-3.314-2.197-5.304-2.197s-3.896.79-5.304 2.197l-30.579 30.579c-2.929 2.929-2.929 7.678 0 10.606 1.465 1.464 3.385 2.197 5.304 2.197s3.839-.732 5.304-2.197l25.275-25.276 24.615 24.616c1.407 1.407 3.314 2.197 5.304 2.197s3.896-.79 5.304-2.197l17.968-17.968 10.945 10.945-5.378 34.919c-.629 4.081 2.16 7.903 6.238 8.549 18.969 3.005 36.357 12.718 48.964 27.35 3.526 4.089 6.596 8.503 9.217 13.15h-269.354c2.621-4.647 5.69-9.06 9.214-13.15zm-15.807 78.306c-1.835-5.686-3.047-11.58-3.6-17.578h289.742c-.553 5.999-1.765 11.893-3.6 17.578z"/><path d="m221.648 263.001 22.054-17.704c3.23-2.593 3.747-7.313 1.154-10.543-25.585-31.875-58.914-56.67-96.728-72.049.491-2.302.755-4.687.755-7.132 0-18.818-15.31-34.128-34.128-34.128s-34.128 15.31-34.128 34.128c0 17.175 12.755 31.42 29.289 33.779-6.606 21.573-13.214 43.14-19.833 64.713-2.821-.528-5.744-.532-8.649.023-6.088 1.168-11.357 4.637-14.835 9.767-3.479 5.13-4.752 11.309-3.585 17.397s4.636 11.357 9.767 14.836l3.103 2.104-59.507 68.126c-6.251 7.156-9.138 16.666-7.921 26.089s6.426 17.887 14.29 23.22l19.514 13.233c5.548 3.763 12.054 5.721 18.637 5.721 2.748 0 5.511-.341 8.222-1.035 9.206-2.355 16.972-8.556 21.308-17.011l41.275-80.49 3.102 2.104c3.981 2.7 8.508 3.992 12.991 3.992 7.441 0 14.76-3.565 19.243-10.175 5.336-7.87 5.172-17.873.393-25.441 18.071-14.506 36.147-29.016 54.217-43.524zm-71.496-83.105-10.368 26.467c-1.511 3.856.391 8.208 4.248 9.719.898.352 1.823.519 2.733.519 2.996 0 5.827-1.808 6.985-4.767l9.907-25.29c12.842 6.855 24.973 14.938 36.233 24.119l-35.727 35.626c-2.933 2.925-2.939 7.673-.015 10.606 1.465 1.469 3.387 2.204 5.311 2.204 1.916 0 3.832-.729 5.296-2.189l36.463-36.361c6.019 5.617 11.757 11.552 17.146 17.826l-16.108 12.931c-18.745 15.049-37.497 30.101-56.244 45.146l-52.353-35.503c7.486-24.401 14.96-48.79 22.431-73.191 6.284-2.221 11.727-6.23 15.718-11.417 2.81 1.129 5.591 2.314 8.344 3.555zm-54.525-24.324c0-10.547 8.581-19.128 19.128-19.128s19.128 8.581 19.128 19.128-8.581 19.128-19.128 19.128-19.128-8.58-19.128-19.128zm-18.549 254.117c-2.376 4.634-6.633 8.033-11.679 9.324-5.044 1.291-10.411.356-14.721-2.568l-19.514-13.233c-4.311-2.923-7.165-7.562-7.833-12.727-.667-5.165.915-10.377 4.341-14.299l60.718-69.512 30.802 20.888zm77.543-86.143c-2.541 3.745-7.654 4.727-11.4 2.187l-62.022-42.06c-1.814-1.23-3.041-3.094-3.454-5.247s.037-4.338 1.268-6.153c1.23-1.814 3.094-3.041 5.247-3.454 2.154-.413 4.338.037 6.152 1.268l62.022 42.06c3.746 2.54 4.727 7.653 2.187 11.399z"/><path d="m162.131 120.913c.653 15.659 13.597 28.198 29.414 28.198 16.233 0 29.44-13.207 29.44-29.44 0-.511-.013-1.02-.04-1.527.668.035 1.34.052 2.014.052 20.907 0 37.917-17.009 37.917-37.917 0-20.907-17.009-37.917-37.917-37.917-7.35 0-14.51 2.161-20.599 6.097-8.405-10.703-21.244-17.067-35.248-17.067-24.756 0-44.897 20.141-44.897 44.898-.001 23.073 17.494 42.137 39.916 44.623zm4.98-74.521c11.422 0 21.684 6.363 26.78 16.605 1.099 2.208 3.213 3.735 5.654 4.084 2.44.346 4.898-.525 6.571-2.337 4.395-4.76 10.375-7.382 16.842-7.382 12.636 0 22.917 10.28 22.917 22.917s-10.28 22.917-22.917 22.917c-3.414 0-6.701-.735-9.769-2.184-3.027-1.429-6.637-.68-8.844 1.84-2.207 2.519-2.476 6.196-.66 9.01 1.504 2.329 2.299 5.03 2.299 7.809 0 7.962-6.478 14.44-14.44 14.44s-14.44-6.478-14.44-14.44c0-1.366.195-2.727.579-4.045.693-2.379.166-4.948-1.409-6.862-1.432-1.74-3.561-2.735-5.791-2.735-1.132.041-2.335.181-3.372.159-16.485 0-29.897-13.412-29.897-29.897 0-16.487 13.412-29.899 29.897-29.899z"/><path d="m268.813 98.029c0 18.818 15.31 34.128 34.128 34.128s34.128-15.31 34.128-34.128-15.31-34.129-34.128-34.129-34.128 15.31-34.128 34.129zm53.256 0c0 10.547-8.581 19.128-19.128 19.128s-19.128-8.581-19.128-19.128 8.581-19.129 19.128-19.129 19.128 8.581 19.128 19.129z"/><path d="m285.026 57.362c15.814 0 28.681-12.866 28.681-28.681-.001-15.815-12.867-28.681-28.681-28.681s-28.681 12.866-28.681 28.681 12.866 28.681 28.681 28.681zm0-42.362c7.544 0 13.681 6.137 13.681 13.681 0 7.543-6.137 13.681-13.681 13.681s-13.681-6.137-13.681-13.681 6.137-13.681 13.681-13.681z"/></g></svg>