<svg id="Capa_1" enable-background="new 0 0 512 512" height="512" viewBox="0 0 512 512" width="512" xmlns="http://www.w3.org/2000/svg"><g><path d="m508.419 206.853c-7.239-4.437-14.737-8.709-22.285-12.697-3.662-1.935-8.2-.535-10.135 3.127-1.936 3.663-.535 8.2 3.127 10.135 5.754 3.04 11.477 6.251 17.07 9.577l-10.556 58.06c-14.979 82.38-69.725 151.584-146.442 185.118l-15.738 6.874c-7.736 3.389-16.655 1.766-22.72-4.136l-12.299-11.969c-28.72-27.958-50.477-62.689-63.122-100.683l7.464-7.192c17.408-16.773 32.213-35.58 44.24-55.83.409.009.818.035 1.227.035 3.155 0 6.312-.268 9.433-.803 14.43-2.467 27.113-10.349 35.716-22.194 8.589-11.826 12.166-26.292 10.073-40.734-.413-2.851-2.423-5.212-5.17-6.078-2.745-.866-5.747-.081-7.719 2.018-5.648 6.012-12.242 10.969-19.485 14.711 7.559-23.117 11.942-47.271 12.932-71.809 46.309 2.13 91.405 12.319 134.154 30.353.952.402 1.939.592 2.912.592 2.925 0 5.705-1.722 6.913-4.587 1.61-3.816-.179-8.215-3.995-9.825-44.546-18.792-91.546-29.377-139.808-31.536-.226-14.022-1.555-28.125-4.04-42.188l-11.16-63.21c-.554-3.134-3.012-5.525-6.055-6.076-99.296-19.575-201.729-1.598-288.439 50.626l-.881.53c-2.658 1.601-4.057 4.674-3.517 7.73l11.17 63.211c4.093 23.136 11.215 45.608 21.168 66.793 1.762 3.749 6.228 5.359 9.978 3.599 3.749-1.761 5.36-6.229 3.599-9.978-9.392-19.988-16.111-41.193-19.973-63.026l-10.27-58.115c81.311-47.824 176.605-64.653 269.347-47.59l10.261 58.116c14.571 82.457-12.726 166.369-73.018 224.464l-12.357 11.907c-6.095 5.867-15.024 7.445-22.751 4.017l-15.69-6.95c-44.845-19.863-82.618-52.16-109.236-93.4-2.247-3.481-6.89-4.481-10.369-2.234-3.479 2.246-4.48 6.888-2.234 10.369 28.208 43.704 68.239 77.931 115.764 98.98l15.686 6.948c4.682 2.077 9.616 3.088 14.509 3.088 6.02 0 11.968-1.542 17.287-4.508 13.627 38.118 35.948 72.932 64.996 101.209l12.3 11.97c6.83 6.646 15.761 10.145 24.853 10.145 4.831 0 9.709-.988 14.34-3.017l15.732-6.871c81.304-35.539 139.32-108.878 155.194-196.18l11.48-63.15c.552-3.046-.822-6.119-3.461-7.736zm-190.703 34.813c-3.92 14.892-16.183 27.001-32.09 29.919 3.041-6.007 5.849-12.12 8.419-18.326 8.462-2.65 16.436-6.563 23.671-11.593z"/><path d="m420.94 266.902c-13.757-8.041-24.253-20.036-30.354-34.689-1.107-2.659-3.64-4.449-6.516-4.606-2.85-.149-5.588 1.347-6.978 3.87-7.041 12.782-8.784 27.581-4.91 41.67 3.882 14.115 12.98 25.957 25.619 33.344 8.642 5.051 18.283 7.639 28.058 7.638 4.524 0 9.079-.555 13.573-1.676 14.179-3.538 26.218-12.319 33.9-24.727 1.516-2.449 1.496-5.549-.052-7.978-1.547-2.429-4.341-3.758-7.209-3.418-15.769 1.872-31.377-1.39-45.131-9.428zm-15.57 26.639c-14.121-8.254-21.484-24.06-19.911-39.52 7.213 10.482 16.659 19.254 27.913 25.831 11.303 6.606 23.643 10.538 36.382 11.66-12.672 9.179-29.939 10.47-44.384 2.029z"/><path d="m340.212 310.427c-18.026-3.278-36.312.56-51.495 10.805-15.155 10.226-25.551 25.701-29.273 43.575-.587 2.819.492 5.726 2.777 7.479 2.284 1.752 5.372 2.042 7.942.747 18.721-9.442 39.552-12.444 60.244-8.682 20.695 3.763 39.133 13.905 53.319 29.329 1.443 1.568 3.455 2.423 5.521 2.423.727 0 1.46-.106 2.177-.324 2.756-.836 4.79-3.177 5.233-6.023 2.808-18.039-1.476-36.183-12.06-51.089-10.602-14.934-26.366-24.964-44.385-28.24zm-7.121 39.166c-6.698-1.218-13.407-1.822-20.074-1.822-11.384 0-22.641 1.763-33.483 5.25 4.15-7.697 10.131-14.332 17.573-19.353 11.918-8.042 26.273-11.054 40.422-8.481 14.144 2.572 26.517 10.444 34.84 22.165 5.197 7.32 8.459 15.632 9.634 24.296-14.14-11.223-30.777-18.758-48.912-22.055z"/><path d="m132.625 124.287c-12.094-8.249-26.696-11.387-41.108-8.843-14.42 2.548-27.061 10.501-35.598 22.396-8.52 11.872-12.016 26.357-9.843 40.788.429 2.848 2.45 5.198 5.201 6.049.729.225 1.475.335 2.214.334 2.052 0 4.053-.843 5.494-2.394 10.812-11.632 24.82-19.246 40.509-22.018 15.692-2.773 31.457-.42 45.591 6.803 2.566 1.31 5.654 1.037 7.948-.705s3.388-4.644 2.814-7.466c-2.902-14.3-11.15-26.71-23.222-34.944zm-35.74 21.542c-12.893 2.278-24.845 7.268-35.281 14.654 3.72-15.198 16.049-27.357 32.522-30.268 2.341-.414 4.674-.613 6.982-.613 13.578 0 26.246 6.913 33.771 17.857-12.28-3.323-25.161-3.898-37.994-1.63z"/><path d="m179.981 161.936c.729.226 1.475.335 2.214.335 2.052 0 4.053-.844 5.494-2.394 10.812-11.632 24.82-19.246 40.509-22.018 15.691-2.775 31.456-.42 45.591 6.803 2.566 1.31 5.654 1.037 7.948-.705s3.388-4.644 2.814-7.466c-2.903-14.301-11.151-26.711-23.223-34.945-12.094-8.249-26.697-11.388-41.109-8.843-14.419 2.548-27.061 10.501-35.598 22.396-8.52 11.872-12.015 26.357-9.842 40.788.429 2.847 2.451 5.198 5.202 6.049zm42.847-54.462c2.341-.414 4.674-.613 6.982-.613 13.578 0 26.247 6.913 33.772 17.857-12.28-3.324-25.161-3.898-37.995-1.631-12.893 2.278-24.846 7.268-35.282 14.655 3.72-15.197 16.05-27.357 32.523-30.268z"/><path d="m101.445 195.583c-2.564-1.309-5.653-1.036-7.948.705-2.294 1.742-3.388 4.644-2.814 7.466 4.247 20.918 16.312 39.072 33.971 51.117 13.684 9.334 29.559 14.196 45.808 14.196 4.758 0 9.55-.417 14.326-1.261 21.093-3.727 39.586-15.362 52.072-32.761 12.464-17.367 17.578-38.556 14.399-59.664-.429-2.848-2.45-5.198-5.201-6.049-2.754-.85-5.747-.05-7.708 2.059-17.194 18.496-39.468 30.602-64.411 35.01-24.951 4.411-50.018.668-72.494-10.818zm135.483-2.247c-1.021 11.78-5.192 23.123-12.256 32.964-2.91 4.056-6.232 7.712-9.878 10.959.506-3.719 1.074-7.435 1.745-11.129l3.841-21.142c5.792-3.434 11.324-7.32 16.548-11.652zm-33.309 19.998-1.838 10.116c-1.474 8.116-2.554 16.325-3.267 24.47-5.146 2.369-10.621 4.106-16.337 5.116-17.212 3.041-34.636-.708-49.072-10.555-10.005-6.825-17.81-16.05-22.807-26.764 21.133 7.539 43.735 9.435 66.249 5.458 9.395-1.661 18.448-4.302 27.072-7.841z"/></g></svg>