<svg id="Capa_1" enable-background="new 0 0 512 512" height="512" viewBox="0 0 512 512" width="512" xmlns="http://www.w3.org/2000/svg"><g><path d="m447.74 80.623c-5.038 0-9.553 2.806-11.782 7.324l-8.959 18.152-20.033 2.911c-4.985.725-9.049 4.151-10.605 8.942-1.557 4.791-.283 9.952 3.324 13.468l14.496 14.129-3.422 19.952c-.853 4.965 1.15 9.889 5.227 12.851 4.075 2.961 9.378 3.343 13.837 1l17.917-9.42 17.918 9.42c1.939 1.02 4.038 1.523 6.127 1.523 2.712 0 5.407-.85 7.71-2.523 4.076-2.961 6.079-7.885 5.227-12.851l-3.422-19.951 14.496-14.129c3.607-3.516 4.881-8.677 3.324-13.468s-5.62-8.218-10.606-8.942l-20.032-2.911-8.959-18.152c-2.231-4.519-6.746-7.325-11.783-7.325zm34.883 42.688-14.619 14.249c-1.768 1.723-2.574 4.206-2.156 6.639l3.451 20.121-18.07-9.5c-1.093-.574-2.291-.861-3.49-.861s-2.397.287-3.49.861l-18.069 9.499 3.451-20.12c.418-2.433-.389-4.916-2.156-6.639l-14.619-14.249 20.202-2.936c2.443-.354 4.555-1.889 5.647-4.103l9.035-18.306 9.034 18.306c1.093 2.213 3.204 3.748 5.647 4.103z"/><path d="m177.178 133.743c-12.897 0-23.391 10.493-23.391 23.391v71.454c0 4.626-3.764 8.391-8.39 8.391h-79.78c-12.897 0-23.39 10.493-23.39 23.39s10.493 23.391 23.39 23.391h79.78c4.626 0 8.39 3.764 8.39 8.391v146.459c0 12.897 10.493 23.39 23.391 23.39 12.897 0 23.391-10.493 23.391-23.39v-146.461c0-4.626 3.764-8.391 8.39-8.391h79.78c12.897 0 23.391-10.493 23.391-23.391 0-12.897-10.493-23.39-23.391-23.39h-79.78c-4.626 0-8.39-3.764-8.39-8.391v-71.454c0-12.896-10.494-23.389-23.391-23.389zm31.781 118.235h79.78c4.627 0 8.391 3.764 8.391 8.39s-3.764 8.391-8.391 8.391h-79.78c-12.897 0-23.39 10.493-23.39 23.391v146.459c0 4.626-3.764 8.39-8.391 8.39-4.626 0-8.391-3.764-8.391-8.39v-146.46c0-12.897-10.493-23.391-23.39-23.391h-79.78c-4.626 0-8.39-3.764-8.39-8.391 0-4.626 3.764-8.39 8.39-8.39h79.78c12.897 0 23.39-10.493 23.39-23.391v-71.454c0-4.626 3.764-8.391 8.391-8.391 4.626 0 8.391 3.764 8.391 8.391v71.454c0 12.899 10.492 23.392 23.39 23.392z"/><path d="m462.925 305.02c-.012-.013-.025-.024-.038-.037-32.637-32.611-79.387-42.7-120.76-30.276v-15.838c8.573 1.734 17.318 2.62 26.11 2.62 36.275 0 69.991-14.501 94.934-40.832 2.377-2.509 2.731-6.315.86-9.22s-5.484-4.154-8.751-3.028c-8.597 2.966-17.605 4.47-26.774 4.47-45.286 0-82.129-36.843-82.129-82.129 0-24.889 11.095-48.151 30.44-63.822 3.219-2.607 3.715-7.33 1.107-10.548-2.608-3.219-7.33-3.714-10.549-1.107-22.878 18.533-35.999 46.043-35.999 75.477 0 53.557 43.572 97.129 97.129 97.129.957 0 1.913-.014 2.867-.042-18.576 12.151-40.281 18.652-63.136 18.652-8.813 0-17.569-1.009-26.11-2.97v-11.42c0-13.851-11.268-25.12-25.12-25.12h-35.858c-18.498-21.103-28.651-48.043-28.651-76.23.001-63.824 51.921-115.749 115.74-115.749 22.859 0 44.57 6.505 63.147 18.662-10.345-.296-20.68 1.031-30.504 3.949-3.971 1.179-6.233 5.354-5.054 9.325 1.18 3.971 5.353 6.234 9.325 5.054 7.526-2.235 15.385-3.369 23.354-3.369 9.195 0 18.202 1.503 26.767 4.467 3.266 1.13 6.882-.118 8.756-3.022 1.873-2.904 1.52-6.713-.856-9.222-24.939-26.339-58.655-40.844-94.935-40.844-72.09 0-130.74 58.654-130.74 130.749 0 27.591 8.617 54.125 24.515 76.23h-31.445v-78.12c0-13.851-11.269-25.12-25.12-25.12h-56.54c-13.851 0-25.12 11.269-25.12 25.12v20.59c0 4.142 3.358 7.5 7.5 7.5s7.5-3.358 7.5-7.5v-20.59c0-5.58 4.54-10.12 10.12-10.12h56.54c5.58 0 10.12 4.54 10.12 10.12v85.62c0 4.142 3.358 7.5 7.5 7.5h93.939c5.58 0 10.12 4.54 10.12 10.12v48.224c-10.273 4.644-20.029 10.784-28.927 18.435h-75.133c-4.142 0-7.5 3.358-7.5 7.5v160.619c0 5.58-4.54 10.12-10.12 10.12h-56.54c-5.58 0-10.12-4.54-10.12-10.12v-160.619c0-4.142-3.358-7.5-7.5-7.5h-93.937c-5.58 0-10.12-4.54-10.12-10.12v-56.54c0-5.58 4.54-10.12 10.12-10.12h93.939c4.142 0 7.5-3.358 7.5-7.5v-30.05c0-4.142-3.358-7.5-7.5-7.5s-7.5 3.358-7.5 7.5v22.55h-86.44c-13.851 0-25.12 11.269-25.12 25.12v56.54c0 13.851 11.269 25.12 25.12 25.12h86.44v153.119c0 13.851 11.269 25.12 25.12 25.12h56.54c13.851 0 25.12-11.269 25.12-25.12v-153.119h52.956c-39.169 47.581-36.529 118.262 7.93 162.722l.004.004c.014.014.028.026.042.04 20.596 20.579 47.908 33.066 76.912 35.159 2.924.211 5.843.315 8.758.315 25.716 0 50.859-8.156 71.612-23.374 3.341-2.449 4.063-7.143 1.613-10.483-2.449-3.34-7.144-4.062-10.482-1.613-20.238 14.839-45.241 22.012-70.422 20.194-6.22-.449-12.349-1.452-18.327-2.962 11.775-2.636 22.592-8.535 31.332-17.276 25.099-25.099 25.099-65.938 0-91.036-19.251-19.25-19.251-50.573 0-69.824 9.325-9.325 21.724-14.461 34.911-14.461 13.17 0 25.552 5.123 34.873 14.424.012.012.024.023.035.034 18.058 18.053 29.013 41.999 30.848 67.429 1.817 25.174-5.355 50.184-20.194 70.421-2.45 3.34-1.728 8.034 1.613 10.483 3.339 2.449 8.034 1.728 10.482-1.613 16.943-23.106 25.133-51.649 23.059-80.371-2.094-29.021-14.596-56.35-35.198-76.95zm-91.037-.001c-25.098 25.099-25.098 65.938 0 91.037 19.251 19.25 19.251 50.573 0 69.823-9.325 9.325-21.724 14.461-34.911 14.461-13.108 0-25.433-5.078-34.738-14.295-.058-.058-.12-.112-.178-.17-41.425-41.425-41.425-108.828 0-150.253 27.357-27.358 66.044-36.642 101.097-27.864-11.751 2.642-22.546 8.536-31.27 17.261z"/><path d="m397.508 330.639c-10.972 10.972-10.972 28.824 0 39.797 5.486 5.486 12.692 8.229 19.898 8.229 7.207 0 14.413-2.743 19.899-8.229 10.972-10.973 10.972-28.825 0-39.797-10.973-10.973-28.826-10.972-39.797 0zm29.19 10.606c5.124 5.124 5.124 13.46 0 18.584-5.123 5.124-13.46 5.123-18.583 0-5.124-5.124-5.124-13.46 0-18.584 5.123-5.122 13.46-5.123 18.583 0z"/><path d="m317.077 411.069c-10.972 10.972-10.972 28.825 0 39.796 5.486 5.486 12.692 8.229 19.898 8.229 7.207 0 14.413-2.743 19.899-8.229 10.972-10.972 10.972-28.825 0-39.796-5.315-5.315-12.382-8.243-19.898-8.243-7.517.001-14.583 2.928-19.899 8.243zm29.191 29.19c-5.122 5.123-13.459 5.124-18.583 0s-5.124-13.46 0-18.583c2.481-2.482 5.781-3.849 9.292-3.849 3.51 0 6.81 1.367 9.291 3.849 5.124 5.123 5.124 13.46 0 18.583z"/></g></svg>