<svg id="Capa_1" enable-background="new 0 0 512.016 512.016" height="512" viewBox="0 0 512.016 512.016" width="512" xmlns="http://www.w3.org/2000/svg"><g><path d="m511.875 357.717c-.842-9.594-5.372-18.285-12.75-24.468-7.377-6.192-16.729-9.134-26.32-8.294-9.592.843-18.281 5.371-24.462 12.742-1.469 1.746-3.035 3.362-4.659 4.808-8.317 7.411-19.127 11.169-32.13 11.169-36.497 0-66.19-29.688-66.19-66.18 0-36.498 29.693-66.19 66.19-66.19 13.257 0 26.042 3.902 36.971 11.285 16.472 11.127 38.928 6.783 50.063-9.686 11.129-16.474 6.78-38.933-9.696-50.064-22.887-15.462-49.631-23.635-77.339-23.635-31.313 0-61.287 10.503-85.642 29.787-4.54-13.311-12.148-25.508-22.357-35.559 5.811-11.542 8.859-24.313 8.859-37.288 0-20.248-7.39-39.761-20.81-54.946-2.744-3.104-7.483-3.397-10.586-.654-3.104 2.743-3.396 7.482-.654 10.586 10.995 12.442 17.05 28.428 17.05 45.014 0 12.312-3.351 24.4-9.69 34.959-1.879 3.131-1.231 7.16 1.536 9.543 16.85 14.513 26.514 35.521 26.514 57.637 0 41.957-34.138 76.09-76.1 76.09-12.164 0-55.904.18-67.14.236l-17.399-46.1c-.127-.332-.256-.663-.366-.92-1.513-3.677-3.518-7.037-5.916-10.026v-168.469c0-11.612 9.448-21.06 21.06-21.06h59.39c8.957 0 17.667 1.72 25.889 5.113 3.831 1.581 8.214-.243 9.794-4.072s-.243-8.214-4.072-9.794c-10.046-4.145-20.682-6.247-31.611-6.247h-59.39c-19.884 0-36.06 16.176-36.06 36.06v156.865c-5.151-2.312-10.831-3.575-16.746-3.575-16.555.013-31.305 9.913-37.594 25.226-.126.297-.251.607-.365.917l-76.762 201.553c-3.433 8.998-3.153 18.793.789 27.583 3.941 8.788 11.069 15.515 20.069 18.94 4.171 1.588 8.511 2.38 12.845 2.38 5.015 0 10.019-1.061 14.732-3.173 8.789-3.94 15.516-11.066 18.941-20.066l10.28-26.989h10.851c4.142 0 7.5-3.358 7.5-7.5s-3.358-7.5-7.5-7.5h-16.02c-3.112 0-5.901 1.922-7.009 4.831l-12.12 31.821c-2 5.255-5.928 9.416-11.059 11.716-5.13 2.298-10.849 2.464-16.104.463-5.256-2-9.418-5.928-11.72-11.06-2.3-5.13-2.464-10.847-.459-16.102l76.78-201.6c.013-.034.025-.067.038-.102.033-.09.071-.181.108-.267.016-.037.032-.074.047-.112 3.961-9.687 13.282-15.951 23.768-15.959 10.452 0 19.776 6.247 23.785 15.988.074.174.139.349.198.501l76.089 201.606c4.093 10.86-1.411 23.03-12.283 27.133-2.382.904-4.875 1.362-7.41 1.362-8.711 0-16.628-5.476-19.703-13.628l-11.98-31.74c-1.102-2.919-3.896-4.852-7.017-4.852h-32.95c-4.142 0-7.5 3.358-7.5 7.5s3.358 7.5 7.5 7.5h27.765l10.148 26.887c5.263 13.957 18.821 23.333 33.737 23.333 4.359 0 8.642-.787 12.718-2.333 18.595-7.018 28.02-27.856 21.009-46.456l-53.065-140.602c15.88-.071 50.541-.21 61.488-.21 11.897 0 23.268-2.295 33.696-6.461 2.857 73.75 63.74 132.871 138.184 132.871 12.622 0 24.842-1.726 36.322-5.129 3.971-1.177 6.236-5.351 5.059-9.322s-5.348-6.238-9.322-5.059c-10.095 2.993-20.881 4.51-32.058 4.51-67.988 0-123.3-55.308-123.3-123.29 0-.745.014-1.473.026-2.203 25.516-16.16 42.493-44.636 42.493-77.007 0-4.384-.322-8.729-.942-13.011 22.598-20.061 51.461-31.069 81.723-31.069 24.704 0 48.544 7.284 68.941 21.064 9.623 6.501 12.163 19.617 5.666 29.235-6.502 9.618-19.618 12.155-29.239 5.656-13.42-9.064-29.107-13.855-45.368-13.855-44.768 0-81.19 36.422-81.19 81.19 0 44.763 36.422 81.18 81.19 81.18 16.794 0 30.962-5.037 42.104-14.966 2.159-1.92 4.233-4.059 6.172-6.365 3.614-4.309 8.688-6.953 14.289-7.446 5.604-.491 11.057 1.227 15.368 4.845 4.311 3.612 6.955 8.686 7.447 14.286.491 5.6-1.229 11.057-4.849 15.369-5.726 6.832-12.265 12.883-19.521 17.962-3.394 2.375-4.219 7.052-1.843 10.445 1.459 2.084 3.786 3.2 6.15 3.2 1.485 0 2.985-.44 4.294-1.356 8.328-5.83 15.85-12.781 22.414-20.613 6.193-7.376 9.14-16.723 8.298-26.317z"/><path d="m198.462 132.189h9.244c8.958-.032 17.185-.055 21.599-.055 14.334 0 25.997-11.662 25.997-25.997 0-14.334-11.662-25.997-25.997-25.997h-30.843c-4.142 0-7.5 3.358-7.5 7.5v37.049c0 4.142 3.358 7.5 7.5 7.5zm7.5-37.049h23.343c6.063 0 10.997 4.933 10.997 10.997s-4.933 10.997-10.997 10.997c-4.425 0-12.673.023-21.625.055h-1.717v-22.049z"/><path d="m190.962 234.892c0 1.994.794 3.906 2.207 5.314 1.406 1.4 3.309 2.186 5.293 2.186h.029c14.421-.057 33.273-.125 41.186-.125 18.74 0 33.986-15.246 33.986-33.986s-15.246-33.985-33.986-33.985h-31.812l-9.433.035c-4.13.016-7.471 3.369-7.471 7.5v53.061zm15-45.589 33.715-.007c10.469 0 18.986 8.517 18.986 18.985s-8.517 18.986-18.986 18.986c-6.612 0-20.812.047-33.715.096z"/><path d="m143.44 378.416c1.4-2.026 1.717-4.61.848-6.914l-20.229-53.604c-1.101-2.916-3.889-4.847-7.006-4.852-.004 0-.007 0-.011 0-3.112 0-5.901 1.922-7.009 4.831l-20.416 53.604c-.878 2.305-.566 4.895.833 6.926 1.4 2.031 3.708 3.244 6.175 3.244h40.646c2.463-.001 4.769-1.21 6.169-3.235zm-35.933-11.766 9.502-24.948 9.415 24.948z"/></g></svg>