<svg xmlns="http://www.w3.org/2000/svg" viewBox="0 0 81.3 56">
  <g id="f8ac9c38-6e08-40e4-aff7-de067d2a2a17" data-name="Layer 2">
    <g id="ad9080cd-8e0f-48bf-943a-819de71f89f0" data-name="bar&amp;buttons">
      <g>
        <g>
          <path d="M40.7,24.6C37,6.4,1.6,12.4,1.6,12.4V38.9s36.5,0,39.1,15.5Z" fill="#fff"/>
          <path d="M40.7,56A1.8,1.8,0,0,1,39,54.6c-1.9-11.5-27.6-14-37.4-14A1.6,1.6,0,0,1,0,38.9V12.4a1.6,1.6,0,0,1,1.4-1.6A83.2,83.2,0,0,1,19.9,10c13,1.1,20.7,6,22.4,14.3V54.4A1.7,1.7,0,0,1,40.8,56ZM3.3,37.3c6.1.2,27.3,1.4,35.7,10.4V24.8C35.9,10.4,9.6,13,3.3,13.8Z" fill="#4b5da9"/>
        </g>
        <g>
          <path d="M40.7,21.2C38-.4,11.9,1.7,11.9,1.7V33.8S38.8,36,40.7,54.4Z" fill="#fff"/>
          <path d="M40.7,56A1.6,1.6,0,0,1,39,54.6C37.3,37.8,12,35.5,11.8,35.4a1.5,1.5,0,0,1-1.5-1.6V1.7A1.5,1.5,0,0,1,11.8.1c.3-.1,27.6-2,30.5,20.9V54.4A1.6,1.6,0,0,1,40.7,56ZM13.6,32.3a60.4,60.4,0,0,1,12.6,3.4C32,38.1,36.3,41.3,39,45.2V21.3C38,13.1,33.2,7.6,24.9,4.9A40.4,40.4,0,0,0,13.6,3.3Z" fill="#4b5da9"/>
        </g>
        <path d="M33.4,20.6a1.2,1.2,0,0,1-1.2-.7,12.3,12.3,0,0,0-12.1-5.8,1.4,1.4,0,0,1-.3-2.8,15.1,15.1,0,0,1,14.8,7.3,1.5,1.5,0,0,1-.5,1.9Z" fill="#7da6d7"/>
        <path d="M32.9,29.8a1.4,1.4,0,0,1-1.3-.9,12.3,12.3,0,0,0-11.2-7.4A1.4,1.4,0,0,1,19.1,20a1.4,1.4,0,0,1,1.4-1.3,15,15,0,0,1,13.7,9.2,1.4,1.4,0,0,1-.8,1.8Z" fill="#7da6d7"/>
        <g>
          <path d="M40.7,24.6c3.6-18.2,39-12.2,39-12.2V38.9s-36.5,0-39,15.5Z" fill="#fff"/>
          <path d="M40.7,56h-.2A1.6,1.6,0,0,1,39,54.4V24.3C40.7,16,48.4,11.1,61.4,10a83.2,83.2,0,0,1,18.5.8,1.6,1.6,0,0,1,1.4,1.6V38.9a1.6,1.6,0,0,1-1.6,1.7c-9.8,0-35.5,2.5-37.4,14.1A1.6,1.6,0,0,1,40.7,56Zm1.6-31.2V47.7C50.7,38.8,71.9,37.5,78,37.3V13.8C71.7,13,45.4,10.4,42.3,24.8Z" fill="#4b5da9"/>
        </g>
        <g>
          <path d="M40.7,21.2C43.3-.4,69.4,1.7,69.4,1.7V33.8S42.5,36,40.7,54.4Z" fill="#fff"/>
          <path d="M40.7,56h-.1A1.6,1.6,0,0,1,39,54.4V21C41.9-1.9,69.2,0,69.5,0A1.6,1.6,0,0,1,71,1.7V33.8a1.6,1.6,0,0,1-1.5,1.6c-.2,0-25.5,2.4-27.2,19.1A1.6,1.6,0,0,1,40.7,56Zm1.6-34.7V45.2c2.7-3.9,7-7.1,12.8-9.5a54.6,54.6,0,0,1,12.6-3.4V3.3A40.4,40.4,0,0,0,56.4,4.9C48.1,7.6,43.3,13.1,42.3,21.3Z" fill="#4b5da9"/>
        </g>
        <path d="M47.9,20.6a1.1,1.1,0,0,1-.7-.2,1.4,1.4,0,0,1-.5-1.9,15.3,15.3,0,0,1,14.8-7.2,1.4,1.4,0,0,1,1.2,1.5,1.4,1.4,0,0,1-1.5,1.3,12.3,12.3,0,0,0-12.1,5.8A1.4,1.4,0,0,1,47.9,20.6Z" fill="#7da6d7"/>
        <path d="M48.4,29.8h-.5a1.4,1.4,0,0,1-.8-1.8,15,15,0,0,1,13.7-9.2A1.3,1.3,0,0,1,62.2,20a1.3,1.3,0,0,1-1.3,1.5,12.5,12.5,0,0,0-11.2,7.4A1.4,1.4,0,0,1,48.4,29.8Z" fill="#7da6d7"/>
      </g>
    </g>
  </g>
</svg>
