<svg xmlns="http://www.w3.org/2000/svg" viewBox="0 0 57.6 58.1">
  <g id="b15cb4ec-aa21-4aa9-a1aa-51f38c1bb115" data-name="Layer 2">
    <g id="f20f4a50-3445-49d3-a402-8bc166fa1ebc" data-name="bar&amp;buttons">
      <g>
        <g>
          <path d="M7.9,48.9a6.2,6.2,0,0,1-6.2-6.2V7.8A6.2,6.2,0,0,1,7.9,1.6H49.7a6.2,6.2,0,0,1,6.2,6.2V42.7a6.2,6.2,0,0,1-6.2,6.2Z" fill="#fff"/>
          <path d="M49.7,3.2a4.6,4.6,0,0,1,4.6,4.6V42.7a4.6,4.6,0,0,1-4.6,4.6H7.9a4.7,4.7,0,0,1-4.6-4.6V7.8A4.7,4.7,0,0,1,7.9,3.2H49.7m0-3.2H7.9A7.8,7.8,0,0,0,.1,7.8V42.7a7.8,7.8,0,0,0,7.8,7.8H49.7a7.9,7.9,0,0,0,7.9-7.8V7.8A7.9,7.9,0,0,0,49.7,0Z" fill="#4b5da9"/>
        </g>
        <path d="M56,53.3H11.7A3.1,3.1,0,0,0,9,51.7a3.4,3.4,0,0,0-2.8,1.6H1.6A1.6,1.6,0,0,0,0,54.9a1.7,1.7,0,0,0,1.6,1.7H6.2A3.3,3.3,0,0,0,9,58.1a3,3,0,0,0,2.7-1.5H56a1.7,1.7,0,0,0,1.6-1.7A1.7,1.7,0,0,0,56,53.3Z" fill="#4b5da9"/>
        <circle cx="9" cy="54.9" r="1.6" fill="#7da6d7"/>
        <path d="M22.1,39.3a4.5,4.5,0,0,1-2.5-.7,4.8,4.8,0,0,1-2.4-4.2V16.1a4.9,4.9,0,0,1,2.4-4.2,4.8,4.8,0,0,1,4.9,0L40.3,21a4.9,4.9,0,0,1,0,8.5L24.5,38.6A4.4,4.4,0,0,1,22.1,39.3Z" fill="#4b5da9"/>
        <path d="M22.1,14.5l-.8.2a1.5,1.5,0,0,0-.9,1.4V34.4a1.4,1.4,0,0,0,.9,1.4,1.3,1.3,0,0,0,1.6,0l15.8-9.1a1.5,1.5,0,0,0,.8-1.4,1.6,1.6,0,0,0-.8-1.5h0L22.9,14.7A1.3,1.3,0,0,0,22.1,14.5Z" fill="#ffca05"/>
      </g>
    </g>
  </g>
</svg>
