<svg xmlns="http://www.w3.org/2000/svg" viewBox="0 0 62.5 54.8">
  <g id="b749cd4d-0a13-4eaf-91f5-36b01ed37b44" data-name="Layer 2">
    <g id="bfc51d65-0d44-47bd-bef8-bcb760aa5c0d" data-name="bar&amp;buttons">
      <g>
        <g>
          <path d="M62.5,9.6a3.9,3.9,0,0,0-1.1-2.7L55.6,1.1a3.7,3.7,0,0,0-5.3,0L47.1,4.3H7.8A7.8,7.8,0,0,0,0,12.1V47a7.8,7.8,0,0,0,7.8,7.8H49.6A7.8,7.8,0,0,0,57.5,47V16.2l3.9-3.9A3.9,3.9,0,0,0,62.5,9.6Z" fill="#4b5da9"/>
          <path d="M19.7,22l-.4.2L13.5,28a.6.6,0,0,0,0,.8l13,13a.6.6,0,0,0,.8,0L59.1,10a.4.4,0,0,0,.2-.4.5.5,0,0,0-.2-.4L53.3,3.4a.4.4,0,0,0-.4-.2l-.4.2L26.9,29l-6.8-6.8Z" fill="#ffca05"/>
          <path d="M54.2,47a4.6,4.6,0,0,1-4.6,4.6H7.8A4.7,4.7,0,0,1,3.2,47V12.1A4.7,4.7,0,0,1,7.8,7.5h36L26.9,24.4l-4.5-4.5a3.7,3.7,0,0,0-2.7-1.1,3.6,3.6,0,0,0-2.6,1.1l-5.8,5.8a3.8,3.8,0,0,0,0,5.4l7.1,7.1h.1l5.8,5.8a3.6,3.6,0,0,0,2.6,1.1,3.9,3.9,0,0,0,2.7-1.1L54.2,19.4Z" fill="#fff"/>
        </g>
        <path d="M49.8,46.3a1.6,1.6,0,0,1-1.6-1.6V38.5a1.6,1.6,0,0,1,3.2,0v6.2A1.6,1.6,0,0,1,49.8,46.3Z" fill="#7da6d7"/>
      </g>
    </g>
  </g>
</svg>
