<svg xmlns="http://www.w3.org/2000/svg" viewBox="0 0 59.3 50.2">
  <g id="fb0752f9-63a0-44bb-916a-6c70c00d30f2" data-name="Layer 2">
    <g id="a2ed969f-b245-4b4c-9085-cdab817ec666" data-name="bar&amp;buttons">
      <g>
        <path d="M42.4,0A17.1,17.1,0,0,0,30.5,4.9l-.9.9-.8-.9A17.1,17.1,0,0,0,16.9,0a17.3,17.3,0,0,0-12,4.9,17.1,17.1,0,0,0,0,23.9L24.1,48a8.2,8.2,0,0,0,5.5,2.2A7.8,7.8,0,0,0,35.1,48L46.4,36.7l8-7.9a17.1,17.1,0,0,0,0-23.9A17.3,17.3,0,0,0,42.4,0Z" fill="#4b5da9"/>
        <path d="M42.4,3.3a13.8,13.8,0,0,1,9.6,4,13.6,13.6,0,0,1,0,19.2l-7.9,7.9L32.8,45.6a4.4,4.4,0,0,1-3.2,1.3,4.3,4.3,0,0,1-3.1-1.3L7.3,26.5A13.6,13.6,0,0,1,16.9,3.3a14,14,0,0,1,9.6,4l1.6,1.6a1.9,1.9,0,0,0,1.5.7,2,2,0,0,0,1.6-.7l1.6-1.6a13.8,13.8,0,0,1,9.6-4" fill="#fff"/>
        <path d="M50.7,20.8A1.7,1.7,0,0,1,49,19.2,8.3,8.3,0,0,0,45.8,13,7.2,7.2,0,0,0,40,11.6a1.8,1.8,0,0,1-2-1.3,1.7,1.7,0,0,1,1.3-2,10.4,10.4,0,0,1,8.6,2.1A11.4,11.4,0,0,1,52.3,19a1.6,1.6,0,0,1-1.5,1.8Z" fill="#7da6d7"/>
      </g>
    </g>
  </g>
</svg>
