<svg xmlns="http://www.w3.org/2000/svg" viewBox="0 0 79.3 49.5">
  <g id="b33f1324-7dad-4dbb-bfdb-cd525f0465d1" data-name="Layer 2">
    <g id="be23651a-3a18-4589-a74b-1b0f0031db76" data-name="bar&amp;buttons">
      <g>
        <path d="M3.2,41.3H76.1a5.5,5.5,0,0,1-5.4,5H8.7a5.5,5.5,0,0,1-5.5-5" fill="#fff"/>
        <path d="M36.2,45h6.9a1.4,1.4,0,0,0,1.4-1.4,1.4,1.4,0,0,0-1.4-1.4H36.2a1.4,1.4,0,0,0-1.4,1.4A1.4,1.4,0,0,0,36.2,45Z" fill="#4b5da9"/>
        <g>
          <path d="M39.7,32.4v5.7H27.4l3.4-3.8a6.1,6.1,0,0,1,4.4-1.9Z" fill="#ffca05"/>
          <path d="M39.7,32.4v5.7H52l-3.5-3.8a5.9,5.9,0,0,0-4.3-1.9Z" fill="#fff"/>
        </g>
        <path d="M78.5,39.2a3.2,3.2,0,0,0-2.4-1.1H73.6V8.4A8.5,8.5,0,0,0,65.2,0H14.1A8.4,8.4,0,0,0,5.8,8.4V38.1H3.2A3.2,3.2,0,0,0,.8,39.2,3,3,0,0,0,0,41.6a8.8,8.8,0,0,0,8.7,7.9h62a8.6,8.6,0,0,0,8.6-7.9A3,3,0,0,0,78.5,39.2ZM52,38.1H27.4l3.4-3.8a6.1,6.1,0,0,1,4.4-1.9h9a5.9,5.9,0,0,1,4.3,1.9Zm18.7,8.2H8.7a5.5,5.5,0,0,1-5.5-5H76.1A5.5,5.5,0,0,1,70.7,46.3Z" fill="#4b5da9"/>
        <path d="M56.4,38.1l-5.5-6a9.4,9.4,0,0,0-6.7-2.9h-9a9.2,9.2,0,0,0-6.7,2.9l-5.5,6H14.6V8.9a.3.3,0,0,1,.3-.3H64.5c.1,0,.2.1.2.3V38.1Z" fill="#fff"/>
        <path d="M45.5,13.7a8.1,8.1,0,0,0-11.7,0,8,8,0,0,0-2.4,5.8,8.3,8.3,0,0,0,14.1,5.9,8.1,8.1,0,0,0,0-11.7Zm-2.2,9.4a5.1,5.1,0,0,1-8.7-3.6,4.9,4.9,0,0,1,1.5-3.6,5.3,5.3,0,0,1,7.2,0,5.3,5.3,0,0,1,0,7.2Z" fill="#4b5da9"/>
        <path d="M9,8.4a5.1,5.1,0,0,1,5.1-5.2H65.2a5.2,5.2,0,0,1,5.2,5.2V38.1H68V8.9a3.5,3.5,0,0,0-3.5-3.5H14.9a3.5,3.5,0,0,0-3.5,3.5V38.1H9Z" fill="#fff"/>
        <path d="M60.7,27.5a1.6,1.6,0,0,1-1.6-1.6V19.7a1.6,1.6,0,1,1,3.2,0v6.2A1.6,1.6,0,0,1,60.7,27.5Z" fill="#7da6d7"/>
      </g>
    </g>
  </g>
</svg>
