<svg xmlns="http://www.w3.org/2000/svg" viewBox="0 0 57.5 57.5">
  <g id="a48b685b-385a-4e15-a31a-1f16afc87846" data-name="Layer 2">
    <g id="a43ff160-3279-446d-a187-dbcc0aa026fc" data-name="bar&amp;buttons">
      <g>
        <circle cx="28.7" cy="28.7" r="28.7" fill="#4b5da9"/>
        <path d="M28.7,0a28.8,28.8,0,0,0,0,57.5Z" fill="#4b5da9"/>
        <path d="M28.7,53.7a25,25,0,1,1,25-25A25,25,0,0,1,28.7,53.7Z" fill="#fff"/>
        <g>
          <path d="M13.2,26.3a2.5,2.5,0,1,0,0,4.9,2.5,2.5,0,1,0,0-4.9Z" fill="#ffca05"/>
          <path d="M44.3,26.3a2.5,2.5,0,1,0,0,4.9,2.5,2.5,0,1,0,0-4.9Z" fill="#ffca05"/>
          <path d="M30.5,27.1V20.7c3,.6,3,2.4,3,3.1H37c0-3.7-2.4-6.1-6.5-6.6V14.7H27v2.5c-4.1.5-6.5,2.9-6.5,6.6s2.4,6.1,6.5,6.6v6.3c-3-.5-3-2.3-3-3H20.5c0,3.7,2.4,6.1,6.5,6.6v2.5h3.5V40.3c4.1-.5,6.5-2.9,6.5-6.6S34.6,27.6,30.5,27.1ZM24,23.8c0-.7,0-2.5,3-3.1v6.1C24,26.3,24,24.5,24,23.8Zm6.5,12.9V30.6c3,.5,3,2.4,3,3.1S33.5,36.2,30.5,36.7Z" fill="#4b5da9"/>
        </g>
      </g>
    </g>
  </g>
</svg>
