<svg xmlns="http://www.w3.org/2000/svg" viewBox="0 0 59.1 73.7">
  <g id="Layer_2" data-name="Layer 2">
    <g id="Layer_1-2" data-name="Layer 1">
      <g>
        <path d="M2.3,47,15,15.4a3.7,3.7,0,0,1,4.8-2.1,3.4,3.4,0,0,1,1.9,4.8l-4.5,11,.5.2,5.8-14.4a3.8,3.8,0,0,1,4.9-2.1,3.4,3.4,0,0,1,1.8,4.8L24.7,31.5v.6H25l7.5-18.8a3.7,3.7,0,0,1,4.9-2.1,3.3,3.3,0,0,1,1.8,4.8L31.8,34.6V35h.4l6-14.9A3.7,3.7,0,0,1,43,18.3,3.7,3.7,0,0,1,45.2,23L33.6,51.8l11.8-5a4.3,4.3,0,0,1,3.4,7.8L30.7,62.3a10.5,10.5,0,0,1-7.4-.2l-1.8-.7L17,72.6,1.1,66.3,5.6,55a6.1,6.1,0,0,1-3.3-8" fill="#7ca6d6"/>
        <path d="M2.3,47,15,15.4a3.7,3.7,0,0,1,4.8-2.1,3.4,3.4,0,0,1,1.9,4.8l-4.5,11,.5.2,5.8-14.4a3.8,3.8,0,0,1,4.9-2.1,3.4,3.4,0,0,1,1.8,4.8L24.7,31.5v.6H25l7.5-18.8a3.7,3.7,0,0,1,4.9-2.1,3.3,3.3,0,0,1,1.8,4.8L31.8,34.6V35h.4l6-14.9A3.7,3.7,0,0,1,43,18.3,3.7,3.7,0,0,1,45.2,23L33.6,51.8l11.8-5a4.3,4.3,0,0,1,3.4,7.8L30.7,62.3a10.5,10.5,0,0,1-7.4-.2l-1.8-.7L17,72.6,1.1,66.3,5.6,55A6.1,6.1,0,0,1,2.3,47Z" fill="none" stroke="#4c5ea7" stroke-linecap="round" stroke-linejoin="round" stroke-width="2.08"/>
        <path d="M14.3,4.2a.7.7,0,0,1,.3.6.9.9,0,0,1-.9.9A9.7,9.7,0,0,0,8.3,8.3a9.7,9.7,0,0,0-2.6,5.4.8.8,0,0,1-.9.8.9.9,0,0,1-.9-.9A10.9,10.9,0,0,1,7,7a10.4,10.4,0,0,1,6.7-3.1.7.7,0,0,1,.6.3" fill="#4c5ea9"/>
        <path d="M14.2.3a.8.8,0,0,1,.3.7.8.8,0,0,1-1,.8A12,12,0,0,0,1.8,13.5a.8.8,0,0,1-.8.9.9.9,0,0,1-1-.9A14,14,0,0,1,4,4a14.2,14.2,0,0,1,9.6-4,.6.6,0,0,1,.6.3" fill="#4c5ea9"/>
        <path d="M51.7,29l-.6-.2a.9.9,0,0,1,0-1.3,9.3,9.3,0,0,0,2-5.7,8.7,8.7,0,0,0-2-5.6A.9.9,0,0,1,52.5,15a10.8,10.8,0,0,1,2.4,6.8,10.4,10.4,0,0,1-2.5,6.9.9.9,0,0,1-.7.3" fill="#4c5ea9"/>
        <path d="M54.6,31.7a.9.9,0,0,1-.7-.3.9.9,0,0,1,.1-1.3,11.8,11.8,0,0,0,3.3-8.3A11.9,11.9,0,0,0,54,13.6a.9.9,0,1,1,1.3-1.3,13.9,13.9,0,0,1-.1,19.2l-.6.2" fill="#4c5ea9"/>
      </g>
    </g>
  </g>
</svg>
