<svg xmlns="http://www.w3.org/2000/svg" viewBox="0 0 15.7 14.7">
  <g id="e498449a-f7a0-4b8f-a853-e8a6af65b4c3" data-name="Layer 2">
    <g id="bdf88d7b-9ff2-40c0-9f84-bdd24623c2d2" data-name="bar&amp;buttons">
      <g>
        <path d="M13.6,3.4H11.7L6.9.3A1.8,1.8,0,0,0,4.5.8L2.9,3.4H2.1A2.1,2.1,0,0,0,0,5.5v7.1a2.1,2.1,0,0,0,2.1,2.1H13.6a2.2,2.2,0,0,0,2.1-2.1V5.4A2.1,2.1,0,0,0,13.6,3.4Zm-8.8-1,.3-.3a1.5,1.5,0,0,1,2-.5L9.9,3.4H4.2Zm9.9,10.2a1.1,1.1,0,0,1-1.1,1.1H2.1A1.1,1.1,0,0,1,1,12.6V5.5A1.1,1.1,0,0,1,2.1,4.4H13.6a1,1,0,0,1,1.1,1Z" fill="#4b5da9"/>
        <path d="M9.8,6.8a2.1,2.1,0,0,0-2,2.1,2,2,0,0,0,2,2.1h5.3V6.8Z" fill="#4b5da9"/>
        <path d="M2.6,7.3v2.9a.5.5,0,0,1-.5.5.5.5,0,0,1-.5-.5V7.3a.5.5,0,0,1,.5-.5A.5.5,0,0,1,2.6,7.3Z" fill="#7da6d7"/>
      </g>
    </g>
  </g>
</svg>
