<svg xmlns="http://www.w3.org/2000/svg" viewBox="0 0 15.6 17.3">
  <g id="b2a2da08-68f4-4fb7-bde7-1ca53ff239eb" data-name="Layer 2">
    <g id="eda748cc-a4b8-4c03-84e9-a8a9c6809192" data-name="bar&amp;buttons">
      <g>
        <path d="M12.1,0H3.6A3.6,3.6,0,0,0,0,3.6v7.6a3.6,3.6,0,0,0,3.6,3.5h.9l2.1,2.1a1.8,1.8,0,0,0,1.2.5A1.8,1.8,0,0,0,9,16.8l2.1-2.1h1a3.5,3.5,0,0,0,3.5-3.5V3.6A3.6,3.6,0,0,0,12.1,0Zm2.5,11.2a2.5,2.5,0,0,1-2.5,2.5H10.7l-1,1L8.3,16.1a.7.7,0,0,1-1,0L4.9,13.7H3.5A2.5,2.5,0,0,1,1,11.2V3.6A2.5,2.5,0,0,1,3.6,1h8.5a2.5,2.5,0,0,1,2.5,2.6Z" fill="#4b5da9"/>
        <g>
          <path d="M7.2,9.6V8.9c0-.2.1-.4.1-.6s.1-.2.1-.4l.3-.3c.1-.1.3-.2.4-.4s.3-.2.4-.4l.4-.4A.5.5,0,0,0,9.1,6a.9.9,0,0,0,.1-.5A.7.7,0,0,0,9.1,5a.5.5,0,0,0-.2-.4c-.2-.2-.3-.3-.5-.3H7.9a1,1,0,0,0-.9.4,1.6,1.6,0,0,0-.5,1L5.2,5.4a3.5,3.5,0,0,1,.9-1.6A2.9,2.9,0,0,1,8,3.1l.9.2.8.4a2.2,2.2,0,0,1,.5.8,1.3,1.3,0,0,1,.2.9,1.9,1.9,0,0,1-.1.8,1.6,1.6,0,0,1-.4.7l-.7.8H9l-.3.3-.2.3a.4.4,0,0,1-.1.3v.9ZM7,11.3a.8.8,0,0,1,.2-.5.9.9,0,0,1,.6-.3l.6.3c.2.1.2.3.2.5s0,.5-.2.6l-.6.3-.6-.3A.8.8,0,0,1,7,11.3Z" fill="#4b5da9"/>
          <path d="M7.8,12.3a.7.7,0,0,1-.6-.3.9.9,0,0,1-.3-.7.9.9,0,0,1,.3-.6.7.7,0,0,1,.6-.3.9.9,0,0,1,.7.3.9.9,0,0,1,.3.6,1,1,0,0,1-1,1Zm0-1.6a.6.6,0,0,0-.5.2.8.8,0,0,0-.2.4.8.8,0,0,0,.2.5.6.6,0,0,0,.5.2c.2,0,.4,0,.5-.2a.8.8,0,0,0,.2-.5.8.8,0,0,0-.2-.4C8.2,10.7,8,10.7,7.8,10.7Zm.7-.9H7.1V8.9a1.3,1.3,0,0,1,.1-.6c0-.1.1-.3.1-.4l.3-.4c.1-.1.3-.2.4-.4a.8.8,0,0,0,.4-.4l.4-.3c.1-.2.2-.3.2-.5s.1-.2.1-.4A.9.9,0,0,0,9,5l-.2-.4-.4-.2H7.9a1.2,1.2,0,0,0-.9.4,1.9,1.9,0,0,0-.4.9H5.1V5.4a2.7,2.7,0,0,1,1-1.7A2.5,2.5,0,0,1,8,3l1,.2a1.4,1.4,0,0,1,.8.5,1.8,1.8,0,0,1,.5.7,1.6,1.6,0,0,1,.2,1,2.5,2.5,0,0,1-.1.9A2.5,2.5,0,0,1,10,7l-.9.9-.3.3v.2a.4.4,0,0,0-.1.3c0,.1-.1.2-.1.4ZM7.4,9.5h.9V8.7c0-.2.1-.3.1-.4L8.6,8,9,7.7h.1l.7-.8.4-.6a1.9,1.9,0,0,0,.1-.8,2.9,2.9,0,0,0-.2-.9,1.8,1.8,0,0,0-.5-.7l-.7-.4H8a2.8,2.8,0,0,0-1.8.6,2.2,2.2,0,0,0-.8,1.4h1a1.3,1.3,0,0,1,.5-.9,1.2,1.2,0,0,1,1-.4h.6c.2,0,.3.1.4.3s.3.2.3.4a1.4,1.4,0,0,1,.2.6,1.4,1.4,0,0,1-.2.6.8.8,0,0,1-.2.4c-.1.2-.3.3-.4.4l-.4.4-.4.4L7.5,8c0,.1-.1.2-.1.4V9.5Z" fill="#4b5da9"/>
        </g>
        <path d="M11.3,2.4a1.8,1.8,0,0,1,1.9,1.9.4.4,0,0,0,.8,0,2.7,2.7,0,0,0-2.7-2.7.4.4,0,0,0-.4.4A.4.4,0,0,0,11.3,2.4Z" fill="#7da6d7"/>
      </g>
    </g>
  </g>
</svg>
