<svg xmlns="http://www.w3.org/2000/svg" viewBox="0 0 21 17.4">
  <g id="bacdaef9-e2a8-4391-a2b5-c8159e631bef" data-name="Layer 2">
    <g id="ab3face7-350e-48cd-bc88-0864f8537c2f" data-name="bar&amp;buttons">
      <g>
        <g>
          <path d="M8.2,10.3v-1l.2-.4a.2.2,0,0,1,.2-.2l.3-.4L9.2,8l.3-.3.2-.3A.8.8,0,0,0,9.8,7a.9.9,0,0,0-.1-.5l-.2-.3L9.2,6H8.8a1,1,0,0,0-.8.3,2,2,0,0,0-.4.8h-1a1.9,1.9,0,0,1,.7-1.3,2,2,0,0,1,1.5-.5h.8l.6.4a1,1,0,0,1,.4.5,2.4,2.4,0,0,1,.2.8c0,.3-.1.5-.1.7l-.4.5-.5.6H9.7l-.3.3c-.1,0-.1.1-.1.2s-.1.1-.1.2v.8ZM8,11.7a.8.8,0,0,1,.2-.5l.5-.2.4.2c.2.1.2.3.2.5s0,.3-.2.4-.2.2-.4.2-.4,0-.5-.2A.5.5,0,0,1,8,11.7Z" fill="#4b5da9"/>
          <path d="M8.7,12.4a.7.7,0,0,1-.6-.2.8.8,0,0,1-.2-.5,1.4,1.4,0,0,1,.2-.6l.6-.2.5.2a.7.7,0,0,1,.2.6c0,.2,0,.4-.2.5S8.9,12.4,8.7,12.4Zm0-1.3-.4.2a.5.5,0,0,0-.2.4.8.8,0,0,0,.2.4h.8a.6.6,0,0,0,.1-.4c0-.2,0-.3-.1-.4Zm.6-.7H8.1V9.2l.2-.3.2-.3.3-.3L9.2,8l.2-.3a.8.8,0,0,0,.2-.4A.4.4,0,0,0,9.7,7c0-.2,0-.3-.1-.4l-.2-.3c0-.1-.1-.2-.3-.2H8.8a1.1,1.1,0,0,0-.8.3,1.5,1.5,0,0,0-.3.7H6.5a1.8,1.8,0,0,1,.8-1.4A2,2,0,0,1,8.8,5h.8l.7.4a1.5,1.5,0,0,1,.4.6,1.9,1.9,0,0,1,.2.8,1.4,1.4,0,0,1-.2.7.9.9,0,0,1-.3.6l-.7.7-.2.2-.2.2v1.1Zm-1-.2h.8V9.5a.4.4,0,0,1,.1-.3V9l.3-.3h.1l.6-.6.3-.5c0-.1.1-.4.1-.6a1.4,1.4,0,0,0-.2-.7,2.1,2.1,0,0,0-.4-.6l-.6-.3H8.8a2.1,2.1,0,0,0-1.4.4,1.9,1.9,0,0,0-.7,1.2h.8a2,2,0,0,1,.4-.8,1.2,1.2,0,0,1,.9-.3h.4l.4.2.2.4a.7.7,0,0,1,.1.5.6.6,0,0,1-.1.4l-.2.4-.3.3L9,8.4l-.4.3c0,.1-.1.2-.1.3l-.2.3v.9Z" fill="#4b5da9"/>
        </g>
        <path d="M3.3,9.5A1.8,1.8,0,0,1,3.3,7a.6.6,0,0,0,0-.6.4.4,0,0,0-.5,0,2.5,2.5,0,0,0,0,3.6h.5A.5.5,0,0,0,3.3,9.5Z" fill="#7da6d7"/>
        <path d="M20,6,15,1A3.4,3.4,0,0,0,10.5.8,3.4,3.4,0,0,0,6,1L1,6a3.3,3.3,0,0,0,0,4.7l.6.7v2.7a1.7,1.7,0,0,0,.5,1.2,1.5,1.5,0,0,0,1.1.4H6l.6.7a3.5,3.5,0,0,0,3.9.6h.1a3.4,3.4,0,0,0,3.8-.6l.6-.7h2.8a1.5,1.5,0,0,0,1.1-.4,1.7,1.7,0,0,0,.5-1.2V11.3l.6-.6A3.3,3.3,0,0,0,20,6ZM7.3,15.7h0l-.9-.9H3.2a.7.7,0,0,1-.7-.7V11l-.9-1a2.4,2.4,0,0,1,0-3.3l5.1-5a2.3,2.3,0,0,1,3.1-.3h.1l.2.2.4.4h0l5.2,5.2a2.3,2.3,0,0,1,0,3.4l-4.2,4.2-.7.7h-.1l-.2.2h0l-.3.2h0A2.4,2.4,0,0,1,7.3,15.7ZM19.4,10l-1,1v3.1a.6.6,0,0,1-.6.7H14.6l-.9.9h0a2.4,2.4,0,0,1-2.3.6l.9-.9,4.1-4a3.4,3.4,0,0,0,0-4.8L11.2,1.5h0a2.4,2.4,0,0,1,3.1.2l5,5.1A2.3,2.3,0,0,1,19.4,10Z" fill="#4b5da9"/>
      </g>
    </g>
  </g>
</svg>
