<svg xmlns="http://www.w3.org/2000/svg" viewBox="0 0 12.8 15.5">
  <g id="a622d541-f8d3-45d5-a463-a7ef3ee985c8" data-name="Layer 2">
    <g id="a73f2e96-1573-4fd8-9564-a74c484039da" data-name="bar&amp;buttons">
      <g>
        <g>
          <path d="M12.5,3.3l-.4-.4h0L9.9.6h0L9.5.3A.9.9,0,0,0,8.8,0H2A2,2,0,0,0,0,2V13.5a2,2,0,0,0,2,2h8.8a2,2,0,0,0,2-2V3.9A.9.9,0,0,0,12.5,3.3ZM10.8,14.5H2a1.1,1.1,0,0,1-1.1-1V2A1.1,1.1,0,0,1,2,.9H8.3c0,.2-.1.3-.1.4V2.5a2,2,0,0,0,2,2h1.6v9.1A1,1,0,0,1,10.8,14.5Z" fill="#4b5da9"/>
          <g>
            <line x1="3" y1="6.5" x2="9.8" y2="6.5" fill="#ffca05"/>
            <path d="M9.8,7H3a.5.5,0,0,1-.5-.5A.5.5,0,0,1,3,6.1H9.8a.5.5,0,0,1,.5.4A.5.5,0,0,1,9.8,7Z" fill="#4b5da9"/>
          </g>
          <g>
            <line x1="3" y1="8.3" x2="9.8" y2="8.3" fill="#ffca05"/>
            <path d="M9.8,8.8H3a.5.5,0,0,1,0-1H9.8a.5.5,0,1,1,0,1Z" fill="#4b5da9"/>
          </g>
          <g>
            <line x1="3" y1="10.1" x2="9.8" y2="10.1" fill="#ffca05"/>
            <path d="M9.8,10.6H3a.5.5,0,0,1,0-1H9.8a.5.5,0,0,1,0,1Z" fill="#4b5da9"/>
          </g>
          <g>
            <line x1="3" y1="11.9" x2="9.8" y2="11.9" fill="#ffca05"/>
            <path d="M9.8,12.3H3a.5.5,0,0,1-.5-.4.5.5,0,0,1,.5-.5H9.8a.5.5,0,0,1,.5.5A.5.5,0,0,1,9.8,12.3Z" fill="#4b5da9"/>
          </g>
        </g>
        <path d="M4.9,2.6H3a.5.5,0,0,1-.5-.4A.5.5,0,0,1,3,1.7H4.9a.5.5,0,0,1,.5.5A.5.5,0,0,1,4.9,2.6Z" fill="#7da6d7"/>
      </g>
    </g>
  </g>
</svg>
