<svg xmlns="http://www.w3.org/2000/svg" viewBox="0 0 82.2 82.2">
  <g id="f44f77dd-4222-4371-8a8c-29029bccf943" data-name="Layer 2">
    <g id="bc784aa5-bd2e-4dae-b15f-fdf9dee76977" data-name="Layer 1">
      <g>
        <g>
          <path d="M44.6,75a2,2,0,0,1-1.1-.3,2.2,2.2,0,0,1-1.2-2.1l.5-14.7a2.2,2.2,0,0,1,.6-1.5l17-18.7a2.1,2.1,0,0,1,1.7-.7H63a2.4,2.4,0,0,1,1.4,2.3L62.7,63.1a2.3,2.3,0,0,1-1.1,1.7L45.8,74.7A2.4,2.4,0,0,1,44.6,75Z" fill="#fff"/>
          <path d="M62.1,39.3,60.4,62.9,44.6,72.7,45.1,58l17-18.7m0-4.6a4.5,4.5,0,0,0-3.4,1.5l-17,18.7a4.7,4.7,0,0,0-1.2,2.9L40,72.6a4.7,4.7,0,0,0,2.3,4.1,4.6,4.6,0,0,0,2.3.6,4.5,4.5,0,0,0,2.5-.7l15.7-9.8A4.5,4.5,0,0,0,65,63.2l1.7-23.6A4.7,4.7,0,0,0,63.9,35a5.7,5.7,0,0,0-1.8-.3Z" fill="#4b5da9"/>
        </g>
        <g>
          <path d="M9.6,40a2.2,2.2,0,0,1-2-1.2,2.4,2.4,0,0,1,0-2.3l9.9-15.8a2.5,2.5,0,0,1,1.8-1.1L42.9,18h.2a2.4,2.4,0,0,1,2.1,1.4,2.5,2.5,0,0,1-.6,2.7L25.9,38.9a2.2,2.2,0,0,1-1.5.6Z" fill="#fff"/>
          <path d="M43.1,20.2l-18.8,17-14.7.5,9.8-15.8,23.7-1.7m0-4.6h-.4L19.1,17.3a4.5,4.5,0,0,0-3.6,2.2L5.7,35.3A4.6,4.6,0,0,0,5.6,40a4.7,4.7,0,0,0,4,2.3h.1l14.8-.5a4,4,0,0,0,2.9-1.2L46.2,23.7a4.8,4.8,0,0,0,1.1-5.3,4.6,4.6,0,0,0-4.2-2.8Z" fill="#4b5da9"/>
        </g>
        <g>
          <path d="M42.4,58.4a2.5,2.5,0,0,1-1.6-.6L24.4,41.4a2.4,2.4,0,0,1-.7-1.6,2.8,2.8,0,0,1,.7-1.7l29-29c4.1-4,11.3-6.8,17.8-6.8a17,17,0,0,1,6.1,1,1.9,1.9,0,0,1,.9.5,2.6,2.6,0,0,1,.7,1.1c2.8,7.8-.7,18.8-5.8,23.9l-29,29A2.7,2.7,0,0,1,42.4,58.4Z" fill="#ffca05"/>
          <path d="M71.2,4.6a15.7,15.7,0,0,1,5.4.9h.1c2.6,6.9-.7,17.1-5.2,21.6l-29.1,29L26,39.8,55.1,10.7c3.4-3.4,10.1-6.1,16.1-6.1m0-4.6h0c-7,0-15,3.1-19.4,7.5l-29,29a4.5,4.5,0,0,0-1.4,3.3A4.3,4.3,0,0,0,22.8,43L39.2,59.4a4.5,4.5,0,0,0,3.2,1.3,4.6,4.6,0,0,0,3.3-1.3l29-29c5.7-5.7,9.6-17.6,6.3-26.3a3.7,3.7,0,0,0-.8-1.5A4.4,4.4,0,0,0,78,1.1,21.5,21.5,0,0,0,71.2,0Z" fill="#4b5da9"/>
        </g>
        <path d="M63.6,24.6a5.8,5.8,0,0,1-4.2-1.8,5.8,5.8,0,0,1,0-8.4h0a6,6,0,0,1,4.2-1.8h0a5.9,5.9,0,0,1,4.2,10.2A5.9,5.9,0,0,1,63.6,24.6Z" fill="#4b5da9"/>
        <path d="M6.1,78.5a2.1,2.1,0,0,1-1.6-.7,2.2,2.2,0,0,1,0-3.2L24.1,55a2.3,2.3,0,1,1,3.2,3.2L7.8,77.8A2.3,2.3,0,0,1,6.1,78.5Z" fill="#7da6d7"/>
        <path d="M2.3,64.8a2.4,2.4,0,0,1-1.6-4L15.3,46.2a2.2,2.2,0,0,1,3.2,0,2.4,2.4,0,0,1,0,3.3L3.9,64.1A2.4,2.4,0,0,1,2.3,64.8Z" fill="#7da6d7"/>
        <path d="M19.7,82.2a2.3,2.3,0,0,1-1.6-.7,2.2,2.2,0,0,1,0-3.2L32.7,63.7a2.4,2.4,0,0,1,3.3,0,2.2,2.2,0,0,1,0,3.2L21.4,81.5A2.3,2.3,0,0,1,19.7,82.2Z" fill="#7da6d7"/>
        <path d="M62.6,17.6a1.4,1.4,0,1,0,2,2,1.8,1.8,0,0,0,.4-1,1.8,1.8,0,0,0-.4-1,2.1,2.1,0,0,0-1-.4h0a1.8,1.8,0,0,0-1,.4Z" fill="#fff"/>
      </g>
    </g>
  </g>
</svg>
