<svg xmlns="http://www.w3.org/2000/svg" viewBox="0 0 72.1 72.1">
  <g id="a250af41-75be-4b09-8bb4-c530a423e54a" data-name="Layer 2">
    <g id="f7dba2fa-a1d7-45a3-9628-3c4035bc4012" data-name="Layer 1">
      <g>
        <g>
          <path d="M39.7,0H32.4a5.9,5.9,0,0,0-5.9,6v4.6l-1.7.7L21.5,8a6,6,0,0,0-8.4,0L8,13.1a6,6,0,0,0,0,8.4l3.3,3.3a12.2,12.2,0,0,0-.7,1.7H6a6,6,0,0,0-6,5.9v7.3a5.9,5.9,0,0,0,6,5.9h4.6a8.7,8.7,0,0,0,.7,1.7L8,50.6A6,6,0,0,0,8,59l5.1,5.1a5.8,5.8,0,0,0,8.4,0l3.3-3.2,1.7.6v4.7a5.9,5.9,0,0,0,5.9,5.9h7.3a5.9,5.9,0,0,0,5.9-6V61.5l1.7-.6,3.3,3.2a5.8,5.8,0,0,0,8.4,0L64.1,59a5.8,5.8,0,0,0,0-8.4l-3.2-3.3.6-1.7h4.6a5.9,5.9,0,0,0,6-5.9V32.4a6,6,0,0,0-6-5.9H61.5l-.6-1.7,3.2-3.3a5.8,5.8,0,0,0,0-8.4L59,8a6,6,0,0,0-8.4,0l-3.3,3.3-1.7-.7V6a5.9,5.9,0,0,0-5.9-6Z" fill="#4b5da9"/>
          <path d="M39.7,4.1A1.8,1.8,0,0,1,41.5,6v6.7a1.2,1.2,0,0,0,.9,1.1,29.6,29.6,0,0,1,4.9,2l.6.2a.9.9,0,0,0,.8-.4l4.8-4.7a1.5,1.5,0,0,1,1.3-.5,1.7,1.7,0,0,1,1.3.5L61.2,16a1.9,1.9,0,0,1,0,2.6l-4.7,4.8a1.1,1.1,0,0,0-.2,1.4,26.5,26.5,0,0,1,2,4.9,1.2,1.2,0,0,0,1.2.9h6.6A1.8,1.8,0,0,1,68,32.4v7.3a1.8,1.8,0,0,1-1.9,1.8H59.5a1.2,1.2,0,0,0-1.2.9,29.6,29.6,0,0,1-2,4.9,1.1,1.1,0,0,0,.2,1.4l4.7,4.8a1.9,1.9,0,0,1,0,2.6l-5.1,5.1a1.8,1.8,0,0,1-1.3.6,1.6,1.6,0,0,1-1.3-.6l-4.8-4.7a.9.9,0,0,0-.8-.4l-.6.2a26.5,26.5,0,0,1-4.9,2,1.2,1.2,0,0,0-.9,1.2v6.6A1.8,1.8,0,0,1,39.7,68H32.4a1.8,1.8,0,0,1-1.8-1.9V59.5a1.2,1.2,0,0,0-.9-1.2,29.6,29.6,0,0,1-4.9-2l-.6-.2a.9.9,0,0,0-.8.4l-4.8,4.7a1.6,1.6,0,0,1-1.3.6,1.9,1.9,0,0,1-1.3-.6l-5.1-5.1a1.9,1.9,0,0,1,0-2.6l4.7-4.8a1.1,1.1,0,0,0,.2-1.4,26.5,26.5,0,0,1-2-4.9,1.2,1.2,0,0,0-1.1-.9H6a1.8,1.8,0,0,1-1.9-1.8V32.4A1.8,1.8,0,0,1,6,30.6h6.7a1.2,1.2,0,0,0,1.1-.9,29.6,29.6,0,0,1,2-4.9,1.1,1.1,0,0,0-.2-1.4l-4.7-4.8a1.9,1.9,0,0,1,0-2.6L16,10.9a1.8,1.8,0,0,1,1.3-.5,1.5,1.5,0,0,1,1.3.5l4.8,4.7a.9.9,0,0,0,.8.4l.6-.2a26.5,26.5,0,0,1,4.9-2,1.2,1.2,0,0,0,.9-1.1V6a1.8,1.8,0,0,1,1.8-1.9h7.3" fill="#fff"/>
          <path d="M36.1,47h0a11,11,0,1,1,0-21.9h0V4.1H32.4A1.8,1.8,0,0,0,30.6,6v6.7a1.2,1.2,0,0,1-.9,1.1,26.5,26.5,0,0,0-4.9,2,1.1,1.1,0,0,1-1.4-.2l-4.8-4.7a1.9,1.9,0,0,0-2.6,0L10.9,16a1.9,1.9,0,0,0,0,2.6l4.7,4.8a1.1,1.1,0,0,1,.2,1.4,29.6,29.6,0,0,0-2,4.9,1.2,1.2,0,0,1-1.1.9H6a1.8,1.8,0,0,0-1.9,1.8v7.3A1.8,1.8,0,0,0,6,41.5h6.7a1.2,1.2,0,0,1,1.1.9,26.5,26.5,0,0,0,2,4.9,1.1,1.1,0,0,1-.2,1.4l-4.7,4.8a1.9,1.9,0,0,0,0,2.6L16,61.2a1.9,1.9,0,0,0,2.6,0l4.8-4.7a1.1,1.1,0,0,1,1.4-.2,29.6,29.6,0,0,0,4.9,2,1.2,1.2,0,0,1,.9,1.2v6.6A1.8,1.8,0,0,0,32.4,68h3.7Z" fill="#ffca05"/>
        </g>
        <path d="M54,40.8a2.4,2.4,0,0,1-1.8-2.7A13.5,13.5,0,0,0,41.4,22.3a2.3,2.3,0,0,1-1.8-2.7,2.3,2.3,0,0,1,2.7-1.9A18.2,18.2,0,0,1,56.7,38.9,2.3,2.3,0,0,1,54,40.8Z" fill="#7da6d7"/>
      </g>
      <path d="M36.1,47a11,11,0,1,0-11-10.9A10.9,10.9,0,0,0,36.1,47" fill="#4b5da9"/>
      <path d="M36.1,42.9a6.9,6.9,0,1,1,6.8-6.8,6.9,6.9,0,0,1-6.8,6.8Z" fill="#fff"/>
    </g>
  </g>
</svg>
