<svg xmlns="http://www.w3.org/2000/svg" viewBox="0 0 77.8 61.4">
  <g id="e50a828a-9f28-4f83-b112-591092a55719" data-name="Layer 2">
    <g id="e6fce9b5-02c7-46ff-a651-c7e10e07e632" data-name="Layer 1">
      <g>
        <path d="M65.3,0H12.5A12.5,12.5,0,0,0,0,12.5V48.9A12.6,12.6,0,0,0,12.5,61.4H65.3A12.6,12.6,0,0,0,77.8,48.9V12.5A12.5,12.5,0,0,0,65.3,0ZM49.6,30.9,72.1,8.4a8.1,8.1,0,0,1,1.1,4.1V48.9A8.2,8.2,0,0,1,72,53.2Z" fill="#4b5da9"/>
        <path d="M65.3,4.6a8.8,8.8,0,0,1,3.3.7L43.2,30.8a6.4,6.4,0,0,1-4.5,1.9,6,6,0,0,1-4.4-1.9L8.9,5.5a7.4,7.4,0,0,1,3.6-.9Z" fill="#fff"/>
        <path d="M6,53.4a8,8,0,0,1-1.4-4.5V12.5a8,8,0,0,1,1-3.8L28.2,31.3Z" fill="#fff"/>
        <path d="M12.5,56.8a6.7,6.7,0,0,1-2.8-.6L31.5,34.5a10.7,10.7,0,0,0,7.2,2.8h0a11.1,11.1,0,0,0,7.7-3.1l22,21.9a7.8,7.8,0,0,1-3.1.7Z" fill="#fff"/>
        <path d="M49.6,30.9,72.1,8.4a8.1,8.1,0,0,1,1.1,4.1V48.9A8.2,8.2,0,0,1,72,53.2Z" fill="#ffca05"/>
      </g>
      <path d="M52.9,13.4H42.2a2.3,2.3,0,0,1-2.3-2.3,2.3,2.3,0,0,1,2.3-2.3H52.9a2.3,2.3,0,0,1,2.3,2.3A2.3,2.3,0,0,1,52.9,13.4Z" fill="#7da6d7"/>
    </g>
  </g>
</svg>
