<svg xmlns="http://www.w3.org/2000/svg" viewBox="0 0 90.9 71.3">
  <g id="a8e3d2b8-f373-4f17-a8e5-3704f8103a05" data-name="Layer 2">
    <g id="ef450b16-34ec-4d82-9fa7-fb085066f823" data-name="Layer 1">
      <g>
        <path d="M79.9,48.4l6.3-16.7a3.1,3.1,0,0,0-.3-2.3,2.6,2.6,0,0,0-2-1H81.6V38.5Z" fill="none"/>
        <path d="M68.5,13.4H32.7V11.1a6.5,6.5,0,0,0-6.5-6.5H11.1a6.5,6.5,0,0,0-6.5,6.5v2.3h0V60.3a6.4,6.4,0,0,0,2.8,5.3h.5c.9.3,5.5,1.6,7.9-4C19,54.5,26.9,31.9,27,31.7a12.1,12.1,0,0,1,11.3-7.9H75V19.9A6.5,6.5,0,0,0,68.5,13.4Z" fill="#ffca05"/>
        <path d="M68,66.7h0Z" fill="#ffca05"/>
        <path d="M68.5,66.7a8.7,8.7,0,0,0,3.1-1h-3Z" fill="#ffca05"/>
        <path d="M68,71.3h.5a11.1,11.1,0,0,0,10.2-6.6A12.3,12.3,0,0,1,68,71.3Z" fill="#4b5da9"/>
        <path d="M74.5,33.5h1.7a2.3,2.3,0,0,1,2.3,2.3,2.3,2.3,0,0,1-2.3,2.3H73.6l-4.8,26-.2,1.7h3a7.1,7.1,0,0,0,3.3-3.9l5-13.4,1.7-9.9V28.4H75.4Z" fill="#ffca05"/>
        <path d="M68.5,66.7v-.9l.2-1.7,4.8-26H48.8a2.3,2.3,0,0,1-2.3-2.3,2.3,2.3,0,0,1,2.3-2.3H74.5l.9-5.1H38.3a7.5,7.5,0,0,0-7,4.8c-.3.9-8.1,22.9-11.3,30.3a12.2,12.2,0,0,1-1.8,3.2H68.5Z" fill="#ffca05"/>
        <path d="M89.7,26.8a7.2,7.2,0,0,0-5.8-3H79.6V19.9A11.1,11.1,0,0,0,68.5,8.8H37A11,11,0,0,0,26.2,0H11.1A11.1,11.1,0,0,0,0,11.1V60.3a11.1,11.1,0,0,0,11.1,11H68a12.3,12.3,0,0,0,10.7-6.6,11.2,11.2,0,0,0,.5-1.3L90.5,33.3A7.1,7.1,0,0,0,89.7,26.8ZM4.6,13.4h0V11.1a6.5,6.5,0,0,1,6.5-6.5H26.2a6.5,6.5,0,0,1,6.5,6.5v2.3H68.5A6.5,6.5,0,0,1,75,19.9v3.9H38.3A12.1,12.1,0,0,0,27,31.7c-.1.2-8,22.8-11.2,30-2.4,5.6-7,4.3-7.9,4H7.4a6.4,6.4,0,0,1-2.8-5.3Z" fill="#4b5da9"/>
        <path d="M86.2,31.7,79.9,48.4l-5,13.4a7.1,7.1,0,0,1-3.3,3.9,8.7,8.7,0,0,1-3.1,1H18.2A12.2,12.2,0,0,0,20,63.5c3.2-7.4,11-29.4,11.3-30.3a7.5,7.5,0,0,1,7-4.8H83.9a2.6,2.6,0,0,1,2,1A3.1,3.1,0,0,1,86.2,31.7Z" fill="#fff"/>
        <path d="M76.2,38.1a2.3,2.3,0,0,0,2.3-2.3,2.3,2.3,0,0,0-2.3-2.3H48.8a2.3,2.3,0,0,0-2.3,2.3,2.3,2.3,0,0,0,2.3,2.3H76.2Z" fill="#7da6d7"/>
      </g>
    </g>
  </g>
</svg>
