<svg xmlns="http://www.w3.org/2000/svg" viewBox="0 0 11.2 15.6">
  <g id="fa2fbbae-f622-4053-90ef-d3b9ba8d00da" data-name="Layer 2">
    <g id="b93e02fd-b0c1-4fb1-b4c0-0c3a0dd1780d" data-name="bar&amp;buttons">
      <g>
        <path d="M8.7,7.6H8.6A4.3,4.3,0,0,0,10,4.4,4.4,4.4,0,0,0,5.6,0,4.4,4.4,0,0,0,1.2,4.4,4.7,4.7,0,0,0,2.6,7.6h0C1.1,8.9.3,9.7,0,13.3a1.8,1.8,0,0,0,1,1.5,10,10,0,0,0,4.6.8,10,10,0,0,0,4.6-.8,1.7,1.7,0,0,0,1-1.6C11,9.7,10.2,8.9,8.7,7.6Zm-3.1.2A3.4,3.4,0,0,1,2.2,4.4,3.5,3.5,0,0,1,5.6.9,3.5,3.5,0,0,1,9,4.4,3.4,3.4,0,0,1,5.6,7.8Z" fill="#4b5da9"/>
        <path d="M5.9,2.4A1.6,1.6,0,0,1,7.5,4a.3.3,0,0,0,.3.3A.5.5,0,0,0,8.1,4,2.2,2.2,0,0,0,5.9,1.8a.3.3,0,0,0-.3.3A.3.3,0,0,0,5.9,2.4Z" fill="#7da6d7"/>
        <path d="M10,13.3l-.4.4a8.3,8.3,0,0,1-3.5.7h-1a7.5,7.5,0,0,1-3.4-.7l-.4-.4c.2-3.1.8-3.7,2.1-4.7l.3-.3h0a4.1,4.1,0,0,0,1.9.5,3.8,3.8,0,0,0,1.9-.5h0l.3.3C9.1,9.6,9.7,10.2,10,13.3Z" fill="#fff"/>
      </g>
    </g>
  </g>
</svg>
