<svg xmlns="http://www.w3.org/2000/svg" viewBox="0 0 82.1 72.2">
  <g id="af1902a6-018e-4ee7-a68e-7fad5697cdf6" data-name="Layer 2">
    <g id="a4a1ee7f-dc32-4885-8c0e-cea4414d8073" data-name="Layer 1">
      <g>
        <g>
          <path d="M11.2,69.9A8.9,8.9,0,0,1,2.3,61V11.2a8.9,8.9,0,0,1,8.9-8.9H70.9a8.9,8.9,0,0,1,8.9,8.9V61a8.9,8.9,0,0,1-8.9,8.9Z" fill="#fff"/>
          <path d="M70.9,4.6a6.7,6.7,0,0,1,6.6,6.6V61a6.7,6.7,0,0,1-6.6,6.6H11.2A6.7,6.7,0,0,1,4.6,61V11.2a6.7,6.7,0,0,1,6.6-6.6H70.9m0-4.6H11.2A11.2,11.2,0,0,0,0,11.2V61A11.2,11.2,0,0,0,11.2,72.2H70.9A11.2,11.2,0,0,0,82.1,61V11.2A11.2,11.2,0,0,0,70.9,0Z" fill="#4b5da9"/>
        </g>
        <path d="M19.8,17.2V12.5a2,2,0,0,0-.7-1.6,2,2,0,0,0-1.6-.7H12.8a2.2,2.2,0,0,0-1.7.7,2,2,0,0,0-.7,1.6v4.7a2.4,2.4,0,0,0,2.4,2.4h4.7a2,2,0,0,0,1.6-.7A2.2,2.2,0,0,0,19.8,17.2Z" fill="#4b5da9"/>
        <path d="M19.8,31.4V26.7a2.2,2.2,0,0,0-.7-1.7,2,2,0,0,0-1.6-.7H12.8a2.4,2.4,0,0,0-2.4,2.4v4.7a2,2,0,0,0,.7,1.6,2.2,2.2,0,0,0,1.7.7h4.7a2,2,0,0,0,1.6-.7A2,2,0,0,0,19.8,31.4Z" fill="#4b5da9"/>
        <path d="M19.8,45.5V40.8a2.4,2.4,0,0,0-2.3-2.4H12.8a2.6,2.6,0,0,0-1.7.7,2.3,2.3,0,0,0-.7,1.7v4.7a2.2,2.2,0,0,0,.7,1.7,2.6,2.6,0,0,0,1.7.7h4.7a2.4,2.4,0,0,0,1.6-.7A2.2,2.2,0,0,0,19.8,45.5Z" fill="#4b5da9"/>
        <path d="M19.8,59.7V54.9a2.1,2.1,0,0,0-.7-1.6,2,2,0,0,0-1.6-.7H12.8a2.2,2.2,0,0,0-1.7.7,2.1,2.1,0,0,0-.7,1.6v4.8a2.1,2.1,0,0,0,.7,1.6,2.2,2.2,0,0,0,1.7.7h4.7a2,2,0,0,0,1.6-.7A2.1,2.1,0,0,0,19.8,59.7Z" fill="#4b5da9"/>
        <path d="M57.5,31.4V12.5a2,2,0,0,0-.7-1.6,2,2,0,0,0-1.6-.7H26.9a2,2,0,0,0-1.6.7,2,2,0,0,0-.7,1.6V31.4a2.4,2.4,0,0,0,2.3,2.3H55.2a2.4,2.4,0,0,0,2.3-2.3Z" fill="#ffca05"/>
        <path d="M57.5,59.7V40.8a2.4,2.4,0,0,0-2.3-2.4H26.9a2.4,2.4,0,0,0-2.3,2.4V59.7a2.1,2.1,0,0,0,.7,1.6,2,2,0,0,0,1.6.7H55.2a2,2,0,0,0,1.6-.7A2.1,2.1,0,0,0,57.5,59.7Z" fill="#ffca05"/>
        <path d="M71.7,17.2V12.5a2,2,0,0,0-.7-1.6,2.2,2.2,0,0,0-1.7-.7H64.6a2,2,0,0,0-1.6.7,2,2,0,0,0-.7,1.6v4.7a2.2,2.2,0,0,0,.7,1.7,2,2,0,0,0,1.6.7h4.7a2.4,2.4,0,0,0,2.4-2.4Z" fill="#4b5da9"/>
        <path d="M71.7,31.4V26.7a2.4,2.4,0,0,0-2.4-2.4H64.6A2,2,0,0,0,63,25a2.2,2.2,0,0,0-.7,1.7v4.7a2.4,2.4,0,0,0,2.3,2.3h4.7A2.2,2.2,0,0,0,71,33,2,2,0,0,0,71.7,31.4Z" fill="#4b5da9"/>
        <path d="M71.7,45.5V40.8a2.3,2.3,0,0,0-.7-1.7,2.6,2.6,0,0,0-1.7-.7H64.6a2.4,2.4,0,0,0-2.3,2.4v4.7a2.2,2.2,0,0,0,.7,1.7,2.4,2.4,0,0,0,1.6.7h4.7a2.6,2.6,0,0,0,1.7-.7A2.2,2.2,0,0,0,71.7,45.5Z" fill="#4b5da9"/>
        <path d="M71.7,59.7V54.9a2.1,2.1,0,0,0-.7-1.6,2.2,2.2,0,0,0-1.7-.7H64.6a2,2,0,0,0-1.6.7,2.1,2.1,0,0,0-.7,1.6v4.8a2.1,2.1,0,0,0,.7,1.6,2,2,0,0,0,1.6.7h4.7a2.2,2.2,0,0,0,1.7-.7A2.1,2.1,0,0,0,71.7,59.7Z" fill="#4b5da9"/>
      </g>
    </g>
  </g>
</svg>
