<svg xmlns="http://www.w3.org/2000/svg" viewBox="0 0 15.7 15.6">
  <g id="bf6b75f6-a66f-454d-a8bd-da86e1e928e3" data-name="Layer 2">
    <g id="a546fce4-d77e-497c-bd0b-f48f5d51e69c" data-name="bar&amp;buttons">
      <g>
        <g>
          <path d="M15.1,11.4H4.3c-.2,0-.4-.1-.4-.2a.4.4,0,0,1,0-.5l.8-1.2L2.8,1H.5A.5.5,0,0,1,0,.5.5.5,0,0,1,.5,0H3.2a.7.7,0,0,1,.5.4l2,9.1a.6.6,0,0,1-.1.4l-.4.6h9.9a.4.4,0,0,1,.4.4A.5.5,0,0,1,15.1,11.4Z" fill="#4b5da9"/>
          <path d="M5.1,9c-.3,0-.5-.1-.5-.4L3.2,1.4c-.1-.2,0-.3.1-.4L3.6.8H15.2a.5.5,0,0,1,.5.5V7.7a.5.5,0,0,1-.4.5L5.1,9ZM4.2,1.7,5.4,8l9.4-.7V1.7Z" fill="#4b5da9"/>
        </g>
        <path d="M13.1,5.7v-2a.5.5,0,0,1,1,0v2a.5.5,0,0,1-1,0Z" fill="#7da6d7"/>
        <path d="M6.5,12a1.8,1.8,0,1,0,1.8,1.8A1.8,1.8,0,0,0,6.5,12Zm0,2.7a.9.9,0,0,1-.8-.9.8.8,0,0,1,.8-.8.8.8,0,0,1,.9.8A.9.9,0,0,1,6.5,14.7Z" fill="#4b5da9"/>
        <path d="M12.3,12a1.8,1.8,0,1,0,1.8,1.8A1.8,1.8,0,0,0,12.3,12Zm0,2.7a.9.9,0,0,1-.8-.9.8.8,0,0,1,.8-.8.8.8,0,0,1,.9.8A.9.9,0,0,1,12.3,14.7Z" fill="#4b5da9"/>
      </g>
    </g>
  </g>
</svg>
