<svg xmlns="http://www.w3.org/2000/svg" viewBox="0 0 15.7 16.9">
  <g id="afae3185-9d58-4d83-9f22-32f0d2c9925b" data-name="Layer 2">
    <g id="a3fe1b43-3700-4809-becf-0a00c38ab3b3" data-name="bar&amp;buttons">
      <g>
        <path d="M8,3.6A1.2,1.2,0,0,1,9.2,4.8a.2.2,0,0,0,.2.2c.2,0,.3-.1.3-.2A1.8,1.8,0,0,0,8,3.1c-.1,0-.2.1-.2.3A.2.2,0,0,0,8,3.6Z" fill="#7da6d7"/>
        <g>
          <rect x="2.5" y="13.4" width="1.5" height="1.52" rx="0.6" fill="#4b5da9"/>
          <path d="M4.9,15h7.9c.2-.1.4-.2.4-.5v-.7a.4.4,0,0,0-.4-.4H4.9a.4.4,0,0,0-.4.4v.8A.4.4,0,0,0,4.9,15Z" fill="#4b5da9"/>
        </g>
        <path d="M12.4,0H3.3A3.3,3.3,0,0,0,0,3.3V13.6a3.3,3.3,0,0,0,3.3,3.3h9.1a3.3,3.3,0,0,0,3.3-3.3V3.3A3.3,3.3,0,0,0,12.4,0Zm2.3,13.6a2.3,2.3,0,0,1-2.3,2.3H3.3A2.3,2.3,0,0,1,1,13.6v-.9H14.7ZM6.2,8.2,6.4,8h0a3.3,3.3,0,0,0,1.4.4A4.2,4.2,0,0,0,9.3,8h0l.2.2c.9.8,1.4,1.2,1.6,3.5H4.6C4.7,9.4,5.2,9,6.2,8.2Zm-1-3.1A2.6,2.6,0,0,1,7.8,2.5a2.6,2.6,0,0,1,2.6,2.6A2.6,2.6,0,0,1,7.8,7.7,2.6,2.6,0,0,1,5.2,5.1Zm9.5,6.6H12c-.2-2.6-.8-3.2-1.9-4.2h0a3.5,3.5,0,0,0,1-2.4,3.3,3.3,0,0,0-6.6,0A3.2,3.2,0,0,0,5.6,7.5H5.5c-1.1.9-1.7,1.6-1.9,4.2H1V3.3A2.3,2.3,0,0,1,3.3,1h9.1a2.3,2.3,0,0,1,2.3,2.3Z" fill="#4b5da9"/>
        <line x1="10.7" y1="12.1" x2="4.9" y2="12.1" fill="none"/>
      </g>
    </g>
  </g>
</svg>
