<svg xmlns="http://www.w3.org/2000/svg" viewBox="0 0 15.5 15.5">
  <g id="a112c8f9-2ec7-402d-87ea-e46fc2917ce5" data-name="Layer 2">
    <g id="bc306fd2-a700-44ee-b775-42f709a5ad91" data-name="bar&amp;buttons">
      <path d="M13.5,2.9V1.7A1.9,1.9,0,0,0,12.6.2a1.7,1.7,0,0,0-1.7,0l-4,2.3H3.4A3.5,3.5,0,0,0,0,6,3.3,3.3,0,0,0,2.4,9.2l.2.5,1.3,4.2A2.1,2.1,0,0,0,5,15.2a2.3,2.3,0,0,0,1.1.3h.7a2.4,2.4,0,0,0,1.4-1.2,2.2,2.2,0,0,0,.2-1.8L7.5,9.7l3.4,2,.8.2.9-.2a1.9,1.9,0,0,0,.9-1.5V9a3.5,3.5,0,0,0,2-3A3.5,3.5,0,0,0,13.5,2.9ZM1,6A2.5,2.5,0,0,1,3.4,3.5H6.5V8.4H3.4A2.4,2.4,0,0,1,1,6Zm6.4,7.7a1.3,1.3,0,0,1-.8.7,1.4,1.4,0,0,1-1.1-.1,1,1,0,0,1-.6-.8L3.6,9.4H6.4l1,3.3A1.2,1.2,0,0,1,7.4,13.7Zm5.1-3.5a.8.8,0,0,1-.4.6.6.6,0,0,1-.8,0L7.5,8.6V3.3l3.8-2.2a.6.6,0,0,1,.8,0,.8.8,0,0,1,.4.6Zm1-2.3V4a2.7,2.7,0,0,1,1.1,2A2.7,2.7,0,0,1,13.5,7.9Z" fill="#4b5da9"/>
    </g>
  </g>
</svg>
