<?xml version="1.0" encoding="utf-8"?>
<!-- Generator: Adobe Illustrator 26.0.2, SVG Export Plug-In . SVG Version: 6.00 Build 0)  -->
<svg version="1.1" id="Layer_1" xmlns="http://www.w3.org/2000/svg" xmlns:xlink="http://www.w3.org/1999/xlink" x="0px" y="0px"
	 viewBox="0 0 264.4 264.4" style="enable-background:new 0 0 264.4 264.4;" xml:space="preserve">
<style type="text/css">
	.st0{fill:#4B5EAA;}
	.st1{fill:#739CCE;}
	.st2{clip-path:url(#SVGID_00000069385768699913146030000002926508945545286288_);}
	.st3{fill:#CBDBEF;}
	.st4{fill:#4B5DA9;}
	.st5{fill:#7DA6D7;}
	.st6{fill:#939ECB;}
	.st7{fill:#FFFFFF;}
	.st8{fill:#EFEEEF;}
	.st9{fill:#FFCA05;}
	.eye-av {
		animation: eye 4000ms linear infinite normal forwards;
		transform-origin: center;
		transform-box: fill-box;
	}
	@keyframes eye {
		0% {
			transform: scale(1, 1)
		}

		20% {
			transform: scale(1, 1)
		}

		25% {
			transform: scale(1, 0)
		}

		30% {
			transform: scale(1, 1)
		}

		65% {
			transform: scale(1, 1)
		}

		70% {
			transform: scale(1, 0)
		}

		75% {
			transform: scale(1, 1)
		}

		100% {
			transform: scale(1, 1)
		}
	}
</style>
<g id="ef7bb27f-0dd0-461e-b49b-61c6af6e73fe">
	<g id="a8765d92-14a4-4f09-91da-168a817453df">
		<g>
			<circle class="st0" cx="132.2" cy="132.2" r="132.2"/>
			<circle class="st1" cx="132.2" cy="132.2" r="119.3"/>
			<g>
				<defs>
					<path id="SVGID_1_" d="M129,13.1C62.3,14,9,68.7,9.9,135.4c0.9,66.7,55.6,120,122.3,119.1c66.7-0.9,120-55.6,119.1-122.3
						C250.4,66.8,197.6,14,132.2,13.1H129"/>
				</defs>
				<clipPath id="SVGID_00000157272029553715144700000005029816067341184926_">
					<use xlink:href="#SVGID_1_"  style="overflow:visible;"/>
				</clipPath>
				<g style="clip-path:url(#SVGID_00000157272029553715144700000005029816067341184926_);">
					<path class="st3" d="M204.3,160.6h-10.1v23.6h10.1c6.5,0,11.8-5.3,11.8-11.8S210.8,160.6,204.3,160.6"/>
					<path class="st4" d="M202.3,172.4c0,2.2-1.8,4-4,4s-4-1.8-4-4s1.8-4,4-4S202.3,170.2,202.3,172.4"/>
					<path class="st3" d="M60,160.6h10.1v23.6H60c-6.5,0-11.8-5.3-11.8-11.8S53.5,160.6,60,160.6"/>
					<path class="st5" d="M62.1,172.4c0,2.2,1.8,4,4,4c2.2,0,4-1.8,4-4s-1.8-4-4-4C63.9,168.4,62.1,170.2,62.1,172.4"/>
					<path class="st5" d="M156.6,374.6v28.6c4.1,0,7.4,3.3,7.4,7.4c0,4.1-3.3,7.4-7.4,7.4v51.6c4.4-9.6,13.4-16.2,23.9-16.2
						c12.9,0,23.6,9.9,26,23.3h-58.3V374.6H156.6z"/>
					<path class="st3" d="M109.4,374.6v28.6c-4.1,0-7.4,3.3-7.4,7.4c0,4.1,3.3,7.4,7.4,7.4v51.6C105,460,96,453.4,85.6,453.4
						c-12.9,0-23.7,9.9-26.1,23.3h58.4V374.6H109.4z"/>
					<path class="st3" d="M70.2,92.5v227.2c0,34.2,27.8,62,62,62V92.5H70.2z"/>
					<path class="st5" d="M132.2,92.5v289.2l0,0c34.3,0,62-27.7,62.1-62V92.5H132.2z"/>
					<path class="st5" d="M76.4,188.9c0,6,4.8,10.8,10.8,10.8S98,194.9,98,188.9s-4.8-10.8-10.8-10.8S76.4,182.9,76.4,188.9
						L76.4,188.9"/>
					<path class="st3" d="M166.4,188.9c-0.1,6,4.8,10.9,10.8,11s10.9-4.8,11-10.8s-4.8-10.9-10.8-11c-0.1,0-0.1,0-0.2,0
						C171.2,178.1,166.4,182.9,166.4,188.9L166.4,188.9"/>
					<path class="st3" d="M194.3,248.6v186.2l-8.4,0.2c0,4.6,1.4,9.7,8.4,9.7s7.6-3.8,7.6-8.4V239.4c6.1,0,11.1-5,11.1-11.1
						c0-6.1-5-11.1-11.1-11.1h-7.6V248.6L194.3,248.6z"/>
					<path class="st6" d="M201.9,248.9v-9.5c6.1,0,11.1-5,11.1-11.1c0-6.1-5-11.1-11.1-11.1h-7.6v52.5h7.6V248.9z"/>
					<path class="st5" d="M70.1,248.6v186.2l8.4,0.2c0,4.6-1.4,9.7-8.4,9.7s-7.6-3.8-7.6-8.4V239.4c-6.1,0-11.1-5-11.1-11.1
						c0-6.1,5-11.1,11.1-11.1h7.6V248.6L70.1,248.6z"/>
					<path class="st4" d="M70.1,248.6v-31.4h-7.6c-6.1,0-11.1,5-11.1,11.1c0,6.1,5,11.1,11.1,11.1v30.3h7.6V248.6z"/>
					<rect x="70.1" y="217.2" class="st6" width="62" height="102.6"/>
					<rect x="132.2" y="217.2" class="st4" width="62.1" height="102.6"/>
					<path class="st6" d="M147,30.8c27.6,6.2,47.3,31.8,47.3,59.8v17.1c-28.7-8.4-48.5-34.8-48.5-64.7c0-4.1,0.4-8.1,1.1-12.1
						L147,30.8z"/>
					<path class="st4" d="M178.5,49.6C125.4-5.6,53.6,68,53.6,68C57.7,80.4,65,91.4,74.8,99.9c28.1,24.4,75.4,22.6,95.2-5.2
						C185.9,72.5,181.7,52.9,178.5,49.6"/>
					<path d="M178.4,149.5L178.4,149.5v-0.3c0-3.5-2.8-6.3-6.3-6.3s-6.3,2.8-6.3,6.3v0.3l0,0v16l0,0c0.4,3.5,3.6,5.9,7,5.5
						c2.9-0.4,5.1-2.6,5.5-5.5h0.1V149.5z"/>
					<path d="M98.6,164.6L98.6,164.6v0.3c0.4,3.5-2,6.6-5.5,7c-3.5,0.4-6.6-2-7-5.5c-0.1-0.5-0.1-1.1,0-1.6v-0.3l0,0v-16l0,0
						c0.4-3.5,3.6-5.9,7-5.5c2.9,0.4,5.1,2.6,5.5,5.5l0,0V164.6z"/>
						<g class="eye-av">
							<path class="st7" d="M97.1,150.7c0.1,2.7-2.1,4.9-4.8,5s-4.9-2.1-5-4.8c-0.1-2.7,2.1-4.9,4.8-5c0.1,0,0.1,0,0.2,0
						C95,145.9,97.1,148,97.1,150.7L97.1,150.7"/>
						</g>
					<g class="eye-av">
					<path class="st7" d="M167.2,150.7c0,2.7,2.1,4.8,4.8,4.8s4.8-2.1,4.8-4.8c0-2.7-2.1-4.8-4.8-4.8c-2.6-0.1-4.7,2-4.8,4.6
						C167.2,150.6,167.2,150.6,167.2,150.7"/>
					</g>
					<path class="st6" d="M121.7,158v38.6h10.5v-50.2C126.3,146.4,121.7,151.6,121.7,158"/>
					<path class="st4" d="M142.8,158c0-6.4-4.7-11.6-10.6-11.6l0,0v50.2h10.6V158z"/>
					<path d="M87.3,129.7c0,0.5,0.2,1,0.5,1.4c0.6,0.7,1.6,0.7,2.3,0.1c0.1,0,0.1-0.1,0.1-0.1c0.5-0.7,1.3-1.1,2.1-1
						c0.8,0,1.7,0.3,2.2,1c0.6,0.7,1.6,0.7,2.3,0.1c0.1,0,0.1-0.1,0.1-0.1c0.7-0.8,0.7-1.9,0-2.7c-1.1-1.3-2.8-2.1-4.5-2.1
						c-1.8,0-3.5,0.7-4.6,2.1C87.5,128.8,87.3,129.2,87.3,129.7"/>
					<path d="M167,129.7c0,0.5,0.2,1,0.5,1.4c0.6,0.7,1.6,0.7,2.3,0.1c0.1,0,0.1-0.1,0.1-0.1c0.5-0.7,1.3-1.1,2.2-1
						c0.8,0,1.7,0.4,2.2,1c0.5,0.6,1.5,0.7,2.1,0.2c0.1-0.1,0.1-0.1,0.2-0.2c0.7-0.8,0.7-1.9,0-2.7c-1.1-1.3-2.8-2.1-4.5-2.1
						c-1.8,0-3.5,0.8-4.6,2.1C167.2,128.8,167,129.2,167,129.7"/>
					<path class="st7" d="M132.2,193.6c-12.4,0-23.3-7.8-28.8-15.2l0,0c-3.1-4.1-9-5-13.2-1.8c-2.4,1.8-3.8,4.6-3.7,7.6
						c0,1.7,0.5,3.3,1.3,4.8l0,0c7.5,13.9,24.6,23.6,44.4,23.6l0,0V193.6L132.2,193.6"/>
					<path class="st8" d="M168.4,174.7c-3.3,0-6.3,1.7-8,4.5l0,0c-5.8,8.6-16.2,14.4-28.2,14.4v19c20.2-0.1,37.2-9.6,44.5-23.9v-0.4
						c0.7-1.3,1-2.7,1-4.1C177.7,179,173.5,174.8,168.4,174.7"/>
					<path class="st5" d="M132.2,204.2c-17.3,0-33.1-9.5-40-24.3l2-0.9c6.6,13.9,21.5,22.9,38,22.9s31.8-9.1,38.1-23.2l2.1,0.9
						C165.7,194.5,150,204.2,132.2,204.2"/>
					<path class="st9" d="M87.9,184.6c0,4.6,3.7,8.3,8.3,8.3h0c4.6,0,8.3-3.7,8.3-8.3s-3.7-8.3-8.3-8.3S87.9,180,87.9,184.6
						L87.9,184.6"/>
				</g>
			</g>
		</g>
	</g>
</g>
</svg>
