<svg xmlns="http://www.w3.org/2000/svg" viewBox="0 0 334.2 203.8">
  <g id="ab08d87a-dd70-4475-9a52-b69b8a5ccc20" data-name="Layer 2">
    <g id="f497cb09-e29b-4971-aef2-2a8e1c75fcf3" data-name="Layer 3">
      <g>
        <g>
          <g>
            <path d="M232.2,10.8H101.9a91.1,91.1,0,0,0,0,182.2H232.2a91.1,91.1,0,1,0,0-182.2Z" fill="#7da6d7"/>
            <path d="M232.2,203.8H101.9A101.9,101.9,0,0,1,101.9,0H232.2c56.2,0,102,45.7,102,101.9S288.4,203.8,232.2,203.8ZM101.9,21.6a80.3,80.3,0,0,0,0,160.6H232.2a80.3,80.3,0,1,0,0-160.6Z" fill="#7da6d7"/>
          </g>
          <path d="M232.2,10.8H101.9a91.1,91.1,0,0,0,0,182.2H232.2a91.1,91.1,0,1,0,0-182.2Z" fill="#4b5da9"/>
          <g>
            <path d="M100.5,167.1h0Z" fill="#7da6d7"/>
            <path d="M100.5,36.7h0Z" fill="#7da6d7"/>
          </g>
        </g>
        <g>
          <g>
            <path d="M91.9,62.1h0a24.6,24.6,0,0,0-44.2,15,23.9,23.9,0,0,0,3.4,12.5h0C70.6,126,115.2,151.3,167,151.4V101.9C134.8,101.9,106.2,81.3,91.9,62.1Z" fill="#fff"/>
            <path d="M261.8,52.4a24.7,24.7,0,0,0-20.9,11.7h0c-15.1,22.6-42.5,37.8-73.8,37.8H167v49.5h.2c52.8,0,97.4-25.1,116.3-62.5a9.3,9.3,0,0,1,.5-1,24.7,24.7,0,0,0-22.2-35.5Z" fill="#d7d7d7"/>
          </g>
          <path d="M166.3,129.5c-45.5,0-86.6-24.9-104.8-63.4l5.3-2.5c17.3,36.4,56.3,60,99.5,60s83.2-23.9,99.6-60.8l5.4,2.4C253.9,104.3,212.7,129.5,166.3,129.5Z" fill="#7da6d7"/>
          <circle cx="72.1" cy="78.3" r="21.8" fill="#ffca05"/>
        </g>
      </g>
    </g>
  </g>
</svg>
