<?xml version="1.0" encoding="utf-8"?>
<!-- Generator: Adobe Illustrator 26.0.2, SVG Export Plug-In . SVG Version: 6.00 Build 0)  -->
<svg version="1.1" id="Layer_1" xmlns="http://www.w3.org/2000/svg" xmlns:xlink="http://www.w3.org/1999/xlink" x="0px" y="0px"
	 viewBox="0 0 385.1 385.1" style="enable-background:new 0 0 385.1 385.1;" xml:space="preserve">
<style type="text/css">
	.st0{clip-path:url(#SVGID_00000106869416707895680570000015700123506356398502_);}
	.st1{fill:url(#SVGID_00000108308844557480812870000010574917013185943983_);}
	.st2{fill:#FFFFFF;}
	.st3{fill:#B0C9E4;}
	.st4{clip-path:url(#SVGID_00000037694897341123367440000017427900826562099126_);}
	.st5{fill:#F05B33;}
	.st6{fill:#EF6342;}
	.st7{fill:#F28145;}
	.st8{fill:#F4934B;}
	.st9{fill:#E6C8AD;}
	.st10{fill:#F0D0B4;}
	.st11{fill:#4C5EA8;}
	.st12{fill:#7DA4D5;}
	.st13{fill:#EB2127;}
	.st14{fill:#F15B27;}
	.st15{fill:#010101;}
	.st16{fill:#EDEDEE;}
</style>
<g id="a6d40a2f-e4cd-455b-80c0-8e318220d94d">
	<g id="a019c333-59ac-4e51-8935-fd0530b456a1">
		<g>
			<defs>
				<path id="SVGID_1_" d="M18.5,192.6c0,96.5,78.2,174.6,174.6,174.6S367.8,289,367.8,192.6S289.6,17.9,193.2,17.9c0,0,0,0,0,0
					C96.7,17.9,18.5,96.1,18.5,192.6C18.5,192.6,18.5,192.6,18.5,192.6"/>
			</defs>
			<clipPath id="SVGID_00000130644731210686266920000014274204216811078307_">
				<use xlink:href="#SVGID_1_"  style="overflow:visible;"/>
			</clipPath>
			<g style="clip-path:url(#SVGID_00000130644731210686266920000014274204216811078307_);">
				
					<linearGradient id="SVGID_00000155139605789048416270000007462471057315992491_" gradientUnits="userSpaceOnUse" x1="-115.0886" y1="-1006.0767" x2="-114.0886" y2="-1006.0767" gradientTransform="matrix(349.27 0 0 349.27 40215.5273 351584.9688)">
					<stop  offset="0" style="stop-color:#EBA623"/>
					<stop  offset="0.29" style="stop-color:#F4B616"/>
					<stop  offset="0.68" style="stop-color:#FCC50A"/>
					<stop  offset="1" style="stop-color:#FFCA06"/>
				</linearGradient>
				
					<rect x="18.5" y="17.9" style="fill:url(#SVGID_00000155139605789048416270000007462471057315992491_);" width="349.3" height="349.3"/>
			</g>
		</g>
		<path class="st2" d="M385.1,192.6c0,106.4-86.2,192.6-192.6,192.6S0,298.9,0,192.6S86.2,0,192.6,0S385.1,86.2,385.1,192.6"/>
		<path class="st3" d="M367.6,192.6c0,96.7-78.4,175.1-175.1,175.1c-96.7,0-175.1-78.4-175.1-175.1c0-96.7,78.4-175.1,175.1-175.1
			C289.3,17.5,367.6,95.9,367.6,192.6C367.6,192.6,367.6,192.6,367.6,192.6"/>
		<g>
			<defs>
				<path id="SVGID_00000046336240619786769120000015461007299251447180_" d="M17.5,192.6c0,96.7,78.4,175.1,175.1,175.1
					s175.1-78.4,175.1-175.1S289.3,17.5,192.6,17.5C95.9,17.5,17.5,95.9,17.5,192.6C17.5,192.6,17.5,192.6,17.5,192.6"/>
			</defs>
			<clipPath id="SVGID_00000093152489970388700660000011581286508940929960_">
				<use xlink:href="#SVGID_00000046336240619786769120000015461007299251447180_"  style="overflow:visible;"/>
			</clipPath>
			<g style="clip-path:url(#SVGID_00000093152489970388700660000011581286508940929960_);">
				<path class="st5" d="M256.9,399c-15.6,17.6-38.4,4.4-63.4,4.5V399H256.9z"/>
				<path class="st6" d="M193.4,399v4.5h-0.6c-25.5,0-48.4,13.2-64.1-4.5H193.4z"/>
				<path class="st7" d="M193.4,324.6h85.1v21.1h-0.1c-0.8,19.7-8.4,38.5-21.5,53.3h-63.4V324.6z"/>
				<path class="st8" d="M107.2,345.7L107.2,345.7l-0.1-21.1h86.3V399h-64.7C115.6,384.3,108,365.4,107.2,345.7"/>
				<path class="st8" d="M107.1,367.1v-42.5H96.8c-8.3,0-15,6.7-15,15s6.7,15,15,15v56h10.3V367.1z"/>
				<path class="st7" d="M278.5,367.1v-42.5h10.3c8.3,0,15,6.7,15,15s-6.7,15-15,15v56h-10.3V367.1z"/>
			</g>
		</g>
		<path class="st9" d="M83.7,245.3c0,60.5,49,109.5,109.5,109.5v-219C132.7,135.8,83.7,184.9,83.7,245.3"/>
		<path class="st10" d="M193.2,135.8L193.2,135.8v219l0,0c60.5,0,109.5-49,109.5-109.5S253.7,135.8,193.2,135.8"/>
		<path class="st10" d="M285.7,295.4h1.2c22.1,0,40.1-17.9,40.1-40.1s-17.9-40.1-40.1-40.1c-2.3,0-4.7,0.2-7,0.6"/>
		<path class="st9" d="M99.5,295.4h-1.2c-22.1,0-40.1-17.9-40.1-40.1s17.9-40.1,40.1-40.1c2.3,0,4.7,0.2,7,0.6"/>
		<path class="st11" d="M98.2,255.4c0,4.4-3.6,8-8,8s-8-3.6-8-8s3.6-8,8-8S98.2,251,98.2,255.4"/>
		<path class="st12" d="M285.8,255.4c0,4.5,3.5,8.1,8,8.1c4.5,0,8.1-3.5,8.1-8c0-4.5-3.5-8.1-8-8.1c0,0,0,0-0.1,0
			C289.4,247.4,285.8,250.9,285.8,255.4C285.8,255.4,285.8,255.4,285.8,255.4"/>
		<path class="st13" d="M248.3,147.4l-43.6-43.1v63l0.1,12.3c1.3,13.1,13,23.4,27.1,23.4s25.8-10.3,27.1-23.4h0.1l0.1,16.9
			c1.3,13.1,13,23.4,27.1,23.4s25.8-10.3,27.1-23.4l0.1-29.2V98.7L248.3,147.4z"/>
		<path class="st14" d="M152,132.4l52.8-48.2v75.1l-0.2,14.9c-1.6,15.9-15.7,28.3-32.8,28.3s-31.2-12.4-32.8-28.3h-0.2l-0.2,20.4
			c-1.6,15.9-15.7,28.4-32.8,28.4s-31.2-12.4-32.8-28.3l-0.2-35.3V77.6L152,132.4z"/>
		<path class="st15" d="M237.1,242.1L237.1,242.1c0,0.2,0,0.4,0,0.6c0,6.1,5,11.1,11.1,11.1c6.1,0,11.1-5,11.1-11.1
			c0-0.2,0-0.4,0-0.6l0,0v-28.6h-0.1c0-6.1-4.9-11-11-11s-11,4.9-11,11h-0.1L237.1,242.1z"/>
		<path class="st2" d="M256.6,240.5c-0.1-4.7-3.9-8.4-8.6-8.4c-4.7,0.1-8.4,3.9-8.4,8.6c0.1,4.6,3.8,8.4,8.5,8.4
			C252.8,249.1,256.6,245.2,256.6,240.5C256.6,240.5,256.6,240.5,256.6,240.5"/>
		<path class="st15" d="M128.2,242.1L128.2,242.1c0,0.2,0,0.4,0,0.6c-0.2,6.1,4.6,11.2,10.7,11.4c6.1,0.2,11.2-4.6,11.4-10.7
			c0-0.2,0-0.4,0-0.7c0-0.2,0-0.4,0-0.6l0,0v-28.6h-0.1c-0.6-6.1-6-10.5-12.1-9.9c-5.3,0.5-9.4,4.7-9.9,9.9l0,0L128.2,242.1z"/>
		<path class="st2" d="M147.8,240.5c-0.1-4.7-3.9-8.4-8.6-8.4c-4.7,0.1-8.4,3.9-8.4,8.6c0.1,4.6,3.8,8.4,8.5,8.4
			C144,249.1,147.8,245.2,147.8,240.5C147.8,240.5,147.8,240.5,147.8,240.5"/>
		<path class="st15" d="M252.8,190.4h-9.3c-2.2,0.1-3.9,2-3.7,4.1c0.1,2,1.7,3.6,3.7,3.7h9.3c2.2-0.1,3.9-2,3.7-4.1
			C256.4,192.2,254.8,190.6,252.8,190.4"/>
		<path class="st15" d="M144,190.4h-9.4c-2.2,0.1-3.9,2-3.7,4.1c0.1,2,1.7,3.6,3.7,3.7h9.4c2.2-0.1,3.9-2,3.7-4.1
			C147.6,192.2,146,190.6,144,190.4"/>
		<path class="st2" d="M127.3,273.4c-10.2,0.2-18.2,8.7-18,18.8c0.2,9.8,8.1,17.7,18,18h65.9v-36.8H127.3z"/>
		<path class="st16" d="M259.1,273.4c10.2,0.2,18.2,8.7,18,18.8c-0.2,9.8-8.1,17.7-18,18h-65.9v-36.8H259.1z"/>
		<rect x="126.9" y="289.8" class="st12" width="133.5" height="3.9"/>
		<path class="st11" d="M162.3,236.1c-6.4,0-11.6,8.5-11.6,19c0,10.5,5.2,19,11.6,19h30.9v-38H162.3z"/>
		<path class="st12" d="M224.1,236.1h-31V274h31c6.4,0,11.6-8.5,11.6-19S230.5,236,224.1,236.1"/>
		<path class="st2" d="M258.6,276.1h-0.2c-8.6,0.2-15.4,7.4-15.2,16c0.2,8.3,6.9,15,15.2,15.2h0.2c8.6-0.2,15.5-7.4,15.2-16
			C273.6,283,266.9,276.3,258.6,276.1"/>
	</g>
</g>
</svg>
