<svg xmlns="http://www.w3.org/2000/svg" viewBox="0 0 22.2 22.2">
  <g id="febb340a-82d6-4244-94eb-78ced90f8334" data-name="Layer 2">
    <g id="b554f20e-cd53-455a-bdfc-38a4cd3e697d" data-name="bar&amp;buttons">
      <g>
        <path d="M21.6,16.4l-2.7-2.8a2.1,2.1,0,0,0-2.8,0l-1.2,1.3a1.4,1.4,0,0,1-2.1,0L7.3,9.4a1.7,1.7,0,0,1,0-2.1L8.6,6.1a2,2,0,0,0,0-2.8L5.8.6A1.8,1.8,0,0,0,3.1.6a4.5,4.5,0,0,0-1,1,6.9,6.9,0,0,0,0,9.9l8.6,8.6a6.9,6.9,0,0,0,9.9,0l1-1A1.8,1.8,0,0,0,21.6,16.4Z" fill="#4b5da9"/>
        <path d="M18,14.5l2.7,2.8a.6.6,0,0,1,0,.9l-.4.5L16.6,15l.4-.5A.9.9,0,0,1,18,14.5Z" fill="#ffca05"/>
        <path d="M4.9,1.5,7.7,4.2a.9.9,0,0,1,0,1l-.5.4L3.5,1.9,4,1.5A.6.6,0,0,1,4.9,1.5Z" fill="#ffca05"/>
      </g>
      <path d="M11.6,19.2,3,10.6a5.7,5.7,0,0,1-.4-7.7L6.3,6.5a2.9,2.9,0,0,0,.1,3.9l5.4,5.4h0a2.9,2.9,0,0,0,3.9.1l3.6,3.7A5.6,5.6,0,0,1,11.6,19.2Z" fill="#fff"/>
    </g>
  </g>
</svg>
