<svg xmlns="http://www.w3.org/2000/svg" viewBox="0 0 22 22">
  <g id="ad073452-101b-4d94-95b1-8eafcd3fceb8" data-name="Layer 2">
    <g id="a06deec9-c1f9-4db6-ba5c-3dae5a5d6af7" data-name="bar&amp;buttons">
      <g>
        <path d="M21.1,6.8A11.2,11.2,0,0,0,10.9,0a11,11,0,0,0,0,22A11.1,11.1,0,0,0,22,11,9.9,9.9,0,0,0,21.1,6.8Z" fill="#4b5da9"/>
        <path d="M16.2,11.7h-.1a.7.7,0,0,1-.6-.7h0a.6.6,0,0,1,.6-.6h.1a.6.6,0,0,1,.6.6A.7.7,0,0,1,16.2,11.7Z" fill="#ffca05"/>
        <circle cx="6.4" cy="5.8" r="0.6" fill="#ffca05"/>
        <path d="M10.9,16.8a.6.6,0,0,1-.6-.6h0a.6.6,0,0,1,.6-.6.7.7,0,0,1,.7.6h0A.7.7,0,0,1,10.9,16.8Z" fill="#ffca05"/>
      </g>
      <path d="M18,10.4a2,2,0,0,0-1.3-1.2,11.1,11.1,0,0,0-.2-1.9c1.5.5,3.6,1.6,4.1,3.1Z" fill="#fff"/>
      <path d="M15.5,9.2a1.6,1.6,0,0,0-1.1,1.2H11.6v-4a19.7,19.7,0,0,1,3.5.5C15.2,7.6,15.4,8.4,15.5,9.2Z" fill="#fff"/>
      <path d="M6.7,7.7A1.9,1.9,0,0,0,8.2,6.6l2.1-.2v4H6.4C6.5,9.5,6.6,8.5,6.7,7.7Z" fill="#fff"/>
      <path d="M11.6,5.2V1.4c1.2.4,2.3,1.9,3.1,4.1A16.3,16.3,0,0,0,11.6,5.2Z" fill="#fff"/>
      <path d="M10.3,1.4V5.2h-2a2.1,2.1,0,0,0-.6-1A5,5,0,0,1,10.3,1.4Z" fill="#fff"/>
      <path d="M5.3,7.3a.1.1,0,0,0,.1.1c-.1,1-.2,2-.2,3H1.4C1.8,9.2,3.2,8,5.3,7.3Z" fill="#fff"/>
      <path d="M5.2,11.7a14.5,14.5,0,0,0,.3,3c-2.2-.7-3.7-1.8-4.1-3Z" fill="#fff"/>
      <path d="M6.4,11.7h3.9v2.7a1.5,1.5,0,0,0-1.1,1.1l-2.3-.4A18.6,18.6,0,0,1,6.4,11.7Z" fill="#fff"/>
      <path d="M9.1,16.7A2,2,0,0,0,10.3,18v2.6c-1.5-.5-2.5-2.6-3.1-4.1Z" fill="#fff"/>
      <path d="M11.6,20.6V18a2,2,0,0,0,1.2-1.3l1.9-.2C14.2,18,13.1,20.1,11.6,20.6Z" fill="#fff"/>
      <path d="M12.7,15.5a1.5,1.5,0,0,0-1.1-1.1V11.7h2.8a1.5,1.5,0,0,0,1.1,1.1,15.7,15.7,0,0,1-.4,2.3Z" fill="#fff"/>
      <path d="M16.7,12.9A2.2,2.2,0,0,0,18,11.7h2.6c-.5,1.5-2.6,2.5-4.1,3A11,11,0,0,0,16.7,12.9Z" fill="#fff"/>
      <path d="M20.1,7.7a13.4,13.4,0,0,0-4-1.9,10.9,10.9,0,0,0-1.9-3.9A9.4,9.4,0,0,1,20.1,7.7Z" fill="#fff"/>
      <path d="M7.7,1.9a5.6,5.6,0,0,0-1.2,2H6.4A1.8,1.8,0,0,0,4.6,6.2,8.7,8.7,0,0,0,1.9,7.7,9.3,9.3,0,0,1,7.7,1.9Z" fill="#fff"/>
      <path d="M1.9,14.3a10.9,10.9,0,0,0,3.9,1.9,10.2,10.2,0,0,0,1.9,3.9A9.5,9.5,0,0,1,1.9,14.3Z" fill="#fff"/>
      <path d="M14.2,20.1a9.9,9.9,0,0,0,1.9-4,9.7,9.7,0,0,0,4-1.8A9.7,9.7,0,0,1,14.2,20.1Z" fill="#fff"/>
    </g>
  </g>
</svg>
