<svg xmlns="http://www.w3.org/2000/svg" viewBox="0 0 73.1 89.7">
  <g id="a5aed750-b73a-4151-aaa6-1a2729ab6cdc" data-name="Layer 2">
    <g id="b80de9de-abad-4497-aa7e-1ec6d1d6522c" data-name="Layer 1">
      <g>
        <g>
          <path d="M42.7,0H9.7A9.8,9.8,0,0,0,0,9.7V60.6a9.8,9.8,0,0,0,9.7,9.8h33a9.7,9.7,0,0,0,9.7-9.8V9.7A9.7,9.7,0,0,0,42.7,0Z" fill="#4b5da9"/>
          <path d="M42.7,4.6a5.1,5.1,0,0,1,5.1,5.1V60.6a5.2,5.2,0,0,1-5.1,5.2H9.7a5.2,5.2,0,0,1-5.1-5.2V9.7A5.1,5.1,0,0,1,9.7,4.6h33" fill="#fff"/>
          <path d="M12.2,55a2.3,2.3,0,0,1-2.3-2.3V22.1a2.3,2.3,0,0,1,4.6,0V52.7A2.3,2.3,0,0,1,12.2,55Z" fill="#7da6d7"/>
          <g>
            <g>
              <path d="M30.4,87.4A7.5,7.5,0,0,1,23,79.9V29.1a7.5,7.5,0,0,1,7.4-7.5H53.9a2.4,2.4,0,0,1,1.6.7L70.1,36.9a2.6,2.6,0,0,1,.7,1.7V79.9a7.5,7.5,0,0,1-7.5,7.5Z" fill="#fff"/>
              <path d="M53.9,23.9,68.5,38.6V79.9a5.2,5.2,0,0,1-5.2,5.2H30.4a5.1,5.1,0,0,1-5.1-5.2V29.1a5.1,5.1,0,0,1,5.1-5.2H53.9m0-4.6H30.4a9.7,9.7,0,0,0-9.7,9.8V79.9a9.7,9.7,0,0,0,9.7,9.8H63.3a9.8,9.8,0,0,0,9.8-9.8V38.6a4.5,4.5,0,0,0-1.4-3.3L57.1,20.7a4.3,4.3,0,0,0-3.2-1.4Z" fill="#4b5da9"/>
            </g>
            <path d="M55.6,21.1a3.5,3.5,0,0,0-1.7.4A4.6,4.6,0,0,0,51,25.7v5.7a9.8,9.8,0,0,0,9.7,9.7h5.7a4.8,4.8,0,0,0,4.3-2.9,4.6,4.6,0,0,0-1-5L58.9,22.4a5.1,5.1,0,0,0-3.3-1.3Z" fill="#4b5da9"/>
            <g>
              <line x1="35.1" y1="46.3" x2="58.6" y2="46.3" fill="#ffca05"/>
              <path d="M58.6,48.6H35.1a2.4,2.4,0,0,1-2.3-2.3A2.3,2.3,0,0,1,35.1,44H58.6a2.3,2.3,0,0,1,2.3,2.3A2.3,2.3,0,0,1,58.6,48.6Z" fill="#4b5da9"/>
            </g>
            <g>
              <line x1="35.1" y1="54.9" x2="58.6" y2="54.9" fill="#ffca05"/>
              <path d="M58.6,57.2H35.1a2.3,2.3,0,1,1,0-4.6H58.6a2.3,2.3,0,0,1,0,4.6Z" fill="#4b5da9"/>
            </g>
            <g>
              <line x1="35.1" y1="63.6" x2="58.6" y2="63.6" fill="#ffca05"/>
              <path d="M58.6,65.9H35.1a2.3,2.3,0,0,1,0-4.6H58.6a2.3,2.3,0,0,1,0,4.6Z" fill="#4b5da9"/>
            </g>
            <g>
              <line x1="35.1" y1="72.3" x2="58.6" y2="72.3" fill="#ffca05"/>
              <path d="M58.6,74.6H35.1a2.4,2.4,0,0,1-2.3-2.3A2.3,2.3,0,0,1,35.1,70H58.6a2.3,2.3,0,0,1,2.3,2.3A2.3,2.3,0,0,1,58.6,74.6Z" fill="#4b5da9"/>
            </g>
          </g>
        </g>
        <path d="M44.5,32.2H35.2a2.3,2.3,0,0,1-2.3-2.3,2.3,2.3,0,0,1,2.3-2.3h9.3a2.4,2.4,0,0,1,2.3,2.3A2.3,2.3,0,0,1,44.5,32.2Z" fill="#7da6d7"/>
      </g>
      <path d="M55.6,25.7,66.4,36.5H60.7a5.1,5.1,0,0,1-5.1-5.1V25.7" fill="#ffca05"/>
    </g>
  </g>
</svg>
