<svg xmlns="http://www.w3.org/2000/svg" viewBox="0 0 59.6 70.4">
  <g id="ba351a1d-2439-442e-a86e-1857a385ccf6" data-name="Layer 2">
    <g id="b2f7ff28-4544-43ac-846d-4dd8a134157a" data-name="Layer 1">
      <g>
        <path d="M22.7,4.6H36.9a3,3,0,0,1,3,3.1V28.2a3,3,0,0,1-3,3.1H22.7a3,3,0,0,1-3-3.1V7.7a3,3,0,0,1,3-3.1m0-4.6a7.6,7.6,0,0,0-7.6,7.7V28.2a7.7,7.7,0,0,0,7.6,7.7H36.9a7.7,7.7,0,0,0,7.6-7.7V7.7A7.6,7.6,0,0,0,36.9,0Z" fill="#4b5da9"/>
        <g>
          <path d="M43.8,68.1a8.3,8.3,0,0,0,8.4-8.4V14.3A2.3,2.3,0,0,0,49.9,12H9.7a2.3,2.3,0,0,0-2.3,2.3V59.7a8.3,8.3,0,0,0,8.4,8.4Z" fill="#ffca05"/>
          <path d="M9.7,14.3H49.9V59.7a6.1,6.1,0,0,1-6.1,6.1h-28a6.1,6.1,0,0,1-6.1-6.1V14.3m0-4.6a4.5,4.5,0,0,0-4.6,4.6V59.7A10.7,10.7,0,0,0,15.8,70.4h28A10.7,10.7,0,0,0,54.5,59.7V14.3a4.5,4.5,0,0,0-4.6-4.6Z" fill="#4b5da9"/>
        </g>
        <path d="M30,14.3H49.9V59.7a6.1,6.1,0,0,1-6.1,6.1H30Z" fill="#fff"/>
        <g>
          <line x1="57.3" y1="11.6" x2="2.3" y2="11.6" fill="#ffca05"/>
          <path d="M2.3,13.9h55a2.3,2.3,0,1,0,0-4.6H2.3a2.3,2.3,0,0,0,0,4.6Z" fill="#4b5da9"/>
        </g>
        <g>
          <line x1="29.8" y1="23.5" x2="29.8" y2="56.5" fill="#ffca05"/>
          <path d="M29.8,58.8a2.3,2.3,0,0,0,2.3-2.3v-33a2.3,2.3,0,0,0-4.6,0v33A2.3,2.3,0,0,0,29.8,58.8Z" fill="#4b5da9"/>
        </g>
        <path d="M18.6,58.8a2.3,2.3,0,0,0,2.3-2.3v-33a2.3,2.3,0,0,0-2.3-2.3,2.4,2.4,0,0,0-2.3,2.3v33A2.3,2.3,0,0,0,18.6,58.8Z" fill="#4b5da9"/>
        <g>
          <line x1="41" y1="23.5" x2="41" y2="56.5" fill="#ffca05"/>
          <path d="M41,58.8a2.3,2.3,0,0,0,2.3-2.3v-33A2.4,2.4,0,0,0,41,21.2a2.3,2.3,0,0,0-2.3,2.3v33A2.3,2.3,0,0,0,41,58.8Z" fill="#7da6d7"/>
        </g>
      </g>
    </g>
  </g>
</svg>
