<svg xmlns="http://www.w3.org/2000/svg" xmlns:xlink="http://www.w3.org/1999/xlink" viewBox="0 0 74.3 115.7">
  <defs>
    <clipPath id="eff20c99-ed02-4a43-b107-d0780592c077">
      <path d="M63.3,23.9a5.2,5.2,0,0,1,5.2,5.2V79.9a5.2,5.2,0,0,1-5.2,5.2H30.4a5.1,5.1,0,0,1-5.1-5.2V29.1a5.1,5.1,0,0,1,5.1-5.2H63.3" fill="none"/>
    </clipPath>
  </defs>
  <g id="a91761fa-f752-43c0-9dbe-0534361d6fb0" data-name="Layer 2">
    <g id="a11d27df-6a35-4bd6-9dd5-bab8bfab3d1d" data-name="Layer 1">
      <g>
        <path d="M42.7,4.6a5.1,5.1,0,0,1,5.1,5.1V60.6a5.2,5.2,0,0,1-5.1,5.2H9.7a5.2,5.2,0,0,1-5.1-5.2V9.7A5.1,5.1,0,0,1,9.7,4.6h33" fill="#fff"/>
        <g>
          <g>
            <path d="M9.7,68.1a7.5,7.5,0,0,1-7.4-7.5V9.7A7.4,7.4,0,0,1,9.7,2.3H33.2a2,2,0,0,1,1.6.7L49.5,17.6a2.3,2.3,0,0,1,.6,1.6V60.6a7.5,7.5,0,0,1-7.4,7.5Z" fill="#fff"/>
            <path d="M33.2,4.6,47.8,19.2V60.6a5.2,5.2,0,0,1-5.1,5.2H9.7a5.2,5.2,0,0,1-5.1-5.2V9.7A5.1,5.1,0,0,1,9.7,4.6H33.2m0-4.6H9.7A9.8,9.8,0,0,0,0,9.7V60.6a9.8,9.8,0,0,0,9.7,9.8h33a9.7,9.7,0,0,0,9.7-9.8V19.2A4.6,4.6,0,0,0,51.1,16L36.5,1.3A5.1,5.1,0,0,0,33.2,0Z" fill="#4b5da9"/>
          </g>
          <path d="M35,1.8a5.7,5.7,0,0,0-1.8.3,4.6,4.6,0,0,0-2.8,4.3V12a9.6,9.6,0,0,0,9.7,9.7h5.6A4.6,4.6,0,0,0,49,13.9L38.2,3.1A4.4,4.4,0,0,0,35,1.8Z" fill="#4b5da9"/>
          <g>
            <line x1="14.5" y1="26.9" x2="38" y2="26.9" fill="#ffca05"/>
            <path d="M38,29.2H14.5a2.3,2.3,0,1,1,0-4.6H38a2.3,2.3,0,1,1,0,4.6Z" fill="#4b5da9"/>
          </g>
          <g>
            <line x1="14.5" y1="35.6" x2="38" y2="35.6" fill="#ffca05"/>
            <path d="M38,37.9H14.5a2.3,2.3,0,0,1,0-4.6H38a2.3,2.3,0,0,1,0,4.6Z" fill="#4b5da9"/>
          </g>
          <g>
            <line x1="14.5" y1="44.3" x2="38" y2="44.3" fill="#ffca05"/>
            <path d="M38,46.6H14.5a2.3,2.3,0,0,1-2.3-2.3A2.3,2.3,0,0,1,14.5,42H38a2.3,2.3,0,0,1,2.3,2.3A2.4,2.4,0,0,1,38,46.6Z" fill="#4b5da9"/>
          </g>
          <g>
            <line x1="14.5" y1="52.9" x2="38" y2="52.9" fill="#ffca05"/>
            <path d="M38,55.2H14.5a2.3,2.3,0,0,1,0-4.6H38a2.3,2.3,0,1,1,0,4.6Z" fill="#4b5da9"/>
          </g>
        </g>
        <path d="M23.8,12.9H14.5a2.3,2.3,0,1,1,0-4.6h9.3a2.3,2.3,0,1,1,0,4.6Z" fill="#7da6d7"/>
      </g>
      <path d="M35,6.4,45.7,17.1H40.1A5.1,5.1,0,0,1,35,12V6.4" fill="#ffca05"/>
      <path d="M63.3,19.3H30.4a9.7,9.7,0,0,0-9.7,9.8V79.9a9.7,9.7,0,0,0,9.7,9.8H63.3a9.8,9.8,0,0,0,9.8-9.8V29.1a9.8,9.8,0,0,0-9.8-9.8Z" fill="#4b5da9"/>
      <path d="M63.3,23.9a5.2,5.2,0,0,1,5.2,5.2V79.9a5.2,5.2,0,0,1-5.2,5.2H30.4a5.1,5.1,0,0,1-5.1-5.2V29.1a5.1,5.1,0,0,1,5.1-5.2H63.3" fill="#fff"/>
      <g clip-path="url(#eff20c99-ed02-4a43-b107-d0780592c077)">
        <g>
          <g>
            <g>
              <path d="M53.5,113.4a7,7,0,0,1-7-6.1,7,7,0,0,1-7,6.1,7.1,7.1,0,0,1-7.1-7.1V81.5L31,83.1A6.3,6.3,0,0,1,26.9,85h-.3a5.8,5.8,0,0,1-3.9-1.5,5.9,5.9,0,0,1-1.9-4.1,5.7,5.7,0,0,1,1.5-4.2l9.8-10.7A11,11,0,0,1,40,61.1H52.8a11,11,0,0,1,7.9,3.4l9.8,10.7A5.3,5.3,0,0,1,72,79.4a5.5,5.5,0,0,1-1.9,4.1A5.6,5.6,0,0,1,66.2,85h-.3a6.3,6.3,0,0,1-4.1-1.9l-1.4-1.5.2,24.7A7.1,7.1,0,0,1,53.5,113.4Z" fill="#fff"/>
              <path d="M52.8,63.4A8.3,8.3,0,0,1,59,66.1l9.8,10.6a3.1,3.1,0,0,1,.9,2.6,3.4,3.4,0,0,1-1.1,2.5,3.6,3.6,0,0,1-2.4.9H66a3.9,3.9,0,0,1-2.5-1.2l-5.4-5.8.2,30.6a4.9,4.9,0,0,1-4.8,4.8,4.8,4.8,0,0,1-4.8-4.8V93.2H44.3v13.1a4.8,4.8,0,0,1-9.6,0V75.7l-5.4,5.8a3.9,3.9,0,0,1-2.5,1.2h-.2a3.2,3.2,0,0,1-2.3-.9,3.5,3.5,0,0,1-1.2-2.5,3.9,3.9,0,0,1,.9-2.6l9.8-10.6A8.6,8.6,0,0,1,40,63.4H52.8m0-4.6H40A13.1,13.1,0,0,0,30.4,63L20.6,73.6a8.2,8.2,0,0,0,.6,11.6,8.3,8.3,0,0,0,5.4,2.1h.5a7.4,7.4,0,0,0,3-.8v19.8a9.4,9.4,0,0,0,16.4,6.3,9.4,9.4,0,0,0,16.4-6.1V86.6a9.4,9.4,0,0,0,3,.7h.4a7.9,7.9,0,0,0,5.5-2.1,8.2,8.2,0,0,0,2.6-5.7,8,8,0,0,0-2.1-5.9L62.4,63a12.8,12.8,0,0,0-9.6-4.2Z" fill="#4b5da9"/>
            </g>
            <path d="M33.8,66.1,24,76.7a3.9,3.9,0,0,0-.9,2.6,3.5,3.5,0,0,0,1.2,2.5,3.8,3.8,0,0,0,2.5.9,3.9,3.9,0,0,0,2.5-1.2l5.4-5.8v30.6a4.8,4.8,0,0,0,9.6,0V93.2h2.2V63.4H40A8.6,8.6,0,0,0,33.8,66.1Z" fill="#ffca05"/>
            <path d="M46.4,33.1a11.3,11.3,0,0,0-8.3,3.5A11.6,11.6,0,0,0,34.6,45,12,12,0,0,0,46.4,56.8a11.6,11.6,0,0,0,8.4-3.5A11.3,11.3,0,0,0,58.3,45,12,12,0,0,0,46.4,33.1Z" fill="#4b5da9"/>
          </g>
          <path d="M50.1,79.8a2.3,2.3,0,0,1-2.3-2.3V68.7a2.3,2.3,0,0,1,2.3-2.3,2.3,2.3,0,0,1,2.3,2.3v8.8A2.3,2.3,0,0,1,50.1,79.8Z" fill="#7da6d7"/>
        </g>
      </g>
      <path d="M46.4,37.7a6.7,6.7,0,0,1,5.1,2.2,7,7,0,0,1,0,10.2A7.2,7.2,0,0,1,41.3,39.9a6.7,6.7,0,0,1,5.1-2.2" fill="#fff"/>
    </g>
  </g>
</svg>
