<svg xmlns="http://www.w3.org/2000/svg" viewBox="0 0 68.7 68.9">
  <g id="bf93b567-624b-4855-93c7-24eb07045763" data-name="Layer 2">
    <g id="a839311a-247c-4a1f-ac57-0af1f4434687" data-name="Layer 1">
      <g>
        <g>
          <path d="M8.8,66.6a6.4,6.4,0,0,1-5-2.4,6.3,6.3,0,0,1-1.4-5.4L5.1,45.6A13.8,13.8,0,0,1,8.7,39l34-34a9.1,9.1,0,0,1,6.5-2.7A9.3,9.3,0,0,1,55.7,5l8,8a9.1,9.1,0,0,1,2.7,6.5A8.8,8.8,0,0,1,63.7,26l-34,34a12.7,12.7,0,0,1-6.5,3.6L10.1,66.4l-1.3.2Z" fill="#fff"/>
          <path d="M49.2,4.6a7.1,7.1,0,0,1,4.9,2l8,8.1a6.8,6.8,0,0,1,0,9.7l-34,34a11.6,11.6,0,0,1-5.4,3l-13,2.8H8.8a4.2,4.2,0,0,1-4.1-5L7.4,46a10.6,10.6,0,0,1,2.9-5.4l34-34a7.1,7.1,0,0,1,4.9-2m0-4.6a11.1,11.1,0,0,0-8.1,3.4L7,37.4a15.2,15.2,0,0,0-4.1,7.7L.2,58.4A8.4,8.4,0,0,0,2,65.7a8.8,8.8,0,0,0,6.8,3.2l1.8-.2,13.1-2.8a15.9,15.9,0,0,0,7.6-4.2l34.1-34a11.7,11.7,0,0,0,0-16.3l-8.1-8A11.3,11.3,0,0,0,49.2,0Z" fill="#4b5da9"/>
        </g>
        <rect x="8.5" y="23.6" width="40.1" height="11.1" transform="translate(-12.2 28.8) rotate(-45)" fill="#ffca05"/>
        <g>
          <line x1="28.2" y1="59.2" x2="9.2" y2="40.2" fill="#ffca05"/>
          <rect x="16.4" y="36.3" width="4.6" height="26.81" transform="translate(-29.7 27.8) rotate(-45)" fill="#4b5da9"/>
        </g>
        <g>
          <line x1="58.5" y1="28.8" x2="39.5" y2="9.9" fill="#ffca05"/>
          <rect x="46.7" y="5.9" width="4.6" height="26.82" transform="translate(0.7 40.3) rotate(-45)" fill="#4b5da9"/>
        </g>
        <path d="M9.7,64.2l5.8-1.3L5.9,53.3l-1.2,6A4.2,4.2,0,0,0,9.7,64.2Z" fill="#4b5da9"/>
        <g>
          <line x1="19.9" y1="48.9" x2="48.6" y2="20.1" fill="#ffca05"/>
          <rect x="13.9" y="32.2" width="40.6" height="4.6" transform="translate(-14.4 34.3) rotate(-45)" fill="#4b5da9"/>
        </g>
        <path d="M36,45.7a2.3,2.3,0,0,1-1.7-.7,2.2,2.2,0,0,1,.1-3.2L46.2,30a2.3,2.3,0,0,1,3.3,3.3L37.6,45A2.1,2.1,0,0,1,36,45.7Z" fill="#7da6d7"/>
      </g>
    </g>
  </g>
</svg>
