<svg xmlns="http://www.w3.org/2000/svg" viewBox="0 0 82 52.6">
  <g id="abf4dafe-63f0-438f-a01a-740b8e500740" data-name="Layer 2">
    <g id="b519dbd2-af3e-41d0-b485-dfb177846bce" data-name="Layer 1">
      <g>
        <path d="M38.6,50.9a131.4,131.4,0,0,1-18-1.1c-6.4-.9-8.9-2.1-8.9-4.2V20.2a1.7,1.7,0,0,1,.8-1.4,1.8,1.8,0,0,1,1.6-.2l24.5,9.3,24.5-9.3a1.8,1.8,0,0,1,1.6.2,1.6,1.6,0,0,1,.7,1.4V45.6c0,2.1-2.4,3.3-8.8,4.2A131.4,131.4,0,0,1,38.6,50.9ZM15.2,45c1.8.9,9.7,2.4,23.4,2.4S60.1,45.9,61.9,45V22.8L39.2,31.5a2.4,2.4,0,0,1-1.2,0L15.2,22.8Z" fill="#4b5da9"/>
        <path d="M38.6,31.6H38L1.1,17.4A1.8,1.8,0,0,1,0,15.8a2,2,0,0,1,1.1-1.7L38,.1h1.2L76,14.1a1.9,1.9,0,0,1,1.2,1.7A1.7,1.7,0,0,1,76,17.4L39.2,31.5ZM6.7,15.8,38.6,27.9,70.5,15.8,38.6,3.6Z" fill="#4b5da9"/>
        <path d="M75.4,29.8a1.7,1.7,0,0,1-1.7-1.7V17.5H40.3a1.7,1.7,0,0,1-1.7-1.7A1.8,1.8,0,0,1,40.3,14H75.4a1.8,1.8,0,0,1,1.8,1.8V28.1A1.8,1.8,0,0,1,75.4,29.8Z" fill="#4b5da9"/>
        <path d="M75.4,52.6a6.7,6.7,0,0,1-4.8-2.1,6.3,6.3,0,0,1-1.7-5l1.3-14a5.2,5.2,0,0,1,5.2-5.2,5.3,5.3,0,0,1,5.3,5.2l1.2,14a6.6,6.6,0,0,1-1.6,5A7.1,7.1,0,0,1,75.4,52.6Z" fill="#4b5da9"/>
      </g>
      <path d="M19.6,41.8a2.3,2.3,0,0,1-2.3-2.3V30.7a2.3,2.3,0,0,1,2.3-2.3,2.3,2.3,0,0,1,2.3,2.3v8.8A2.3,2.3,0,0,1,19.6,41.8Z" fill="#7da6d7"/>
    </g>
  </g>
</svg>
