<svg xmlns="http://www.w3.org/2000/svg" viewBox="0 0 26.8 26.6">
  <g style="isolation: isolate">
    <g id="b5aba9ed-ea4c-4c6f-988b-9f15bd71c0c2" data-name="Layer 2">
      <g id="a6a9bf3e-19cb-4ab3-82fa-a283ec90db15" data-name="Layer 1">
        <g opacity="0.6" style="mix-blend-mode: multiply">
          <g>
            <path d="M5.5,11h8.8a.9.9,0,0,0,.9-.8.9.9,0,0,0-.9-.9H5.5a.9.9,0,0,0-.9.9A.9.9,0,0,0,5.5,11Z" fill="#4b5da8"/>
            <path d="M5.5,4.9H9A.9.9,0,1,0,9,3.1H5.5a.9.9,0,0,0,0,1.8Z" fill="#4b5da8"/>
            <path d="M26,9.8,23.9,7.7a3.6,3.6,0,0,0-2.2-.9,2.7,2.7,0,0,0-1.9.8V7.3A1.9,1.9,0,0,0,19.3,6L13.8.5A2.1,2.1,0,0,0,12.5,0H3.7A3.6,3.6,0,0,0,0,3.7V22.9a3.7,3.7,0,0,0,3.7,3.7H16.1a3.8,3.8,0,0,0,3.7-3.7V20.3L26,14.1a3.2,3.2,0,0,0,.8-2.1A3.5,3.5,0,0,0,26,9.8Zm-15.5,11h-.1l.3-1.7v-.2l.3-.8,1.3,1.3,1.5,1.4h0l1.7,1.8-.8.3-1.9.4Zm6,1-1.4-1.4-.5-.5.5-.4h0l3-3,1.7-1.8h0l1.9-1.9,1.9,1.9-3.8,3.9-1.7,1.7Zm8-7.9L19.8,9.2l.7-.6A1.6,1.6,0,0,1,21.7,8a1.6,1.6,0,0,1,1.3.6l2.1,2.1a1.8,1.8,0,0,1,0,2.5ZM13.2,2.4l4.1,4.1H15.1a2,2,0,0,1-1.9-2ZM3.7,24.8a2,2,0,0,1-2-1.9V3.7a2,2,0,0,1,2-2h7.9a1.7,1.7,0,0,0-.1.7V4.5a3.6,3.6,0,0,0,3.6,3.7h2.2l.8-.2V9.3l-3.4,3.3H5.5a.9.9,0,0,0-.9.8.9.9,0,0,0,.9.9H13l-1.5,1.5h-6a.9.9,0,0,0,0,1.8H10a4.2,4.2,0,0,0-.4,1v.5h-4a.9.9,0,0,0-.9.9.8.8,0,0,0,.9.8H9.2l-.3,1.3A2.2,2.2,0,0,0,9.4,24a2.2,2.2,0,0,0,1.3.8Zm14.4-1.9a2,2,0,0,1-2,1.9H11.6l3.5-.7a5.6,5.6,0,0,0,2-1.1l1-1Z" fill="#4b5da8"/>
            <path d="M21.8,15.6a.7.7,0,0,0,0-.9.6.6,0,0,0-.8,0l-1.2,1.2-1.7,1.7-.2.2a.5.5,0,0,0-.1.8l.3.2h.2l.4-.2,1.1-1.1Z" fill="#4b5da8"/>
          </g>
        </g>
      </g>
    </g>
  </g>
</svg>
