<svg xmlns="http://www.w3.org/2000/svg" viewBox="0 0 26.4 26.4">
  <g style="isolation: isolate">
    <g id="ebd58d76-9eaf-47d0-af3d-272de4ab5e55" data-name="Layer 2">
      <g id="b5f795c0-6463-4ce3-9a41-e8be7d0f2254" data-name="Layer 1">
        <g opacity="0.6" style="mix-blend-mode: multiply">
          <g>
            <path d="M9.9,21.9l1-1a.3.3,0,0,0,.1-.2c0-.1-.1-.2-.1-.3L9.4,18.9l1.5-1.5v-.3c0-.1-.1-.1-.1-.2l-1-1H9.3L7.8,17.4,6.3,15.9H5.8l-1,1c-.1.1-.1.1-.1.2a.4.4,0,0,0,.1.3l1.5,1.5L4.8,20.4a.4.4,0,0,0-.1.3c0,.1,0,.2.1.2l1,1h.5l1.5-1.5,1.6,1.5a.2.2,0,0,0,.2.2Z" fill="#4b5da8"/>
            <path d="M7.1,11H8.8a.4.4,0,0,0,.1-.3V8.5h2.4a.4.4,0,0,0,.1-.3V6.7a.4.4,0,0,0-.1-.3H8.9V4.2a.4.4,0,0,0-.1-.3H6.9a.4.4,0,0,0-.1.3V6.3H4.4a.4.4,0,0,0-.1.3V8.1a.4.4,0,0,0,.1.3H6.8v2.1a.4.4,0,0,0,.1.3Z" fill="#4b5da8"/>
            <path d="M25.1,13.2a8,8,0,0,0,1.3-4.6,8.5,8.5,0,0,0-2.5-6.1h0A8.8,8.8,0,0,0,17.8,0H8.6A8.8,8.8,0,0,0,2.5,2.5h0A8.5,8.5,0,0,0,0,8.6a8,8,0,0,0,1.3,4.6A8,8,0,0,0,0,17.8a8.8,8.8,0,0,0,2.5,6.1h0a8.5,8.5,0,0,0,6.1,2.5h9.2a8.5,8.5,0,0,0,6.1-2.5h0a8.8,8.8,0,0,0,2.5-6.1A8,8,0,0,0,25.1,13.2Zm-3,8.4a.4.4,0,0,1-.1.3c0,.1-.1.1-.2.1H15.9V20h5.9c.1,0,.2,0,.2.1s.1.1.1.2Zm0-3.1a.4.4,0,0,1-.1.3H15.9c0-.1-.1-.2-.1-.3V17.1c0-.1.1-.2.1-.3h5.9c.1,0,.2,0,.2.1a.4.4,0,0,1,.1.3Zm1.2-5.3H13.2V24.7H8.8a6.9,6.9,0,0,1-5.1-2.1h0a7.3,7.3,0,0,1-2.1-5.1,6.6,6.6,0,0,1,1.5-4.3A7.1,7.1,0,0,1,1.6,8.8,7.3,7.3,0,0,1,3.7,3.7h0A6.9,6.9,0,0,1,8.8,1.6h8.8a6.9,6.9,0,0,1,5.1,2.1h0a7.3,7.3,0,0,1,2.1,5.1A7.1,7.1,0,0,1,23.3,13.2Z" fill="#4b5da8"/>
            <g>
              <path d="M22.1,8.1V6.7a.4.4,0,0,0-.1-.3H15.9c0,.1-.1.2-.1.3V8.4H22A.4.4,0,0,0,22.1,8.1Z" fill="#4b5da8"/>
              <circle cx="19" cy="5.2" r="0.9" fill="#4b5da8"/>
              <circle cx="19" cy="9.6" r="0.9" fill="#4b5da8"/>
            </g>
          </g>
        </g>
      </g>
    </g>
  </g>
</svg>
