<svg xmlns="http://www.w3.org/2000/svg" viewBox="0 0 31.3 23.1">
  <g style="isolation: isolate">
    <g id="e31ee11a-7cc9-4467-9a9c-25beb9e6aa56" data-name="Layer 2">
      <g id="a9874753-b1fc-4d40-a29c-2d088b53696f" data-name="Layer 1">
        <g opacity="0.6" style="mix-blend-mode: multiply">
          <g>
            <g>
              <path d="M30.3,4.6a2.2,2.2,0,0,0-2.1-.1L24.3,6.8V3.6A3.6,3.6,0,0,0,20.8,0H3.6A3.6,3.6,0,0,0,0,3.6V19.5a3.6,3.6,0,0,0,3.6,3.6H20.8a3.6,3.6,0,0,0,3.5-3.6V16.3l3.9,2.3,1,.2,1.1-.2a2.3,2.3,0,0,0,1-1.9V6.4A2,2,0,0,0,30.3,4.6ZM22.9,7.9V19.5a2.1,2.1,0,0,1-2.1,2.1H3.6a2.1,2.1,0,0,1-2.1-2.1V3.6A2.1,2.1,0,0,1,3.6,1.5H20.8a2.1,2.1,0,0,1,2.1,2.1ZM28,7.2,26,8.5h-.3a.5.5,0,0,1-.5-.3.5.5,0,0,1,.2-.8l2-1.3a.5.5,0,0,1,.8.2A.6.6,0,0,1,28,7.2Z" fill="#4b5da8"/>
              <rect x="2.6" y="12.2" width="1.4" height="7.64" rx="0.6" fill="#4b5da8"/>
            </g>
            <path d="M17.6,12.6V10.5a.5.5,0,0,0-.2-.4L17,9.9H13.8V6.7a.5.5,0,0,0-.2-.4H10.7a.5.5,0,0,0-.2.4V9.9H7.3l-.4.2c-.1.1-.1.2-.1.4v2.1c0,.2,0,.3.1.4l.4.2h3.2v3.2a.5.5,0,0,0,.2.4h2.9a.5.5,0,0,0,.2-.4V13.2H17l.4-.2A.5.5,0,0,0,17.6,12.6Z" fill="#4b5da8"/>
          </g>
        </g>
      </g>
    </g>
  </g>
</svg>
