<svg xmlns="http://www.w3.org/2000/svg" viewBox="0 0 22 21.6">
  <g style="isolation: isolate">
    <g id="b9b0c58b-7860-42aa-b4bb-eedbd3840bda" data-name="Layer 2">
      <g id="a0271645-c57b-4db1-8ead-afbeea5c6fe7" data-name="Layer 1">
        <g opacity="0.6" style="mix-blend-mode: multiply">
          <g>
            <g>
              <path d="M21.1,16.2l-4.3-4.3h-.1l-2-1.9h-.1a8.8,8.8,0,0,1-.5,1.5l1.6,1.5h0l.4.4,4,4a1.5,1.5,0,0,1,.5,1.2,1.5,1.5,0,0,1-.5,1.3,1.7,1.7,0,0,1-1.2.5,2.1,2.1,0,0,1-1.3-.5l-3.9-4-1.9-1.9a8.4,8.4,0,0,1-1.4.6l2.1,2.1h.1l4.1,4.1a3.4,3.4,0,0,0,2.2.9,3.6,3.6,0,0,0,2.2-.9,3.2,3.2,0,0,0,.9-2.3A3.1,3.1,0,0,0,21.1,16.2Z" fill="#4b5da8"/>
              <path d="M4.1,8.7A4.5,4.5,0,0,1,8.7,4.1a4.6,4.6,0,0,1,4.6,4.6,4.7,4.7,0,0,1-4.6,4.6A4.6,4.6,0,0,1,4.1,8.7Z" fill="#4b5da8"/>
            </g>
            <path d="M8.7,0a8.7,8.7,0,0,0,0,17.4,10.1,10.1,0,0,0,3.8-.9l1.2-.8a7.2,7.2,0,0,0,2.4-2.5,8.3,8.3,0,0,0,.7-1.3,11.3,11.3,0,0,0,.6-3.2A8.7,8.7,0,0,0,8.7,0Zm3.1,13.8a8.4,8.4,0,0,1-1.4.6,4.7,4.7,0,0,1-1.7.3,6,6,0,1,1,6-6c0,.3-.1.7-.1,1a8.8,8.8,0,0,1-.5,1.5A5.8,5.8,0,0,1,11.8,13.8Z" fill="#4b5da8"/>
            <path d="M13.3,8.7A4.6,4.6,0,0,0,8.7,4.1,4.5,4.5,0,0,0,4.1,8.7a4.6,4.6,0,0,0,4.6,4.6A4.7,4.7,0,0,0,13.3,8.7Z" fill="#4b5da8"/>
          </g>
        </g>
      </g>
    </g>
  </g>
</svg>
