<svg xmlns="http://www.w3.org/2000/svg" viewBox="0 0 209.4 231.6">
  <g id="ba7a5d73-f17f-40ab-9922-034d4fe89b3c" data-name="Layer 2">
    <g id="a3ecf772-d33b-4ac1-b968-d99a68453d9c" data-name="Layer 1">
      <g opacity="0.6">
        <g>
          <path d="M161.8,0H47.6A47.6,47.6,0,0,0,0,47.6V149.3A47.7,47.7,0,0,0,47.6,197H60.1L88,224.9a23.8,23.8,0,0,0,16.5,6.7,23.4,23.4,0,0,0,16.3-6.7l28-27.9h13a47.7,47.7,0,0,0,47.6-47.7V47.6A47.7,47.7,0,0,0,161.8,0ZM196,149.3a34.4,34.4,0,0,1-34,34.3H143.3L129.8,197l-18.5,18.4a9.6,9.6,0,0,1-13.8,0L65.7,183.6h-19a34.4,34.4,0,0,1-33.3-34.3V47.6A34.3,34.3,0,0,1,47.6,13.4H161.8A34.3,34.3,0,0,1,196,47.6Z" fill="#4c5ea8"/>
          <path d="M151.2,31.7a25.7,25.7,0,0,1,25.7,25.7,5.2,5.2,0,1,0,10.3,0,36,36,0,0,0-36-36,5.2,5.2,0,1,0,0,10.3Z" fill="#7da4d6"/>
        </g>
        <path d="M104.3,164.9c-7.2,0-12.2-5.3-12.2-12.9s5-12.8,12.2-12.8A12.5,12.5,0,0,1,117,152C117,159.6,111.6,164.9,104.3,164.9Zm-.2-136.1c5.5,0,11.5,1.2,11.7,6.8a62.8,62.8,0,0,1-.6,7.8c-1.4,15.5-5.4,51.6-7.1,75.5h-7.8c-1.8-23.9-5.4-59-7-75.3-.2-2.6-.6-6.2-.6-8.2C92.7,30.2,98.5,28.8,104.1,28.8Z" fill="#4c5ea8" stroke="#4c5ea8" stroke-miterlimit="10" stroke-width="5.8"/>
      </g>
    </g>
  </g>
</svg>
