<svg xmlns="http://www.w3.org/2000/svg" viewBox="0 0 216.48 216.48">
  <g id="a34ce946-3043-4953-ae6b-af393773668c" data-name="Layer 2">
    <g id="a4891684-fe1f-4f84-a5b3-a4eba2f1c87b" data-name="Layer 1">
      <g>
        <path d="M216.48,108.24A108.24,108.24,0,1,1,108.24,0,108.24,108.24,0,0,1,216.48,108.24" style="fill: #4c5ea8"/>
        <path d="M202.36,108.24a94.12,94.12,0,1,1-94.12-94.12,94.12,94.12,0,0,1,94.12,94.12" style="fill: #8781bd"/>
        <path d="M146.38,103.48h0c0,.17,0,.33,0,.49a9.63,9.63,0,1,0,19.26,0c0-.16,0-.32,0-.49h0V78.63h0a9.61,9.61,0,0,0-19.16,0h-.05Z" style="fill: #010101"/>
        <path d="M163.39,91.78A7.38,7.38,0,1,0,156,99.25a7.43,7.43,0,0,0,7.38-7.47" style="fill: #fff"/>
        <path d="M51.69,103.48h0c0,.17,0,.33,0,.49A9.64,9.64,0,1,0,71,104c0-.16,0-.32,0-.49h0V78.63h0a9.62,9.62,0,0,0-19.17,0h-.05Z" style="fill: #010101"/>
        <path d="M68.7,91.78a7.38,7.38,0,1,0-7.37,7.47,7.43,7.43,0,0,0,7.37-7.47" style="fill: #fff"/>
        <path d="M160.08,58.5h-8.14a3.43,3.43,0,0,0,0,6.86h8.14a3.43,3.43,0,0,0,0-6.86" style="fill: #010101"/>
        <path d="M65.39,58.5H57.26a3.43,3.43,0,0,0,0,6.86h8.13a3.43,3.43,0,0,0,0-6.86" style="fill: #010101"/>
        <path d="M81.33,98.2c-5.56,0-10.06,7.39-10.06,16.51s4.5,16.51,10.06,16.51h26.85v-33Z" style="fill: #4c5ea8"/>
        <path d="M135.12,98.2H108.18v33h26.94c5.56,0,10.06-7.39,10.06-16.51s-4.5-16.51-10.06-16.51" style="fill: #7da4d5"/>
        <path d="M108.58,149.67c-18.36,0-34.67-12.32-42.83-23.83h0A13.77,13.77,0,0,0,54.58,120c-7.76,0-14,6.61-14,14.78a15.32,15.32,0,0,0,2,7.52h0c11.12,21.8,36.58,37,66.15,37h0V149.67h-.08" style="fill: #fff"/>
        <path d="M162.59,120a13.88,13.88,0,0,0-11.91,7h0a49.6,49.6,0,0,1-42,22.67v29.68c30.12,0,55.51-15,66.28-37.48,0,0,.27-.57.27-.57a15.34,15.34,0,0,0,1.44-6.48c0-8.17-6.29-14.78-14.06-14.78" style="fill: #ededee"/>
        <path d="M108.71,166.23c-25.92,0-49.35-14.92-59.71-38l3-1.51c9.81,21.86,32.05,36,56.67,36,25.14,0,47.43-14.29,56.78-36.42l3.07,1.44c-9.89,23.4-33.38,38.52-59.85,38.52" style="fill: #7da4d5"/>
        <path d="M150.37,134.74c0,7.21,5.56,13,12.41,13s12.41-5.84,12.41-13-5.56-13-12.41-13-12.41,5.84-12.41,13" style="fill: #fff"/>
      </g>
    </g>
  </g>
</svg>
