<svg xmlns="http://www.w3.org/2000/svg" viewBox="0 0 216.48 216.48">
  <g id="b178da66-6fc5-47ed-8be5-20f9a970c237" data-name="Layer 2">
    <g id="e87b07ba-6354-49d8-965a-2db2f68eab5d" data-name="Layer 1">
      <g>
        <path d="M216.48,108.24A108.24,108.24,0,1,1,108.24,0,108.24,108.24,0,0,1,216.48,108.24" style="fill: #4c5ea8"/>
        <path d="M202.36,108.24a94.12,94.12,0,1,1-94.12-94.12,94.12,94.12,0,0,1,94.12,94.12" style="fill: #8781bd"/>
        <path d="M92.29,117.4v12.52h16V98.77c-8.86.06-16,8.38-16,18.63" style="fill: #4c5ea8"/>
        <path d="M124.53,117.4c0-10.29-7.22-18.63-16.12-18.63h-.09v31.15h16.21Z" style="fill: #7da4d5"/>
        <path d="M108.24,147.77c-18.36,0-34.67-12.32-42.84-23.83h0a13.81,13.81,0,0,0-11.16-5.82c-7.76,0-14,6.62-14,14.78a15.36,15.36,0,0,0,2,7.53h0c11.12,21.81,36.58,37,66.16,37h0V147.76h-.08" style="fill: #fff"/>
        <path d="M162.25,118.14a13.89,13.89,0,0,0-11.92,7h0a49.59,49.59,0,0,1-42,22.66v29.68c30.11,0,55.5-15,66.28-37.47l.26-.57a15.39,15.39,0,0,0,1.44-6.49c0-8.16-6.29-14.77-14.05-14.77" style="fill: #ededee"/>
        <path d="M108.36,164.33c-25.91,0-49.35-14.92-59.71-38l3-1.5c9.81,21.86,32.05,36,56.67,36,25.14,0,47.43-14.3,56.78-36.42l3.07,1.43c-9.88,23.41-33.38,38.53-59.85,38.53" style="fill: #7da4d5"/>
        <path d="M150,132.84c0,7.21,5.56,13,12.41,13s12.41-5.84,12.41-13-5.56-13-12.41-13-12.41,5.84-12.41,13" style="fill: #fff"/>
        <path d="M139.54,99.56h0c0,.17,0,.33,0,.49a9.64,9.64,0,1,0,19.28,0c0-.16,0-.32,0-.49h0V74.69h0a9.62,9.62,0,0,0-19.18,0h-.05Z" style="fill: #010101"/>
        <path d="M156.57,87.25a7.39,7.39,0,1,0-7.39,7.48,7.44,7.44,0,0,0,7.39-7.48" style="fill: #fff"/>
        <line x1="158.32" y1="76.65" x2="164.83" y2="76.65" style="fill: none;stroke: #010101;stroke-linecap: round;stroke-linejoin: round;stroke-width: 0.9079999923706055px"/>
        <line x1="158.32" y1="82.17" x2="164.83" y2="82.17" style="fill: none;stroke: #010101;stroke-linecap: round;stroke-linejoin: round;stroke-width: 0.9079999923706055px"/>
        <path d="M75.84,99.56h0c0,.17,0,.33,0,.49a9.64,9.64,0,1,1-19.28,0c0-.16,0-.32,0-.49h0V74.69h0a9.62,9.62,0,0,1,19.18,0h0Z" style="fill: #010101"/>
        <path d="M58.82,87.25a7.39,7.39,0,1,1,7.38,7.48,7.43,7.43,0,0,1-7.38-7.48" style="fill: #fff"/>
        <line x1="57.07" y1="76.65" x2="50.55" y2="76.65" style="fill: none;stroke: #010101;stroke-linecap: round;stroke-linejoin: round;stroke-width: 0.9079999923706055px"/>
        <line x1="57.07" y1="82.17" x2="50.55" y2="82.17" style="fill: none;stroke: #010101;stroke-linecap: round;stroke-linejoin: round;stroke-width: 0.9079999923706055px"/>
        <path d="M153.25,46.59h-8.14a3.44,3.44,0,0,0,0,6.87h8.14a3.44,3.44,0,0,0,0-6.87" style="fill: #010101"/>
        <path d="M70.27,46.59H62.13a3.44,3.44,0,0,0,0,6.87h8.14a3.44,3.44,0,0,0,0-6.87" style="fill: #010101"/>
      </g>
    </g>
  </g>
</svg>
