<svg xmlns="http://www.w3.org/2000/svg" viewBox="0 0 216.48 216.48">
  <g id="ed31d877-ba6c-42fc-a175-6b30279e13cf" data-name="Layer 2">
    <g id="e79aa66c-b88c-4314-9935-45686c53cfc4" data-name="Layer 1">
      <g>
        <path d="M216.48,108.24A108.24,108.24,0,1,1,108.24,0,108.24,108.24,0,0,1,216.48,108.24" style="fill: #4c5ea8"/>
        <path d="M202.36,108.24a94.12,94.12,0,1,1-94.12-94.12,94.12,94.12,0,0,1,94.12,94.12" style="fill: #61bbb8"/>
        <path d="M146.38,103.48h0c0,.17,0,.33,0,.49a9.63,9.63,0,1,0,19.26,0c0-.16,0-.32,0-.49h0V78.63h0a9.61,9.61,0,0,0-19.16,0h-.05Z" style="fill: #010101"/>
        <path d="M163.39,102a7.38,7.38,0,1,0-7.38,7.48,7.43,7.43,0,0,0,7.38-7.48" style="fill: #fff"/>
        <path d="M51.69,103.48h0c0,.17,0,.33,0,.49A9.64,9.64,0,1,0,71,104c0-.16,0-.32,0-.49h0V78.63h0a9.62,9.62,0,0,0-19.17,0h-.05Z" style="fill: #010101"/>
        <path d="M68.7,102a7.38,7.38,0,1,0-7.37,7.48A7.43,7.43,0,0,0,68.7,102" style="fill: #fff"/>
        <path d="M160.08,58.5h-8.14a3.43,3.43,0,0,0,0,6.86h8.14a3.43,3.43,0,0,0,0-6.86" style="fill: #010101"/>
        <path d="M65.39,58.5H57.26a3.43,3.43,0,0,0,0,6.86h8.13a3.43,3.43,0,0,0,0-6.86" style="fill: #010101"/>
        <path d="M50.91,130.63a16,16,0,0,0,0,32h57.32v-32Z" style="fill: #fff"/>
        <path d="M165.57,130.63a16,16,0,0,1,0,32H108.26v-32Z" style="fill: #ededee"/>
        <rect x="50.5" y="144.95" width="116.18" height="3.38" style="fill: #7da4d5"/>
        <path d="M81.33,98.2c-5.56,0-10.06,7.39-10.06,16.51s4.5,16.51,10.06,16.51h26.85v-33Z" style="fill: #4c5ea8"/>
        <path d="M135.13,98.2H108.18v33h26.95c5.55,0,10.05-7.39,10.05-16.51s-4.5-16.51-10.05-16.51" style="fill: #7da4d5"/>
        <path d="M165.11,133h-.19a13.6,13.6,0,0,0,0,27.19h.19a13.61,13.61,0,0,0,0-27.21" style="fill: #fff"/>
      </g>
    </g>
  </g>
</svg>
