<svg xmlns="http://www.w3.org/2000/svg" viewBox="0 0 382.9 448.5">
  <g id="b381cc43-cded-4b27-adf4-fa7ad7793cfd" data-name="Layer 2">
    <g id="ef0e4852-48a4-4c96-9fab-c84aaf67c07f" data-name="Layer 3">
      <g>
        <g>
          <g>
            <path d="M362.9,335.6a37.4,37.4,0,0,0-67.2-22.7h-.1c-21.7,29.2-65.2,60.4-114.2,60.4-47.5,0-89.2-23-112.1-57.4h-.1A37.4,37.4,0,0,0,3.8,352s.7,1.4.7,1.5c28.8,56.8,96.5,95,176.8,95S328,409.9,357.6,354.7h0A37.5,37.5,0,0,0,362.9,335.6Z" fill="#739cce"/>
            <path d="M181.4,135.6Z" fill="#fff"/>
          </g>
          <path d="M25.7,315.7c25.2,56.9,84.8,95,155.4,95s129.1-38.5,155.1-93.8" fill="none" stroke="#43539b" stroke-miterlimit="10" stroke-width="3"/>
          <circle cx="38" cy="337.4" r="33.1" fill="#4b5eaa"/>
          <circle cx="324.2" cy="337.4" r="33.1" fill="#fff"/>
        </g>
        <g>
          <path d="M253.4,281.4v8.2c0,5.3,4.6,9.6,10.2,9.7a10.2,10.2,0,0,0,9.7-6.6h1.1a10.1,10.1,0,0,0,9.6,6.6,10.3,10.3,0,0,0,9.8-6.5h1.1a10.5,10.5,0,0,0,19.2,0h1.1v42.6c-.1,5.2,4.4,9.4,9.9,9.4a9.6,9.6,0,0,0,10-9.3l.2-50.7h0V263.5h0V245.2L363.9,274c4.1,4.1,11.1,3.9,15.5-.4a11,11,0,0,0,.5-15.5l-40.3-40.6-1.1-.9a27.5,27.5,0,0,0-18.2-7h-5.2V.2L269.7,0V209.4a16.7,16.7,0,0,0-16.3,16.5v53.3A14.8,14.8,0,0,0,253.4,281.4Z" fill="#4b5eaa"/>
          <path d="M377.3,259.9h-.1l-11.7,11.7h0a8.3,8.3,0,0,0,11.8-11.8Z" fill="#7da7d9"/>
          <path d="M333.4,334.3H316.8a8.3,8.3,0,1,0,16.6,0Z" fill="#7da7d9"/>
        </g>
      </g>
    </g>
  </g>
</svg>
