<?xml version="1.0" encoding="utf-8"?>
<!-- Generator: Adobe Illustrator 26.0.2, SVG Export Plug-In . SVG Version: 6.00 Build 0)  -->
<svg version="1.1" id="Layer_1" xmlns="http://www.w3.org/2000/svg" xmlns:xlink="http://www.w3.org/1999/xlink" x="0px" y="0px"
	 viewBox="0 0 486 486" style="enable-background:new 0 0 486 486;" xml:space="preserve">
<style type="text/css">
	.st0{fill:#7DA6D7;}
	.st1{fill:#FFCA05;}
	.st2{clip-path:url(#SVGID_00000137101193284814126660000003745879822109861533_);}
	.st3{fill:#CBDBEF;}
	.st4{fill:#4B5DA9;}
	.st5{fill:#939ECB;}
	.st6{fill:#FFFFFF;}
	.st7{fill:#EFEEEF;}
</style>
<g id="faa24e31-760d-4f46-9dea-93bc840eaaf4">
	<g id="ed27df68-6ffc-4754-a025-d2bde431c754">
		<g>
			<path class="st0" d="M486,236.5c3.6,134.2-102.3,245.9-236.5,249.5S3.7,383.7,0.1,249.5S102.3,3.7,236.5,0.1
				S482.4,102.3,486,236.5"/>
			<path class="st1" d="M461.7,237.2c3.2,120.7-92.1,221.2-212.8,224.5S27.6,369.6,24.4,248.9s92-221.3,212.8-224.5
				S458.4,116.4,461.7,237.2"/>
		</g>
		<g>
			<defs>
				<path id="SVGID_1_" d="M237.2,24.4C116.4,27.6,21.1,128.1,24.4,248.9s103.7,216,224.5,212.8s216-103.8,212.8-224.5
					C458.5,118.4,361.2,24.3,243.1,24.3h-5.9"/>
			</defs>
			<clipPath id="SVGID_00000102523044721682688870000015042739146820820358_">
				<use xlink:href="#SVGID_1_"  style="overflow:visible;"/>
			</clipPath>
			<g style="clip-path:url(#SVGID_00000102523044721682688870000015042739146820820358_);">
				<path class="st3" d="M375.5,295.3H357v43.3h18.5c12-0.8,21-11.2,20.2-23.1C394.9,304.7,386.3,296,375.5,295.3"/>
				<path class="st4" d="M371.7,316.9c0.1,4-3.2,7.3-7.2,7.4c0,0-0.1,0-0.1,0c-4.1,0.5-7.7-2.4-8.2-6.5c-0.5-4.1,2.4-7.7,6.5-8.2
					c0.6-0.1,1.1-0.1,1.7,0C368.4,309.6,371.7,312.9,371.7,316.9"/>
				<path class="st3" d="M110.6,295.3h18.5v43.3h-18.5c-12,0.8-22.3-8.2-23.1-20.2s8.2-22.3,20.2-23.1
					C108.6,295.2,109.6,295.2,110.6,295.3"/>
				<path class="st0" d="M114.3,316.9c-0.1,4.1,3.2,7.4,7.3,7.5c4.1,0.1,7.4-3.2,7.5-7.3c0.1-4.1-3.2-7.4-7.3-7.5c0,0-0.1,0-0.1,0
					C117.7,309.6,114.4,312.9,114.3,316.9"/>
				<path class="st0" d="M287.9,688.3v52.3c7.5,0,13.6,6.1,13.6,13.6c0,7.5-6.1,13.6-13.6,13.6v94.8c8-17.6,24.5-29.7,43.7-29.7
					c23.7,0,43.4,18.2,47.8,42.9h-107V688.3H287.9z"/>
				<path class="st3" d="M201.2,688.3v52.3c-7.5,0-13.6,6.1-13.6,13.6c0,7.5,6.1,13.6,13.6,13.6v94.8c-8-17.6-24.6-29.7-43.7-29.7
					c-23.8,0-43.5,18.2-47.9,42.9h107.2V688.3H201.2z"/>
				<path class="st3" d="M129.2,170.2v417.1c0,62.9,50.9,113.9,113.8,114V170.2H129.2z"/>
				<path class="st0" d="M243,170.2v531.1h0.1c62.9,0,113.9-51,113.9-113.9c0,0,0-0.1,0-0.1V170.2H243z"/>
				<path class="st0" d="M140.6,347.1c-0.1,11,8.8,19.9,19.8,20s19.9-8.8,20-19.8s-8.8-19.9-19.8-20c-0.1,0-0.1,0-0.2,0
					C149.5,327.4,140.7,336.2,140.6,347.1"/>
				<path class="st3" d="M305.9,347.1c-0.1,11,8.8,19.9,19.8,20s19.9-8.8,20-19.8s-8.8-19.9-19.8-20c0,0-0.1,0-0.1,0
					C314.8,327.3,306,336.1,305.9,347.1"/>
				<path class="st3" d="M357,456.8v342l-15.2,0.4c0,8.4,2.5,17.7,15.3,17.7c11.2,0,13.9-6.9,13.9-15.4V439.8
					c11.2,0,20.3-9.1,20.3-20.3c0-11.2-9.1-20.3-20.3-20.3h-14V456.8z"/>
				<path class="st5" d="M371,457.3v-17.5c11.2,0,20.3-9.1,20.3-20.3c0-11.2-9.1-20.3-20.3-20.3h-14v96.4h14V457.3z"/>
				<path class="st0" d="M129.1,456.8v342l15.3,0.4c0,8.4-2.6,17.7-15.4,17.7c-11.1,0-13.9-6.9-13.9-15.4V439.8
					c-11.2,0-20.3-9.1-20.3-20.3c0-11.2,9.1-20.3,20.3-20.3h14V456.8z"/>
				<path class="st4" d="M129.1,456.8v-57.6h-14c-11.2,0-20.3,9.1-20.3,20.3c0,11.2,9.1,20.3,20.3,20.3v55.8h14V456.8z"/>
				<rect x="129.1" y="399.2" class="st5" width="113.9" height="188.3"/>
				<rect x="243" y="399.2" class="st4" width="114" height="188.3"/>
				<path class="st5" d="M270.3,57c50.5,11.3,86.7,58.3,86.7,109.6v31.5c-60.8-17.8-98.4-78.7-87-141L270.3,57z"/>
				<path class="st4" d="M328.1,91.4C230.6-10.1,98.7,125.1,98.7,125.1c7.5,22.7,20.9,43,39,58.6c51.6,44.9,138.5,41.6,174.8-9.4
					C341.6,133.4,333.9,97.5,328.1,91.4"/>
				<path d="M327.9,274.9h-0.1c0-0.2,0.1-0.4,0.1-0.6c0-6.4-5.2-11.6-11.6-11.6s-11.6,5.2-11.6,11.6c0,0.2,0.1,0.4,0.1,0.6h-0.1
					v29.4h0.1c0.8,6.4,6.7,10.8,13,10c5.2-0.7,9.3-4.8,10-10h0.1V274.9z"/>
				<path d="M181.5,302.6h-0.1c0,0.2,0.1,0.4,0.1,0.6c0,6.4-5.2,11.6-11.6,11.6c-6.4,0-11.6-5.2-11.6-11.6c0-0.2,0.1-0.4,0.1-0.6
					h-0.1v-29.4h0.1c0-6.4,5.1-11.5,11.5-11.5s11.5,5.1,11.5,11.5h0.1L181.5,302.6z"/>
				<path class="st6" d="M178.6,277c0.5,4.9-3,9.3-7.9,9.8c-4.9,0.5-9.3-3-9.8-7.9c-0.1-0.6-0.1-1.3,0-1.9c0.5-4.9,4.9-8.4,9.8-7.9
					C174.9,269.5,178.2,272.8,178.6,277"/>
				<path class="st6" d="M307.3,277c-0.1,4.9,3.9,8.9,8.8,9s8.9-3.9,9-8.8s-3.9-8.9-8.8-9c-0.1,0-0.1,0-0.2,0
					C311.3,268.3,307.4,272.2,307.3,277"/>
				<path class="st5" d="M223.7,290.4v70.9H243v-92.2C232.3,269.2,223.7,278.7,223.7,290.4"/>
				<path class="st4" d="M262.5,290.4c0-11.8-8.7-21.3-19.4-21.3H243v92.2h19.5V290.4z"/>
				<path d="M160.7,238.5c0,0.9,0.3,1.8,0.8,2.5c1.1,1.2,3,1.3,4.2,0.2c0.1-0.1,0.1-0.1,0.2-0.2c1-1.2,2.4-1.9,4-1.9
					c1.6,0,3,0.8,4,2c1.1,1.2,2.9,1.3,4.1,0.2c0.1-0.1,0.1-0.1,0.2-0.2c1.2-1.4,1.2-3.4,0.1-4.9c-2.1-2.5-5.2-3.9-8.4-4
					c-3.2,0-6.3,1.4-8.4,3.9C161,236.8,160.7,237.6,160.7,238.5"/>
				<path d="M307.1,238.5c0,0.9,0.3,1.8,0.9,2.5c1.1,1.2,2.9,1.3,4.1,0.2c0.1-0.1,0.1-0.1,0.2-0.2c1-1.2,2.4-1.9,4-1.9
					c1.6,0,3,0.8,4,2c1.1,1.2,2.9,1.3,4.1,0.2c0.1-0.1,0.1-0.1,0.2-0.2c1.2-1.4,1.2-3.4,0.1-4.9c-2.1-2.5-5.1-4-8.4-4
					c-3.2,0-6.3,1.4-8.3,3.9C307.4,236.8,307.1,237.6,307.1,238.5"/>
				<path class="st6" d="M243,355.9c-22.6,0-42.7-14.5-52.8-27.9l0,0c-3.2-4.3-8.3-6.8-13.7-6.8c-9.5-0.1-17.2,7.6-17.3,17.1
					c0,0.1,0,0.1,0,0.2c0,3.1,0.8,6.1,2.4,8.8l0,0c13.7,25.5,45,43.3,81.5,43.3l0,0L243,355.9L243,355.9"/>
				<path class="st7" d="M309.5,321.2c-6,0-11.5,3-14.7,8.1l0,0c-10.6,15.9-29.8,26.5-51.7,26.6v34.7c37.1,0,68.3-17.6,81.6-43.9
					l0.3-0.6c1.2-2.4,1.8-5,1.8-7.6c0.1-9.5-7.6-17.2-17.1-17.3C309.6,321.2,309.6,321.2,309.5,321.2"/>
				<path class="st0" d="M243.1,375.3c-31.9,0-60.7-17.5-73.5-44.6l3.7-1.7c12.1,25.6,39.5,42.1,69.8,42.1s58.5-16.7,70-42.6
					l3.8,1.7C304.7,357.6,275.7,375.3,243.1,375.3"/>
				<path class="st1" d="M161.7,339.3c-0.1,8.4,6.7,15.3,15.2,15.4c8.4,0.1,15.3-6.7,15.4-15.2s-6.7-15.3-15.2-15.4c0,0-0.1,0-0.1,0
					C168.6,324.1,161.8,330.9,161.7,339.3"/>
			</g>
		</g>
	</g>
</g>
</svg>
