<?xml version="1.0" encoding="utf-8"?>
<!-- Generator: Adobe Illustrator 26.0.2, SVG Export Plug-In . SVG Version: 6.00 Build 0)  -->
<svg version="1.1" id="Layer_1" xmlns="http://www.w3.org/2000/svg" xmlns:xlink="http://www.w3.org/1999/xlink" x="0px" y="0px"
	 viewBox="0 0 3535.9 191.4" style="enable-background:new 0 0 3535.9 191.4;" xml:space="preserve">
<style type="text/css">
	.st0{fill:#FFCA05;}
	.st1{fill:#FFFFFF;}
	.st2{fill:#7DA6D7;}
	.st3{fill:#4B5DA9;}
</style>
<g id="afa015cd-7875-4813-974f-d5e3b6e5d593">
	<g id="eb016f30-7f4d-42bf-ad05-b7f20c81d5f4">
		<path class="st0" d="M3488,119.6c-19,0.1-34.4-15.3-34.5-34.3s15.3-34.4,34.3-34.5s34.4,15.3,34.5,34.3c0,0,0,0.1,0,0.1
			c0.1,18.9-15.3,34.3-34.2,34.4C3488,119.6,3488,119.6,3488,119.6"/>
		<path class="st1" d="M3439.9,85.2c0,26.5,21.5,48,48,48c26.5,0,48-21.5,48-48s-21.5-48-48-48c-26.5-0.1-47.9,21.3-48,47.8
			C3439.9,85.1,3439.9,85.1,3439.9,85.2 M3522.2,85.2c0.1,19-15.3,34.4-34.3,34.5c-19,0.1-34.4-15.3-34.5-34.3s15.3-34.4,34.3-34.5
			c0.1,0,0.1,0,0.2,0C3506.8,50.9,3522.2,66.3,3522.2,85.2"/>
		<path class="st2" d="M3397.6,191.1h12.1c7.9,0,14.2-6.8,14.3-15.1c0.1-6.4-3.8-12.1-9.7-14.4v-1.5c7.9-3.1,11.8-12.1,8.7-20
			c-1.6-3.9-4.6-7-8.6-8.6v-1.8c7.8-3.3,11.5-12.4,8.1-20.2c-1.5-3.6-4.4-6.5-8-8.1v-1.5l62.9,0.2c7.6,0,13.8-6.5,13.9-14.7
			c0.1-8.2-6.2-14.7-13.8-14.8l-74.9-0.2h-58.5l42.5-42.3c6.2-6,5.9-16.2-0.6-22.8s-16.7-7-22.8-1l-60,59.6l-1.4,1.6
			c-6.6,7.4-10.3,17-10.3,27v7.6H0.1l-0.2,67h3291.3c0.3,13.3,11.1,23.9,24.4,24l78.7,0.2c1.1,0,2.2-0.1,3.3-0.3"/>
		<path class="st3" d="M3365.8,8.2L3365.8,8.2l17.3,17.4h0.1c4.8-4.8,4.8-12.6,0-17.4C3378.4,3.4,3370.6,3.4,3365.8,8.2"/>
		<path class="st3" d="M3475.7,73h-0.1v24.5h0.1c6.8,0.6,12.7-4.4,13.4-11.1s-4.4-12.7-11.1-13.4C3477.2,72.9,3476.4,72.9,3475.7,73
			"/>
	</g>
</g>
</svg>
