<svg xmlns="http://www.w3.org/2000/svg" viewBox="0 0 19.2 25.4">
  <g id="a38253f9-4cf2-4e96-8024-f588a6803a8d" data-name="Layer 2">
    <g id="e641a230-c360-480d-8547-5692ec5b2b04" data-name="bar&amp;buttons">
      <g>
        <g>
          <path d="M9.6,0A9.5,9.5,0,0,0,2.8,2.8,9.6,9.6,0,0,0,.9,13.7c.1.2.4.8,6.6,10.5a2.7,2.7,0,0,0,2.2,1.2,2.7,2.7,0,0,0,2.1-1.2c6.1-9.7,6.4-10.2,6.4-10.4A9.6,9.6,0,0,0,9.6,0Z" fill="#4b5da9"/>
          <path d="M9.6,1.6A7.7,7.7,0,0,1,15.2,4a8,8,0,0,1,1.6,9.1c-.3.6-4.6,7.4-6.4,10.2a.8.8,0,0,1-.7.5,1,1,0,0,1-.8-.5C7.1,20.5,2.7,13.7,2.4,13A7.8,7.8,0,0,1,4,4,7.7,7.7,0,0,1,9.6,1.6" fill="#fff"/>
          <g>
            <path d="M13.2,8.8A3.8,3.8,0,1,1,9.4,5,3.8,3.8,0,0,1,13.2,8.8Z" fill="#fff"/>
            <path d="M9.4,13.4A4.7,4.7,0,0,1,4.7,8.8,4.6,4.6,0,0,1,9.4,4.2,4.6,4.6,0,0,1,14,8.8,4.7,4.7,0,0,1,9.4,13.4Z" fill="#4b5da9"/>
          </g>
        </g>
        <path d="M9.4,5.8a2.9,2.9,0,0,0-3,3,3,3,0,0,0,3,3,3.1,3.1,0,0,0,3-3A3,3,0,0,0,9.4,5.8Z" fill="#ffca05"/>
      </g>
    </g>
  </g>
</svg>
