<svg xmlns="http://www.w3.org/2000/svg" viewBox="0 0 22.2 17.5">
  <g id="a943f768-6889-485b-a787-ec952e5ec6fc" data-name="Layer 2">
    <g id="b4d6a3fb-ec5d-40d4-833a-23b28a4e22f3" data-name="bar&amp;buttons">
      <g>
        <g>
          <path d="M18.6,0H3.6A3.6,3.6,0,0,0,0,3.6V13.9a3.6,3.6,0,0,0,3.6,3.6h15a3.6,3.6,0,0,0,3.6-3.6V3.6A3.6,3.6,0,0,0,18.6,0ZM14.2,8.8l6.4-6.4a2.1,2.1,0,0,1,.3,1.2V13.9a2,2,0,0,1-.4,1.3Z" fill="#4b5da9"/>
          <path d="M18.6,1.3l1,.2L12.3,8.8a1.9,1.9,0,0,1-1.3.5,1.8,1.8,0,0,1-1.2-.5L2.5,1.6a2,2,0,0,1,1.1-.3Z" fill="#fff"/>
          <path d="M1.7,15.2a2.5,2.5,0,0,1-.4-1.3V3.6a2,2,0,0,1,.3-1.1L8.1,8.9Z" fill="#fff"/>
          <path d="M3.6,16.2,2.8,16,9,9.9a3.1,3.1,0,0,0,2,.7h0a2.9,2.9,0,0,0,2.2-.9L19.5,16l-.9.2Z" fill="#fff"/>
          <path d="M14.2,8.8l6.4-6.4a2.1,2.1,0,0,1,.3,1.2V13.9a2,2,0,0,1-.4,1.3Z" fill="#ffca05"/>
        </g>
        <path d="M15.1,3.8H12a.6.6,0,0,1-.6-.6.7.7,0,0,1,.6-.7h3.1a.7.7,0,0,1,.7.7A.7.7,0,0,1,15.1,3.8Z" fill="#7da6d7"/>
      </g>
    </g>
  </g>
</svg>
