<svg xmlns="http://www.w3.org/2000/svg" viewBox="0 0 13.5 18.1">
  <g id="a25d3ce6-76d5-4b30-9b73-b43a280f03f6" data-name="Layer 2">
    <g id="a6f3a779-09b2-4802-ac83-fa138bff5926" data-name="Layer 1">
      <g>
        <path d="M11.2,11H2.3a.6.6,0,0,1-.6-.6V5.1A5.1,5.1,0,0,1,6.7,0a5.1,5.1,0,0,1,5.1,5.1v5.3A.6.6,0,0,1,11.2,11ZM2.8,9.8h7.8V5.1A3.8,3.8,0,0,0,6.7,1.2,3.9,3.9,0,0,0,2.8,5.1Z" fill="#4b5da9"/>
        <g>
          <path d="M.6,6.9v4.4a6.1,6.1,0,0,0,6.1,6.2,6.2,6.2,0,0,0,6.2-6.2V6.9Z" fill="#ffc905"/>
          <path d="M6.7,18.1A6.8,6.8,0,0,1,0,11.3V6.9a.6.6,0,0,1,.6-.6H12.9a.6.6,0,0,1,.6.6v4.4A6.8,6.8,0,0,1,6.7,18.1Z" fill="#4b5da9"/>
        </g>
        <path d="M1.2,7.4v3.9a5.6,5.6,0,1,0,11.1,0V7.4Z" fill="#fff"/>
        <path d="M1.2,7.4v3.9a5.5,5.5,0,0,0,5.5,5.6V7.4Z" fill="#ffc905"/>
        <path d="M7.6,14a.5.5,0,0,0,.5-.7l-.7-1.6a1.4,1.4,0,0,0,.7-1.2A1.3,1.3,0,0,0,6.7,9.2a1.3,1.3,0,0,0-1.3,1.3A1.3,1.3,0,0,0,6,11.7l-.6,1.6a.5.5,0,0,0,.5.7Z" fill="#4b5da9"/>
        <path d="M9.8,13.8H9.5a.6.6,0,0,1-.1-.9,2.3,2.3,0,0,0,.4-1.4V9.1a.6.6,0,0,1,1.2,0v2.3a3.3,3.3,0,0,1-.7,2.1A.5.5,0,0,1,9.8,13.8Z" fill="#7da6d7"/>
      </g>
    </g>
  </g>
</svg>
