<svg xmlns="http://www.w3.org/2000/svg" viewBox="0 0 15.9 15.7">
  <g id="a77b9055-f690-4c25-adbe-3bfb601d6be0" data-name="Layer 2">
    <g id="ec732049-89d4-42ef-bc93-9ea21f6874c5" data-name="Layer 1">
      <path d="M15.5,0C15.4,0,9.8-.4,8,4,6.1-.4.5,0,.5,0A.6.6,0,0,0,0,.6V9.5a.5.5,0,0,0,.5.5s6.9.7,7,5.2h0a.5.5,0,0,0,.5.5.5.5,0,0,0,.5-.5h0c0-4.6,6.9-5.2,7-5.2s.4-.3.4-.5V.6C15.9.3,15.7,0,15.5,0ZM1,9V1.1H1c1.5,0,5.9.4,6.5,4.9v6.1C5.7,9.8,2.3,9.2,1,9ZM14.9,9c-1.2.2-4.7.8-6.4,3.1V6c.5-4.5,4.9-4.9,6.4-4.9h0Z" fill="#7c7c7c"/>
    </g>
  </g>
</svg>
