<svg xmlns="http://www.w3.org/2000/svg" viewBox="0 0 89.8 89.8">
  <g id="e19291bf-8fe7-4db7-b10e-cda842aa13a4" data-name="Layer 2">
    <g id="eb4b507b-b9de-4b5f-894d-a428761e0dc2" data-name="Layer 1">
      <path d="M60.4,89.8a28.8,28.8,0,0,0,20.7-8.6h.1a28.6,28.6,0,0,0,8.6-20.8,28.3,28.3,0,0,0-4.4-15.5,28.6,28.6,0,0,0,4.4-15.5c0-7.9-2.8-14.7-8.6-20.8h0A28.6,28.6,0,0,0,60.4,0h-31A28.5,28.5,0,0,0,8.6,8.6h0A28.6,28.6,0,0,0,0,29.4,28.6,28.6,0,0,0,4.4,44.9,28.3,28.3,0,0,0,0,60.4,28.6,28.6,0,0,0,8.6,81.2h0c6.1,5.8,12.9,8.6,20.8,8.6Z" fill="#4b5da9"/>
      <path d="M59.9,83.9a23.7,23.7,0,0,0,17.2-7.1h0a23.4,23.4,0,0,0,7.1-17.1,23.2,23.2,0,0,0-5.1-14.9H44.9V83.9Z" fill="#ffca05"/>
      <path d="M84.2,29.8a23.7,23.7,0,0,0-7.1-17.1h0A23.3,23.3,0,0,0,59.9,5.6h-30a23.2,23.2,0,0,0-17.2,7.1h0A23.7,23.7,0,0,0,5.6,29.8a23,23,0,0,0,5.1,14.9A23.2,23.2,0,0,0,5.6,59.6a23.4,23.4,0,0,0,7.1,17.1h0a23.6,23.6,0,0,0,17.2,7.1h15V44.7H79.1A23,23,0,0,0,84.2,29.8Z" fill="#fff"/>
      <path d="M33.5,74.6l3.4-3.4a1.2,1.2,0,0,0,.4-.9.9.9,0,0,0-.4-.8l-5.1-5.2,5.1-5.1a1.2,1.2,0,0,0,0-1.8L33.5,54a1.2,1.2,0,0,0-.8-.4,1.3,1.3,0,0,0-.9.4l-5.2,5.2L21.5,54a1.5,1.5,0,0,0-.9-.4,1.2,1.2,0,0,0-.8.4l-3.5,3.4a1.5,1.5,0,0,0,0,1.8l5.2,5.1-5.2,5.2a1.1,1.1,0,0,0-.3.8,1.6,1.6,0,0,0,.3.9l3.5,3.4a.9.9,0,0,0,.8.4,1.1,1.1,0,0,0,.9-.4l5.1-5.1,5.2,5.1a1,1,0,0,0,.9.4A.9.9,0,0,0,33.5,74.6Z" fill="#4b5da9"/>
      <path d="M24.2,37.3h4.9a1.4,1.4,0,0,0,1.2-1.2V28.8h7.3a1.4,1.4,0,0,0,1.2-1.2V22.7a.9.9,0,0,0-.4-.8.9.9,0,0,0-.8-.4H30.3V14.2a.9.9,0,0,0-.4-.8.9.9,0,0,0-.8-.4H24.2a1.2,1.2,0,0,0-.9.4,1.1,1.1,0,0,0-.3.8v7.3H15.7a.9.9,0,0,0-.8.4.9.9,0,0,0-.4.8v4.9a.9.9,0,0,0,.4.8.9.9,0,0,0,.8.4H23v7.3a1.1,1.1,0,0,0,.3.8A1.2,1.2,0,0,0,24.2,37.3Z" fill="#4b5da9"/>
      <g>
        <path d="M75.2,73.6V68.7a1.1,1.1,0,0,0-.3-.8,1,1,0,0,0-.9-.4H55a1.2,1.2,0,0,0-.9.4,1.1,1.1,0,0,0-.3.8v4.9a1.1,1.1,0,0,0,.3.8,1.2,1.2,0,0,0,.9.4H74a1,1,0,0,0,.9-.4A1.1,1.1,0,0,0,75.2,73.6Z" fill="#7da6d7"/>
        <path d="M75.2,62.9V58a1.1,1.1,0,0,0-.3-.8,1.3,1.3,0,0,0-.9-.4H55a1.8,1.8,0,0,0-.9.4,1.1,1.1,0,0,0-.3.8v4.9a1.4,1.4,0,0,0,.3.9,1.6,1.6,0,0,0,.9.3H74a1.2,1.2,0,0,0,.9-.3A1.4,1.4,0,0,0,75.2,62.9Z" fill="#7da6d7"/>
      </g>
      <g>
        <path d="M75.2,27.6V22.7a1.1,1.1,0,0,0-.3-.8,1,1,0,0,0-.9-.4H55a1.2,1.2,0,0,0-.9.4,1.1,1.1,0,0,0-.3.8v4.9a1.1,1.1,0,0,0,.3.8,1.2,1.2,0,0,0,.9.4H74a1,1,0,0,0,.9-.4A1.1,1.1,0,0,0,75.2,27.6Z" fill="#4b5da9"/>
        <circle cx="64.5" cy="17.6" r="3.2" fill="#4b5da9"/>
        <circle cx="64.5" cy="32.7" r="3.2" fill="#4b5da9"/>
      </g>
    </g>
  </g>
</svg>
