<svg xmlns="http://www.w3.org/2000/svg" viewBox="0 0 68.4 72.7">
  <g id="ae5fcb74-95f2-476b-8072-b00d4f04fb56" data-name="Layer 2">
    <g id="f625428d-2a7f-40d2-90bd-4b274a0cec2a" data-name="Layer 1">
      <g>
        <g>
          <path d="M14.3,54.1a7.6,7.6,0,0,1-7.6-7.6V18a7.6,7.6,0,0,1,7.6-7.6H59.9a6.2,6.2,0,0,1,5.3,9.3l-6.7,11a3,3,0,0,0,0,3.4l6.6,10.7a6.2,6.2,0,0,1,.2,6.2,6,6,0,0,1-5.4,3.1Z" fill="#ffca05"/>
          <path d="M59.9,12.7a3.8,3.8,0,0,1,3.3,5.8l-6.7,11a5.5,5.5,0,0,0,0,5.8L63.2,46a3.8,3.8,0,0,1-3.3,5.8H14.3A5.3,5.3,0,0,1,9,46.5V18a5.3,5.3,0,0,1,5.3-5.3H59.9m0-4.6H14.3A10,10,0,0,0,4.4,18V46.5a9.9,9.9,0,0,0,9.9,9.9H59.9a8.4,8.4,0,0,0,7.4-4.3,8.6,8.6,0,0,0-.2-8.5L60.4,32.9a1.7,1.7,0,0,1,0-1l6.7-11a8.4,8.4,0,0,0,.2-8.5,8.6,8.6,0,0,0-7.4-4.3Z" fill="#4b5da9"/>
        </g>
        <path d="M38.3,12.7h-24A5.3,5.3,0,0,0,9,18V46.5a5.3,5.3,0,0,0,5.3,5.3h24Z" fill="#fff"/>
        <g>
          <path d="M4.6,70.4a2.3,2.3,0,0,1-2.3-2.3V8.6a6.3,6.3,0,0,1,12.6,0V68.1a2.3,2.3,0,0,1-2.3,2.3Z" fill="#fff"/>
          <path d="M8.6,4.6a4,4,0,0,1,4,4V68.1h-8V13.9h0V8.6a4,4,0,0,1,4-4M8.6,0A8.7,8.7,0,0,0,0,8.6v5.3H0V68.1a4.7,4.7,0,0,0,4.6,4.6h8a4.6,4.6,0,0,0,4.6-4.6V8.6A8.6,8.6,0,0,0,8.6,0Z" fill="#4b5da9"/>
        </g>
        <path d="M21.6,44.9V20.7a2.3,2.3,0,0,1,2.3-2.3,2.3,2.3,0,0,1,2.3,2.3V44.9a2.4,2.4,0,0,1-2.3,2.3A2.3,2.3,0,0,1,21.6,44.9Z" fill="#7da6d7"/>
      </g>
    </g>
  </g>
</svg>
