<svg xmlns="http://www.w3.org/2000/svg" viewBox="0 0 106.5 69.8">
  <g id="ee368287-49ad-450a-937e-ce1a01efd6f1" data-name="Layer 2">
    <g id="bcd6edfb-5506-4902-8ee9-fced30181d76" data-name="Layer 1">
      <g>
        <path d="M62.3,35H57.8V22.8A2.8,2.8,0,0,0,55,20H46.2a2.8,2.8,0,0,0-2.8,2.8V35h-5a3.5,3.5,0,0,0-2.8,5.6L46.1,52.5a5.4,5.4,0,0,0,8.5,0L65.1,40.6A3.5,3.5,0,0,0,62.3,35Z" fill="#fff"/>
        <path d="M46.2,17.7H55a5.1,5.1,0,0,1,5.1,5.1v9.9h2.2a5.8,5.8,0,0,1,5.2,3.2,5.9,5.9,0,0,1-.6,6.1.1.1,0,0,0-.1.1L56.4,53.9a7.7,7.7,0,0,1-6,3h0a7.7,7.7,0,0,1-6.1-3L33.9,42.1c0-.1,0-.1-.1-.1a5.9,5.9,0,0,1-.6-6.1,5.8,5.8,0,0,1,5.2-3.2h2.7V22.8A5.1,5.1,0,0,1,46.2,17.7Z" fill="#4b5da9"/>
      </g>
      <path d="M19.9,69.8h-.1a20.8,20.8,0,0,1-13.7-6,20.9,20.9,0,0,1,0-29.5,20.2,20.2,0,0,1,11-5.7,32.9,32.9,0,0,1,62-10.5,25.8,25.8,0,0,1,19.8,7.6h0A25.9,25.9,0,0,1,82.3,69.8H19.9Z" fill="#4b5da9"/>
      <path d="M49.7,4.6A28.6,28.6,0,0,0,21.4,30.8a2.2,2.2,0,0,1-2,2.1,15.7,15.7,0,0,0-10,4.7A15.8,15.8,0,0,0,4.6,49,16.4,16.4,0,0,0,9.3,60.5,16.7,16.7,0,0,0,20,65.2H52.3V4.7Z" fill="#ffca05"/>
      <path d="M95.6,28.9h0a21.1,21.1,0,0,0-17.6-6,2.4,2.4,0,0,1-2.4-1.4A28.3,28.3,0,0,0,52.3,4.7V65.2H82A21,21,0,0,0,95.6,59a20.7,20.7,0,0,0,6.3-15A20.9,20.9,0,0,0,95.6,28.9Z" fill="#fff"/>
      <g>
        <path d="M64.5,35H59.9V22.8A2.8,2.8,0,0,0,57.1,20H48.4a2.8,2.8,0,0,0-2.9,2.8V35h-5a3.4,3.4,0,0,0-2.7,5.6L48.2,52.5a5.5,5.5,0,0,0,8.6,0L67.2,40.6A3.5,3.5,0,0,0,64.5,35Z" fill="#fff"/>
        <path d="M48.4,17.7h8.7a5.1,5.1,0,0,1,5.1,5.1v9.9h2.3A5.8,5.8,0,0,1,69,42h-.1L58.5,53.9a7.4,7.4,0,0,1-6,3h0a7.7,7.7,0,0,1-6.1-3L36,42.1c0-.1,0-.1-.1-.1a6.1,6.1,0,0,1-.6-6.1,5.8,5.8,0,0,1,5.2-3.2h2.7V22.8A5.1,5.1,0,0,1,48.4,17.7Z" fill="#4b5da9"/>
      </g>
      <path d="M65.4,39.1a1.1,1.1,0,0,0,.1-1.2,1.3,1.3,0,0,0-1-.6H59.9A2.3,2.3,0,0,1,57.6,35V22.8a.5.5,0,0,0-.5-.5H48.4a.6.6,0,0,0-.6.5V35a2.3,2.3,0,0,1-2.3,2.3h-5a1.3,1.3,0,0,0-1,.6,1.1,1.1,0,0,0,.1,1.2L49.9,50.9c.1.1.1.1.1.2a3.3,3.3,0,0,0,2.5,1.2h0a3.3,3.3,0,0,0,2.4-1.2c.1-.1.1-.1.1-.2Z" fill="#7da6d7"/>
      <path d="M92.6,46.8a2.3,2.3,0,0,1-2.3-2.3A11.7,11.7,0,0,0,78.6,32.8a2.3,2.3,0,0,1-2.3-2.3,2.3,2.3,0,0,1,2.3-2.3A16.3,16.3,0,0,1,94.9,44.5,2.3,2.3,0,0,1,92.6,46.8Z" fill="#7da6d7"/>
    </g>
  </g>
</svg>
