<svg xmlns="http://www.w3.org/2000/svg" viewBox="0 0 88.9 76.2">
  <g id="e745e25a-ba0e-42da-a62a-017f176f1c94" data-name="Layer 2">
    <g id="bb85983b-2952-4f91-b1d7-dc66bc9297cb" data-name="Layer 1">
      <path d="M56.7,76.2H32.2a4.8,4.8,0,0,1-4.3-2.5,5.1,5.1,0,0,1,0-4.8L40.2,47.6a4.9,4.9,0,0,1,4.2-2.4h0a5,5,0,0,1,4.3,2.4L60.9,68.9a4.6,4.6,0,0,1,0,4.8A4.7,4.7,0,0,1,56.7,76.2Z" fill="#4b5da9"/>
      <path d="M44.4,49.8h-.2L31.9,71.2a.1.1,0,0,0,0,.2c.1.2.2.2.3.2H56.7a.2.2,0,0,0,.2-.2c.1-.1.1-.2,0-.2L44.7,49.9Z" fill="#fff"/>
      <path d="M77.6,0H11.3A11.4,11.4,0,0,0,0,11.3V52.4A11.4,11.4,0,0,0,11.3,63.7H77.6A11.4,11.4,0,0,0,88.9,52.4V11.3A11.4,11.4,0,0,0,77.6,0Z" fill="#4b5da9"/>
      <path d="M77.6,4.6a6.7,6.7,0,0,1,6.7,6.7V52.4a6.7,6.7,0,0,1-6.7,6.7H11.3a6.7,6.7,0,0,1-6.7-6.7V11.3a6.7,6.7,0,0,1,6.7-6.7H77.6" fill="#fff"/>
      <g>
        <path d="M12.3,11.1a2.5,2.5,0,0,0-2.5,2.5V45a2.5,2.5,0,0,0,2.5,2.4H44.6V11.1Z" fill="#ffca05"/>
        <path d="M76.6,11.1h-32V47.4h32A2.4,2.4,0,0,0,79,45V13.6A2.5,2.5,0,0,0,76.6,11.1Z" fill="#fff"/>
        <path d="M76.6,49.7H12.3A4.8,4.8,0,0,1,7.5,45V13.6a4.9,4.9,0,0,1,4.8-4.8H76.6a4.8,4.8,0,0,1,4.7,4.8V45A4.7,4.7,0,0,1,76.6,49.7ZM12.3,13.4l-.2.2V45H76.6a.1.1,0,0,0,.1-.1V13.6c0-.1,0-.2-.1-.2Z" fill="#4b5da9"/>
      </g>
      <g>
        <path d="M28.7,35.4a2.4,2.4,0,0,1-1.6-4L39.3,19.2a2.2,2.2,0,0,1,3.2,0,2.4,2.4,0,0,1,0,3.3L30.3,34.7A2.4,2.4,0,0,1,28.7,35.4Z" fill="#7da6d7"/>
        <path d="M48,41.2a2.3,2.3,0,0,1-1.7-.7,2.2,2.2,0,0,1,0-3.2L58.5,25.1a2.4,2.4,0,0,1,3.3,0,2.2,2.2,0,0,1,0,3.2L49.6,40.5A2.3,2.3,0,0,1,48,41.2Z" fill="#7da6d7"/>
        <path d="M35.5,41.2a2,2,0,0,1-1.6-.7,2.2,2.2,0,0,1,0-3.2l18-18.1a2.3,2.3,0,0,1,3.3,3.3l-18.1,18A2,2,0,0,1,35.5,41.2Z" fill="#7da6d7"/>
      </g>
    </g>
  </g>
</svg>
