<svg xmlns="http://www.w3.org/2000/svg" viewBox="0 0 73.3 70.6">
  <g id="fc5c82d4-af3c-4182-9017-53cfecc6136a" data-name="Layer 2">
    <g id="abcb6d9f-9e7d-438b-9dfd-4c76751e6b4a" data-name="Layer 1">
      <g>
        <g>
          <path d="M19.6,68.3a6.1,6.1,0,0,0,3.2-.8l10.9-5.7a6.1,6.1,0,0,1,3-.8,6,6,0,0,1,2.9.8l11,5.7a5.8,5.8,0,0,0,3.1.8,6.9,6.9,0,0,0,5.2-2.4,6.8,6.8,0,0,0,1.5-5.5L58.3,48.2a6.2,6.2,0,0,1,1.8-5.6L69,34a7,7,0,0,0,1.7-7,6.9,6.9,0,0,0-5.5-4.6L53,20.6a6.1,6.1,0,0,1-4.8-3.4L42.7,6.1a6.5,6.5,0,0,0-6-3.8,6.6,6.6,0,0,0-6.1,3.8L25.1,17.2a6.1,6.1,0,0,1-4.7,3.4L8.1,22.4A6.9,6.9,0,0,0,2.6,27a7,7,0,0,0,1.7,7l8.9,8.6A6.2,6.2,0,0,1,15,48.2L12.9,60.4a6.8,6.8,0,0,0,1.5,5.5,6.9,6.9,0,0,0,5.2,2.4Z" fill="#ffca05"/>
          <path d="M36.7,4.6a4.4,4.4,0,0,1,4,2.5l5.5,11.1a8.5,8.5,0,0,0,6.4,4.7l12.3,1.8a4.5,4.5,0,0,1,2.5,7.6L58.5,41A8.5,8.5,0,0,0,56,48.6l2.1,12.2A4.4,4.4,0,0,1,53.7,66a4.1,4.1,0,0,1-2.1-.5L40.7,59.7a9.8,9.8,0,0,0-4-1,9.1,9.1,0,0,0-4,1l-11,5.8a4.1,4.1,0,0,1-2.1.5,4.4,4.4,0,0,1-4.4-5.2l2.1-12.2A8.3,8.3,0,0,0,14.8,41L6,32.3a4.4,4.4,0,0,1,2.4-7.6l12.3-1.8a8.8,8.8,0,0,0,6.5-4.7L32.7,7.1a4.3,4.3,0,0,1,4-2.5m0-4.6a9.1,9.1,0,0,0-8.2,5.1L23,16.2a3.8,3.8,0,0,1-3,2.2L7.8,20.1A8.9,8.9,0,0,0,.5,26.3a9.1,9.1,0,0,0,2.2,9.3l8.9,8.7a3.8,3.8,0,0,1,1.2,3.5L10.7,60a8.7,8.7,0,0,0,2,7.4,9,9,0,0,0,6.9,3.2,8.7,8.7,0,0,0,4.2-1l11-5.8a4.1,4.1,0,0,1,1.9-.5,3.7,3.7,0,0,1,1.8.5l11,5.8a9,9,0,0,0,4.2,1,9.4,9.4,0,0,0,7-3.2A9,9,0,0,0,62.6,60L60.5,47.8a4.1,4.1,0,0,1,1.2-3.5l8.9-8.7a9.1,9.1,0,0,0-5-15.5L53.3,18.4a4,4,0,0,1-3-2.2L44.8,5.1A9,9,0,0,0,36.7,0Z" fill="#4b5da9"/>
        </g>
        <path d="M64.7,28.1a2.3,2.3,0,0,0-1.8-1.5c-6.5-1.2-12.8-1.8-13-1.8a2.3,2.3,0,0,0-.5,4.5c.1,0,6.4.7,12.7,1.8a2.3,2.3,0,0,0,2.6-1.8A2.4,2.4,0,0,0,64.7,28.1Z" fill="#7da6d7"/>
      </g>
    </g>
  </g>
</svg>
