<svg xmlns="http://www.w3.org/2000/svg" viewBox="0 0 55.8 82.6">
  <g id="a9f8e763-09f1-4a3b-97a8-13fe35ac5108" data-name="Layer 2">
    <g id="ea89ad62-3731-41dc-a1d0-b877161ebb12" data-name="Layer 1">
      <g>
        <g>
          <g>
            <path d="M35,80.3a7.1,7.1,0,0,1-7-6.1,7.1,7.1,0,0,1-14.1-1V48.4L12.5,50a5.8,5.8,0,0,1-4.1,1.8H8.1a5.8,5.8,0,0,1-3.9-1.5,5.6,5.6,0,0,1-1.9-4A6.1,6.1,0,0,1,3.8,42l9.8-10.6a10.8,10.8,0,0,1,7.9-3.5H34.3a10.8,10.8,0,0,1,7.9,3.5L52,42a5.6,5.6,0,0,1,1.5,4.2,5.3,5.3,0,0,1-1.9,4.1,5.6,5.6,0,0,1-3.9,1.5h-.3a5.5,5.5,0,0,1-4.1-1.9l-1.4-1.5.2,24.8A7.1,7.1,0,0,1,35,80.3Z" fill="#fff"/>
            <path d="M34.3,30.2A8.2,8.2,0,0,1,40.5,33l9.8,10.6a3,3,0,0,1,.9,2.5,3.3,3.3,0,0,1-1.1,2.5,3.6,3.6,0,0,1-2.4.9h-.2A3.4,3.4,0,0,1,45,48.4l-5.4-5.8.2,30.6A4.9,4.9,0,0,1,35,78a4.8,4.8,0,0,1-4.8-4.8V60.1H25.8V73.2A4.9,4.9,0,0,1,21,78a4.8,4.8,0,0,1-4.8-4.8V42.6l-5.4,5.8a3.4,3.4,0,0,1-2.5,1.1H8.1a3.2,3.2,0,0,1-2.3-.9,3.3,3.3,0,0,1-1.2-2.5,3.8,3.8,0,0,1,.9-2.5L15.3,33a8.4,8.4,0,0,1,6.2-2.8H34.3m0-4.6H21.5a13.5,13.5,0,0,0-9.6,4.2L2.1,40.5A7.8,7.8,0,0,0,0,46.4,7.7,7.7,0,0,0,2.7,52a7.8,7.8,0,0,0,5.4,2.1h.5a7.8,7.8,0,0,0,3-.7V73.2A9.4,9.4,0,0,0,21,82.6a9.1,9.1,0,0,0,7-3.2,9.1,9.1,0,0,0,7,3.2,9.4,9.4,0,0,0,9.4-9.3h0V53.4a7.3,7.3,0,0,0,3,.7h.4a8,8,0,0,0,8.1-7.7,7.8,7.8,0,0,0-2.1-5.9L43.9,29.9a12.9,12.9,0,0,0-9.6-4.3Z" fill="#4b5da9"/>
          </g>
          <path d="M15.3,33,5.5,43.6a3.8,3.8,0,0,0-.9,2.5,3.3,3.3,0,0,0,1.2,2.5,2.9,2.9,0,0,0,2.5.9,3.4,3.4,0,0,0,2.5-1.1l5.4-5.8V73.2A4.8,4.8,0,0,0,21,78a4.9,4.9,0,0,0,4.8-4.8V60.1h2.1V30.2H21.5A8.4,8.4,0,0,0,15.3,33Z" fill="#ffca05"/>
          <path d="M27.9,0A11.8,11.8,0,0,0,16.1,11.8a11.6,11.6,0,0,0,3.5,8.4,11.3,11.3,0,0,0,8.3,3.5,11.6,11.6,0,0,0,8.4-3.5,11.6,11.6,0,0,0,3.5-8.4,11.3,11.3,0,0,0-3.5-8.3A11.6,11.6,0,0,0,27.9,0Z" fill="#4b5da9"/>
        </g>
        <path d="M31.6,46.7a2.3,2.3,0,0,1-2.3-2.3V35.6a2.3,2.3,0,0,1,2.3-2.3,2.3,2.3,0,0,1,2.3,2.3v8.8A2.3,2.3,0,0,1,31.6,46.7Z" fill="#7da6d7"/>
      </g>
      <path d="M27.9,4.6A6.9,6.9,0,0,1,33,6.7a7,7,0,0,1,2.2,5.1A7.4,7.4,0,0,1,33,17a7.2,7.2,0,0,1-10.2,0,7.3,7.3,0,0,1-2.1-5.2,6.9,6.9,0,0,1,2.1-5.1,6.9,6.9,0,0,1,5.1-2.1" fill="#fff"/>
    </g>
  </g>
</svg>
