<?xml version="1.0" encoding="utf-8"?>
<!-- Generator: Adobe Illustrator 26.0.2, SVG Export Plug-In . SVG Version: 6.00 Build 0)  -->
<svg version="1.1" id="Layer_1" xmlns="http://www.w3.org/2000/svg" xmlns:xlink="http://www.w3.org/1999/xlink" x="0px" y="0px"
	 viewBox="0 0 117.6 44.3" style="enable-background:new 0 0 117.6 44.3;" xml:space="preserve">
<style type="text/css">
	.st0{fill:#FFFFFF;}
</style>
<g>
	<g>
		<g>
			<path class="st0" d="M49,18.3c-0.5-0.5-1.1-0.9-1.8-1.2c-0.7-0.3-1.5-0.5-2.2-0.5c-0.6,0-1.2,0.1-1.7,0.3
				c-0.5,0.2-0.8,0.6-0.8,1.2c0,0.5,0.3,0.9,0.8,1.1c0.6,0.2,1.5,0.5,2.7,0.8c0.7,0.2,1.5,0.4,2.2,0.6c0.7,0.3,1.4,0.6,2,1.1
				c0.6,0.5,1.1,1,1.5,1.7c0.4,0.7,0.5,1.4,0.5,2.3c0,1.2-0.2,2.2-0.7,3c-0.5,0.8-1.1,1.5-1.9,2c-0.8,0.5-1.7,0.9-2.7,1.1
				c-1,0.2-2,0.3-3,0.3c-1.6,0-3.2-0.2-4.7-0.7c-1.5-0.5-2.8-1.2-3.8-2.2l3.6-3.7c0.6,0.6,1.3,1.1,2.1,1.5c0.8,0.4,1.7,0.6,2.7,0.6
				c0.5,0,1-0.1,1.6-0.4c0.5-0.2,0.8-0.7,0.8-1.3c0-0.6-0.3-1-0.9-1.3c-0.6-0.3-1.6-0.6-2.9-0.9c-0.7-0.2-1.4-0.4-2-0.6
				c-0.7-0.3-1.3-0.6-1.8-1c-0.5-0.4-1-1-1.3-1.6c-0.3-0.6-0.5-1.4-0.5-2.3c0-1.1,0.2-2.1,0.7-2.9c0.5-0.8,1.1-1.4,1.9-1.9
				c0.8-0.5,1.7-0.9,2.6-1.1c1-0.2,1.9-0.4,2.8-0.4c1.5,0,2.9,0.2,4.3,0.7c1.4,0.4,2.6,1.1,3.6,2L49,18.3z"/>
		</g>
	</g>
	<g>
		<path class="st0" d="M26,12.1c-5.5,0-10,4.5-10,10s4.5,10,10,10c5.5,0,10-4.5,10-10S31.5,12.1,26,12.1z M26,29.3
			c-4,0-7.2-3.2-7.2-7.2S22,15,26,15c4,0,7.2,3.2,7.2,7.2S29.9,29.3,26,29.3z"/>
	</g>
	<g>
		<path class="st0" d="M10,29.3c-4,0-7.2-3.2-7.2-7.2S6.1,15,10,15c1.8,0,3.4,0.6,4.6,1.7l1.9-2.1c-1.8-1.5-4-2.4-6.5-2.4
			c-5.5,0-10,4.5-10,10s4.5,10,10,10c2.5,0,4.8-0.9,6.5-2.4l-1.8-2.2C13.5,28.7,11.8,29.3,10,29.3z"/>
	</g>
	<g>
		<g>
			<path class="st0" d="M111,32.2V0h6.6v32.2H111z"/>
		</g>
	</g>
	<g>
		<path class="st0" d="M68.1,12.1v1.4c-1.5-0.9-3.3-1.4-5.2-1.4c-5.5,0-10,4.5-10,10s4.5,10,10,10c1.9,0,3.7-0.5,5.2-1.4v13.6h6.6
			V12.1H68.1z M63.6,26.7c-2.5,0-4.5-2-4.5-4.5s2-4.5,4.5-4.5c2.5,0,4.5,2,4.5,4.5S66.1,26.7,63.6,26.7z"/>
	</g>
</g>
<g>
	<g id="ac2bfab1-8931-4b8d-a6bc-a0ec4b36b077">
		<g>
			<g>
				<path class="st0" d="M85.7,28.4c-3.5,0-6.3-2.8-6.3-6.3s2.8-6.3,6.3-6.3s6.3,2.8,6.3,6.3S89.2,28.4,85.7,28.4L85.7,28.4z"/>
			</g>
		</g>
	</g>
	<path class="st0" d="M100,12.1c-2.8,0-11.5,0-14.3,0c-5.5,0-10,4.5-10,10s4.5,10,10,10c2.8,0,11.5,0,14.3,0c5.5,0,10-4.5,10-10
		S105.6,12.1,100,12.1z M100,29.3H85.7c-4,0-7.2-3.2-7.2-7.2c0-4,3.2-7.2,7.2-7.2H100c4,0,7.2,3.2,7.2,7.2
		C107.2,26.1,104,29.3,100,29.3z"/>
</g>
</svg>
