<?xml version="1.0" encoding="utf-8"?>
<!-- Generator: Adobe Illustrator 26.0.2, SVG Export Plug-In . SVG Version: 6.00 Build 0)  -->
<svg version="1.1" id="Layer_1" xmlns="http://www.w3.org/2000/svg" xmlns:xlink="http://www.w3.org/1999/xlink" x="0px" y="0px"
	 viewBox="0 0 473.5 323.9" style="enable-background:new 0 0 473.5 323.9;" xml:space="preserve">
<style type="text/css">
	.st0{fill:#4B5DA9;}
	.st1{fill:#7DA6D7;}
	.st2{fill:#FFCA05;}
	.st3{fill:none;}
</style>
<g>
	<g id="b287f418-185e-4170-b76b-d8243b5f1bb7">
		<g id="a425d126-f33c-4b4b-99a3-b9ac4758ce47">
			<g>
				<g>
					<path class="st0" d="M310.1,57.9H163.4c-56.7,0-102.6,45.9-102.6,102.6s45.9,102.6,102.6,102.6h146.7
						c56.7,0,102.6-45.9,102.6-102.6S366.7,57.9,310.1,57.9z"/>
					<g>
						<path class="st1" d="M310.4,87.3h-147c40.5-2.8,75.6,27.8,78.4,68.3s-27.8,75.6-68.3,78.4c-3.3,0.2-6.7,0.2-10,0h147
							c40.5-2.8,71.1-37.9,68.3-78.4C376.3,119,347.1,89.8,310.4,87.3z"/>
						<path class="st1" d="M162,234L162,234z"/>
						<path class="st1" d="M162,87.3L162,87.3z"/>
					</g>
					<circle class="st2" cx="163.4" cy="160.5" r="73.5"/>
				</g>
				<g>
					<rect class="st3" width="60.8" height="323.9"/>
					<rect x="412.7" class="st3" width="60.8" height="323.9"/>
					<rect class="st3" width="473.5" height="60.8"/>
					<rect y="263.1" class="st3" width="473.5" height="60.8"/>
				</g>
			</g>
		</g>
	</g>
</g>
</svg>
