<svg xmlns="http://www.w3.org/2000/svg" version="1.1" xmlns:xlink="http://www.w3.org/1999/xlink" xmlns:svgjs="http://svgjs.com/svgjs" width="512" height="512" x="0" y="0" viewBox="0 0 64 64" style="enable-background:new 0 0 512 512" xml:space="preserve" class=""><g><path d="M16,27H15V26a1,1,0,0,0-2,0v2a1,1,0,0,0,1,1h2a1,1,0,0,0,0-2Z" fill="#000000" data-original="#000000" class=""></path><path d="M48,50H44a1,1,0,0,0-1,1v4a1,1,0,0,0,1,1h4a1,1,0,0,0,1-1V51A1,1,0,0,0,48,50Zm-1,4H45V52h2Z" fill="#000000" data-original="#000000" class=""></path><path d="M56,50H52a1,1,0,0,0-1,1v4a1,1,0,0,0,1,1h4a1,1,0,0,0,1-1V51A1,1,0,0,0,56,50Zm-1,4H53V52h2Z" fill="#000000" data-original="#000000" class=""></path><path d="M48,42H44a1,1,0,0,0-1,1v4a1,1,0,0,0,1,1h4a1,1,0,0,0,1-1V43A1,1,0,0,0,48,42Zm-1,4H45V44h2Z" fill="#000000" data-original="#000000" class=""></path><path d="M56,42H52a1,1,0,0,0-1,1v4a1,1,0,0,0,1,1h4a1,1,0,0,0,1-1V43A1,1,0,0,0,56,42Zm-1,4H53V44h2Z" fill="#000000" data-original="#000000" class=""></path><path d="M48,34H44a1,1,0,0,0-1,1v4a1,1,0,0,0,1,1h4a1,1,0,0,0,1-1V35A1,1,0,0,0,48,34Zm-1,4H45V36h2Z" fill="#000000" data-original="#000000" class=""></path><path d="M56,34H52a1,1,0,0,0-1,1v4a1,1,0,0,0,1,1h4a1,1,0,0,0,1-1V35A1,1,0,0,0,56,34Zm-1,4H53V36h2Z" fill="#000000" data-original="#000000" class=""></path><path d="M32,50H28a1,1,0,0,0-1,1v4a1,1,0,0,0,1,1h4a1,1,0,0,0,1-1V51A1,1,0,0,0,32,50Zm-1,4H29V52h2Z" fill="#000000" data-original="#000000" class=""></path><path d="M40,50H36a1,1,0,0,0-1,1v4a1,1,0,0,0,1,1h4a1,1,0,0,0,1-1V51A1,1,0,0,0,40,50Zm-1,4H37V52h2Z" fill="#000000" data-original="#000000" class=""></path><path d="M32,42H28a1,1,0,0,0-1,1v4a1,1,0,0,0,1,1h4a1,1,0,0,0,1-1V43A1,1,0,0,0,32,42Zm-1,4H29V44h2Z" fill="#000000" data-original="#000000" class=""></path><path d="M40,42H36a1,1,0,0,0-1,1v4a1,1,0,0,0,1,1h4a1,1,0,0,0,1-1V43A1,1,0,0,0,40,42Zm-1,4H37V44h2Z" fill="#000000" data-original="#000000" class=""></path><path d="M32,34H28a1,1,0,0,0-1,1v4a1,1,0,0,0,1,1h4a1,1,0,0,0,1-1V35A1,1,0,0,0,32,34Zm-1,4H29V36h2Z" fill="#000000" data-original="#000000" class=""></path><path d="M40,34H36a1,1,0,0,0-1,1v4a1,1,0,0,0,1,1h4a1,1,0,0,0,1-1V35A1,1,0,0,0,40,34Zm-1,4H37V36h2Z" fill="#000000" data-original="#000000" class=""></path><path d="M61,58V33.816A3,3,0,0,0,63,31V29a3,3,0,0,0-3-3H25V24.816A3,3,0,0,0,27,22V19.721a3.006,3.006,0,0,0-1.249-2.436L15,9.557V8h7a1,1,0,0,0,1-1V1a1,1,0,0,0-1-1H14a1,1,0,0,0-1,1V9.557L2.25,17.285A3,3,0,0,0,1,19.721V24a3,3,0,0,0,2,2.816V58a3,3,0,0,0,0,6H61a3,3,0,0,0,0-6ZM15,2h6V6H15ZM60,28a1,1,0,0,1,1,1v2a1,1,0,0,1-2,0,1,1,0,0,0-1-1H25V28Zm-1,5.824V58H25V32H57.171A3.015,3.015,0,0,0,59,33.824ZM3,19.721a1,1,0,0,1,.417-.812L14,11.3l10.584,7.607a1,1,0,0,1,.416.812V22a1,1,0,0,1-2,0V20.483a1,1,0,0,0-.416-.812l-8-5.75a1,1,0,0,0-1.168,0l-8,5.75A1,1,0,0,0,5,20.483V24a1,1,0,0,1-2,0ZM20,46H8a1,1,0,0,0-1,1V58H5V26.816A3,3,0,0,0,7,24V21l7-5.032L21,21v1a3,3,0,0,0,2,2.816V58H21V47A1,1,0,0,0,20,46Zm-1,2V58H15V48Zm-6,0V58H9V48ZM61,62H3a1,1,0,0,1,0-2H61a1,1,0,0,1,0,2Z" fill="#000000" data-original="#000000" class=""></path><path d="M12,37H8a1,1,0,0,0-1,1v4a1,1,0,0,0,1,1h4a1,1,0,0,0,1-1V38A1,1,0,0,0,12,37Zm-1,4H9V39h2Z" fill="#000000" data-original="#000000" class=""></path><path d="M21,38a1,1,0,0,0-1-1H16a1,1,0,0,0-1,1v4a1,1,0,0,0,1,1h4a1,1,0,0,0,1-1Zm-2,3H17V39h2Z" fill="#000000" data-original="#000000" class=""></path><path d="M20,28a6,6,0,1,0-6,6A6.006,6.006,0,0,0,20,28Zm-6,4a4,4,0,1,1,4-4A4,4,0,0,1,14,32Z" fill="#000000" data-original="#000000" class=""></path></g></svg>