<svg xmlns="http://www.w3.org/2000/svg" version="1.1" xmlns:xlink="http://www.w3.org/1999/xlink" xmlns:svgjs="http://svgjs.com/svgjs" width="512" height="512" x="0" y="0" viewBox="0 0 682.66669 682.66669" style="enable-background:new 0 0 512 512" xml:space="preserve" class=""><g><defs id="defs967"><clipPath clipPathUnits="userSpaceOnUse" id="clipPath977"><path d="M 0,512 H 512 V 0 H 0 Z" id="path975" fill="#000000" data-original="#000000"></path></clipPath></defs><g id="g969" transform="matrix(1.3333333,0,0,-1.3333333,0,682.66667)"><g id="g971"><g id="g973" clip-path="url(#clipPath977)"><g id="g979" transform="translate(13.5625,355.5645)"><path d="m 0,0 c -5.28,-104.555 -3.38,-209.099 5.7,-313.654 1.14,-13.069 11.389,-23.469 24.419,-24.908 46.477,-5.15 92.955,-8.21 139.432,-9.17" style="stroke-width:15;stroke-linecap:round;stroke-linejoin:round;stroke-miterlimit:10;stroke-dasharray:none;stroke-opacity:1" id="path981" fill="none" stroke="#000000" stroke-width="15" stroke-linecap="round" stroke-linejoin="round" stroke-miterlimit="10" stroke-dasharray="none" stroke-opacity="" data-original="#000000" class=""></path></g><g id="g983" transform="translate(213.0898,7.51)"><path d="m 0,0 c 57.79,-0.09 115.58,3.08 173.37,9.49 13.04,1.44 23.29,11.84 24.42,24.91 4.81,55.47 7.62,110.95 8.39,166.42" style="stroke-width:15;stroke-linecap:round;stroke-linejoin:round;stroke-miterlimit:10;stroke-dasharray:none;stroke-opacity:1" id="path985" fill="none" stroke="#000000" stroke-width="15" stroke-linecap="round" stroke-linejoin="round" stroke-miterlimit="10" stroke-dasharray="none" stroke-opacity="" data-original="#000000" class=""></path></g><g id="g987" transform="translate(126.8101,470.72)"><path d="M 0,0 C 85,4.85 170.01,2.69 255.02,-6.49" style="stroke-width:15;stroke-linecap:round;stroke-linejoin:round;stroke-miterlimit:10;stroke-dasharray:none;stroke-opacity:1" id="path989" fill="none" stroke="#000000" stroke-width="15" stroke-linecap="round" stroke-linejoin="round" stroke-miterlimit="10" stroke-dasharray="none" stroke-opacity="" data-original="#000000" class=""></path></g><g id="g991" transform="translate(98.5537,358.8105)"><path d="M 0,0 C -28.33,-2.407 -56.659,-3.488 -84.988,-3.248 -83.224,31.925 -6.91,109.902 28.252,111.903 28.557,82.916 27.483,53.935 25.019,24.95 23.89,11.661 13.289,1.129 0,0 Z" style="stroke-width:15;stroke-linecap:round;stroke-linejoin:round;stroke-miterlimit:10;stroke-dasharray:none;stroke-opacity:1" id="path993" fill="none" stroke="#000000" stroke-width="15" stroke-linecap="round" stroke-linejoin="round" stroke-miterlimit="10" stroke-dasharray="none" stroke-opacity="" data-original="#000000" class=""></path></g><g id="g995" transform="translate(500.9971,422.0708)"><path d="m 0,0 c 0.93,-50.637 -0.01,-101.275 -2.81,-151.912 -38.248,-8.359 -76.496,-8.359 -114.754,0 -4.2,76.026 -4.2,152.042 0,228.068 38.258,8.36 76.506,8.36 114.754,0 0.86,-15.519 1.54,-31.038 2.05,-46.557" style="stroke-width:15;stroke-linecap:round;stroke-linejoin:round;stroke-miterlimit:10;stroke-dasharray:none;stroke-opacity:1" id="path997" fill="none" stroke="#000000" stroke-width="15" stroke-linecap="round" stroke-linejoin="round" stroke-miterlimit="10" stroke-dasharray="none" stroke-opacity="" data-original="#000000" class=""></path></g><g id="g999" transform="translate(417.4824,264.9312)"><path d="M 0,0 C -1.402,79.503 -1.402,159.017 0,238.532" style="stroke-width:15;stroke-linecap:round;stroke-linejoin:round;stroke-miterlimit:10;stroke-dasharray:none;stroke-opacity:1" id="path1001" fill="none" stroke="#000000" stroke-width="15" stroke-linecap="round" stroke-linejoin="round" stroke-miterlimit="10" stroke-dasharray="none" stroke-opacity="" data-original="#000000" class=""></path></g><g id="g1003" transform="translate(464.1421,503.4629)"><path d="M 0,0 C 1.402,-79.514 1.402,-159.029 0,-238.532" style="stroke-width:15;stroke-linecap:round;stroke-linejoin:round;stroke-miterlimit:10;stroke-dasharray:none;stroke-opacity:1" id="path1005" fill="none" stroke="#000000" stroke-width="15" stroke-linecap="round" stroke-linejoin="round" stroke-miterlimit="10" stroke-dasharray="none" stroke-opacity="" data-original="#000000" class=""></path></g><g id="g1007" transform="translate(498.1899,270.1575)"><path d="M 0,0 C 0,0 -15.778,-55.247 -57.376,-78.545 -98.974,-55.247 -114.752,0 -114.752,0" style="stroke-width:15;stroke-linecap:round;stroke-linejoin:round;stroke-miterlimit:10;stroke-dasharray:none;stroke-opacity:1" id="path1009" fill="none" stroke="#000000" stroke-width="15" stroke-linecap="round" stroke-linejoin="round" stroke-miterlimit="10" stroke-dasharray="none" stroke-opacity="" data-original="#000000" class=""></path></g><g id="g1011" transform="translate(404.6162,226.3442)"><path d="M 0,0 C 10.797,2.906 23.121,4.545 36.202,4.545 49.283,4.545 61.595,2.906 72.392,0" style="stroke-width:15;stroke-linecap:round;stroke-linejoin:round;stroke-miterlimit:10;stroke-dasharray:none;stroke-opacity:1" id="path1013" fill="none" stroke="#000000" stroke-width="15" stroke-linecap="round" stroke-linejoin="round" stroke-miterlimit="10" stroke-dasharray="none" stroke-opacity="" data-original="#000000" class=""></path></g><g id="g1015" transform="translate(128.3159,255.0781)"><path d="m 0,0 c -12.063,-0.843 -24.125,-0.843 -36.188,0 -6.06,0.424 -10.892,5.257 -11.316,11.316 -0.843,12.062 -0.843,24.125 0,36.188 0.424,6.059 5.256,10.892 11.316,11.315 12.063,0.843 24.125,0.843 36.188,0 6.059,-0.423 10.892,-5.256 11.315,-11.315 0.843,-12.063 0.843,-24.126 0,-36.189 C 10.892,5.257 6.059,0.424 0,0 Z" style="stroke-width:15;stroke-linecap:round;stroke-linejoin:round;stroke-miterlimit:10;stroke-dasharray:none;stroke-opacity:1" id="path1017" fill="none" stroke="#000000" stroke-width="15" stroke-linecap="round" stroke-linejoin="round" stroke-miterlimit="10" stroke-dasharray="none" stroke-opacity="" data-original="#000000" class=""></path></g><g id="g1019" transform="translate(168.1089,270.6968)"><path d="M 0,0 H 186.402" style="stroke-width:15;stroke-linecap:round;stroke-linejoin:round;stroke-miterlimit:10;stroke-dasharray:none;stroke-opacity:1" id="path1021" fill="none" stroke="#000000" stroke-width="15" stroke-linecap="round" stroke-linejoin="round" stroke-miterlimit="10" stroke-dasharray="none" stroke-opacity="" data-original="#000000" class=""></path></g><g id="g1023" transform="translate(168.1089,298.2788)"><path d="M 0,0 H 108.951" style="stroke-width:15;stroke-linecap:round;stroke-linejoin:round;stroke-miterlimit:10;stroke-dasharray:none;stroke-opacity:1" id="path1025" fill="none" stroke="#000000" stroke-width="15" stroke-linecap="round" stroke-linejoin="round" stroke-miterlimit="10" stroke-dasharray="none" stroke-opacity="" data-original="#000000" class=""></path></g><g id="g1027" transform="translate(128.3159,162.2031)"><path d="m 0,0 c -12.063,-0.843 -24.125,-0.843 -36.188,0 -6.06,0.423 -10.892,5.256 -11.316,11.315 -0.843,12.063 -0.843,24.126 0,36.189 0.424,6.059 5.256,10.892 11.316,11.315 12.063,0.843 24.125,0.843 36.188,0 6.059,-0.423 10.892,-5.256 11.315,-11.315 0.843,-12.063 0.843,-24.126 0,-36.189 C 10.892,5.256 6.059,0.423 0,0 Z" style="stroke-width:15;stroke-linecap:round;stroke-linejoin:round;stroke-miterlimit:10;stroke-dasharray:none;stroke-opacity:1" id="path1029" fill="none" stroke="#000000" stroke-width="15" stroke-linecap="round" stroke-linejoin="round" stroke-miterlimit="10" stroke-dasharray="none" stroke-opacity="" data-original="#000000" class=""></path></g><g id="g1031" transform="translate(168.1089,177.8215)"><path d="M 0,0 H 186.402" style="stroke-width:15;stroke-linecap:round;stroke-linejoin:round;stroke-miterlimit:10;stroke-dasharray:none;stroke-opacity:1" id="path1033" fill="none" stroke="#000000" stroke-width="15" stroke-linecap="round" stroke-linejoin="round" stroke-miterlimit="10" stroke-dasharray="none" stroke-opacity="" data-original="#000000" class=""></path></g><g id="g1035" transform="translate(168.1089,205.4036)"><path d="M 0,0 H 108.951" style="stroke-width:15;stroke-linecap:round;stroke-linejoin:round;stroke-miterlimit:10;stroke-dasharray:none;stroke-opacity:1" id="path1037" fill="none" stroke="#000000" stroke-width="15" stroke-linecap="round" stroke-linejoin="round" stroke-miterlimit="10" stroke-dasharray="none" stroke-opacity="" data-original="#000000" class=""></path></g><g id="g1039" transform="translate(128.3159,69.3279)"><path d="m 0,0 c -12.063,-0.843 -24.125,-0.843 -36.188,0 -6.06,0.424 -10.892,5.256 -11.316,11.315 -0.843,12.063 -0.843,24.126 0,36.189 0.424,6.059 5.256,10.892 11.316,11.315 12.063,0.843 24.125,0.843 36.188,0 6.059,-0.423 10.892,-5.256 11.315,-11.315 0.843,-12.063 0.843,-24.126 0,-36.189 C 10.892,5.256 6.059,0.424 0,0 Z" style="stroke-width:15;stroke-linecap:round;stroke-linejoin:round;stroke-miterlimit:10;stroke-dasharray:none;stroke-opacity:1" id="path1041" fill="none" stroke="#000000" stroke-width="15" stroke-linecap="round" stroke-linejoin="round" stroke-miterlimit="10" stroke-dasharray="none" stroke-opacity="" data-original="#000000" class=""></path></g><g id="g1043" transform="translate(168.1089,84.9463)"><path d="M 0,0 H 186.402" style="stroke-width:15;stroke-linecap:round;stroke-linejoin:round;stroke-miterlimit:10;stroke-dasharray:none;stroke-opacity:1" id="path1045" fill="none" stroke="#000000" stroke-width="15" stroke-linecap="round" stroke-linejoin="round" stroke-miterlimit="10" stroke-dasharray="none" stroke-opacity="" data-original="#000000" class=""></path></g><g id="g1047" transform="translate(168.1089,112.5286)"><path d="M 0,0 H 108.951" style="stroke-width:15;stroke-linecap:round;stroke-linejoin:round;stroke-miterlimit:10;stroke-dasharray:none;stroke-opacity:1" id="path1049" fill="none" stroke="#000000" stroke-width="15" stroke-linecap="round" stroke-linejoin="round" stroke-miterlimit="10" stroke-dasharray="none" stroke-opacity="" data-original="#000000" class=""></path></g><g id="g1051" transform="translate(228.876,413.6406)"><path d="M 0,0 H -26.227 V -62.243 H 0" style="stroke-width:15;stroke-linecap:round;stroke-linejoin:round;stroke-miterlimit:10;stroke-dasharray:none;stroke-opacity:1" id="path1053" fill="none" stroke="#000000" stroke-width="15" stroke-linecap="round" stroke-linejoin="round" stroke-miterlimit="10" stroke-dasharray="none" stroke-opacity="" data-original="#000000" class=""></path></g><g id="g1055" transform="translate(226.9419,382.519)"><path d="M 0,0 H -24.292" style="stroke-width:15;stroke-linecap:round;stroke-linejoin:round;stroke-miterlimit:10;stroke-dasharray:none;stroke-opacity:1" id="path1057" fill="none" stroke="#000000" stroke-width="15" stroke-linecap="round" stroke-linejoin="round" stroke-miterlimit="10" stroke-dasharray="none" stroke-opacity="" data-original="#000000" class=""></path></g><g id="g1059" transform="translate(289.9512,407.7566)"><path d="m 0,0 c 0,0 -11.271,9.475 -24.563,5.471 -12.206,-3.677 -13.913,-17.75 -5.083,-23.507 0,0 8.665,-3.865 18.275,-7.41 23.133,-8.533 13.168,-30.913 -5.455,-30.913 -9.325,0 -17.153,4.084 -21.89,9.312" style="stroke-width:15;stroke-linecap:round;stroke-linejoin:round;stroke-miterlimit:10;stroke-dasharray:none;stroke-opacity:1" id="path1061" fill="none" stroke="#000000" stroke-width="15" stroke-linecap="round" stroke-linejoin="round" stroke-miterlimit="10" stroke-dasharray="none" stroke-opacity="" data-original="#000000" class=""></path></g><g id="g1063" transform="translate(145.8433,414.2141)"><path d="M 0,0 H 34.691" style="stroke-width:15;stroke-linecap:round;stroke-linejoin:round;stroke-miterlimit:10;stroke-dasharray:none;stroke-opacity:1" id="path1065" fill="none" stroke="#000000" stroke-width="15" stroke-linecap="round" stroke-linejoin="round" stroke-miterlimit="10" stroke-dasharray="none" stroke-opacity="" data-original="#000000" class=""></path></g><g id="g1067" transform="translate(163.1187,412.208)"><path d="M 0,0 V -60.81" style="stroke-width:15;stroke-linecap:round;stroke-linejoin:round;stroke-miterlimit:10;stroke-dasharray:none;stroke-opacity:1" id="path1069" fill="none" stroke="#000000" stroke-width="15" stroke-linecap="round" stroke-linejoin="round" stroke-miterlimit="10" stroke-dasharray="none" stroke-opacity="" data-original="#000000" class=""></path></g><g id="g1071" transform="translate(309.6182,414.2141)"><path d="M 0,0 H 34.69" style="stroke-width:15;stroke-linecap:round;stroke-linejoin:round;stroke-miterlimit:10;stroke-dasharray:none;stroke-opacity:1" id="path1073" fill="none" stroke="#000000" stroke-width="15" stroke-linecap="round" stroke-linejoin="round" stroke-miterlimit="10" stroke-dasharray="none" stroke-opacity="" data-original="#000000" class=""></path></g><g id="g1075" transform="translate(326.8931,412.208)"><path d="M 0,0 V -60.81" style="stroke-width:15;stroke-linecap:round;stroke-linejoin:round;stroke-miterlimit:10;stroke-dasharray:none;stroke-opacity:1" id="path1077" fill="none" stroke="#000000" stroke-width="15" stroke-linecap="round" stroke-linejoin="round" stroke-miterlimit="10" stroke-dasharray="none" stroke-opacity="" data-original="#000000" class=""></path></g></g></g></g></g></svg>