<svg xmlns="http://www.w3.org/2000/svg" version="1.1" xmlns:xlink="http://www.w3.org/1999/xlink" xmlns:svgjs="http://svgjs.com/svgjs" width="512" height="512" x="0" y="0" viewBox="0 0 64 64" style="enable-background:new 0 0 512 512" xml:space="preserve" class=""><g><g><path d="m60 33c1.654 0 3-1.346 3-3v-12c0-1.654-1.346-3-3-3h-13v-5c0-1.654-1.346-3-3-3h-7.184c-.414-1.161-1.514-2-2.816-2h-3.101c-.465-2.279-2.485-4-4.899-4s-4.434 1.721-4.899 4h-3.101c-1.302 0-2.402.839-2.816 2h-7.184c-1.654 0-3 1.346-3 3v11.101c-2.279.465-4 2.485-4 4.899v28.236l3.658 7.316c.446.893 1.344 1.448 2.342 1.448s1.896-.555 2.342-1.447l.276-.553h34.382c1.654 0 3-1.346 3-3v-5h13c1.654 0 3-1.346 3-3v-12c0-1.654-1.346-3-3-3h-13v-2zm-23-24h7c.551 0 1 .448 1 1v5h-2v-4h-6zm-11-6c1.302 0 2.402.839 2.816 2h-5.631c.413-1.161 1.513-2 2.815-2zm-9 5c0-.552.449-1 1-1h16c.551 0 1 .448 1 1v4c0 .552-.449 1-1 1h-16c-.551 0-1-.448-1-1zm-1.816 5c.414 1.161 1.514 2 2.816 2h16c1.302 0 2.402-.839 2.816-2h4.184v2.184c-1.161.414-2 1.514-2 2.816v12c0 1.302.839 2.402 2 2.816v2.369c-1.161.414-2 1.514-2 2.816v12c0 1.302.839 2.402 2 2.816v2.183h-28.382l.382-.764v-16.822l2 2v2.586h2v-3.414l-1.586-1.586 1.586-1.586v-7.414c0-1.654-1.346-3-3-3h-1.101c-.247-1.213-.946-2.253-1.899-2.974v-9.026zm-2.184 23.586v-9.586h1c.551 0 1 .448 1 1v6.586zm-6-26.586c0-.552.449-1 1-1h7v2h-6v10.101c-.323-.066-.658-.101-1-.101h-1zm-4 16c0-1.654 1.346-3 3-3h2c1.654 0 3 1.346 3 3v5h-8zm0 7h8v2h-8zm0 4h8v16h-8zm4.553 23.658c-.211.422-.895.422-1.105 0l-2.83-5.658h6.764zm37.447-2.658c0 .552-.449 1-1 1h-33.382l1-2h31.382v-4h2zm15-21c.551 0 1 .448 1 1v12c0 .552-.449 1-1 1h-18c-.551 0-1-.448-1-1v-12c0-.552.449-1 1-1zm-17-2v-2h2v2zm-1-4c-.551 0-1-.448-1-1v-12c0-.552.449-1 1-1h18c.551 0 1 .448 1 1v12c0 .552-.449 1-1 1z" fill="#000000" data-original="#000000" class=""></path><path d="m57.707 39.707-1.414-1.414-8.293 8.293-2.293-2.293-1.414 1.414 3.707 3.707z" fill="#000000" data-original="#000000" class=""></path><path d="m48 26.586-2.293-2.293-1.414 1.414 3.707 3.707 9.707-9.707-1.414-1.414z" fill="#000000" data-original="#000000" class=""></path><circle cx="20" cy="10" r="1" fill="#000000" data-original="#000000" class=""></circle><circle cx="32" cy="10" r="1" fill="#000000" data-original="#000000" class=""></circle><path d="m15 48c0 1.654 1.346 3 3 3 .888 0 1.688-.388 2.238-1.004l.485 1.503c.364.912 1.235 1.501 2.277 1.501 1.029 0 1.939-.655 2.265-1.633l.367-1.103c.105-.316.63-.315.735-.001l.367 1.104c.327.978 1.237 1.633 2.266 1.633s1.939-.655 2.265-1.633l.367-1.103c.105-.316.63-.315.735-.001l.367 1.104c.327.978 1.237 1.633 2.266 1.633h2v-2h-2c-.167 0-.315-.106-.368-.264l-.367-1.104c-.326-.977-1.236-1.632-2.265-1.632s-1.939.655-2.265 1.633l-.367 1.103c-.105.316-.63.315-.735.001l-.367-1.104c-.327-.978-1.237-1.633-2.266-1.633s-1.939.655-2.265 1.633l-.367 1.103c-.053.158-.201.264-.429.264-.159 0-.3-.096-.336-.179l-1.039-3.225c-.129-.402-.322-.771-.564-1.096v-3.5h-2v2.135c-.32-.088-.655-.135-1-.135-1.654 0-3 1.346-3 3zm3-1c.368 0 .714.114 1 .313v.687c0 .552-.449 1-1 1s-1-.448-1-1 .449-1 1-1z" fill="#000000" data-original="#000000" class=""></path><path d="m19 17h2v2h-2z" fill="#000000" data-original="#000000" class=""></path><path d="m23 17h14v2h-14z" fill="#000000" data-original="#000000" class=""></path><path d="m19 21h18v2h-18z" fill="#000000" data-original="#000000" class=""></path><path d="m19 25h4v2h-4z" fill="#000000" data-original="#000000" class=""></path><path d="m25 25h12v2h-12z" fill="#000000" data-original="#000000" class=""></path><path d="m19 29h18v2h-18z" fill="#000000" data-original="#000000" class=""></path><path d="m19 35h18v2h-18z" fill="#000000" data-original="#000000" class=""></path><path d="m19 39h18v2h-18z" fill="#000000" data-original="#000000" class=""></path></g></g></svg>