<svg xmlns="http://www.w3.org/2000/svg" viewBox="0 0 33.5 21.5">
  <g id="ab4f7ec9-acb0-47a3-98a0-d5b2eca07938" data-name="Layer 2">
    <g id="f4a6b574-32c1-4362-9e02-89757ed171bb" data-name="Layer 3">
      <g>
        <g>
          <path d="M15.8,20.8c-2.8,0-5.4-.2-7.4-.4s-3.6-.9-3.6-1.8V8.3a.6.6,0,0,1,.3-.6.6.6,0,0,1,.7-.1l10,3.8,10-3.8a.5.5,0,0,1,.6.1.6.6,0,0,1,.3.6V18.6c0,.9-1,1.4-3.6,1.8S18.5,20.8,15.8,20.8Z" fill="#42539a"/>
          <path d="M15.8,12.9h-.3L.5,7.1A.8.8,0,0,1,0,6.4a.7.7,0,0,1,.5-.6L15.5,0H16L31.1,5.8a.8.8,0,0,1,.4.6.8.8,0,0,1-.4.7L16,12.8Z" fill="#42539a"/>
          <path d="M30.8,12.2a.7.7,0,0,1-.7-.7V7.2H16.5a.8.8,0,0,1-.7-.8.8.8,0,0,1,.7-.7H30.8a.8.8,0,0,1,.7.7v5.1A.7.7,0,0,1,30.8,12.2Z" fill="#42539a"/>
          <path d="M30.8,21.5a2.7,2.7,0,0,1-2-.9,2.9,2.9,0,0,1-.7-2l.6-5.7a2.1,2.1,0,0,1,2.1-2.2A2.3,2.3,0,0,1,33,12.9l.5,5.7a2.9,2.9,0,0,1-.7,2A2.5,2.5,0,0,1,30.8,21.5Z" fill="#42539a"/>
        </g>
        <path d="M30.8,12.2a.7.7,0,0,0-.7.7h0l-.5,5.7a1,1,0,0,0,.3,1,1.5,1.5,0,0,0,.9.4,1.3,1.3,0,0,0,.9-.4,1,1,0,0,0,.3-1L31.5,13h0A.7.7,0,0,0,30.8,12.2Z" fill="#fcc336"/>
        <path d="M6.2,18.4c.8.4,4,.9,9.6.9s8.8-.5,9.5-.9V9.3L16,12.8h-.5L6.2,9.3Z" fill="#fff"/>
        <polygon points="2.7 6.4 15.8 11.4 28.8 6.4 15.8 1.5 2.7 6.4" fill="#fff"/>
        <path d="M8,17.1a1,1,0,0,1-.9-1V12.5a.9.9,0,0,1,.9-.9,1,1,0,0,1,1,.9v3.6A1.1,1.1,0,0,1,8,17.1Z" fill="#739bcd"/>
      </g>
    </g>
  </g>
</svg>
